  0
SECTION
  2
HEADER
  9
$ACADVER
  1
AC1009
  9
$INSBASE
 10
0.0
 20
0.0
 30
0.0
  9
$EXTMIN
 10
0.0
 20
0.0
 30
0.0
  9
$EXTMAX
 10
0.0
 20
0.0
 30
0.0
  0
ENDSEC
  0
SECTION
  2
TABLES
  0
TABLE
  2
VPORT
 70
0
  0
ENDTAB
  0
TABLE
  2
LTYPE
 70
1
  0
LTYPE
  2
CONTINUOUS
 70
0
  3
Solid line
 72
65
 73
0
 40
0.0
  0
ENDTAB
  0
TABLE
  2
LAYER
 70
1
  0
LAYER
  2
0
 70
64
 62
7
  6
continuous
  0
ENDTAB
  0
TABLE
  2
STYLE
 70
1
  0
STYLE
  2
STANDARD
 70
0
 40
0
 41
1.0
 50
0.0
 71
0
 42
1
 3
ARIAL.TTF
 4

  0
ENDTAB
  0
TABLE
  2
VIEW
 70
0
  0
ENDTAB
  0
ENDSEC
  0
SECTION
  2
BLOCKS
  0
BLOCK
  8
Body_Slices
  2
MYLAYER
 70
0
 10
0.0
 20
0.0
 30
0.0
  3
MYLAYER
  0
POLYLINE
  8
Body_Slices
 62
0
 70
1
 66
1
 10
0.0
 20
0.0
 30
0.0
  0
VERTEX
  8
Body_Slices
 10
-9.8
 20
21.5450913251
 30
0.0
  0
VERTEX
  8
Body_Slices
 10
-14.6274756
 20
20.31129303
 30
0.0
  0
VERTEX
  8
Body_Slices
 10
-19.2811631411
 20
18.5322092855
 30
0.0
  0
VERTEX
  8
Body_Slices
 10
-23.6595553102
 20
16.1587906621
 30
0.0
  0
VERTEX
  8
Body_Slices
 10
-27.6112591927
 20
13.1292911111
 30
0.0
  0
VERTEX
  8
Body_Slices
 10
-30.8959431146
 20
9.39241364747
 30
0.0
  0
VERTEX
  8
Body_Slices
 10
-33.160336932
 20
4.96949845496
 30
0.0
  0
VERTEX
  8
Body_Slices
 10
-33.9997945635
 20
0.0782160357392
 30
0.0
  0
VERTEX
  8
Body_Slices
 10
-33.2103240406
 20
-4.82109904667
 30
0.0
  0
VERTEX
  8
Body_Slices
 10
-30.9846719883
 20
-9.26352650974
 30
0.0
  0
VERTEX
  8
Body_Slices
 10
-27.7259581716
 20
-13.0230055615
 30
0.0
  0
VERTEX
  8
Body_Slices
 10
-23.7908589089
 20
-16.0741411846
 30
0.0
  0
VERTEX
  8
Body_Slices
 10
-19.421577014
 20
-18.4678877678
 30
0.0
  0
VERTEX
  8
Body_Slices
 10
-14.7733909673
 20
-20.2649914412
 30
0.0
  0
VERTEX
  8
Body_Slices
 10
-9.9486677098
 20
-21.515231673
 30
0.0
  0
VERTEX
  8
Body_Slices
 10
-5.01911095159
 20
-22.2534903622
 30
0.0
  0
VERTEX
  8
Body_Slices
 10
-0.0405475818533
 20
-22.4999840005
 30
0.0
  0
VERTEX
  8
Body_Slices
 10
4.93843139978
 20
-22.2613938262
 30
0.0
  0
VERTEX
  8
Body_Slices
 10
9.86921499802
 20
-21.5312506787
 30
0.0
  0
VERTEX
  8
Body_Slices
 10
14.6961670351
 20
-20.2895664162
 30
0.0
  0
VERTEX
  8
Body_Slices
 10
19.3479372181
 20
-18.5017071313
 30
0.0
  0
VERTEX
  8
Body_Slices
 10
23.7228055407
 20
-16.1181281258
 30
0.0
  0
VERTEX
  8
Body_Slices
 10
27.6666152358
 20
-13.0781584037
 30
0.0
  0
VERTEX
  8
Body_Slices
 10
30.9388598611
 20
-9.33034145162
 30
0.0
  0
VERTEX
  8
Body_Slices
 10
33.1849878364
 20
-4.89690603336
 30
0.0
  0
VERTEX
  8
Body_Slices
 10
34.0
 20
-2.69089403837e-16
 30
0.0
  0
VERTEX
  8
Body_Slices
 10
33.1816007488
 20
4.90694725101
 30
0.0
  0
VERTEX
  8
Body_Slices
 10
30.9268401067
 20
9.34777634639
 30
0.0
  0
VERTEX
  8
Body_Slices
 10
27.6431893641
 20
13.0998338827
 30
0.0
  0
VERTEX
  8
Body_Slices
 10
23.6869744298
 20
16.1411892835
 30
0.0
  0
VERTEX
  8
Body_Slices
 10
19.3009274432
 20
18.5231972496
 30
0.0
  0
VERTEX
  8
Body_Slices
 10
14.6378334612
 20
20.3080249109
 30
0.0
  0
VERTEX
  8
Body_Slices
 10
9.8
 20
21.5450913251
 30
0.0
  0
SEQEND
  8
Body_Slices
  0
CIRCLE
  8
Body_Slices
 62
0
 10
0.0
 20
-17.0
 30
0.0
 40
1.25
  0
POLYLINE
  8
Body_Slices
 62
0
 70
1
 66
1
 10
0.0
 20
0.0
 30
0.0
  0
VERTEX
  8
Body_Slices
 10
28.0
 20
-3.9349356512
 30
0.0
  0
VERTEX
  8
Body_Slices
 10
28.0
 20
-1.1649356512
 30
0.0
  0
VERTEX
  8
Body_Slices
 10
-28.0
 20
-1.1649356512
 30
0.0
  0
VERTEX
  8
Body_Slices
 10
-28.0
 20
-3.9349356512
 30
0.0
  0
SEQEND
  8
Body_Slices
  0
CIRCLE
  8
Body_Slices
 62
0
 10
-14.775
 20
14.4500643488
 30
0.0
 40
1.25
  0
CIRCLE
  8
Body_Slices
 62
0
 10
14.775
 20
14.4500643488
 30
0.0
 40
1.25
  0
ENDBLK
  0
BLOCK
  8
Body_Slices
  2
MYLAYER002
 70
0
 10
0.0
 20
0.0
 30
0.0
  3
MYLAYER002
  0
POLYLINE
  8
Body_Slices
 62
0
 70
1
 66
1
 10
0.0
 20
0.0
 30
0.0
  0
VERTEX
  8
Body_Slices
 10
136.199378898
 20
21.5450913251
 30
0.0
  0
VERTEX
  8
Body_Slices
 10
155.799378898
 20
21.5450913251
 30
0.0
  0
VERTEX
  8
Body_Slices
 10
160.637212359
 20
20.3080249109
 30
0.0
  0
VERTEX
  8
Body_Slices
 10
165.300306341
 20
18.5231972496
 30
0.0
  0
VERTEX
  8
Body_Slices
 10
169.686353328
 20
16.1411892835
 30
0.0
  0
VERTEX
  8
Body_Slices
 10
173.642568262
 20
13.0998338828
 30
0.0
  0
VERTEX
  8
Body_Slices
 10
176.926219005
 20
9.34777634642
 30
0.0
  0
VERTEX
  8
Body_Slices
 10
179.180979647
 20
4.90694725103
 30
0.0
  0
VERTEX
  8
Body_Slices
 10
179.999378898
 20
-1.06581410364e-14
 30
0.0
  0
VERTEX
  8
Body_Slices
 10
179.184366734
 20
-4.89690603337
 30
0.0
  0
VERTEX
  8
Body_Slices
 10
176.938238759
 20
-9.33034145164
 30
0.0
  0
VERTEX
  8
Body_Slices
 10
173.665994134
 20
-13.0781584037
 30
0.0
  0
VERTEX
  8
Body_Slices
 10
169.722184439
 20
-16.1181281258
 30
0.0
  0
VERTEX
  8
Body_Slices
 10
165.347316116
 20
-18.5017071313
 30
0.0
  0
VERTEX
  8
Body_Slices
 10
160.695545933
 20
-20.2895664162
 30
0.0
  0
VERTEX
  8
Body_Slices
 10
155.868593896
 20
-21.5312506787
 30
0.0
  0
VERTEX
  8
Body_Slices
 10
150.937810298
 20
-22.2613938263
 30
0.0
  0
VERTEX
  8
Body_Slices
 10
145.958831316
 20
-22.4999840005
 30
0.0
  0
VERTEX
  8
Body_Slices
 10
140.980267946
 20
-22.2534903622
 30
0.0
  0
VERTEX
  8
Body_Slices
 10
136.050711188
 20
-21.515231673
 30
0.0
  0
VERTEX
  8
Body_Slices
 10
131.225987931
 20
-20.2649914412
 30
0.0
  0
VERTEX
  8
Body_Slices
 10
126.577801884
 20
-18.4678877677
 30
0.0
  0
VERTEX
  8
Body_Slices
 10
122.208519989
 20
-16.0741411845
 30
0.0
  0
VERTEX
  8
Body_Slices
 10
118.273420726
 20
-13.0230055615
 30
0.0
  0
VERTEX
  8
Body_Slices
 10
115.01470691
 20
-9.2635265097
 30
0.0
  0
VERTEX
  8
Body_Slices
 10
112.789054857
 20
-4.82109904662
 30
0.0
  0
VERTEX
  8
Body_Slices
 10
111.999584334
 20
0.0782160357923
 30
0.0
  0
VERTEX
  8
Body_Slices
 10
112.839041966
 20
4.96949845501
 30
0.0
  0
VERTEX
  8
Body_Slices
 10
115.103435783
 20
9.3924136475
 30
0.0
  0
VERTEX
  8
Body_Slices
 10
118.388119705
 20
13.1292911111
 30
0.0
  0
VERTEX
  8
Body_Slices
 10
122.339823588
 20
16.1587906621
 30
0.0
  0
VERTEX
  8
Body_Slices
 10
126.718215757
 20
18.5322092855
 30
0.0
  0
VERTEX
  8
Body_Slices
 10
131.371903298
 20
20.31129303
 30
0.0
  0
SEQEND
  8
Body_Slices
  0
CIRCLE
  8
Body_Slices
 62
0
 10
160.774378898
 20
14.4500643488
 30
0.0
 40
1.25
  0
CIRCLE
  8
Body_Slices
 62
0
 10
145.999378898
 20
-17.0
 30
0.0
 40
1.25
  0
CIRCLE
  8
Body_Slices
 62
0
 10
131.224378898
 20
14.4500643488
 30
0.0
 40
1.25
  0
ENDBLK
  0
BLOCK
  8
Body_Slices
  2
MYLAYER001
 70
0
 10
0.0
 20
0.0
 30
0.0
  3
MYLAYER001
  0
POLYLINE
  8
Body_Slices
 62
0
 70
1
 66
1
 10
0.0
 20
0.0
 30
0.0
  0
VERTEX
  8
Body_Slices
 10
63.199689449
 20
21.5450913251
 30
0.0
  0
VERTEX
  8
Body_Slices
 10
63.224689449
 20
21.5450913251
 30
0.0
  0
VERTEX
  8
Body_Slices
 10
63.224689449
 20
3.4500643488
 30
0.0
  0
VERTEX
  8
Body_Slices
 10
44.499689449
 20
3.4500643488
 30
0.0
  0
VERTEX
  8
Body_Slices
 10
44.499689449
 20
-8.5499356512
 30
0.0
  0
VERTEX
  8
Body_Slices
 10
101.499689449
 20
-8.5499356512
 30
0.0
  0
VERTEX
  8
Body_Slices
 10
101.499689449
 20
3.4500643488
 30
0.0
  0
VERTEX
  8
Body_Slices
 10
82.774689449
 20
3.4500643488
 30
0.0
  0
VERTEX
  8
Body_Slices
 10
82.774689449
 20
21.5450913251
 30
0.0
  0
VERTEX
  8
Body_Slices
 10
82.799689449
 20
21.5450913251
 30
0.0
  0
VERTEX
  8
Body_Slices
 10
87.6375229102
 20
20.3080249109
 30
0.0
  0
VERTEX
  8
Body_Slices
 10
92.3006168922
 20
18.5231972496
 30
0.0
  0
VERTEX
  8
Body_Slices
 10
96.6866638788
 20
16.1411892835
 30
0.0
  0
VERTEX
  8
Body_Slices
 10
100.642878813
 20
13.0998338827
 30
0.0
  0
VERTEX
  8
Body_Slices
 10
103.926529556
 20
9.3477763464
 30
0.0
  0
VERTEX
  8
Body_Slices
 10
106.181290198
 20
4.90694725102
 30
0.0
  0
VERTEX
  8
Body_Slices
 10
106.999689449
 20
-7.1054273576e-15
 30
0.0
  0
VERTEX
  8
Body_Slices
 10
106.184677285
 20
-4.89690603338
 30
0.0
  0
VERTEX
  8
Body_Slices
 10
103.93854931
 20
-9.33034145164
 30
0.0
  0
VERTEX
  8
Body_Slices
 10
100.666304685
 20
-13.0781584037
 30
0.0
  0
VERTEX
  8
Body_Slices
 10
96.7224949897
 20
-16.1181281258
 30
0.0
  0
VERTEX
  8
Body_Slices
 10
92.347626667
 20
-18.5017071313
 30
0.0
  0
VERTEX
  8
Body_Slices
 10
87.6958564841
 20
-20.2895664162
 30
0.0
  0
VERTEX
  8
Body_Slices
 10
82.868904447
 20
-21.5312506787
 30
0.0
  0
VERTEX
  8
Body_Slices
 10
77.9381208487
 20
-22.2613938262
 30
0.0
  0
VERTEX
  8
Body_Slices
 10
72.9591418671
 20
-22.4999840005
 30
0.0
  0
VERTEX
  8
Body_Slices
 10
67.9805784974
 20
-22.2534903622
 30
0.0
  0
VERTEX
  8
Body_Slices
 10
63.0510217392
 20
-21.515231673
 30
0.0
  0
VERTEX
  8
Body_Slices
 10
58.2262984817
 20
-20.2649914413
 30
0.0
  0
VERTEX
  8
Body_Slices
 10
53.578112435
 20
-18.4678877678
 30
0.0
  0
VERTEX
  8
Body_Slices
 10
49.2088305401
 20
-16.0741411846
 30
0.0
  0
VERTEX
  8
Body_Slices
 10
45.2737312774
 20
-13.0230055616
 30
0.0
  0
VERTEX
  8
Body_Slices
 10
42.0150174607
 20
-9.26352650978
 30
0.0
  0
VERTEX
  8
Body_Slices
 10
39.7893654084
 20
-4.82109904672
 30
0.0
  0
VERTEX
  8
Body_Slices
 10
38.9998948854
 20
0.0782160356876
 30
0.0
  0
VERTEX
  8
Body_Slices
 10
39.839352517
 20
4.96949845491
 30
0.0
  0
VERTEX
  8
Body_Slices
 10
42.1037463343
 20
9.39241364741
 30
0.0
  0
VERTEX
  8
Body_Slices
 10
45.3884302562
 20
13.1292911111
 30
0.0
  0
VERTEX
  8
Body_Slices
 10
49.3401341387
 20
16.158790662
 30
0.0
  0
VERTEX
  8
Body_Slices
 10
53.7185263079
 20
18.5322092855
 30
0.0
  0
VERTEX
  8
Body_Slices
 10
58.372213849
 20
20.31129303
 30
0.0
  0
SEQEND
  8
Body_Slices
  0
CIRCLE
  8
Body_Slices
 62
0
 10
87.774689449
 20
14.4500643488
 30
0.0
 40
1.25
  0
CIRCLE
  8
Body_Slices
 62
0
 10
72.999689449
 20
-17.0
 30
0.0
 40
1.25
  0
CIRCLE
  8
Body_Slices
 62
0
 10
58.224689449
 20
14.4500643488
 30
0.0
 40
1.25
  0
ENDBLK
  0
ENDSEC
  0
SECTION
  2
ENTITIES
  0
INSERT
  2
MYLAYER
  8
Body_Slices
 62
0
 10
0.0
 20
0.0
 30
0.0
  0
INSERT
  2
MYLAYER002
  8
Body_Slices
 62
0
 10
0.0
 20
0.0
 30
0.0
  0
INSERT
  2
MYLAYER001
  8
Body_Slices
 62
0
 10
0.0
 20
0.0
 30
0.0
  0
ENDSEC
  0
EOF
