  0
SECTION
  2
HEADER
  9
$ACADVER
  1
AC1009
  9
$INSBASE
 10
0.0
 20
0.0
 30
0.0
  9
$EXTMIN
 10
0.0
 20
0.0
 30
0.0
  9
$EXTMAX
 10
0.0
 20
0.0
 30
0.0
  0
ENDSEC
  0
SECTION
  2
TABLES
  0
TABLE
  2
VPORT
 70
0
  0
ENDTAB
  0
TABLE
  2
LTYPE
 70
1
  0
LTYPE
  2
CONTINUOUS
 70
0
  3
Solid line
 72
65
 73
0
 40
0.0
  0
ENDTAB
  0
TABLE
  2
LAYER
 70
1
  0
LAYER
  2
0
 70
64
 62
7
  6
continuous
  0
ENDTAB
  0
TABLE
  2
STYLE
 70
1
  0
STYLE
  2
STANDARD
 70
0
 40
0
 41
1.0
 50
0.0
 71
0
 42
1
 3
ARIAL.TTF
 4

  0
ENDTAB
  0
TABLE
  2
VIEW
 70
0
  0
ENDTAB
  0
ENDSEC
  0
SECTION
  2
BLOCKS
  0
BLOCK
  8
Body_Slices
  2
MYLAYER
 70
0
 10
0.0
 20
0.0
 30
0.0
  3
MYLAYER
  0
POLYLINE
  8
Body_Slices
 62
0
 70
1
 66
1
 10
0.0
 20
0.0
 30
0.0
  0
VERTEX
  8
Body_Slices
 10
-9.8
 20
21.5450913251
 30
0.0
  0
VERTEX
  8
Body_Slices
 10
-14.6274756
 20
20.3112930299
 30
0.0
  0
VERTEX
  8
Body_Slices
 10
-19.2811631411
 20
18.5322092855
 30
0.0
  0
VERTEX
  8
Body_Slices
 10
-23.6595553103
 20
16.158790662
 30
0.0
  0
VERTEX
  8
Body_Slices
 10
-27.6112591928
 20
13.129291111
 30
0.0
  0
VERTEX
  8
Body_Slices
 10
-30.8959431147
 20
9.39241364734
 30
0.0
  0
VERTEX
  8
Body_Slices
 10
-33.1603369321
 20
4.9694984548
 30
0.0
  0
VERTEX
  8
Body_Slices
 10
-33.9997945635
 20
0.0782160355675
 30
0.0
  0
VERTEX
  8
Body_Slices
 10
-33.2103240405
 20
-4.82109904683
 30
0.0
  0
VERTEX
  8
Body_Slices
 10
-30.9846719882
 20
-9.26352650987
 30
0.0
  0
VERTEX
  8
Body_Slices
 10
-27.7259581715
 20
-13.0230055616
 30
0.0
  0
VERTEX
  8
Body_Slices
 10
-23.7908589088
 20
-16.0741411846
 30
0.0
  0
VERTEX
  8
Body_Slices
 10
-19.4215770139
 20
-18.4678877678
 30
0.0
  0
VERTEX
  8
Body_Slices
 10
-14.7733909672
 20
-20.2649914413
 30
0.0
  0
VERTEX
  8
Body_Slices
 10
-9.94866770968
 20
-21.515231673
 30
0.0
  0
VERTEX
  8
Body_Slices
 10
-5.01911095147
 20
-22.2534903622
 30
0.0
  0
VERTEX
  8
Body_Slices
 10
-0.0405475817208
 20
-22.4999840005
 30
0.0
  0
VERTEX
  8
Body_Slices
 10
4.93843139989
 20
-22.2613938262
 30
0.0
  0
VERTEX
  8
Body_Slices
 10
9.8692149981
 20
-21.5312506787
 30
0.0
  0
VERTEX
  8
Body_Slices
 10
14.6961670352
 20
-20.2895664162
 30
0.0
  0
VERTEX
  8
Body_Slices
 10
19.3479372182
 20
-18.5017071313
 30
0.0
  0
VERTEX
  8
Body_Slices
 10
23.7228055408
 20
-16.1181281257
 30
0.0
  0
VERTEX
  8
Body_Slices
 10
27.6666152358
 20
-13.0781584037
 30
0.0
  0
VERTEX
  8
Body_Slices
 10
30.9388598611
 20
-9.33034145161
 30
0.0
  0
VERTEX
  8
Body_Slices
 10
33.1849878364
 20
-4.89690603336
 30
0.0
  0
VERTEX
  8
Body_Slices
 10
34.0
 20
-2.69089403837e-16
 30
0.0
  0
VERTEX
  8
Body_Slices
 10
33.1816007488
 20
4.90694725103
 30
0.0
  0
VERTEX
  8
Body_Slices
 10
30.9268401067
 20
9.34777634642
 30
0.0
  0
VERTEX
  8
Body_Slices
 10
27.6431893641
 20
13.0998338828
 30
0.0
  0
VERTEX
  8
Body_Slices
 10
23.6869744298
 20
16.1411892835
 30
0.0
  0
VERTEX
  8
Body_Slices
 10
19.3009274432
 20
18.5231972496
 30
0.0
  0
VERTEX
  8
Body_Slices
 10
14.6378334612
 20
20.3080249109
 30
0.0
  0
VERTEX
  8
Body_Slices
 10
9.8
 20
21.5450913251
 30
0.0
  0
SEQEND
  8
Body_Slices
  0
CIRCLE
  8
Body_Slices
 62
0
 10
-14.775
 20
14.4500643488
 30
0.0
 40
1.34
  0
CIRCLE
  8
Body_Slices
 62
0
 10
14.775
 20
14.4500643488
 30
0.0
 40
1.34
  0
POLYLINE
  8
Body_Slices
 62
0
 70
1
 66
1
 10
0.0
 20
0.0
 30
0.0
  0
VERTEX
  8
Body_Slices
 10
28.0
 20
-4.0499356512
 30
0.0
  0
VERTEX
  8
Body_Slices
 10
28.0
 20
-1.0499356512
 30
0.0
  0
VERTEX
  8
Body_Slices
 10
-28.0
 20
-1.0499356512
 30
0.0
  0
VERTEX
  8
Body_Slices
 10
-28.0
 20
-4.0499356512
 30
0.0
  0
SEQEND
  8
Body_Slices
  0
CIRCLE
  8
Body_Slices
 62
0
 10
0.0
 20
-17.0
 30
0.0
 40
1.34
  0
ENDBLK
  0
BLOCK
  8
Body_Slices
  2
MYLAYER001
 70
0
 10
0.0
 20
0.0
 30
0.0
  3
MYLAYER001
  0
POLYLINE
  8
Body_Slices
 62
0
 70
1
 66
1
 10
0.0
 20
0.0
 30
0.0
  0
VERTEX
  8
Body_Slices
 10
63.1998317636
 20
21.5450913251
 30
0.0
  0
VERTEX
  8
Body_Slices
 10
63.2248317636
 20
21.5450913251
 30
0.0
  0
VERTEX
  8
Body_Slices
 10
63.2248317636
 20
3.4500643488
 30
0.0
  0
VERTEX
  8
Body_Slices
 10
44.4998317636
 20
3.4500643488
 30
0.0
  0
VERTEX
  8
Body_Slices
 10
44.4998317636
 20
-8.5499356512
 30
0.0
  0
VERTEX
  8
Body_Slices
 10
101.499831764
 20
-8.5499356512
 30
0.0
  0
VERTEX
  8
Body_Slices
 10
101.499831764
 20
3.4500643488
 30
0.0
  0
VERTEX
  8
Body_Slices
 10
82.7748317636
 20
3.4500643488
 30
0.0
  0
VERTEX
  8
Body_Slices
 10
82.7748317636
 20
21.5450913251
 30
0.0
  0
VERTEX
  8
Body_Slices
 10
82.7998317636
 20
21.5450913251
 30
0.0
  0
VERTEX
  8
Body_Slices
 10
87.6376652248
 20
20.3080249109
 30
0.0
  0
VERTEX
  8
Body_Slices
 10
92.3007592068
 20
18.5231972496
 30
0.0
  0
VERTEX
  8
Body_Slices
 10
96.6868061934
 20
16.1411892835
 30
0.0
  0
VERTEX
  8
Body_Slices
 10
100.643021128
 20
13.0998338828
 30
0.0
  0
VERTEX
  8
Body_Slices
 10
103.92667187
 20
9.34777634642
 30
0.0
  0
VERTEX
  8
Body_Slices
 10
106.181432512
 20
4.90694725103
 30
0.0
  0
VERTEX
  8
Body_Slices
 10
106.999831764
 20
-1.06581410364e-14
 30
0.0
  0
VERTEX
  8
Body_Slices
 10
106.1848196
 20
-4.89690603338
 30
0.0
  0
VERTEX
  8
Body_Slices
 10
103.938691625
 20
-9.33034145165
 30
0.0
  0
VERTEX
  8
Body_Slices
 10
100.666446999
 20
-13.0781584037
 30
0.0
  0
VERTEX
  8
Body_Slices
 10
96.7226373043
 20
-16.1181281258
 30
0.0
  0
VERTEX
  8
Body_Slices
 10
92.3477689816
 20
-18.5017071313
 30
0.0
  0
VERTEX
  8
Body_Slices
 10
87.6959987986
 20
-20.2895664162
 30
0.0
  0
VERTEX
  8
Body_Slices
 10
82.8690467615
 20
-21.5312506787
 30
0.0
  0
VERTEX
  8
Body_Slices
 10
77.9382631633
 20
-22.2613938263
 30
0.0
  0
VERTEX
  8
Body_Slices
 10
72.9592841817
 20
-22.4999840005
 30
0.0
  0
VERTEX
  8
Body_Slices
 10
67.980720812
 20
-22.2534903622
 30
0.0
  0
VERTEX
  8
Body_Slices
 10
63.0511640537
 20
-21.515231673
 30
0.0
  0
VERTEX
  8
Body_Slices
 10
58.2264407963
 20
-20.2649914412
 30
0.0
  0
VERTEX
  8
Body_Slices
 10
53.5782547496
 20
-18.4678877678
 30
0.0
  0
VERTEX
  8
Body_Slices
 10
49.2089728547
 20
-16.0741411846
 30
0.0
  0
VERTEX
  8
Body_Slices
 10
45.273873592
 20
-13.0230055615
 30
0.0
  0
VERTEX
  8
Body_Slices
 10
42.0151597753
 20
-9.26352650974
 30
0.0
  0
VERTEX
  8
Body_Slices
 10
39.789507723
 20
-4.82109904667
 30
0.0
  0
VERTEX
  8
Body_Slices
 10
39.0000372001
 20
0.0782160357321
 30
0.0
  0
VERTEX
  8
Body_Slices
 10
39.8394948316
 20
4.96949845495
 30
0.0
  0
VERTEX
  8
Body_Slices
 10
42.1038886489
 20
9.39241364745
 30
0.0
  0
VERTEX
  8
Body_Slices
 10
45.3885725709
 20
13.1292911111
 30
0.0
  0
VERTEX
  8
Body_Slices
 10
49.3402764533
 20
16.158790662
 30
0.0
  0
VERTEX
  8
Body_Slices
 10
53.7186686225
 20
18.5322092855
 30
0.0
  0
VERTEX
  8
Body_Slices
 10
58.3723561636
 20
20.31129303
 30
0.0
  0
SEQEND
  8
Body_Slices
  0
CIRCLE
  8
Body_Slices
 62
0
 10
87.7748317636
 20
14.4500643488
 30
0.0
 40
1.34
  0
CIRCLE
  8
Body_Slices
 62
0
 10
58.2248317636
 20
14.4500643488
 30
0.0
 40
1.34
  0
CIRCLE
  8
Body_Slices
 62
0
 10
72.9998317636
 20
-17.0
 30
0.0
 40
1.34
  0
ENDBLK
  0
BLOCK
  8
Body_Slices
  2
MYLAYER002
 70
0
 10
0.0
 20
0.0
 30
0.0
  3
MYLAYER002
  0
POLYLINE
  8
Body_Slices
 62
0
 70
1
 66
1
 10
0.0
 20
0.0
 30
0.0
  0
VERTEX
  8
Body_Slices
 10
136.199663527
 20
21.5450913251
 30
0.0
  0
VERTEX
  8
Body_Slices
 10
155.799663527
 20
21.5450913251
 30
0.0
  0
VERTEX
  8
Body_Slices
 10
160.637496988
 20
20.3080249109
 30
0.0
  0
VERTEX
  8
Body_Slices
 10
165.30059097
 20
18.5231972496
 30
0.0
  0
VERTEX
  8
Body_Slices
 10
169.686637957
 20
16.1411892835
 30
0.0
  0
VERTEX
  8
Body_Slices
 10
173.642852891
 20
13.0998338827
 30
0.0
  0
VERTEX
  8
Body_Slices
 10
176.926503634
 20
9.34777634641
 30
0.0
  0
VERTEX
  8
Body_Slices
 10
179.181264276
 20
4.90694725102
 30
0.0
  0
VERTEX
  8
Body_Slices
 10
179.999663527
 20
-1.06581410364e-14
 30
0.0
  0
VERTEX
  8
Body_Slices
 10
179.184651364
 20
-4.89690603341
 30
0.0
  0
VERTEX
  8
Body_Slices
 10
176.938523388
 20
-9.33034145168
 30
0.0
  0
VERTEX
  8
Body_Slices
 10
173.666278763
 20
-13.0781584037
 30
0.0
  0
VERTEX
  8
Body_Slices
 10
169.722469068
 20
-16.1181281258
 30
0.0
  0
VERTEX
  8
Body_Slices
 10
165.347600745
 20
-18.5017071314
 30
0.0
  0
VERTEX
  8
Body_Slices
 10
160.695830562
 20
-20.2895664162
 30
0.0
  0
VERTEX
  8
Body_Slices
 10
155.868878525
 20
-21.5312506787
 30
0.0
  0
VERTEX
  8
Body_Slices
 10
150.938094927
 20
-22.2613938263
 30
0.0
  0
VERTEX
  8
Body_Slices
 10
145.959115945
 20
-22.4999840005
 30
0.0
  0
VERTEX
  8
Body_Slices
 10
140.980552576
 20
-22.2534903622
 30
0.0
  0
VERTEX
  8
Body_Slices
 10
136.050995817
 20
-21.515231673
 30
0.0
  0
VERTEX
  8
Body_Slices
 10
131.22627256
 20
-20.2649914412
 30
0.0
  0
VERTEX
  8
Body_Slices
 10
126.578086513
 20
-18.4678877678
 30
0.0
  0
VERTEX
  8
Body_Slices
 10
122.208804618
 20
-16.0741411846
 30
0.0
  0
VERTEX
  8
Body_Slices
 10
118.273705356
 20
-13.0230055615
 30
0.0
  0
VERTEX
  8
Body_Slices
 10
115.014991539
 20
-9.26352650974
 30
0.0
  0
VERTEX
  8
Body_Slices
 10
112.789339487
 20
-4.82109904668
 30
0.0
  0
VERTEX
  8
Body_Slices
 10
111.999868964
 20
0.0782160357247
 30
0.0
  0
VERTEX
  8
Body_Slices
 10
112.839326595
 20
4.96949845494
 30
0.0
  0
VERTEX
  8
Body_Slices
 10
115.103720413
 20
9.39241364744
 30
0.0
  0
VERTEX
  8
Body_Slices
 10
118.388404334
 20
13.1292911111
 30
0.0
  0
VERTEX
  8
Body_Slices
 10
122.340108217
 20
16.158790662
 30
0.0
  0
VERTEX
  8
Body_Slices
 10
126.718500386
 20
18.5322092855
 30
0.0
  0
VERTEX
  8
Body_Slices
 10
131.372187927
 20
20.31129303
 30
0.0
  0
SEQEND
  8
Body_Slices
  0
CIRCLE
  8
Body_Slices
 62
0
 10
160.774663527
 20
14.4500643488
 30
0.0
 40
1.34
  0
CIRCLE
  8
Body_Slices
 62
0
 10
131.224663527
 20
14.4500643488
 30
0.0
 40
1.34
  0
CIRCLE
  8
Body_Slices
 62
0
 10
145.999663527
 20
-17.0
 30
0.0
 40
1.34
  0
ENDBLK
  0
ENDSEC
  0
SECTION
  2
ENTITIES
  0
INSERT
  2
MYLAYER
  8
Body_Slices
 62
0
 10
0.0
 20
0.0
 30
0.0
  0
INSERT
  2
MYLAYER001
  8
Body_Slices
 62
0
 10
0.0
 20
0.0
 30
0.0
  0
INSERT
  2
MYLAYER002
  8
Body_Slices
 62
0
 10
0.0
 20
0.0
 30
0.0
  0
ENDSEC
  0
EOF
