  0
SECTION
  2
HEADER
  9
$ACADVER
  1
AC1009
  9
$INSBASE
 10
0.0
 20
0.0
 30
0.0
  9
$EXTMIN
 10
0.0
 20
0.0
 30
0.0
  9
$EXTMAX
 10
0.0
 20
0.0
 30
0.0
  0
ENDSEC
  0
SECTION
  2
TABLES
  0
TABLE
  2
VPORT
 70
0
  0
ENDTAB
  0
TABLE
  2
LTYPE
 70
1
  0
LTYPE
  2
CONTINUOUS
 70
0
  3
Solid line
 72
65
 73
0
 40
0.0
  0
ENDTAB
  0
TABLE
  2
LAYER
 70
1
  0
LAYER
  2
0
 70
64
 62
7
  6
continuous
  0
ENDTAB
  0
TABLE
  2
STYLE
 70
1
  0
STYLE
  2
STANDARD
 70
0
 40
0
 41
1.0
 50
0.0
 71
0
 42
1
 3
ARIAL.TTF
 4

  0
ENDTAB
  0
TABLE
  2
VIEW
 70
0
  0
ENDTAB
  0
ENDSEC
  0
SECTION
  2
BLOCKS
  0
BLOCK
  8
Body_Slices
  2
MYLAYER
 70
0
 10
0.0
 20
0.0
 30
0.0
  3
MYLAYER
  0
POLYLINE
  8
Body_Slices
 62
0
 70
1
 66
1
 10
0.0
 20
0.0
 30
0.0
  0
VERTEX
  8
Body_Slices
 10
-9.8
 20
21.5450913251
 30
0.0
  0
VERTEX
  8
Body_Slices
 10
-14.6274756
 20
20.3112930299
 30
0.0
  0
VERTEX
  8
Body_Slices
 10
-19.2811631411
 20
18.5322092855
 30
0.0
  0
VERTEX
  8
Body_Slices
 10
-23.6595553103
 20
16.158790662
 30
0.0
  0
VERTEX
  8
Body_Slices
 10
-27.6112591928
 20
13.129291111
 30
0.0
  0
VERTEX
  8
Body_Slices
 10
-30.8959431147
 20
9.39241364734
 30
0.0
  0
VERTEX
  8
Body_Slices
 10
-33.1603369321
 20
4.9694984548
 30
0.0
  0
VERTEX
  8
Body_Slices
 10
-33.9997945635
 20
0.0782160355632
 30
0.0
  0
VERTEX
  8
Body_Slices
 10
-33.2103240405
 20
-4.82109904683
 30
0.0
  0
VERTEX
  8
Body_Slices
 10
-30.9846719882
 20
-9.26352650987
 30
0.0
  0
VERTEX
  8
Body_Slices
 10
-27.7259581715
 20
-13.0230055616
 30
0.0
  0
VERTEX
  8
Body_Slices
 10
-23.7908589088
 20
-16.0741411846
 30
0.0
  0
VERTEX
  8
Body_Slices
 10
-19.4215770139
 20
-18.4678877678
 30
0.0
  0
VERTEX
  8
Body_Slices
 10
-14.7733909672
 20
-20.2649914413
 30
0.0
  0
VERTEX
  8
Body_Slices
 10
-9.9486677097
 20
-21.515231673
 30
0.0
  0
VERTEX
  8
Body_Slices
 10
-5.01911095148
 20
-22.2534903622
 30
0.0
  0
VERTEX
  8
Body_Slices
 10
-0.0405475817325
 20
-22.4999840005
 30
0.0
  0
VERTEX
  8
Body_Slices
 10
4.9384313999
 20
-22.2613938262
 30
0.0
  0
VERTEX
  8
Body_Slices
 10
9.86921499813
 20
-21.5312506787
 30
0.0
  0
VERTEX
  8
Body_Slices
 10
14.6961670352
 20
-20.2895664162
 30
0.0
  0
VERTEX
  8
Body_Slices
 10
19.3479372182
 20
-18.5017071313
 30
0.0
  0
VERTEX
  8
Body_Slices
 10
23.7228055408
 20
-16.1181281257
 30
0.0
  0
VERTEX
  8
Body_Slices
 10
27.6666152358
 20
-13.0781584036
 30
0.0
  0
VERTEX
  8
Body_Slices
 10
30.9388598611
 20
-9.33034145159
 30
0.0
  0
VERTEX
  8
Body_Slices
 10
33.1849878364
 20
-4.89690603335
 30
0.0
  0
VERTEX
  8
Body_Slices
 10
34.0
 20
-1.76726991655e-16
 30
0.0
  0
VERTEX
  8
Body_Slices
 10
33.1816007488
 20
4.90694725104
 30
0.0
  0
VERTEX
  8
Body_Slices
 10
30.9268401067
 20
9.34777634644
 30
0.0
  0
VERTEX
  8
Body_Slices
 10
27.6431893641
 20
13.0998338828
 30
0.0
  0
VERTEX
  8
Body_Slices
 10
23.6869744297
 20
16.1411892835
 30
0.0
  0
VERTEX
  8
Body_Slices
 10
19.3009274432
 20
18.5231972496
 30
0.0
  0
VERTEX
  8
Body_Slices
 10
14.6378334612
 20
20.3080249109
 30
0.0
  0
VERTEX
  8
Body_Slices
 10
9.8
 20
21.5450913251
 30
0.0
  0
SEQEND
  8
Body_Slices
  0
CIRCLE
  8
Body_Slices
 62
0
 10
-14.775
 20
14.4500643488
 30
0.0
 40
1.34
  0
CIRCLE
  8
Body_Slices
 62
0
 10
14.775
 20
14.4500643488
 30
0.0
 40
1.34
  0
POLYLINE
  8
Body_Slices
 62
0
 70
1
 66
1
 10
0.0
 20
0.0
 30
0.0
  0
VERTEX
  8
Body_Slices
 10
28.0
 20
-4.0499356512
 30
0.0
  0
VERTEX
  8
Body_Slices
 10
28.0
 20
-1.0499356512
 30
0.0
  0
VERTEX
  8
Body_Slices
 10
-28.0
 20
-1.0499356512
 30
0.0
  0
VERTEX
  8
Body_Slices
 10
-28.0
 20
-4.0499356512
 30
0.0
  0
SEQEND
  8
Body_Slices
  0
CIRCLE
  8
Body_Slices
 62
0
 10
0.0
 20
-17.0
 30
0.0
 40
1.34
  0
ENDBLK
  0
BLOCK
  8
Body_Slices
  2
MYLAYER002
 70
0
 10
0.0
 20
0.0
 30
0.0
  3
MYLAYER002
  0
POLYLINE
  8
Body_Slices
 62
0
 70
1
 66
1
 10
0.0
 20
0.0
 30
0.0
  0
VERTEX
  8
Body_Slices
 10
136.189904073
 20
21.5450913251
 30
0.0
  0
VERTEX
  8
Body_Slices
 10
155.789904073
 20
21.5450913251
 30
0.0
  0
VERTEX
  8
Body_Slices
 10
160.627737534
 20
20.3080249109
 30
0.0
  0
VERTEX
  8
Body_Slices
 10
165.290831516
 20
18.5231972496
 30
0.0
  0
VERTEX
  8
Body_Slices
 10
169.676878502
 20
16.1411892835
 30
0.0
  0
VERTEX
  8
Body_Slices
 10
173.633093437
 20
13.0998338827
 30
0.0
  0
VERTEX
  8
Body_Slices
 10
176.916744179
 20
9.34777634641
 30
0.0
  0
VERTEX
  8
Body_Slices
 10
179.171504821
 20
4.90694725103
 30
0.0
  0
VERTEX
  8
Body_Slices
 10
179.989904073
 20
-1.06581410364e-14
 30
0.0
  0
VERTEX
  8
Body_Slices
 10
179.174891909
 20
-4.8969060334
 30
0.0
  0
VERTEX
  8
Body_Slices
 10
176.928763934
 20
-9.33034145167
 30
0.0
  0
VERTEX
  8
Body_Slices
 10
173.656519308
 20
-13.0781584037
 30
0.0
  0
VERTEX
  8
Body_Slices
 10
169.712709613
 20
-16.1181281258
 30
0.0
  0
VERTEX
  8
Body_Slices
 10
165.337841291
 20
-18.5017071313
 30
0.0
  0
VERTEX
  8
Body_Slices
 10
160.686071108
 20
-20.2895664162
 30
0.0
  0
VERTEX
  8
Body_Slices
 10
155.859119071
 20
-21.5312506787
 30
0.0
  0
VERTEX
  8
Body_Slices
 10
150.928335472
 20
-22.2613938263
 30
0.0
  0
VERTEX
  8
Body_Slices
 10
145.949356491
 20
-22.4999840005
 30
0.0
  0
VERTEX
  8
Body_Slices
 10
140.970793121
 20
-22.2534903622
 30
0.0
  0
VERTEX
  8
Body_Slices
 10
136.041236363
 20
-21.515231673
 30
0.0
  0
VERTEX
  8
Body_Slices
 10
131.216513105
 20
-20.2649914412
 30
0.0
  0
VERTEX
  8
Body_Slices
 10
126.568327059
 20
-18.4678877678
 30
0.0
  0
VERTEX
  8
Body_Slices
 10
122.199045164
 20
-16.0741411846
 30
0.0
  0
VERTEX
  8
Body_Slices
 10
118.263945901
 20
-13.0230055615
 30
0.0
  0
VERTEX
  8
Body_Slices
 10
115.005232084
 20
-9.26352650977
 30
0.0
  0
VERTEX
  8
Body_Slices
 10
112.779580032
 20
-4.82109904671
 30
0.0
  0
VERTEX
  8
Body_Slices
 10
111.990109509
 20
0.0782160356922
 30
0.0
  0
VERTEX
  8
Body_Slices
 10
112.829567141
 20
4.96949845491
 30
0.0
  0
VERTEX
  8
Body_Slices
 10
115.093960958
 20
9.39241364742
 30
0.0
  0
VERTEX
  8
Body_Slices
 10
118.37864488
 20
13.1292911111
 30
0.0
  0
VERTEX
  8
Body_Slices
 10
122.330348762
 20
16.158790662
 30
0.0
  0
VERTEX
  8
Body_Slices
 10
126.708740932
 20
18.5322092855
 30
0.0
  0
VERTEX
  8
Body_Slices
 10
131.362428473
 20
20.31129303
 30
0.0
  0
SEQEND
  8
Body_Slices
  0
CIRCLE
  8
Body_Slices
 62
0
 10
160.764904073
 20
14.4500643488
 30
0.0
 40
1.34
  0
CIRCLE
  8
Body_Slices
 62
0
 10
131.214904073
 20
14.4500643488
 30
0.0
 40
1.34
  0
CIRCLE
  8
Body_Slices
 62
0
 10
145.989904073
 20
-17.0
 30
0.0
 40
1.34
  0
ENDBLK
  0
BLOCK
  8
Body_Slices
  2
MYLAYER001
 70
0
 10
0.0
 20
0.0
 30
0.0
  3
MYLAYER001
  0
POLYLINE
  8
Body_Slices
 62
0
 70
1
 66
1
 10
0.0
 20
0.0
 30
0.0
  0
VERTEX
  8
Body_Slices
 10
63.1949520363
 20
21.5450913251
 30
0.0
  0
VERTEX
  8
Body_Slices
 10
63.2199520363
 20
21.5450913251
 30
0.0
  0
VERTEX
  8
Body_Slices
 10
63.2199520363
 20
3.4500643488
 30
0.0
  0
VERTEX
  8
Body_Slices
 10
44.4949520363
 20
3.4500643488
 30
0.0
  0
VERTEX
  8
Body_Slices
 10
44.4949520363
 20
-8.5499356512
 30
0.0
  0
VERTEX
  8
Body_Slices
 10
101.494952036
 20
-8.5499356512
 30
0.0
  0
VERTEX
  8
Body_Slices
 10
101.494952036
 20
3.4500643488
 30
0.0
  0
VERTEX
  8
Body_Slices
 10
82.7699520363
 20
3.4500643488
 30
0.0
  0
VERTEX
  8
Body_Slices
 10
82.7699520363
 20
21.5450913251
 30
0.0
  0
VERTEX
  8
Body_Slices
 10
82.7949520363
 20
21.5450913251
 30
0.0
  0
VERTEX
  8
Body_Slices
 10
87.6327854975
 20
20.3080249109
 30
0.0
  0
VERTEX
  8
Body_Slices
 10
92.2958794795
 20
18.5231972496
 30
0.0
  0
VERTEX
  8
Body_Slices
 10
96.6819264661
 20
16.1411892835
 30
0.0
  0
VERTEX
  8
Body_Slices
 10
100.6381414
 20
13.0998338828
 30
0.0
  0
VERTEX
  8
Body_Slices
 10
103.921792143
 20
9.34777634643
 30
0.0
  0
VERTEX
  8
Body_Slices
 10
106.176552785
 20
4.90694725103
 30
0.0
  0
VERTEX
  8
Body_Slices
 10
106.994952036
 20
-1.06581410364e-14
 30
0.0
  0
VERTEX
  8
Body_Slices
 10
106.179939873
 20
-4.89690603339
 30
0.0
  0
VERTEX
  8
Body_Slices
 10
103.933811897
 20
-9.33034145167
 30
0.0
  0
VERTEX
  8
Body_Slices
 10
100.661567272
 20
-13.0781584037
 30
0.0
  0
VERTEX
  8
Body_Slices
 10
96.717757577
 20
-16.1181281258
 30
0.0
  0
VERTEX
  8
Body_Slices
 10
92.3428892543
 20
-18.5017071314
 30
0.0
  0
VERTEX
  8
Body_Slices
 10
87.6911190713
 20
-20.2895664162
 30
0.0
  0
VERTEX
  8
Body_Slices
 10
82.8641670342
 20
-21.5312506787
 30
0.0
  0
VERTEX
  8
Body_Slices
 10
77.933383436
 20
-22.2613938263
 30
0.0
  0
VERTEX
  8
Body_Slices
 10
72.9544044544
 20
-22.4999840005
 30
0.0
  0
VERTEX
  8
Body_Slices
 10
67.9758410846
 20
-22.2534903621
 30
0.0
  0
VERTEX
  8
Body_Slices
 10
63.0462843264
 20
-21.515231673
 30
0.0
  0
VERTEX
  8
Body_Slices
 10
58.2215610689
 20
-20.2649914412
 30
0.0
  0
VERTEX
  8
Body_Slices
 10
53.5733750223
 20
-18.4678877677
 30
0.0
  0
VERTEX
  8
Body_Slices
 10
49.2040931274
 20
-16.0741411845
 30
0.0
  0
VERTEX
  8
Body_Slices
 10
45.2689938647
 20
-13.0230055615
 30
0.0
  0
VERTEX
  8
Body_Slices
 10
42.010280048
 20
-9.26352650967
 30
0.0
  0
VERTEX
  8
Body_Slices
 10
39.7846279957
 20
-4.8210990466
 30
0.0
  0
VERTEX
  8
Body_Slices
 10
38.9951574728
 20
0.0782160358053
 30
0.0
  0
VERTEX
  8
Body_Slices
 10
39.8346151043
 20
4.96949845502
 30
0.0
  0
VERTEX
  8
Body_Slices
 10
42.0990089217
 20
9.3924136475
 30
0.0
  0
VERTEX
  8
Body_Slices
 10
45.3836928436
 20
13.1292911111
 30
0.0
  0
VERTEX
  8
Body_Slices
 10
49.3353967261
 20
16.1587906621
 30
0.0
  0
VERTEX
  8
Body_Slices
 10
53.7137888953
 20
18.5322092855
 30
0.0
  0
VERTEX
  8
Body_Slices
 10
58.3674764363
 20
20.31129303
 30
0.0
  0
SEQEND
  8
Body_Slices
  0
CIRCLE
  8
Body_Slices
 62
0
 10
87.7699520363
 20
14.4500643488
 30
0.0
 40
1.34
  0
CIRCLE
  8
Body_Slices
 62
0
 10
58.2199520363
 20
14.4500643488
 30
0.0
 40
1.34
  0
CIRCLE
  8
Body_Slices
 62
0
 10
72.9949520363
 20
-17.0
 30
0.0
 40
1.34
  0
ENDBLK
  0
ENDSEC
  0
SECTION
  2
ENTITIES
  0
INSERT
  2
MYLAYER
  8
Body_Slices
 62
0
 10
0.0
 20
0.0
 30
0.0
  0
INSERT
  2
MYLAYER002
  8
Body_Slices
 62
0
 10
0.0
 20
0.0
 30
0.0
  0
INSERT
  2
MYLAYER001
  8
Body_Slices
 62
0
 10
0.0
 20
0.0
 30
0.0
  0
ENDSEC
  0
EOF
