  0
SECTION
  2
HEADER
  9
$ACADVER
  1
AC1009
  9
$INSBASE
 10
0.0
 20
0.0
 30
0.0
  9
$EXTMIN
 10
0.0
 20
0.0
 30
0.0
  9
$EXTMAX
 10
0.0
 20
0.0
 30
0.0
  0
ENDSEC
  0
SECTION
  2
TABLES
  0
TABLE
  2
VPORT
 70
0
  0
ENDTAB
  0
TABLE
  2
LTYPE
 70
1
  0
LTYPE
  2
CONTINUOUS
 70
0
  3
Solid line
 72
65
 73
0
 40
0.0
  0
ENDTAB
  0
TABLE
  2
LAYER
 70
1
  0
LAYER
  2
0
 70
64
 62
7
  6
continuous
  0
ENDTAB
  0
TABLE
  2
STYLE
 70
1
  0
STYLE
  2
STANDARD
 70
0
 40
0
 41
1.0
 50
0.0
 71
0
 42
1
 3
ARIAL.TTF
 4

  0
ENDTAB
  0
TABLE
  2
VIEW
 70
0
  0
ENDTAB
  0
ENDSEC
  0
SECTION
  2
BLOCKS
  0
BLOCK
  8
0
  2
SKETCH
 70
0
 10
0.0
 20
0.0
 30
0.0
  3
SKETCH
  0
POLYLINE
  8
0
 62
7
 70
1
 66
1
 10
0.0
 20
0.0
 30
0.0
  0
VERTEX
  8
0
 10
34.0
 20
-4.42e-15
 30
0.0
  0
VERTEX
  8
0
 10
33.4834636024
 20
3.90708399751
 30
0.0
  0
VERTEX
  8
0
 10
31.9495491067
 20
7.69545322483
 30
0.0
  0
VERTEX
  8
0
 10
29.4448637287
 20
11.25
 30
0.0
  0
VERTEX
  8
0
 10
26.045511066
 20
14.4627212179
 30
0.0
  0
VERTEX
  8
0
 10
21.8547787293
 20
17.2359999702
 30
0.0
  0
VERTEX
  8
0
 10
17.0
 20
19.4855715851
 30
0.0
  0
VERTEX
  8
0
 10
11.6286848731
 20
21.1430839677
 30
0.0
  0
VERTEX
  8
0
 10
5.90403804068
 20
22.1581744428
 30
0.0
  0
VERTEX
  8
0
 10
5.00689955855e-15
 20
22.5
 30
0.0
  0
VERTEX
  8
0
 10
-5.90403804068
 20
22.1581744428
 30
0.0
  0
VERTEX
  8
0
 10
-11.6286848731
 20
21.1430839677
 30
0.0
  0
VERTEX
  8
0
 10
-17.0
 20
19.4855715851
 30
0.0
  0
VERTEX
  8
0
 10
-21.8547787293
 20
17.2359999702
 30
0.0
  0
VERTEX
  8
0
 10
-26.045511066
 20
14.4627212179
 30
0.0
  0
VERTEX
  8
0
 10
-29.4448637287
 20
11.25
 30
0.0
  0
VERTEX
  8
0
 10
-31.9495491067
 20
7.69545322483
 30
0.0
  0
VERTEX
  8
0
 10
-33.4834636024
 20
3.90708399751
 30
0.0
  0
VERTEX
  8
0
 10
-34.0
 20
7.17545529808e-15
 30
0.0
  0
VERTEX
  8
0
 10
-33.4834636024
 20
-3.90708399751
 30
0.0
  0
VERTEX
  8
0
 10
-31.9495491067
 20
-7.69545322483
 30
0.0
  0
VERTEX
  8
0
 10
-29.4448637287
 20
-11.25
 30
0.0
  0
VERTEX
  8
0
 10
-26.045511066
 20
-14.4627212179
 30
0.0
  0
VERTEX
  8
0
 10
-21.8547787293
 20
-17.2359999702
 30
0.0
  0
VERTEX
  8
0
 10
-17.0
 20
-19.4855715851
 30
0.0
  0
VERTEX
  8
0
 10
-11.6286848731
 20
-21.1430839677
 30
0.0
  0
VERTEX
  8
0
 10
-5.90403804068
 20
-22.1581744428
 30
0.0
  0
VERTEX
  8
0
 10
-9.17069867565e-15
 20
-22.5
 30
0.0
  0
VERTEX
  8
0
 10
5.90403804068
 20
-22.1581744428
 30
0.0
  0
VERTEX
  8
0
 10
11.6286848731
 20
-21.1430839677
 30
0.0
  0
VERTEX
  8
0
 10
17.0
 20
-19.4855715851
 30
0.0
  0
VERTEX
  8
0
 10
21.8547787293
 20
-17.2359999702
 30
0.0
  0
VERTEX
  8
0
 10
26.045511066
 20
-14.4627212179
 30
0.0
  0
VERTEX
  8
0
 10
29.4448637287
 20
-11.25
 30
0.0
  0
VERTEX
  8
0
 10
31.9495491067
 20
-7.69545322483
 30
0.0
  0
VERTEX
  8
0
 10
33.4834636024
 20
-3.90708399751
 30
0.0
  0
SEQEND
  8
0
  0
POLYLINE
  8
0
 62
7
 70
0
 66
1
 10
0.0
 20
0.0
 30
0.0
  0
VERTEX
  8
0
 10
-6.25
 20
-22.1165833868
 30
0.0
  0
VERTEX
  8
0
 10
6.25
 20
-22.1165833868
 30
0.0
  0
SEQEND
  8
0
  0
ENDBLK
  0
ENDSEC
  0
SECTION
  2
ENTITIES
  0
INSERT
  2
SKETCH
  8
0
 62
7
 10
0.0
 20
0.0
 30
0.0
  0
ENDSEC
  0
EOF
