<?xml version="1.0"?>
<!DOCTYPE svg PUBLIC "-//W3C//DTD SVG 1.1//EN" "http://www.w3.org/Graphics/SVG/1.1/DTD/svg11.dtd">
<svg width="69.3548510771mm" height="45.3909425549mm" viewBox="0 0 69.3548510771 45.3909425549" xmlns="http://www.w3.org/2000/svg" version="1.1">
<g id="Body" transform="translate(34.674902,22.225041) scale(1,-1)">
<path id="Body_f0000"  d="M 9.8 21.5450913251 L 9.8 21.5450913251 A 34 22.5 -7.44845e-15 0 0 34 1.09091e-15L 34.0 -4e-15 A 34 22.5 -7.44845e-15 0 1 9.8 21.5451Z " stroke="#191919" stroke-width="0.35 px" style="stroke-width:0.35;stroke-miterlimit:4;stroke-dasharray:none;fill:#cccccc;fill-rule: evenodd "/>
<path id="Body_f0001"  d="M 9.8 21.5450913251 A 34 22.5 -9.74028e-15 0 0 34 -2.69089e-16L 34.0 -5.69e-15 A 34 22.5 -7.44845e-15 0 1 9.8 21.5451L 9.8 21.5450913251 Z " stroke="#191919" stroke-width="0.35 px" style="stroke-width:0.35;stroke-miterlimit:4;stroke-dasharray:none;fill:#cccccc;fill-rule: evenodd "/>
<path id="Body_f0002"  d="M 9.8 21.5450913251 L 9.8 21.5450913251 L -9.8 21.5450913251 L -9.8 21.5450913251 L -9.8 21.5450913251 L 9.8 21.5450913251 L 9.8 21.5450913251 Z M 9.775 21.5450913251 L 9.775 21.5450913251 L -9.775 21.5450913251 L -9.775 21.5450913251 L 9.775 21.5450913251 Z " stroke="#191919" stroke-width="0.35 px" style="stroke-width:0.35;stroke-miterlimit:4;stroke-dasharray:none;fill:#cccccc;fill-rule: evenodd "/>
<path d="M -13.475 14.4500643488 L -13.475 14.4500643488 " stroke="#191919" stroke-width="0.35 px" style="stroke-width:0.35;stroke-miterlimit:4;stroke-dasharray:none;fill:#cccccc"/>
<path id="Body_f0004"  d="M -9.8 21.5450913251 A 34 22.5 -7.44845e-15 1 1 34 -9.93091e-15L 34.0 -4e-15 A 34 22.5 -7.44845e-15 1 0 -9.8 21.5451L -9.8 21.5450913251 Z " stroke="#191919" stroke-width="0.35 px" style="stroke-width:0.35;stroke-miterlimit:4;stroke-dasharray:none;fill:#cccccc;fill-rule: evenodd "/>
<path id="Body_f0005"  d="M 34.0 -6e-15 A 34 22.5 -9.74028e-15 1 0 -9.8 21.5451L -9.8 21.5450913251 A 34 22.5 -7.44845e-15 1 1 34 -9.93091e-15L 34.0 -6e-15 Z " stroke="#191919" stroke-width="0.35 px" style="stroke-width:0.35;stroke-miterlimit:4;stroke-dasharray:none;fill:#cccccc;fill-rule: evenodd "/>
<path d="M -13.475 14.4500643488 L -13.475 14.4500643488 " stroke="#191919" stroke-width="0.35 px" style="stroke-width:0.35;stroke-miterlimit:4;stroke-dasharray:none;fill:#cccccc"/>
<path id="Body_f0007"  d="M -9.775 3.4500643488 L -9.775 21.5450913251 L -9.775 21.5450913251 L -9.775 3.4500643488 L -9.775 3.4500643488 Z " stroke="#191919" stroke-width="0.35 px" style="stroke-width:0.35;stroke-miterlimit:4;stroke-dasharray:none;fill:#cccccc;fill-rule: evenodd "/>
<path id="Body_f0008"  d="M -9.775 21.5450913251 L -9.775 3.4500643488 L -28.5 3.4500643488 L -28.5 -8.5499356512 L 28.5 -8.5499356512 L 28.5 3.4500643488 L 9.775 3.4500643488 L 9.775 21.5450913251 L -9.775 21.5450913251 Z " stroke="#191919" stroke-width="0.35 px" style="stroke-width:0.35;stroke-miterlimit:4;stroke-dasharray:none;fill:#cccccc;fill-rule: evenodd "/>
<path id="Body_f0009"  d="M 9.775 21.5450913251 L 9.775 3.4500643488 L 9.775 3.4500643488 L 9.775 21.5450913251 L 9.775 21.5450913251 Z " stroke="#191919" stroke-width="0.35 px" style="stroke-width:0.35;stroke-miterlimit:4;stroke-dasharray:none;fill:#cccccc;fill-rule: evenodd "/>
<path d="M -13.475 14.4500643488 L -13.475 14.4500643488 " stroke="#191919" stroke-width="0.35 px" style="stroke-width:0.35;stroke-miterlimit:4;stroke-dasharray:none;fill:#cccccc"/>
<path d="M 1.3 -17.0 L 1.3 -17.0 " stroke="#191919" stroke-width="0.35 px" style="stroke-width:0.35;stroke-miterlimit:4;stroke-dasharray:none;fill:#cccccc"/>
<path d="M 16.075 14.4500643488 L 16.075 14.4500643488 " stroke="#191919" stroke-width="0.35 px" style="stroke-width:0.35;stroke-miterlimit:4;stroke-dasharray:none;fill:#cccccc"/>
<path id="Body_f0014"  d="M -28.0 -1.1099356512 L -28.0 -1.1099356512 L -28.0 -3.9899356512 L -28.0 -3.9899356512 L -28.0 -1.1099356512 Z " stroke="#191919" stroke-width="0.35 px" style="stroke-width:0.35;stroke-miterlimit:4;stroke-dasharray:none;fill:#cccccc;fill-rule: evenodd "/>
<path id="Body_f0015"  d="M 28.0 -1.1099356512 L 28.0 -1.1099356512 L -28.0 -1.1099356512 L -28.0 -1.1099356512 L 28.0 -1.1099356512 Z " stroke="#191919" stroke-width="0.35 px" style="stroke-width:0.35;stroke-miterlimit:4;stroke-dasharray:none;fill:#cccccc;fill-rule: evenodd "/>
<path id="Body_f0016"  d="M -28.0 -3.9899356512 L -28.0 -3.9899356512 L 28.0 -3.9899356512 L 28.0 -3.9899356512 L -28.0 -3.9899356512 Z " stroke="#191919" stroke-width="0.35 px" style="stroke-width:0.35;stroke-miterlimit:4;stroke-dasharray:none;fill:#cccccc;fill-rule: evenodd "/>
<path id="Body_f0017"  d="M 28.0 -3.9899356512 L 28.0 -3.9899356512 L 28.0 -1.1099356512 L 28.0 -1.1099356512 L 28.0 -3.9899356512 Z " stroke="#191919" stroke-width="0.35 px" style="stroke-width:0.35;stroke-miterlimit:4;stroke-dasharray:none;fill:#cccccc;fill-rule: evenodd "/>
<path id="Body_f0018"  d="M -9.775 3.4500643488 L -28.5 3.4500643488 L -28.5 3.4500643488 L -9.775 3.4500643488 L -9.775 3.4500643488 Z " stroke="#191919" stroke-width="0.35 px" style="stroke-width:0.35;stroke-miterlimit:4;stroke-dasharray:none;fill:#cccccc;fill-rule: evenodd "/>
<path id="Body_f0019"  d="M 28.5 3.4500643488 L 9.775 3.4500643488 L 9.775 3.4500643488 L 28.5 3.4500643488 L 28.5 3.4500643488 Z " stroke="#191919" stroke-width="0.35 px" style="stroke-width:0.35;stroke-miterlimit:4;stroke-dasharray:none;fill:#cccccc;fill-rule: evenodd "/>
<path id="Body_f0020"  d="M 28.5 -8.5499356512 L 28.5 -8.5499356512 L 28.5 3.4500643488 L 28.5 3.4500643488 L 28.5 -8.5499356512 Z " stroke="#191919" stroke-width="0.35 px" style="stroke-width:0.35;stroke-miterlimit:4;stroke-dasharray:none;fill:#cccccc;fill-rule: evenodd "/>
<path id="Body_f0021"  d="M -28.5 -8.5499356512 L -28.5 -8.5499356512 L 28.5 -8.5499356512 L 28.5 -8.5499356512 L -28.5 -8.5499356512 Z " stroke="#191919" stroke-width="0.35 px" style="stroke-width:0.35;stroke-miterlimit:4;stroke-dasharray:none;fill:#cccccc;fill-rule: evenodd "/>
<path id="Body_f0022"  d="M -28.5 3.4500643488 L -28.5 3.4500643488 L -28.5 -8.5499356512 L -28.5 -8.5499356512 L -28.5 3.4500643488 Z " stroke="#191919" stroke-width="0.35 px" style="stroke-width:0.35;stroke-miterlimit:4;stroke-dasharray:none;fill:#cccccc;fill-rule: evenodd "/>
<title>Body</title>
</g>
</svg>