<?xml version="1.0"?>
<!DOCTYPE svg PUBLIC "-//W3C//DTD SVG 1.1//EN" "http://www.w3.org/Graphics/SVG/1.1/DTD/svg11.dtd">
<svg width="219.294217553mm" height="50.3309301328mm" viewBox="0 0 219.294217553 50.3309301328" xmlns="http://www.w3.org/2000/svg" version="1.1">
<g id="box_bottom_half_0" transform="translate(37.144895,24.695035) scale(1,-1)">
<path id="box_bottom_half_0_f0000"  d="M -34.9949520363 22.5450913251 L -34.9949520363 -23.485952189 L -34.9949520363 -23.485952189 L -34.9949520363 22.5450913251 L -34.9949520363 22.5450913251 Z " stroke="#191919" stroke-width="0.35 px" style="stroke-width:0.35;stroke-miterlimit:4;stroke-dasharray:none;fill:#cccccc;fill-rule: evenodd "/>
<path id="box_bottom_half_0_f0001"  d="M 35.0 -23.485952189 L 35.0 -23.485952189 L 35.0 22.5450913251 L 35.0 22.5450913251 L 35.0 -23.485952189 Z " stroke="#191919" stroke-width="0.35 px" style="stroke-width:0.35;stroke-miterlimit:4;stroke-dasharray:none;fill:#cccccc;fill-rule: evenodd "/>
<path id="box_bottom_half_0_f0002"  d="M -34.9949520363 -23.485952189 L -34.9949520363 -23.485952189 L 35.0 -23.485952189 L 35.0 -23.485952189 L -34.9949520363 -23.485952189 Z " stroke="#191919" stroke-width="0.35 px" style="stroke-width:0.35;stroke-miterlimit:4;stroke-dasharray:none;fill:#cccccc;fill-rule: evenodd "/>
<path id="box_bottom_half_0_f0003"  d="M 35.0 22.5450913251 L -34.9949520363 22.5450913251 L -34.9949520363 22.5450913251 L 35.0 22.5450913251 L 35.0 22.5450913251 Z " stroke="#191919" stroke-width="0.35 px" style="stroke-width:0.35;stroke-miterlimit:4;stroke-dasharray:none;fill:#cccccc;fill-rule: evenodd "/>
<path id="box_bottom_half_0_f0004"  d="M 35.0 -23.485952189 L -34.9949520363 -23.485952189 L -34.9949520363 22.5450913251 L 35.0 22.5450913251 L 35.0 -23.485952189 Z " stroke="#191919" stroke-width="0.35 px" style="stroke-width:0.35;stroke-miterlimit:4;stroke-dasharray:none;fill:#cccccc;fill-rule: evenodd "/>
<path id="box_bottom_half_0_f0005"  d="M -34.9949520363 22.5450913251 L -34.9949520363 -23.485952189 L 35.0 -23.485952189 L 35.0 22.5450913251 L -34.9949520363 22.5450913251 Z " stroke="#191919" stroke-width="0.35 px" style="stroke-width:0.35;stroke-miterlimit:4;stroke-dasharray:none;fill:#cccccc;fill-rule: evenodd "/>
<title>box_bottom_half_0</title>
</g>
<g id="Body_Slices" transform="translate(37.144895,24.695035) scale(1,-1)">
<path id="MyLayer_w0000"  d="M -9.8 21.5450913251 C -15.0651021647 20.5534806295 -19.9338705283 18.5934023333 -24.4063050906 15.6648564364 C -28.2607038742 13.0410262031 -31.6339122959 9.42754511978 -33.1653708138 4.95476536636 C -35.2646403269 -0.77899437331 -33.2366613307 -7.314166454 -29.1160312907 -11.6187626214 C -26.0428068796 -14.8352117662 -22.438843649 -17.2826669884 -18.3041415989 -18.961128288 C -8.25870935208 -23.1147961484 3.20802018392 -23.5599032576 13.6385681466 -20.6104326468 C 19.436109743 -18.9172441261 25.061190639 -16.0581490769 29.1753601422 -11.5534027867 C 32.0451421809 -8.42098663085 34.0233176988 -4.30662883383 34.0 -7.9936057773e-15 C 34.0252041788 6.53447024619 29.6186472296 12.1928730768 24.3880540768 15.6772997184 C 19.9201544724 18.5987974047 15.0574697801 20.5547279403 9.8 21.5450913251 L -9.8 21.5450913251 " stroke="#191919" stroke-width="0.35 px" style="stroke-width:0.35;stroke-miterlimit:4;stroke-dasharray:none;fill:none;fill-rule: evenodd "/>
<path d="M 1.3 -17.0 L 1.3 -17.0 " stroke="#191919" stroke-width="0.35 px" style="stroke-width:0.35;stroke-miterlimit:4;stroke-dasharray:none;fill:none"/>
<path id="MyLayer_w0002"  d="M 28.0 -3.9899356512 L 28.0 -1.1099356512 L -28.0 -1.1099356512 L -28.0 -3.9899356512 L 28.0 -3.9899356512 " stroke="#191919" stroke-width="0.35 px" style="stroke-width:0.35;stroke-miterlimit:4;stroke-dasharray:none;fill:none;fill-rule: evenodd "/>
<path d="M 16.075 14.4500643488 L 16.075 14.4500643488 " stroke="#191919" stroke-width="0.35 px" style="stroke-width:0.35;stroke-miterlimit:4;stroke-dasharray:none;fill:none"/>
<path d="M -13.475 14.4500643488 L -13.475 14.4500643488 " stroke="#191919" stroke-width="0.35 px" style="stroke-width:0.35;stroke-miterlimit:4;stroke-dasharray:none;fill:none"/>
<path id="MyLayer001_w0000"  d="M 63.199689449 21.5450913251 L 63.224689449 21.5450913251 L 63.224689449 3.4500643488 L 44.499689449 3.4500643488 L 44.499689449 -8.5499356512 L 101.499689449 -8.5499356512 L 101.499689449 3.4500643488 L 82.774689449 3.4500643488 L 82.774689449 21.5450913251 L 82.799689449 21.5450913251 C 88.0571592291 20.5547279403 92.9198439213 18.5987974047 97.3877435257 15.6772997184 C 102.618336679 12.1928730768 107.024893628 6.53447024621 106.999689449 -5.3290705182e-15 C 107.023007148 -4.30662883384 105.04483163 -8.42098663086 102.175049591 -11.5534027867 C 98.060880088 -16.0581490769 92.435799192 -18.9172441261 86.6382575956 -20.6104326468 C 76.2077096329 -23.5599032576 64.7409800969 -23.1147961484 54.69554785 -18.961128288 C 50.5608457999 -17.2826669884 46.9568825693 -14.8352117662 43.8836581582 -11.6187626214 C 39.7630281183 -7.314166454 37.735049122 -0.778994373302 39.8343186352 4.95476536636 C 41.365777153 9.42754511976 44.7389855747 13.0410262031 48.5933843584 15.6648564364 C 53.0658189207 18.5934023333 57.9345872842 20.5534806295 63.199689449 21.5450913251 " stroke="#191919" stroke-width="0.35 px" style="stroke-width:0.35;stroke-miterlimit:4;stroke-dasharray:none;fill:none;fill-rule: evenodd "/>
<path d="M 59.524689449 14.4500643488 L 59.524689449 14.4500643488 " stroke="#191919" stroke-width="0.35 px" style="stroke-width:0.35;stroke-miterlimit:4;stroke-dasharray:none;fill:none"/>
<path d="M 74.299689449 -17.0 L 74.299689449 -17.0 " stroke="#191919" stroke-width="0.35 px" style="stroke-width:0.35;stroke-miterlimit:4;stroke-dasharray:none;fill:none"/>
<path d="M 89.074689449 14.4500643488 L 89.074689449 14.4500643488 " stroke="#191919" stroke-width="0.35 px" style="stroke-width:0.35;stroke-miterlimit:4;stroke-dasharray:none;fill:none"/>
<path id="MyLayer002_w0000"  d="M 136.199378898 21.5450913251 L 155.799378898 21.5450913251 C 161.056848678 20.5547279403 165.91953337 18.5987974047 170.387432975 15.6772997184 C 175.618026128 12.1928730768 180.024583077 6.53447024622 179.999378898 -5.3290705182e-15 C 180.022696597 -4.30662883383 178.044521079 -8.42098663084 175.17473904 -11.5534027867 C 171.060569537 -16.0581490769 165.435488641 -18.9172441261 159.637947045 -20.6104326468 C 149.207399082 -23.5599032576 137.740669546 -23.1147961484 127.695237299 -18.961128288 C 123.560535249 -17.2826669884 119.956572018 -14.8352117662 116.883347607 -11.6187626214 C 112.762717567 -7.314166454 110.734738571 -0.778994373302 112.834008084 4.95476536636 C 114.365466602 9.42754511978 117.738675024 13.0410262031 121.593073807 15.6648564364 C 126.06550837 18.5934023333 130.934276733 20.5534806295 136.199378898 21.5450913251 " stroke="#191919" stroke-width="0.35 px" style="stroke-width:0.35;stroke-miterlimit:4;stroke-dasharray:none;fill:none;fill-rule: evenodd "/>
<path d="M 132.524378898 14.4500643488 L 132.524378898 14.4500643488 " stroke="#191919" stroke-width="0.35 px" style="stroke-width:0.35;stroke-miterlimit:4;stroke-dasharray:none;fill:none"/>
<path d="M 147.299378898 -17.0 L 147.299378898 -17.0 " stroke="#191919" stroke-width="0.35 px" style="stroke-width:0.35;stroke-miterlimit:4;stroke-dasharray:none;fill:none"/>
<path d="M 162.074378898 14.4500643488 L 162.074378898 14.4500643488 " stroke="#191919" stroke-width="0.35 px" style="stroke-width:0.35;stroke-miterlimit:4;stroke-dasharray:none;fill:none"/>
<title>Body_Slices</title>
</g>
<g id="top_half_0" transform="translate(37.144895,24.695035) scale(1,-1)">
<path id="top_half_0_f0000"  d="M 9.8 21.5450913251 L 9.8 21.5450913251 C 15.0574697801 20.5547279403 19.9201544724 18.5987974047 24.3880540768 15.6772997184 C 29.6186472296 12.1928730768 34.0252041788 6.53447024621 34.0 -5.3290705182e-15 L 34.0 -4e-15 A 34 22.5 -7.44845e-15 0 1 9.8 21.5451Z " stroke="#191919" stroke-width="0.35 px" style="stroke-width:0.35;stroke-miterlimit:4;stroke-dasharray:none;fill:#cccccc;fill-rule: evenodd "/>
<path d="M -13.475 14.4500643488 L -13.475 14.4500643488 " stroke="#191919" stroke-width="0.35 px" style="stroke-width:0.35;stroke-miterlimit:4;stroke-dasharray:none;fill:#cccccc"/>
<path id="top_half_0_f0002"  d="M -9.775 21.5450913251 L 9.775 21.5450913251 L 9.775 21.5450913251 L 9.8 21.5450913251 L 9.8 21.5450913251 L -9.8 21.5450913251 L -9.8 21.5450913251 L -9.775 21.5450913251 L -9.775 21.5450913251 Z " stroke="#191919" stroke-width="0.35 px" style="stroke-width:0.35;stroke-miterlimit:4;stroke-dasharray:none;fill:#cccccc;fill-rule: evenodd "/>
<path d="M -13.475 14.4500643488 L -13.475 14.4500643488 " stroke="#191919" stroke-width="0.35 px" style="stroke-width:0.35;stroke-miterlimit:4;stroke-dasharray:none;fill:#cccccc"/>
<path id="top_half_0_f0004"  d="M -9.8 21.5450913251 A 34 22.5 -7.44845e-15 1 1 34 -9.93091e-15L 34.0 -4.34e-15 C 34.0233176988 -4.30662883384 32.0451421809 -8.42098663086 29.1753601422 -11.5534027867 C 25.061190639 -16.0581490769 19.436109743 -18.9172441261 13.6385681466 -20.6104326468 C 3.20802018395 -23.5599032576 -8.25870935208 -23.1147961484 -18.3041415989 -18.961128288 C -22.438843649 -17.2826669884 -26.0428068796 -14.8352117662 -29.1160312907 -11.6187626214 C -33.2366613307 -7.314166454 -35.2646403269 -0.778994373302 -33.1653708138 4.95476536636 C -31.633912296 9.42754511976 -28.2607038742 13.0410262031 -24.4063050906 15.6648564364 C -19.9338705283 18.5934023333 -15.0651021647 20.5534806295 -9.8 21.5450913251 L -9.8 21.5450913251 Z " stroke="#191919" stroke-width="0.35 px" style="stroke-width:0.35;stroke-miterlimit:4;stroke-dasharray:none;fill:#cccccc;fill-rule: evenodd "/>
<path id="top_half_0_f0005"  d="M -9.775 3.4500643488 L -9.775 21.5450913251 L -9.775 21.5450913251 L -9.775 3.4500643488 L -9.775 3.4500643488 Z " stroke="#191919" stroke-width="0.35 px" style="stroke-width:0.35;stroke-miterlimit:4;stroke-dasharray:none;fill:#cccccc;fill-rule: evenodd "/>
<path id="top_half_0_f0006"  d="M -9.775 3.4500643488 L -9.775 3.4500643488 L -28.5 3.4500643488 L -28.5 3.4500643488 L -9.775 3.4500643488 Z " stroke="#191919" stroke-width="0.35 px" style="stroke-width:0.35;stroke-miterlimit:4;stroke-dasharray:none;fill:#cccccc;fill-rule: evenodd "/>
<path id="top_half_0_f0007"  d="M -28.5 -8.5499356512 L -28.5 3.4500643488 L -28.5 3.4500643488 L -28.5 -8.5499356512 L -28.5 -8.5499356512 Z " stroke="#191919" stroke-width="0.35 px" style="stroke-width:0.35;stroke-miterlimit:4;stroke-dasharray:none;fill:#cccccc;fill-rule: evenodd "/>
<path id="top_half_0_f0008"  d="M 28.5 -8.5499356512 L -28.5 -8.5499356512 L -28.5 -8.5499356512 L 28.5 -8.5499356512 L 28.5 -8.5499356512 Z " stroke="#191919" stroke-width="0.35 px" style="stroke-width:0.35;stroke-miterlimit:4;stroke-dasharray:none;fill:#cccccc;fill-rule: evenodd "/>
<path id="top_half_0_f0009"  d="M 28.5 3.4500643488 L 28.5 -8.5499356512 L 28.5 -8.5499356512 L 28.5 3.4500643488 L 28.5 3.4500643488 Z " stroke="#191919" stroke-width="0.35 px" style="stroke-width:0.35;stroke-miterlimit:4;stroke-dasharray:none;fill:#cccccc;fill-rule: evenodd "/>
<path id="top_half_0_f0010"  d="M 28.5 3.4500643488 L 28.5 3.4500643488 L 9.775 3.4500643488 L 9.775 3.4500643488 L 28.5 3.4500643488 Z " stroke="#191919" stroke-width="0.35 px" style="stroke-width:0.35;stroke-miterlimit:4;stroke-dasharray:none;fill:#cccccc;fill-rule: evenodd "/>
<path id="top_half_0_f0011"  d="M 9.775 21.5450913251 L 9.775 3.4500643488 L 9.775 3.4500643488 L 9.775 21.5450913251 L 9.775 21.5450913251 Z " stroke="#191919" stroke-width="0.35 px" style="stroke-width:0.35;stroke-miterlimit:4;stroke-dasharray:none;fill:#cccccc;fill-rule: evenodd "/>
<path d="M -13.475 14.4500643488 L -13.475 14.4500643488 " stroke="#191919" stroke-width="0.35 px" style="stroke-width:0.35;stroke-miterlimit:4;stroke-dasharray:none;fill:#cccccc"/>
<path d="M 1.3 -17.0 L 1.3 -17.0 " stroke="#191919" stroke-width="0.35 px" style="stroke-width:0.35;stroke-miterlimit:4;stroke-dasharray:none;fill:#cccccc"/>
<path d="M 16.075 14.4500643488 L 16.075 14.4500643488 " stroke="#191919" stroke-width="0.35 px" style="stroke-width:0.35;stroke-miterlimit:4;stroke-dasharray:none;fill:#cccccc"/>
<path id="top_half_0_f0015"  d="M -9.775 21.5450913251 L -9.775 3.4500643488 L -28.5 3.4500643488 L -28.5 -8.5499356512 L 28.5 -8.5499356512 L 28.5 3.4500643488 L 9.775 3.4500643488 L 9.775 21.5450913251 L -9.775 21.5450913251 Z " stroke="#191919" stroke-width="0.35 px" style="stroke-width:0.35;stroke-miterlimit:4;stroke-dasharray:none;fill:#cccccc;fill-rule: evenodd "/>
<title>top_half_0</title>
</g>
<g id="Part" transform="translate(37.144895,24.695035) scale(1,-1)">
<title>Part</title>
</g>
<g id="MyLayer002" transform="translate(37.144895,24.695035) scale(1,-1)">
<path id="MyLayer002_w0000"  d="M 136.199378898 21.5450913251 L 155.799378898 21.5450913251 C 161.056848678 20.5547279403 165.91953337 18.5987974047 170.387432975 15.6772997184 C 175.618026128 12.1928730768 180.024583077 6.53447024622 179.999378898 -5.3290705182e-15 C 180.022696597 -4.30662883383 178.044521079 -8.42098663084 175.17473904 -11.5534027867 C 171.060569537 -16.0581490769 165.435488641 -18.9172441261 159.637947045 -20.6104326468 C 149.207399082 -23.5599032576 137.740669546 -23.1147961484 127.695237299 -18.961128288 C 123.560535249 -17.2826669884 119.956572018 -14.8352117662 116.883347607 -11.6187626214 C 112.762717567 -7.314166454 110.734738571 -0.778994373302 112.834008084 4.95476536636 C 114.365466602 9.42754511978 117.738675024 13.0410262031 121.593073807 15.6648564364 C 126.06550837 18.5934023333 130.934276733 20.5534806295 136.199378898 21.5450913251 " stroke="#191919" stroke-width="0.35 px" style="stroke-width:0.35;stroke-miterlimit:4;stroke-dasharray:none;fill:none;fill-rule: evenodd "/>
<path d="M 132.524378898 14.4500643488 L 132.524378898 14.4500643488 " stroke="#191919" stroke-width="0.35 px" style="stroke-width:0.35;stroke-miterlimit:4;stroke-dasharray:none;fill:none"/>
<path d="M 147.299378898 -17.0 L 147.299378898 -17.0 " stroke="#191919" stroke-width="0.35 px" style="stroke-width:0.35;stroke-miterlimit:4;stroke-dasharray:none;fill:none"/>
<path d="M 162.074378898 14.4500643488 L 162.074378898 14.4500643488 " stroke="#191919" stroke-width="0.35 px" style="stroke-width:0.35;stroke-miterlimit:4;stroke-dasharray:none;fill:none"/>
<title>MyLayer002</title>
</g>
<g id="MyLayer001" transform="translate(37.144895,24.695035) scale(1,-1)">
<path id="MyLayer001_w0000"  d="M 63.199689449 21.5450913251 L 63.224689449 21.5450913251 L 63.224689449 3.4500643488 L 44.499689449 3.4500643488 L 44.499689449 -8.5499356512 L 101.499689449 -8.5499356512 L 101.499689449 3.4500643488 L 82.774689449 3.4500643488 L 82.774689449 21.5450913251 L 82.799689449 21.5450913251 C 88.0571592291 20.5547279403 92.9198439213 18.5987974047 97.3877435257 15.6772997184 C 102.618336679 12.1928730768 107.024893628 6.53447024621 106.999689449 -5.3290705182e-15 C 107.023007148 -4.30662883384 105.04483163 -8.42098663086 102.175049591 -11.5534027867 C 98.060880088 -16.0581490769 92.435799192 -18.9172441261 86.6382575956 -20.6104326468 C 76.2077096329 -23.5599032576 64.7409800969 -23.1147961484 54.69554785 -18.961128288 C 50.5608457999 -17.2826669884 46.9568825693 -14.8352117662 43.8836581582 -11.6187626214 C 39.7630281183 -7.314166454 37.735049122 -0.778994373302 39.8343186352 4.95476536636 C 41.365777153 9.42754511976 44.7389855747 13.0410262031 48.5933843584 15.6648564364 C 53.0658189207 18.5934023333 57.9345872842 20.5534806295 63.199689449 21.5450913251 " stroke="#191919" stroke-width="0.35 px" style="stroke-width:0.35;stroke-miterlimit:4;stroke-dasharray:none;fill:none;fill-rule: evenodd "/>
<path d="M 59.524689449 14.4500643488 L 59.524689449 14.4500643488 " stroke="#191919" stroke-width="0.35 px" style="stroke-width:0.35;stroke-miterlimit:4;stroke-dasharray:none;fill:none"/>
<path d="M 74.299689449 -17.0 L 74.299689449 -17.0 " stroke="#191919" stroke-width="0.35 px" style="stroke-width:0.35;stroke-miterlimit:4;stroke-dasharray:none;fill:none"/>
<path d="M 89.074689449 14.4500643488 L 89.074689449 14.4500643488 " stroke="#191919" stroke-width="0.35 px" style="stroke-width:0.35;stroke-miterlimit:4;stroke-dasharray:none;fill:none"/>
<title>MyLayer001</title>
</g>
<g id="MyLayer" transform="translate(37.144895,24.695035) scale(1,-1)">
<path id="MyLayer_w0000"  d="M -9.8 21.5450913251 C -15.0651021647 20.5534806295 -19.9338705283 18.5934023333 -24.4063050906 15.6648564364 C -28.2607038742 13.0410262031 -31.6339122959 9.42754511978 -33.1653708138 4.95476536636 C -35.2646403269 -0.77899437331 -33.2366613307 -7.314166454 -29.1160312907 -11.6187626214 C -26.0428068796 -14.8352117662 -22.438843649 -17.2826669884 -18.3041415989 -18.961128288 C -8.25870935208 -23.1147961484 3.20802018392 -23.5599032576 13.6385681466 -20.6104326468 C 19.436109743 -18.9172441261 25.061190639 -16.0581490769 29.1753601422 -11.5534027867 C 32.0451421809 -8.42098663085 34.0233176988 -4.30662883383 34.0 -7.9936057773e-15 C 34.0252041788 6.53447024619 29.6186472296 12.1928730768 24.3880540768 15.6772997184 C 19.9201544724 18.5987974047 15.0574697801 20.5547279403 9.8 21.5450913251 L -9.8 21.5450913251 " stroke="#191919" stroke-width="0.35 px" style="stroke-width:0.35;stroke-miterlimit:4;stroke-dasharray:none;fill:none;fill-rule: evenodd "/>
<path d="M 1.3 -17.0 L 1.3 -17.0 " stroke="#191919" stroke-width="0.35 px" style="stroke-width:0.35;stroke-miterlimit:4;stroke-dasharray:none;fill:none"/>
<path id="MyLayer_w0002"  d="M 28.0 -3.9899356512 L 28.0 -1.1099356512 L -28.0 -1.1099356512 L -28.0 -3.9899356512 L 28.0 -3.9899356512 " stroke="#191919" stroke-width="0.35 px" style="stroke-width:0.35;stroke-miterlimit:4;stroke-dasharray:none;fill:none;fill-rule: evenodd "/>
<path d="M 16.075 14.4500643488 L 16.075 14.4500643488 " stroke="#191919" stroke-width="0.35 px" style="stroke-width:0.35;stroke-miterlimit:4;stroke-dasharray:none;fill:none"/>
<path d="M -13.475 14.4500643488 L -13.475 14.4500643488 " stroke="#191919" stroke-width="0.35 px" style="stroke-width:0.35;stroke-miterlimit:4;stroke-dasharray:none;fill:none"/>
<title>MyLayer</title>
</g>
<g id="bottom_half_0" transform="translate(37.144895,24.695035) scale(1,-1)">
<path id="bottom_half_0_f0000"  d="M 9.8 21.5450913251 L 9.8 21.5450913251 A 34 22.5 -7.44845e-15 0 0 34 1.09091e-15L 34.0 -4.34e-15 C 34.0252041788 6.53447024621 29.6186472296 12.1928730768 24.3880540768 15.6772997184 C 19.9201544724 18.5987974047 15.0574697801 20.5547279403 9.8 21.5450913251 Z " stroke="#191919" stroke-width="0.35 px" style="stroke-width:0.35;stroke-miterlimit:4;stroke-dasharray:none;fill:#cccccc;fill-rule: evenodd "/>
<path id="bottom_half_0_f0001"  d="M 9.8 21.5450913251 A 34 22.5 -9.74028e-15 0 0 34 -2.69089e-16L 34.0 -5.69e-15 A 34 22.5 -7.44845e-15 0 1 9.8 21.5451L 9.8 21.5450913251 Z " stroke="#191919" stroke-width="0.35 px" style="stroke-width:0.35;stroke-miterlimit:4;stroke-dasharray:none;fill:#cccccc;fill-rule: evenodd "/>
<path id="bottom_half_0_f0002"  d="M 9.8 21.5450913251 L 9.8 21.5450913251 L 9.775 21.5450913251 L 9.775 21.5450913251 L -9.775 21.5450913251 L -9.775 21.5450913251 L -9.8 21.5450913251 L -9.8 21.5450913251 L -9.8 21.5450913251 L 9.8 21.5450913251 L 9.8 21.5450913251 Z " stroke="#191919" stroke-width="0.35 px" style="stroke-width:0.35;stroke-miterlimit:4;stroke-dasharray:none;fill:#cccccc;fill-rule: evenodd "/>
<path d="M -13.475 14.4500643488 L -13.475 14.4500643488 " stroke="#191919" stroke-width="0.35 px" style="stroke-width:0.35;stroke-miterlimit:4;stroke-dasharray:none;fill:#cccccc"/>
<path id="bottom_half_0_f0004"  d="M -9.8 21.5450913251 A 34 22.5 -7.44845e-15 1 1 34 -9.93091e-15L 34.0 -4.34e-15 C 34.0233176988 -4.30662883384 32.0451421809 -8.42098663086 29.1753601422 -11.5534027867 C 25.061190639 -16.0581490769 19.436109743 -18.9172441261 13.6385681466 -20.6104326468 C 3.20802018395 -23.5599032576 -8.25870935208 -23.1147961484 -18.3041415989 -18.961128288 C -22.438843649 -17.2826669884 -26.0428068796 -14.8352117662 -29.1160312907 -11.6187626214 C -33.2366613307 -7.314166454 -35.2646403269 -0.778994373302 -33.1653708138 4.95476536636 C -31.633912296 9.42754511976 -28.2607038742 13.0410262031 -24.4063050906 15.6648564364 C -19.9338705283 18.5934023333 -15.0651021647 20.5534806295 -9.8 21.5450913251 L -9.8 21.5450913251 Z " stroke="#191919" stroke-width="0.35 px" style="stroke-width:0.35;stroke-miterlimit:4;stroke-dasharray:none;fill:#cccccc;fill-rule: evenodd "/>
<path id="bottom_half_0_f0005"  d="M 34.0 -6e-15 A 34 22.5 -9.74028e-15 1 0 -9.8 21.5451L -9.8 21.5450913251 A 34 22.5 -7.44845e-15 1 1 34 -9.93091e-15L 34.0 -6e-15 Z " stroke="#191919" stroke-width="0.35 px" style="stroke-width:0.35;stroke-miterlimit:4;stroke-dasharray:none;fill:#cccccc;fill-rule: evenodd "/>
<path d="M -13.475 14.4500643488 L -13.475 14.4500643488 " stroke="#191919" stroke-width="0.35 px" style="stroke-width:0.35;stroke-miterlimit:4;stroke-dasharray:none;fill:#cccccc"/>
<path id="bottom_half_0_f0007"  d="M 9.775 21.5450913251 L 9.775 3.4500643488 L 9.775 3.4500643488 L 9.775 21.5450913251 L 9.775 21.5450913251 Z " stroke="#191919" stroke-width="0.35 px" style="stroke-width:0.35;stroke-miterlimit:4;stroke-dasharray:none;fill:#cccccc;fill-rule: evenodd "/>
<path id="bottom_half_0_f0009"  d="M -9.775 3.4500643488 L -9.775 21.5450913251 L -9.775 21.5450913251 L -9.775 3.4500643488 L -9.775 3.4500643488 Z " stroke="#191919" stroke-width="0.35 px" style="stroke-width:0.35;stroke-miterlimit:4;stroke-dasharray:none;fill:#cccccc;fill-rule: evenodd "/>
<path id="bottom_half_0_f0010"  d="M -9.775 3.4500643488 L -9.775 3.4500643488 L -28.5 3.4500643488 L -28.5 3.4500643488 L -9.775 3.4500643488 Z " stroke="#191919" stroke-width="0.35 px" style="stroke-width:0.35;stroke-miterlimit:4;stroke-dasharray:none;fill:#cccccc;fill-rule: evenodd "/>
<path id="bottom_half_0_f0011"  d="M -28.5 -8.5499356512 L -28.5 3.4500643488 L -28.5 3.4500643488 L -28.5 -8.5499356512 L -28.5 -8.5499356512 Z " stroke="#191919" stroke-width="0.35 px" style="stroke-width:0.35;stroke-miterlimit:4;stroke-dasharray:none;fill:#cccccc;fill-rule: evenodd "/>
<path id="bottom_half_0_f0012"  d="M 28.5 -8.5499356512 L -28.5 -8.5499356512 L -28.5 -8.5499356512 L 28.5 -8.5499356512 L 28.5 -8.5499356512 Z " stroke="#191919" stroke-width="0.35 px" style="stroke-width:0.35;stroke-miterlimit:4;stroke-dasharray:none;fill:#cccccc;fill-rule: evenodd "/>
<path id="bottom_half_0_f0013"  d="M 28.5 3.4500643488 L 28.5 -8.5499356512 L 28.5 -8.5499356512 L 28.5 3.4500643488 L 28.5 3.4500643488 Z " stroke="#191919" stroke-width="0.35 px" style="stroke-width:0.35;stroke-miterlimit:4;stroke-dasharray:none;fill:#cccccc;fill-rule: evenodd "/>
<path id="bottom_half_0_f0014"  d="M 28.5 3.4500643488 L 28.5 3.4500643488 L 9.775 3.4500643488 L 9.775 3.4500643488 L 28.5 3.4500643488 Z " stroke="#191919" stroke-width="0.35 px" style="stroke-width:0.35;stroke-miterlimit:4;stroke-dasharray:none;fill:#cccccc;fill-rule: evenodd "/>
<path d="M -13.475 14.4500643488 L -13.475 14.4500643488 " stroke="#191919" stroke-width="0.35 px" style="stroke-width:0.35;stroke-miterlimit:4;stroke-dasharray:none;fill:#cccccc"/>
<path d="M 1.3 -17.0 L 1.3 -17.0 " stroke="#191919" stroke-width="0.35 px" style="stroke-width:0.35;stroke-miterlimit:4;stroke-dasharray:none;fill:#cccccc"/>
<path d="M 16.075 14.4500643488 L 16.075 14.4500643488 " stroke="#191919" stroke-width="0.35 px" style="stroke-width:0.35;stroke-miterlimit:4;stroke-dasharray:none;fill:#cccccc"/>
<path id="bottom_half_0_f0018"  d="M -28.0 -1.1099356512 L -28.0 -1.1099356512 L -28.0 -3.9899356512 L -28.0 -3.9899356512 L -28.0 -1.1099356512 Z " stroke="#191919" stroke-width="0.35 px" style="stroke-width:0.35;stroke-miterlimit:4;stroke-dasharray:none;fill:#cccccc;fill-rule: evenodd "/>
<path id="bottom_half_0_f0019"  d="M 28.0 -1.1099356512 L 28.0 -1.1099356512 L -28.0 -1.1099356512 L -28.0 -1.1099356512 L 28.0 -1.1099356512 Z " stroke="#191919" stroke-width="0.35 px" style="stroke-width:0.35;stroke-miterlimit:4;stroke-dasharray:none;fill:#cccccc;fill-rule: evenodd "/>
<path id="bottom_half_0_f0020"  d="M -28.0 -3.9899356512 L -28.0 -3.9899356512 L 28.0 -3.9899356512 L 28.0 -3.9899356512 L -28.0 -3.9899356512 Z " stroke="#191919" stroke-width="0.35 px" style="stroke-width:0.35;stroke-miterlimit:4;stroke-dasharray:none;fill:#cccccc;fill-rule: evenodd "/>
<path id="bottom_half_0_f0021"  d="M 28.0 -3.9899356512 L 28.0 -3.9899356512 L 28.0 -1.1099356512 L 28.0 -1.1099356512 L 28.0 -3.9899356512 Z " stroke="#191919" stroke-width="0.35 px" style="stroke-width:0.35;stroke-miterlimit:4;stroke-dasharray:none;fill:#cccccc;fill-rule: evenodd "/>
<title>bottom_half_0</title>
</g>
</svg>