<?xml version="1.0"?>
<svg xmlns="http://www.w3.org/2000/svg" xmlns:lc="http://www.librecad.org" xmlns:xlink="http://www.w3.org/1999/xlink" width="213.99945809mm" height="44.04507533mm" viewBox="0 0 213.99945809 44.04507533">
    <g lc:layername="0" lc:is_locked="false" lc:is_construction="false" fill="none" stroke="black" stroke-width="1"/>
    <g lc:layername="Body_Slices" lc:is_locked="false" lc:is_construction="false" fill="none" stroke="black" stroke-width="1">
        <g lc:blockname="MYLAYER">
            <g lc:layername="0" lc:is_locked="false" lc:is_construction="false" fill="none" stroke="black" stroke-width="1"/>
            <g lc:layername="Body_Slices" lc:is_locked="false" lc:is_construction="false" fill="none" stroke="black" stroke-width="1">
                <path d="M58.19958913,-22.499984 L53.37211353,-21.26618571 L48.71842599,-19.48710196 L44.34003382,-17.11368334 L40.38832993,-14.08418379 L37.10364601,-10.34730632 L34.83925219,-5.92439113 L33.99979456,-1.03310871 L34.78926509,3.86620637 L37.01491714,8.30863383 L40.27363096,12.06811289 L44.20873022,15.11924851 L48.57801211,17.51299509 L53.22619816,19.31009877 L58.05092142,20.560339 L62.98047818,21.29859769 L67.95904155,21.54509133 L72.93802053,21.30650115 L77.86880413,20.576358 L82.69575616,19.33467374 L87.34752635,17.54681446 L91.72239467,15.16323545 L95.66620436,12.12326573 L98.93844899,8.37544878 L101.18457696,3.94201336 L101.99958913,-0.95489268 L101.18118988,-5.86183993 L98.92642923,-10.30266902 L95.64277849,-14.05472656 L91.68656356,-17.09608196 L87.30051657,-19.47808992 L82.63742259,-21.26291759 L77.79958913,-22.499984 L58.19958913,-22.499984 Z "/>
                <circle cx="53.22458913" cy="-15.40495702" r="1.34"/>
                <circle cx="82.77458913" cy="-15.40495702" r="1.34"/>
                <path d="M95.99958913,3.09504298 L95.99958913,0.09504298 L39.99958913,0.09504298 L39.99958913,3.09504298 L95.99958913,3.09504298 Z "/>
                <circle cx="67.99958913" cy="16.04510732" r="1.34"/>
            </g>
        </g>
        <g lc:blockname="MYLAYER001">
            <g lc:layername="0" lc:is_locked="false" lc:is_construction="false" fill="none" stroke="black" stroke-width="1"/>
            <g lc:layername="Body_Slices" lc:is_locked="false" lc:is_construction="false" fill="none" stroke="black" stroke-width="1">
                <path d="M131.19942089,-22.499984 L131.22442089,-22.499984 L131.22442089,-4.40495702 L112.49942089,-4.40495702 L112.49942089,7.59504298 L169.49942089,7.59504298 L169.49942089,-4.40495702 L150.77442089,-4.40495702 L150.77442089,-22.499984 L150.79942089,-22.499984 L155.63725435,-21.26291759 L160.30034833,-19.47808992 L164.68639532,-17.09608196 L168.64261025,-14.05472656 L171.926261,-10.30266902 L174.18102164,-5.86183993 L174.99942089,-0.95489268 L174.18440873,3.94201336 L171.93828075,8.37544878 L168.66603613,12.12326573 L164.72222643,15.16323545 L160.34735811,17.54681446 L155.69558793,19.33467374 L150.86863589,20.576358 L145.93785229,21.30650115 L140.95887331,21.54509133 L135.98030994,21.29859769 L131.05075318,20.560339 L126.22602992,19.31009877 L121.57784388,17.51299509 L117.20856198,15.11924851 L113.27346272,12.06811289 L110.0147489,8.30863383 L107.78909685,3.86620637 L106.99962633,-1.03310871 L107.83908396,-5.92439113 L110.10347778,-10.34730632 L113.3881617,-14.08418379 L117.33986558,-17.11368334 L121.71825775,-19.48710196 L126.37194529,-21.26618571 L131.19942089,-22.499984 Z "/>
                <circle cx="155.77442089" cy="-15.40495702" r="1.34"/>
                <circle cx="126.22442089" cy="-15.40495702" r="1.34"/>
                <circle cx="140.99942089" cy="16.04510732" r="1.34"/>
            </g>
        </g>
        <g lc:blockname="MYLAYER002">
            <g lc:layername="0" lc:is_locked="false" lc:is_construction="false" fill="none" stroke="black" stroke-width="1"/>
            <g lc:layername="Body_Slices" lc:is_locked="false" lc:is_construction="false" fill="none" stroke="black" stroke-width="1">
                <path d="M204.19925265,-22.499984 L223.79925265,-22.499984 L228.63708611,-21.26291759 L233.3001801,-19.47808992 L237.68622708,-17.09608196 L241.64244202,-14.05472656 L244.92609276,-10.30266902 L247.1808534,-5.86183993 L247.99925265,-0.95489268 L247.18424049,3.94201336 L244.93811251,8.37544878 L241.66586789,12.12326573 L237.72205819,15.16323545 L233.34718987,17.54681446 L228.69541969,19.33467374 L223.86846765,20.576358 L218.93768405,21.30650115 L213.95870507,21.54509133 L208.9801417,21.29859769 L204.05058494,20.560339 L199.22586169,19.31009877 L194.57767564,17.51299509 L190.20839374,15.11924851 L186.27329448,12.06811289 L183.01458067,8.30863383 L180.78892861,3.86620637 L179.99945809,-1.03310871 L180.83891572,-5.92439113 L183.10330954,-10.34730632 L186.38799346,-14.08418379 L190.33969734,-17.11368334 L194.71808951,-19.48710196 L199.37177705,-21.26618571 L204.19925265,-22.499984 Z "/>
                <circle cx="228.77425265" cy="-15.40495702" r="1.34"/>
                <circle cx="199.22425265" cy="-15.40495702" r="1.34"/>
                <circle cx="213.99925265" cy="16.04510732" r="1.34"/>
            </g>
        </g>
    </g>
</svg>
