<?xml version="1.0"?>
<svg xmlns="http://www.w3.org/2000/svg" xmlns:lc="http://www.librecad.org" xmlns:xlink="http://www.w3.org/1999/xlink" width="213.98969864mm" height="44.04507533mm" viewBox="0 0 213.98969864 44.04507533">
    <g lc:layername="0" lc:is_locked="false" lc:is_construction="false" fill="none" stroke="black" stroke-width="1"/>
    <g lc:layername="Body_Slices" lc:is_locked="false" lc:is_construction="false" fill="none" stroke="black" stroke-width="1">
        <g lc:blockname="MYLAYER">
            <g lc:layername="0" lc:is_locked="false" lc:is_construction="false" fill="none" stroke="black" stroke-width="1"/>
            <g lc:layername="Body_Slices" lc:is_locked="false" lc:is_construction="false" fill="none" stroke="black" stroke-width="1">
                <path d="M58.19958913,-22.499984 L53.37211353,-21.26618571 L48.71842599,-19.48710196 L44.34003382,-17.11368334 L40.38832993,-14.08418379 L37.10364601,-10.34730632 L34.83925219,-5.92439113 L33.99979456,-1.03310871 L34.78926509,3.86620637 L37.01491714,8.30863383 L40.27363096,12.06811289 L44.20873022,15.11924851 L48.57801211,17.51299509 L53.22619816,19.31009877 L58.05092142,20.560339 L62.98047818,21.29859769 L67.95904155,21.54509133 L72.93802053,21.30650115 L77.86880413,20.576358 L82.69575616,19.33467374 L87.34752635,17.54681446 L91.72239467,15.16323545 L95.66620436,12.12326573 L98.93844899,8.37544878 L101.18457696,3.94201336 L101.99958913,-0.95489268 L101.18118988,-5.86183993 L98.92642923,-10.30266902 L95.64277849,-14.05472656 L91.68656356,-17.09608196 L87.30051657,-19.47808992 L82.63742259,-21.26291759 L77.79958913,-22.499984 L58.19958913,-22.499984 Z "/>
                <circle cx="53.22458913" cy="-15.40495702" r="1.34"/>
                <circle cx="82.77458913" cy="-15.40495702" r="1.34"/>
                <path d="M95.99958913,3.09504298 L95.99958913,0.09504298 L39.99958913,0.09504298 L39.99958913,3.09504298 L95.99958913,3.09504298 Z "/>
                <circle cx="67.99958913" cy="16.04510732" r="1.34"/>
            </g>
        </g>
        <g lc:blockname="MYLAYER002">
            <g lc:layername="0" lc:is_locked="false" lc:is_construction="false" fill="none" stroke="black" stroke-width="1"/>
            <g lc:layername="Body_Slices" lc:is_locked="false" lc:is_construction="false" fill="none" stroke="black" stroke-width="1">
                <path d="M204.1894932,-22.499984 L223.7894932,-22.499984 L228.62732666,-21.26291759 L233.29042064,-19.47808992 L237.67646763,-17.09608196 L241.63268256,-14.05472656 L244.91633331,-10.30266902 L247.17109395,-5.86183993 L247.9894932,-0.95489268 L247.17448104,3.94201336 L244.92835306,8.37544878 L241.65610843,12.12326573 L237.71229874,15.16323545 L233.33743042,17.54681446 L228.68566023,19.33467374 L223.8587082,20.576358 L218.9279246,21.30650115 L213.94894562,21.54509133 L208.97038225,21.29859769 L204.04082549,20.560339 L199.21610223,19.31009877 L194.56791619,17.51299509 L190.19863429,15.11924851 L186.26353503,12.06811289 L183.00482121,8.30863383 L180.77916916,3.86620637 L179.98969864,-1.03310871 L180.82915627,-5.92439113 L183.09355008,-10.34730632 L186.37823401,-14.08418379 L190.32993789,-17.11368334 L194.70833006,-19.48710196 L199.3620176,-21.26618571 L204.1894932,-22.499984 Z "/>
                <circle cx="228.7644932" cy="-15.40495702" r="1.34"/>
                <circle cx="199.2144932" cy="-15.40495702" r="1.34"/>
                <circle cx="213.9894932" cy="16.04510732" r="1.34"/>
            </g>
        </g>
        <g lc:blockname="MYLAYER001">
            <g lc:layername="0" lc:is_locked="false" lc:is_construction="false" fill="none" stroke="black" stroke-width="1"/>
            <g lc:layername="Body_Slices" lc:is_locked="false" lc:is_construction="false" fill="none" stroke="black" stroke-width="1">
                <path d="M131.19454116,-22.499984 L131.21954116,-22.499984 L131.21954116,-4.40495702 L112.49454116,-4.40495702 L112.49454116,7.59504298 L169.49454116,7.59504298 L169.49454116,-4.40495702 L150.76954116,-4.40495702 L150.76954116,-22.499984 L150.79454116,-22.499984 L155.63237462,-21.26291759 L160.29546861,-19.47808992 L164.68151559,-17.09608196 L168.63773053,-14.05472656 L171.92138127,-10.30266902 L174.17614191,-5.86183993 L174.99454116,-0.95489268 L174.179529,3.94201336 L171.93340102,8.37544878 L168.6611564,12.12326573 L164.7173467,15.16323545 L160.34247838,17.54681446 L155.6907082,19.33467374 L150.86375616,20.576358 L145.93297256,21.30650115 L140.95399358,21.54509133 L135.97543021,21.29859769 L131.04587345,20.560339 L126.2211502,19.31009877 L121.57296415,17.51299509 L117.20368225,15.11924851 L113.26858299,12.06811289 L110.00986917,8.30863383 L107.78421712,3.86620637 L106.9947466,-1.03310871 L107.83420423,-5.92439113 L110.09859805,-10.34730632 L113.38328197,-14.08418379 L117.33498585,-17.11368334 L121.71337802,-19.48710196 L126.36706556,-21.26618571 L131.19454116,-22.499984 Z "/>
                <circle cx="155.76954116" cy="-15.40495702" r="1.34"/>
                <circle cx="126.21954116" cy="-15.40495702" r="1.34"/>
                <circle cx="140.99454116" cy="16.04510732" r="1.34"/>
            </g>
        </g>
    </g>
</svg>
