<?xml version="1.0" encoding="UTF-8" standalone="no"?>
<svg
   xmlns:lc="http://www.librecad.org"
   xmlns:dc="http://purl.org/dc/elements/1.1/"
   xmlns:cc="http://creativecommons.org/ns#"
   xmlns:rdf="http://www.w3.org/1999/02/22-rdf-syntax-ns#"
   xmlns:svg="http://www.w3.org/2000/svg"
   xmlns="http://www.w3.org/2000/svg"
   xmlns:sodipodi="http://sodipodi.sourceforge.net/DTD/sodipodi-0.dtd"
   xmlns:inkscape="http://www.inkscape.org/namespaces/inkscape"
   width="214.10056mm"
   height="44.145134mm"
   viewBox="0 0 214.10055 44.145135"
   version="1.1"
   id="svg50"
   sodipodi:docname="Digi-Oval-8-USB-V0228-makercam-inks-countersunk-auto-smoothed.svg"
   inkscape:version="0.92.3 (2405546, 2018-03-11)">
  <metadata
     id="metadata56">
    <rdf:RDF>
      <cc:Work
         rdf:about="">
        <dc:format>image/svg+xml</dc:format>
        <dc:type
           rdf:resource="http://purl.org/dc/dcmitype/StillImage" />
        <dc:title></dc:title>
      </cc:Work>
    </rdf:RDF>
  </metadata>
  <defs
     id="defs54" />
  <sodipodi:namedview
     pagecolor="#ffffff"
     bordercolor="#666666"
     borderopacity="1"
     objecttolerance="10"
     gridtolerance="10"
     guidetolerance="10"
     inkscape:pageopacity="0"
     inkscape:pageshadow="2"
     inkscape:window-width="1680"
     inkscape:window-height="999"
     id="namedview52"
     showgrid="false"
     fit-margin-top="0"
     fit-margin-left="0"
     fit-margin-right="0"
     fit-margin-bottom="0"
     inkscape:zoom="3.2145762"
     inkscape:cx="754.93249"
     inkscape:cy="112.09516"
     inkscape:window-x="0"
     inkscape:window-y="25"
     inkscape:window-maximized="1"
     inkscape:current-layer="svg50" />
  <g
     lc:layername="0"
     lc:is_locked="false"
     lc:is_construction="false"
     id="g2"
     style="fill:none;stroke:#000000;stroke-width:1"
     transform="translate(-33.949108,22.549984)" />
  <g
     lc:layername="0"
     lc:is_locked="false"
     lc:is_construction="false"
     id="g4"
     style="fill:none;stroke:#000000;stroke-width:1"
     transform="translate(-33.949108,22.549984)" />
  <g
     style="fill:none;stroke:#000000;stroke-width:0.1;stroke-miterlimit:4;stroke-dasharray:none"
     id="g32"
     lc:blockname="MYLAYER002"
     transform="translate(-33.949108,22.549984)">
    <g
       style="fill:none;stroke:#000000;stroke-width:0.1;stroke-miterlimit:4;stroke-dasharray:none"
       id="g20"
       lc:is_construction="false"
       lc:is_locked="false"
       lc:layername="0" />
    <g
       style="fill:none;stroke:#000000;stroke-width:0.1;stroke-miterlimit:4;stroke-dasharray:none"
       id="g30"
       lc:is_construction="false"
       lc:is_locked="false"
       lc:layername="Body_Slices">
      <path
         inkscape:connector-curvature="0"
         id="path22"
         d="m 204.19897,-22.499984 h 19.6 c 0,0 3.25164,0.732551 4.83783,1.237066 1.58604,0.504466 3.15134,1.088691 4.6631,1.784828 1.51119,0.695875 2.99119,1.475191 4.38604,2.382008 1.39458,0.906639 2.74327,1.903113 3.95622,3.041355 1.21194,1.1373 2.35295,2.375084 3.28365,3.752058 0.92966,1.3754392 1.73641,2.8636749 2.25476,4.4408291 0.51775,1.5753412 0.81812,3.2487049 0.8184,4.90694722 2.8e-4,1.65475509 -0.2993,3.32456398 -0.81501,4.89690608 -0.5163,1.574144 -1.31983,3.0599509 -2.24613,4.4334354 -0.9273,1.3749657 -2.0643,2.6114702 -3.27225,3.7478172 -1.20895,1.137295 -2.55342,2.13343 -3.94381,3.039969 -1.39112,0.907011 -2.86737,1.686911 -4.37486,2.383579 -1.50793,0.696872 -3.06946,1.282123 -4.65177,1.78786 -1.5825,0.505798 -3.19851,0.912605 -4.82696,1.241684 -1.62859,0.329108 -3.27715,0.56849 -4.93078,0.730143 -1.65368,0.161658 -3.31742,0.239909 -4.97898,0.23859 -1.66155,-0.0013 -3.32515,-0.08216 -4.97856,-0.246493 -1.65337,-0.164326 -3.30153,-0.406367 -4.92956,-0.738259 -1.62788,-0.331862 -3.24318,-0.741468 -4.82472,-1.25024 -1.58136,-0.508713 -3.14177,-1.096981 -4.64819,-1.797104 -1.50598,-0.699917 -2.98052,-1.483145 -4.36928,-2.393746 -1.38803,-0.910121 -2.72983,-1.909971 -3.9351,-3.051136 -1.20426,-1.140208 -2.33699,-2.3808008 -3.25871,-3.7594792 -0.92052,-1.3768907 -1.71708,-2.866185 -2.22566,-4.4424274 -0.50794,-1.5742565 -0.79791,-3.24516508 -0.78947,-4.8993151 0.008,-1.6542436 0.31662,-3.3218153 0.83946,-4.8912824 0.52348,-1.5713872 1.3331,-3.0532436 2.26439,-4.4229149 0.93249,-1.37144 2.07337,-2.604144 3.28469,-3.736878 1.21231,-1.133657 2.55919,-2.126297 3.9517,-3.029499 1.39278,-0.903378 2.87007,-1.679946 4.37839,-2.373419 1.50888,-0.693733 3.07096,-1.276127 4.65369,-1.779084 1.58288,-0.503006 4.82748,-1.233798 4.82748,-1.233798 z"
         style="stroke-width:0.1;stroke-miterlimit:4;stroke-dasharray:none"
         sodipodi:nodetypes="ccaaaaaaaaaaaaaaaaaaaaaaaaaaaaaaac" />
      <circle
         id="circle24"
         r="1.3"
         cy="-15.404957"
         cx="199.22397"
         style="stroke-width:0.1;stroke-miterlimit:4;stroke-dasharray:none" />
      <circle
         id="circle26"
         r="1.3"
         cy="16.045107"
         cx="213.99896"
         style="stroke-width:0.1;stroke-miterlimit:4;stroke-dasharray:none" />
      <circle
         id="circle28"
         r="1.3"
         cy="-15.404957"
         cx="228.77397"
         style="stroke-width:0.1;stroke-miterlimit:4;stroke-dasharray:none" />
    </g>
  </g>
  <g
     style="fill:none;stroke:#000000;stroke-width:0.1;stroke-miterlimit:4;stroke-dasharray:none"
     id="g46"
     lc:blockname="MYLAYER001"
     transform="translate(-33.949108,22.549984)">
    <g
       style="fill:none;stroke:#000000;stroke-width:0.1;stroke-miterlimit:4;stroke-dasharray:none"
       id="g34"
       lc:is_construction="false"
       lc:is_locked="false"
       lc:layername="0" />
    <g
       style="fill:none;stroke:#000000;stroke-width:0.1;stroke-miterlimit:4;stroke-dasharray:none"
       id="g44"
       lc:is_construction="false"
       lc:is_locked="false"
       lc:layername="Body_Slices">
      <path
         inkscape:connector-curvature="0"
         id="path36"
         d="m 131.19928,-22.499984 h 0.025 v 18.095027 h -18.725 v 12 h 57 v -12 h -18.725 v -18.095027 h 0.025 c 0,0 3.25164,0.732551 4.83783,1.237066 1.58604,0.504466 3.15134,1.088691 4.6631,1.784828 1.51119,0.695875 2.99119,1.475191 4.38604,2.382008 1.39458,0.906639 2.74327,1.903113 3.95622,3.041355 1.21194,1.1373 2.35295,2.375084 3.28365,3.752058 0.92966,1.3754392 1.73641,2.8636749 2.25476,4.4408291 0.51775,1.5753412 0.81812,3.2487049 0.8184,4.90694722 2.8e-4,1.65475509 -0.2993,3.32456398 -0.81501,4.89690608 -0.5163,1.574144 -1.31983,3.0599509 -2.24613,4.4334354 -0.9273,1.3749657 -2.0643,2.6114702 -3.27225,3.7478172 -1.20895,1.137295 -2.55342,2.13343 -3.94381,3.039969 -1.39112,0.907011 -2.86737,1.686911 -4.37486,2.383579 -1.50793,0.696872 -3.06946,1.282123 -4.65177,1.78786 -1.5825,0.505798 -3.19851,0.912605 -4.82696,1.241684 -1.62859,0.329108 -3.27715,0.56849 -4.93078,0.730143 -1.65368,0.161658 -3.31742,0.239909 -4.97898,0.23859 -1.66155,-0.0013 -3.32515,-0.08216 -4.97856,-0.246493 -1.65337,-0.164326 -3.30153,-0.406367 -4.92956,-0.738259 -1.62788,-0.331862 -3.24318,-0.741468 -4.82472,-1.25024 -1.58136,-0.508713 -3.14177,-1.096981 -4.64819,-1.797104 -1.50598,-0.699917 -2.98052,-1.483145 -4.36928,-2.393746 -1.38803,-0.910121 -2.72983,-1.909971 -3.9351,-3.051136 -1.20426,-1.140208 -2.33699,-2.3808008 -3.25871,-3.7594792 -0.92052,-1.3768907 -1.71708,-2.866185 -2.22566,-4.4424274 -0.50794,-1.5742565 -0.79791,-3.24516508 -0.78947,-4.8993151 0.008,-1.6542436 0.31661,-3.3218158 0.83946,-4.8912824 0.52349,-1.5713882 1.33311,-3.0532425 2.2644,-4.4229149 0.93249,-1.371438 2.07336,-2.604145 3.28468,-3.736878 1.21231,-1.133658 2.55919,-2.126297 3.9517,-3.029499 1.39279,-0.903379 2.87008,-1.679945 4.3784,-2.373419 1.50888,-0.693731 3.07095,-1.276127 4.65368,-1.779084 1.58288,-0.503007 4.82748,-1.233798 4.82748,-1.233798 z"
         style="stroke-width:0.1;stroke-miterlimit:4;stroke-dasharray:none"
         sodipodi:nodetypes="ccccccccccaaaaaaaaaaaaaaaaaaaaaaaaaaaaaaac" />
      <circle
         id="circle38"
         r="1.3"
         cy="-15.404957"
         cx="126.22428"
         style="stroke-width:0.1;stroke-miterlimit:4;stroke-dasharray:none" />
      <circle
         id="circle40"
         r="1.3"
         cy="16.045107"
         cx="140.99928"
         style="stroke-width:0.1;stroke-miterlimit:4;stroke-dasharray:none" />
      <circle
         id="circle42"
         r="1.3"
         cy="-15.404957"
         cx="155.77428"
         style="stroke-width:0.1;stroke-miterlimit:4;stroke-dasharray:none" />
    </g>
  </g>
  <g
     id="g1136"
     transform="translate(3.7041668)">
    <path
       d="m 24.250481,0.05 c 0,0 -3.244593,0.73079193 -4.827475,1.233798 C 17.840278,1.7867552 16.278202,2.3691496 14.769318,3.062882 13.260997,3.7563556 11.78371,4.5329235 10.390926,5.436301 8.998412,6.3395036 7.6515293,7.3321421 6.4392216,8.4658 c -1.211319,1.1327334 -2.3521962,2.365439 -3.284684,3.736878 -0.9312863,1.369672 -1.7409098,2.851527 -2.26439395,4.422915 -0.52284414,1.569467 -0.83101883,3.237039 -0.839457,4.891282 -0.0084377,1.65415 0.28153421,3.325058 0.78947,4.899315 0.50857625,1.576242 1.30512965,3.065538 2.22565195,4.442428 0.9217185,1.378679 2.054452,2.619271 3.258714,3.759479 1.2052721,1.141165 2.5470726,2.141016 3.9350994,3.051136 1.38876,0.910601 2.863306,1.693829 4.369282,2.393746 1.506418,0.700123 3.066832,1.288392 4.648186,1.797104 1.58154,0.508772 3.196846,0.918378 4.824723,1.25024 1.628025,0.331892 3.276192,0.573933 4.929557,0.738259 1.653408,0.164331 3.31701,0.245174 4.978564,0.246493 1.661564,0.0013 3.325298,-0.07693 4.978979,-0.23859 1.653634,-0.161653 3.302187,-0.401035 4.930783,-0.730143 1.628449,-0.329078 3.244452,-0.735887 4.826952,-1.241684 1.582314,-0.505738 3.143838,-1.090989 4.65177,-1.78786 1.507493,-0.696668 2.983751,-1.476567 4.374869,-2.383579 1.390393,-0.906539 2.734857,-1.902674 3.943809,-3.039969 1.207944,-1.136347 2.344945,-2.372852 3.272245,-3.747817 0.926301,-1.373485 1.729832,-2.859292 2.246131,-4.433436 0.515708,-1.572342 0.815292,-3.242151 0.81501,-4.896906 -2.83e-4,-1.658242 -0.300647,-3.331606 -0.8184,-4.906947 C 66.713733,15.11099 65.906981,13.622754 64.977321,12.247315 64.046623,10.870341 62.905612,9.632557 61.69367,8.495257 60.480724,7.3570158 59.13203,6.3605402 57.737456,5.453902 56.342605,4.5470836 54.862596,3.7677695 53.351409,3.071894 51.839655,2.3757576 50.274354,1.7915315 48.688315,1.287066 47.102119,0.78255083 43.850481,0.05 43.850481,0.05 Z"
       id="path6"
       inkscape:connector-curvature="0"
       style="fill:none;stroke:#000000;stroke-width:0.1;stroke-miterlimit:4;stroke-dasharray:none"
       sodipodi:nodetypes="caaaaaaaaaaaaaaaaaaaaaaaaaaaaaaacc" />
    <circle
       r="1.3"
       cx="34.05048"
       cy="38.595093"
       id="circle8"
       style="fill:none;stroke:#000000;stroke-width:0.1;stroke-miterlimit:4;stroke-dasharray:none" />
    <path
       d="m 62.050481,25.585027 v -2.88 H 6.0504806 v 2.88 z"
       id="path10"
       inkscape:connector-curvature="0"
       style="fill:none;stroke:#000000;stroke-width:0.1;stroke-miterlimit:4;stroke-dasharray:none" />
    <circle
       cx="48.825481"
       cy="7.1450272"
       r="1.3"
       id="circle12"
       style="fill:none;stroke:#000000;stroke-width:0.1;stroke-miterlimit:4;stroke-dasharray:none" />
    <circle
       cx="19.275482"
       cy="7.1450272"
       r="1.3"
       id="circle14"
       style="fill:none;stroke:#000000;stroke-width:0.1;stroke-miterlimit:4;stroke-dasharray:none" />
    <path
       id="path4306-3"
       d="M 40.796073,12.886118 39.130567,12.5764 c -0.04051,-0.0076 -0.08491,-0.04569 -0.09857,-0.0848 L 38.52147,11.30055 c -0.0191,-0.03679 -0.01536,-0.09452 0.0076,-0.12877 l 0.970399,-1.4143424 c 0.02318,-0.03404 0.01864,-0.08582 -0.01063,-0.115093 l -1.21203,-1.212021 c -0.02927,-0.02928 -0.08093,-0.03404 -0.114991,-0.01063 l -1.439162,0.987611 c -0.03406,0.02341 -0.09242,0.02756 -0.129372,0.0093 l -1.154627,-0.472623 c -0.03912,-0.01296 -0.0774,-0.05683 -0.0851,-0.09746 l -0.320663,-1.722648 c -0.0075,-0.04063 -0.04746,-0.07386 -0.0888,-0.07386 h -1.714232 c -0.04123,0 -0.08121,0.03323 -0.08871,0.07386 l -0.320519,1.722645 c -0.0075,0.04063 -0.04575,0.08449 -0.0851,0.09746 l -1.154683,0.472631 c -0.03702,0.01824 -0.09544,0.01409 -0.129373,-0.0093 L 30.01285,8.4196826 c -0.0342,-0.02341 -0.08595,-0.01864 -0.115101,0.01062 l -1.212129,1.212023 c -0.02927,0.02928 -0.03407,0.08105 -0.01063,0.115092 l 0.970508,1.4143464 c 0.02324,0.03424 0.02698,0.092 0.0075,0.128772 l -0.510626,1.191048 c -0.01358,0.03912 -0.05783,0.0772 -0.09858,0.0848 l -1.665393,0.309717 c -0.04063,0.0077 -0.0739,0.04762 -0.0739,0.08896 l 9.3e-5,1.714128 c 0,0.04134 0.03328,0.08156 0.0739,0.08895 l 1.624588,0.302322 c 0.04063,0.0074 0.08405,0.04601 0.09643,0.08541 l 0.507187,1.266936 c 0.01812,0.03717 0.01386,0.09534 -0.0096,0.129377 l -0.922738,1.344737 c -0.02324,0.03405 -0.01852,0.08592 0.01063,0.115194 l 1.212221,1.212023 c 0.02927,0.02908 0.08092,0.03383 0.115089,0.01063 l 1.320934,-0.906662 c 0.034,-0.02329 0.09108,-0.02511 0.12665,-0.0044 l 0.582553,0.311034 c 0.03695,0.01883 0.07997,0.0029 0.09575,-0.03526 l 1.201222,-2.902349 c 0.01589,-0.0382 0,-0.08692 -0.03519,-0.108506 l -0.145783,-0.08923 c -0.02698,-0.01642 -0.06355,-0.04468 -0.09222,-0.07062 -0.525921,-0.336767 -0.874844,-0.925909 -0.874844,-1.596809 0,-1.046976 0.84881,-1.895684 1.895684,-1.895684 1.046888,0 1.895584,0.848708 1.895584,1.895684 0,0.6709 -0.348818,1.260042 -0.874851,1.596809 -0.02836,0.02593 -0.06518,0.05419 -0.09193,0.07062 l -0.145797,0.08926 c -0.03499,0.02157 -0.05107,0.07031 -0.03519,0.108507 l 1.201094,2.902449 c 0.01575,0.0382 0.05875,0.054 0.09574,0.03525 l 0.582555,-0.310995 c 0.03565,-0.02077 0.0926,-0.01905 0.126642,0.0044 l 1.321053,0.906661 c 0.034,0.0232 0.08596,0.01845 0.114978,-0.01063 l 1.212233,-1.212021 c 0.02927,-0.02927 0.034,-0.08115 0.01058,-0.115195 l -0.922862,-1.344742 c -0.02324,-0.03405 -0.02763,-0.0922 -0.0096,-0.129381 l 0.507186,-1.266933 c 0.01241,-0.03942 0.0556,-0.07801 0.09635,-0.0854 l 1.62457,-0.302322 c 0.04057,-0.0074 0.07388,-0.04763 0.07388,-0.08896 l 2.04e-4,-1.714124 c 1.04e-4,-0.04145 -0.03315,-0.08136 -0.07361,-0.08905"
       inkscape:connector-curvature="0"
       style="fill:none;stroke:#ff00ff;stroke-width:0.03589873;stroke-miterlimit:4;stroke-dasharray:none;stroke-opacity:1" />
    <path
       id="path17053"
       d="m 34.875078,9.070836 a 0.78809148,0.78809143 0 0 1 -0.78809,0.788092 0.78809148,0.78809143 0 0 1 -0.788092,-0.788092 0.78809148,0.78809143 0 0 1 0.788092,-0.788091 0.78809148,0.78809143 0 0 1 0.78809,0.788091 z"
       style="fill:none;stroke:#ff00ff;stroke-width:0.1;stroke-miterlimit:4;stroke-dasharray:none;stroke-opacity:1"
       inkscape:connector-curvature="0" />
    <path
       id="rect17126"
       d="m 24.161432,2.781105 h 19.99762 v 19.917053 h -19.99762 z"
       style="fill:none;stroke:#00ff00;stroke-width:0.10237879;stroke-miterlimit:4;stroke-dasharray:none;stroke-opacity:1"
       inkscape:connector-curvature="0" />
  </g>
  <path
     style="fill:none;stroke:#000000;stroke-width:0.03349667;stroke-miterlimit:4;stroke-dasharray:none;stroke-opacity:1"
     inkscape:connector-curvature="0"
     d="m 186.32297,10.672066 -1.55408,-0.288995 c -0.0378,-0.0071 -0.0792,-0.04263 -0.092,-0.07913 l -0.47637,-1.1113547 c -0.0178,-0.03433 -0.0143,-0.08819 0.007,-0.1201539 l 0.90544,-1.3197107 c 0.0217,-0.031762 0.0174,-0.08007 -0.01,-0.1073912 l -1.13092,-1.1309226 c -0.0273,-0.027322 -0.0755,-0.031762 -0.1073,-0.00992 l -1.34242,0.9215289 c -0.0318,0.021836 -0.0862,0.02571 -0.12072,0.00868 l -1.0772,-0.4409987 c -0.0365,-0.012097 -0.0722,-0.053031 -0.0794,-0.090943 l -0.29955,-1.6073734 c -0.007,-0.03791 -0.0443,-0.068917 -0.0829,-0.068917 h -1.59954 c -0.0384,0 -0.0757,0.031008 -0.0829,0.068917 l -0.29906,1.6073795 c -0.007,0.037913 -0.0428,0.078839 -0.0794,0.090943 l -1.07742,0.4410065 c -0.0345,0.017015 -0.0891,0.013142 -0.12071,-0.00868 l -1.34237,-0.9215353 c -0.0319,-0.021836 -0.0802,-0.017396 -0.1074,0.00992 l -1.13103,1.1309228 c -0.0273,0.027322 -0.0318,0.075631 -0.01,0.1073912 l 0.90557,1.3197101 c 0.0217,0.03196 0.0251,0.08584 0.007,0.1201539 l -0.47647,1.1113546 c -0.0126,0.03649 -0.0539,0.07204 -0.092,0.07913 l -1.55395,0.288995 c -0.0379,0.0072 -0.0689,0.04442 -0.0689,0.08301 l 8e-5,1.599439 c 0,0.03857 0.0311,0.0761 0.0689,0.08301 l 1.51589,0.282091 c 0.0379,0.0069 0.0784,0.04293 0.09,0.07969 l 0.47325,1.182161 c 0.0169,0.03469 0.0129,0.08896 -0.008,0.120719 l -0.86103,1.254766 c -0.0217,0.03177 -0.0173,0.08016 0.01,0.107486 l 1.13111,1.130922 c 0.0273,0.02713 0.0755,0.03158 0.10738,0.0099 l 1.23256,-0.845994 c 0.0317,-0.02174 0.085,-0.02343 0.11817,-0.0041 l 0.54358,0.290223 c 0.0345,0.01758 0.0746,0.0028 0.0893,-0.03291 l 1.1208,-2.708144 c 0.0149,-0.03565 0,-0.0811 -0.0329,-0.101246 l -0.13604,-0.08328 c -0.0251,-0.01532 -0.0593,-0.04169 -0.0861,-0.06589 -0.49073,-0.314235 -0.81631,-0.863955 -0.81631,-1.489965 0,-0.976927 0.79202,-1.7688476 1.76885,-1.7688476 0.97683,0 1.76874,0.7919206 1.76874,1.7688476 0,0.62601 -0.32548,1.17573 -0.81631,1.489965 -0.0265,0.02421 -0.0608,0.05057 -0.0858,0.06589 l -0.13605,0.08328 c -0.0327,0.02012 -0.0476,0.06561 -0.0329,0.101246 l 1.12073,2.708241 c 0.0147,0.03565 0.0549,0.05039 0.0893,0.0329 l 0.54358,-0.290189 c 0.0332,-0.01938 0.0863,-0.01778 0.11817,0.0041 l 1.23265,0.845995 c 0.0317,0.02166 0.0802,0.01721 0.10729,-0.0099 l 1.13112,-1.130924 c 0.0273,-0.02731 0.0317,-0.07572 0.01,-0.107485 l -0.86111,-1.254763 c -0.0217,-0.03177 -0.0258,-0.08603 -0.008,-0.120723 l 0.47325,-1.182161 c 0.0116,-0.03678 0.0519,-0.07279 0.0899,-0.07969 l 1.51586,-0.282093 c 0.0379,-0.0069 0.0689,-0.04444 0.0689,-0.08301 l 1.8e-4,-1.599437 c 1e-4,-0.03867 -0.0309,-0.07591 -0.0686,-0.08309"
     id="path4306" />
  <path
     inkscape:connector-curvature="0"
     style="fill:none;stroke:#000000;stroke-width:0.07582241;stroke-miterlimit:4;stroke-dasharray:none;stroke-opacity:1"
     d="m 180.95906,7.3925158 a 0.89632498,0.89632488 0 0 1 -0.89633,0.8963245 0.89632498,0.89632488 0 0 1 -0.89632,-0.8963245 0.89632498,0.89632488 0 0 1 0.89632,-0.8963247 0.89632498,0.89632488 0 0 1 0.89633,0.8963247 z"
     id="path17055" />
  <g
     style="font-style:normal;font-weight:normal;font-size:3.17499995px;line-height:125%;font-family:sans-serif;text-align:center;letter-spacing:0px;word-spacing:0px;text-anchor:middle;fill:none;fill-opacity:1;stroke:#0000ff;stroke-width:0.1;stroke-linecap:butt;stroke-linejoin:miter;stroke-miterlimit:4;stroke-dasharray:none;stroke-opacity:1"
     id="text17057"
     transform="translate(-1.9777676,-2.0457137)">
    <path
       inkscape:connector-curvature="0"
       d="m 170.69535,3.4706261 h 1.95802 v 0.2635498 h -0.82166 V 5.7852135 H 171.517 V 3.7341759 h -0.82165 z"
       id="path27915" />
    <path
       inkscape:connector-curvature="0"
       d="m 172.84561,4.0488854 h 0.28525 v 1.7363281 h -0.28525 z m 0,-0.6759278 h 0.28525 v 0.3612183 h -0.28525 z"
       id="path27917" />
    <path
       inkscape:connector-curvature="0"
       d="m 175.16949,4.7372154 v 1.0479981 h -0.28525 V 4.7465172 q 0,-0.2464966 -0.0961,-0.3689697 -0.0961,-0.1224732 -0.28835,-0.1224732 -0.231,0 -0.36432,0.1472779 -0.13333,0.1472778 -0.13333,0.4015258 v 0.9813355 h -0.2868 V 4.0488854 h 0.2868 v 0.2697509 q 0.10232,-0.1565795 0.2403,-0.2340942 0.13953,-0.077515 0.32091,-0.077515 0.29921,0 0.45269,0.1860351 0.15347,0.1844849 0.15347,0.5441528 z"
       id="path27919" />
    <path
       inkscape:connector-curvature="0"
       d="m 176.46399,5.9464439 q -0.12092,0.3100586 -0.23565,0.4046265 -0.11472,0.094568 -0.30695,0.094568 h -0.2279 V 6.2068933 h 0.16744 q 0.11782,0 0.18293,-0.055811 0.0651,-0.05581 0.14418,-0.2635498 l 0.0512,-0.1302246 -0.70229,-1.7084228 h 0.30231 l 0.5426,1.3580566 0.54261,-1.3580566 h 0.3023 l -0.76274,1.8975585 z"
       id="path27921" />
    <path
       inkscape:connector-curvature="0"
       d="m 179.74131,4.7000084 q 0.10077,0.034107 0.19534,0.1457275 0.0961,0.1116211 0.19223,0.306958 l 0.31781,0.6325196 h -0.33641 l -0.29611,-0.5937622 q -0.11472,-0.232544 -0.22324,-0.3085083 -0.10697,-0.075964 -0.29301,-0.075964 h -0.34106 V 5.7852139 H 178.6437 V 3.4706265 h 0.70693 q 0.39688,0 0.59222,0.1658813 0.19533,0.1658814 0.19533,0.5007447 0,0.2185913 -0.10232,0.3627685 -0.10076,0.1441773 -0.29455,0.1999874 z M 178.95686,3.7279747 V 4.54963 h 0.39377 q 0.22635,0 0.34107,-0.1038696 0.11627,-0.10542 0.11627,-0.3085083 0,-0.2030884 -0.11627,-0.3054077 -0.11472,-0.1038697 -0.34107,-0.1038697 z"
       id="path27923" />
    <path
       inkscape:connector-curvature="0"
       d="m 181.5598,4.9123985 q -0.34571,0 -0.47904,0.079065 -0.13332,0.079065 -0.13332,0.269751 0,0.1519287 0.0992,0.2418457 0.10076,0.088367 0.27285,0.088367 0.23719,0 0.37982,-0.1674317 0.14418,-0.1689819 0.14418,-0.4480346 v -0.063562 h -0.28371 z m 0.56896,-0.1178222 v 0.9906372 h -0.28525 V 5.5216637 q -0.0977,0.1581299 -0.2434,0.2340942 -0.14573,0.074414 -0.35657,0.074414 -0.26665,0 -0.42478,-0.1488282 -0.15658,-0.1503784 -0.15658,-0.4015258 0,-0.2930054 0.19534,-0.4418335 0.19689,-0.1488281 0.58601,-0.1488281 h 0.39998 v -0.027905 q 0,-0.1968872 -0.13023,-0.3038574 -0.12867,-0.1085205 -0.36277,-0.1085205 -0.14883,0 -0.2899,0.035657 -0.14108,0.035657 -0.2713,0.1069702 V 4.1279508 q 0.15658,-0.060461 0.30385,-0.089917 0.14728,-0.031006 0.28681,-0.031006 0.37672,0 0.56275,0.1953369 0.18604,0.1953369 0.18604,0.5922116 z"
       id="path27925" />
    <path
       inkscape:connector-curvature="0"
       d="m 182.71787,4.0488854 h 0.28525 v 1.7363281 h -0.28525 z m 0,-0.6759278 h 0.28525 v 0.3612183 h -0.28525 z"
       id="path27927" />
    <path
       inkscape:connector-curvature="0"
       d="m 185.04176,4.7372154 v 1.0479981 h -0.28525 V 4.7465172 q 0,-0.2464966 -0.0961,-0.3689697 -0.0961,-0.1224732 -0.28836,-0.1224732 -0.23099,0 -0.36432,0.1472779 -0.13332,0.1472778 -0.13332,0.4015258 v 0.9813355 h -0.2868 V 4.0488854 h 0.2868 v 0.2697509 q 0.10232,-0.1565795 0.24029,-0.2340942 0.13953,-0.077515 0.32092,-0.077515 0.2992,0 0.45268,0.1860351 0.15348,0.1844849 0.15348,0.5441528 z"
       id="path27929" />
    <path
       inkscape:connector-curvature="0"
       d="m 186.86025,4.9185997 q 0,-0.3147095 -0.13022,-0.4929931 -0.12868,-0.179834 -0.35502,-0.179834 -0.22634,0 -0.35657,0.179834 -0.12867,0.1782836 -0.12867,0.4929931 0,0.3147095 0.12867,0.4945435 0.13023,0.1782837 0.35657,0.1782837 0.22634,0 0.35502,-0.1782837 0.13022,-0.179834 0.13022,-0.4945435 z m -0.97048,-0.6061645 q 0.0899,-0.1550293 0.22634,-0.2294434 0.13798,-0.075964 0.32867,-0.075964 0.31625,0 0.51314,0.2511474 0.19844,0.2511475 0.19844,0.6604248 0,0.4092774 -0.19844,0.6604248 -0.19689,0.2511475 -0.51314,0.2511475 -0.19069,0 -0.32867,-0.074414 -0.13642,-0.075964 -0.22634,-0.2309936 v 0.2604492 h -0.2868 V 3.372958 h 0.2868 z"
       id="path27931" />
    <path
       inkscape:connector-curvature="0"
       d="m 188.30203,4.2488732 q -0.22945,0 -0.36277,0.1798339 -0.13333,0.1782837 -0.13333,0.4898926 0,0.3116089 0.13178,0.4914429 0.13332,0.1782837 0.36432,0.1782837 0.22789,0 0.36121,-0.179834 0.13333,-0.179834 0.13333,-0.4898926 0,-0.3085083 -0.13333,-0.4883423 -0.13332,-0.1813842 -0.36121,-0.1813842 z m 0,-0.2418457 q 0.37207,0 0.58446,0.2418457 0.21239,0.2418457 0.21239,0.6697265 0,0.4263306 -0.21239,0.6697266 -0.21239,0.2418457 -0.58446,0.2418457 -0.37362,0 -0.58601,-0.2418457 -0.21084,-0.243396 -0.21084,-0.6697266 0,-0.4278808 0.21084,-0.6697265 0.21239,-0.2418457 0.58601,-0.2418457 z"
       id="path27933" />
    <path
       inkscape:connector-curvature="0"
       d="m 189.40429,4.0488854 h 0.28525 l 0.35657,1.354956 0.35501,-1.354956 h 0.33642 l 0.35656,1.354956 0.35502,-1.354956 h 0.28526 l -0.45424,1.7363281 h -0.33641 l -0.37362,-1.423169 -0.37518,1.423169 h -0.33641 z"
       id="path27935" />
    <path
       inkscape:connector-curvature="0"
       d="m 193.27537,4.100045 v 0.269751 q -0.12093,-0.062012 -0.25115,-0.093018 -0.13023,-0.031006 -0.26975,-0.031006 -0.21239,0 -0.31936,0.065112 -0.10542,0.065112 -0.10542,0.1953369 0,0.099219 0.076,0.1565796 0.076,0.05581 0.30541,0.1069702 l 0.0977,0.021704 q 0.30385,0.065112 0.43098,0.1844849 0.12867,0.1178222 0.12867,0.3302124 0,0.2418456 -0.19223,0.3829223 -0.19069,0.1410767 -0.52555,0.1410767 -0.13953,0 -0.29146,-0.027905 -0.15038,-0.026355 -0.31781,-0.080615 V 5.4270953 q 0.15813,0.082166 0.31161,0.1240234 0.15348,0.040308 0.30386,0.040308 0.20154,0 0.31006,-0.068213 0.10852,-0.069763 0.10852,-0.1953369 0,-0.116272 -0.0791,-0.1782837 -0.0775,-0.062012 -0.34261,-0.1193726 l -0.0992,-0.023254 q -0.2651,-0.05581 -0.38292,-0.1705322 -0.11783,-0.116272 -0.11783,-0.3178101 0,-0.2449463 0.17364,-0.3782714 0.17363,-0.1333252 0.49299,-0.1333252 0.15813,0 0.29766,0.023254 0.13952,0.023254 0.25735,0.069763 z"
       id="path27937" />
  </g>
  <g
     style="font-style:normal;font-weight:normal;font-size:2.82462335px;line-height:125%;font-family:sans-serif;text-align:center;letter-spacing:0px;word-spacing:0px;text-anchor:middle;fill:none;fill-opacity:1;stroke:#0000ff;stroke-width:0.08896451;stroke-linecap:butt;stroke-linejoin:miter;stroke-miterlimit:4;stroke-dasharray:none;stroke-opacity:1"
     id="text17065"
     transform="translate(-1.9777676,-2.0457137)">
    <path
       inkscape:connector-curvature="0"
       d="m 165.22489,25.784226 v 0.293772 q -0.14068,-0.131025 -0.30067,-0.195848 -0.15861,-0.06482 -0.33791,-0.06482 -0.35307,0 -0.54065,0.216536 -0.18757,0.215157 -0.18757,0.623403 0,0.406867 0.18757,0.623404 0.18758,0.215156 0.54065,0.215156 0.1793,0 0.33791,-0.06482 0.15999,-0.06482 0.30067,-0.195847 v 0.291013 q -0.1462,0.0993 -0.31032,0.148955 -0.16275,0.04965 -0.34481,0.04965 -0.46755,0 -0.7365,-0.285496 -0.26894,-0.286876 -0.26894,-0.782013 0,-0.496516 0.26894,-0.782012 0.26895,-0.286876 0.7365,-0.286876 0.18482,0 0.34756,0.04965 0.16413,0.04827 0.30757,0.146196 z"
       style="stroke-width:0.08896451"
       id="path27753" />
    <path
       inkscape:connector-curvature="0"
       d="m 166.54203,26.377287 q -0.0428,-0.02483 -0.0938,-0.03586 -0.0497,-0.01241 -0.11034,-0.01241 -0.21516,0 -0.33101,0.14068 -0.11447,0.1393 -0.11447,0.40135 v 0.813734 h -0.25516 v -1.544716 h 0.25516 v 0.239983 q 0.08,-0.14068 0.20826,-0.208261 0.12826,-0.06896 0.3117,-0.06896 0.0262,0 0.0579,0.0041 0.0317,0.0028 0.0703,0.0097 l 0.001,0.260671 z"
       style="stroke-width:0.08896451"
       id="path27755" />
    <path
       inkscape:connector-curvature="0"
       d="m 168.07158,26.848977 v 0.124129 h -1.16681 q 0.0165,0.26205 0.15723,0.399971 0.14206,0.136541 0.39445,0.136541 0.1462,0 0.28274,-0.03586 0.13792,-0.03586 0.27308,-0.107578 v 0.239982 q -0.13654,0.05793 -0.27998,0.08827 -0.14344,0.03034 -0.29101,0.03034 -0.36963,0 -0.58617,-0.215157 -0.21515,-0.215156 -0.21515,-0.582026 0,-0.379283 0.20412,-0.601336 0.2055,-0.223432 0.55306,-0.223432 0.31171,0 0.49238,0.201364 0.18206,0.199986 0.18206,0.544789 z m -0.25378,-0.07448 q -0.003,-0.208261 -0.11723,-0.33239 -0.11309,-0.124129 -0.30067,-0.124129 -0.2124,0 -0.34066,0.119992 -0.12689,0.119991 -0.1462,0.337906 l 0.90476,-0.0014 z"
       style="stroke-width:0.08896451"
       id="path27757" />
    <path
       inkscape:connector-curvature="0"
       d="m 169.19012,26.908283 q -0.30757,0 -0.42618,0.07034 -0.11861,0.07034 -0.11861,0.239983 0,0.135163 0.0883,0.215157 0.0897,0.07861 0.24274,0.07861 0.21102,0 0.33791,-0.148955 0.12826,-0.150334 0.12826,-0.398592 v -0.05655 h -0.25239 z m 0.50617,-0.10482 v 0.881315 h -0.25378 v -0.234466 q -0.0869,0.14068 -0.21653,0.208261 -0.12965,0.0662 -0.31722,0.0662 -0.23722,0 -0.3779,-0.132404 -0.1393,-0.133783 -0.1393,-0.357215 0,-0.260671 0.17378,-0.393075 0.17516,-0.132405 0.52134,-0.132405 h 0.35583 v -0.02483 q 0,-0.17516 -0.11585,-0.270326 -0.11447,-0.09655 -0.32274,-0.09655 -0.1324,0 -0.25791,0.03172 -0.12551,0.03172 -0.24136,0.09517 v -0.234466 q 0.1393,-0.05379 0.27033,-0.07999 0.13102,-0.02758 0.25515,-0.02758 0.33515,0 0.50065,0.17378 0.16551,0.173781 0.16551,0.526859 z"
       style="stroke-width:0.08896451"
       id="path27759" />
    <path
       inkscape:connector-curvature="0"
       d="m 170.4714,25.701473 v 0.438589 h 0.52273 v 0.197227 h -0.52273 v 0.83856 q 0,0.188952 0.051,0.242742 0.0524,0.05379 0.21101,0.05379 h 0.26068 v 0.212398 h -0.26068 q -0.29377,0 -0.40548,-0.108957 -0.11172,-0.110337 -0.11172,-0.399972 v -0.83856 h -0.18619 v -0.197227 h 0.18619 v -0.438589 h 0.25515 z"
       style="stroke-width:0.08896451"
       id="path27761" />
    <path
       inkscape:connector-curvature="0"
       d="m 172.65056,26.848977 v 0.124129 h -1.16681 q 0.0166,0.26205 0.15723,0.399971 0.14205,0.136541 0.39445,0.136541 0.1462,0 0.28274,-0.03586 0.13792,-0.03586 0.27308,-0.107578 v 0.239982 q -0.13654,0.05793 -0.27998,0.08827 -0.14344,0.03034 -0.29101,0.03034 -0.36963,0 -0.58617,-0.215157 -0.21515,-0.215156 -0.21515,-0.582026 0,-0.379283 0.20412,-0.601336 0.2055,-0.223432 0.55306,-0.223432 0.31171,0 0.49238,0.201364 0.18206,0.199986 0.18206,0.544789 z m -0.25378,-0.07448 q -0.003,-0.208261 -0.11723,-0.33239 -0.1131,-0.124129 -0.30067,-0.124129 -0.2124,0 -0.34066,0.119992 -0.12689,0.119991 -0.1462,0.337906 l 0.90476,-0.0014 z"
       style="stroke-width:0.08896451"
       id="path27763" />
    <path
       inkscape:connector-curvature="0"
       d="m 174.08356,26.374528 v -0.835802 h 0.25377 v 2.146052 h -0.25377 v -0.231707 q -0.08,0.137921 -0.20275,0.205502 -0.12137,0.0662 -0.29239,0.0662 -0.27998,0 -0.45652,-0.223432 -0.17516,-0.223432 -0.17516,-0.587544 0,-0.364111 0.17516,-0.587543 0.17654,-0.223432 0.45652,-0.223432 0.17102,0 0.29239,0.06758 0.12275,0.0662 0.20275,0.204123 z m -0.86477,0.539271 q 0,0.27998 0.11448,0.439969 0.11585,0.158609 0.31722,0.158609 0.20136,0 0.31721,-0.158609 0.11586,-0.159989 0.11586,-0.439969 0,-0.279979 -0.11586,-0.438588 -0.11585,-0.159989 -0.31721,-0.159989 -0.20137,0 -0.31722,0.159989 -0.11448,0.158609 -0.11448,0.438588 z"
       style="stroke-width:0.08896451"
       id="path27765" />
    <path
       inkscape:connector-curvature="0"
       d="m 176.86818,26.913799 q 0,-0.279979 -0.11585,-0.438588 -0.11447,-0.159989 -0.31584,-0.159989 -0.20136,0 -0.31722,0.159989 -0.11447,0.158609 -0.11447,0.438588 0,0.27998 0.11447,0.439969 0.11586,0.158609 0.31722,0.158609 0.20137,0 0.31584,-0.158609 0.11585,-0.159989 0.11585,-0.439969 z m -0.86338,-0.539271 q 0.08,-0.137921 0.20136,-0.204123 0.12275,-0.06758 0.29239,-0.06758 0.28136,0 0.45652,0.223432 0.17654,0.223432 0.17654,0.587543 0,0.364112 -0.17654,0.587544 -0.17516,0.223432 -0.45652,0.223432 -0.16964,0 -0.29239,-0.0662 -0.12137,-0.06758 -0.20136,-0.205502 v 0.231707 h -0.25516 v -2.146052 h 0.25516 v 0.835802 z"
       style="stroke-width:0.08896451"
       id="path27767" />
    <path
       inkscape:connector-curvature="0"
       d="m 178.19498,27.828216 q -0.10757,0.275842 -0.20964,0.359974 -0.10206,0.08413 -0.27308,0.08413 h -0.20274 v -0.212398 h 0.14895 q 0.10482,0 0.16275,-0.04965 0.0579,-0.04965 0.12827,-0.234466 l 0.0455,-0.115854 -0.62478,-1.51989 h 0.26894 l 0.48273,1.208189 0.48272,-1.208189 h 0.26895 l -0.67858,1.688154 z"
       style="stroke-width:0.08896451"
       id="path27769" />
    <path
       inkscape:connector-curvature="0"
       d="m 180.96996,25.814569 q -0.30343,0 -0.48273,0.22619 -0.17792,0.226191 -0.17792,0.616507 0,0.388938 0.17792,0.615128 0.1793,0.226191 0.48273,0.226191 0.30342,0 0.47996,-0.226191 0.17792,-0.22619 0.17792,-0.615128 0,-0.390316 -0.17792,-0.616507 -0.17654,-0.22619 -0.47996,-0.22619 z m 0,-0.226191 q 0.43307,0 0.69236,0.291014 0.25929,0.289634 0.25929,0.777874 0,0.486862 -0.25929,0.777875 -0.25929,0.289634 -0.69236,0.289634 -0.43446,0 -0.69513,-0.289634 -0.25929,-0.289634 -0.25929,-0.777875 0,-0.48824 0.25929,-0.777874 0.26067,-0.291014 0.69513,-0.291014 z"
       style="stroke-width:0.08896451"
       id="path27771" />
    <path
       inkscape:connector-curvature="0"
       d="m 182.59191,27.453071 v 0.819251 h -0.25516 v -2.13226 h 0.25516 v 0.234466 q 0.08,-0.137921 0.20136,-0.204123 0.12275,-0.06758 0.29239,-0.06758 0.28136,0 0.45652,0.223432 0.17654,0.223432 0.17654,0.587543 0,0.364112 -0.17654,0.587544 -0.17516,0.223432 -0.45652,0.223432 -0.16964,0 -0.29239,-0.0662 -0.12137,-0.06758 -0.20136,-0.205502 z m 0.86338,-0.539272 q 0,-0.279979 -0.11585,-0.438588 -0.11448,-0.159989 -0.31584,-0.159989 -0.20136,0 -0.31722,0.159989 -0.11447,0.158609 -0.11447,0.438588 0,0.27998 0.11447,0.439969 0.11586,0.158609 0.31722,0.158609 0.20136,0 0.31584,-0.158609 0.11585,-0.159989 0.11585,-0.439969 z"
       style="stroke-width:0.08896451"
       id="path27773" />
    <path
       inkscape:connector-curvature="0"
       d="m 185.46067,26.848977 v 0.124129 h -1.16682 q 0.0165,0.26205 0.15723,0.399971 0.14206,0.136541 0.39446,0.136541 0.14619,0 0.28274,-0.03586 0.13792,-0.03586 0.27308,-0.107578 v 0.239982 q -0.13654,0.05793 -0.27998,0.08827 -0.14344,0.03034 -0.29101,0.03034 -0.36963,0 -0.58617,-0.215157 -0.21515,-0.215156 -0.21515,-0.582026 0,-0.379283 0.20412,-0.601336 0.2055,-0.223432 0.55306,-0.223432 0.3117,0 0.49238,0.201364 0.18206,0.199986 0.18206,0.544789 z m -0.25378,-0.07448 q -0.003,-0.208261 -0.11723,-0.33239 -0.1131,-0.124129 -0.30067,-0.124129 -0.2124,0 -0.34066,0.119992 -0.12689,0.119991 -0.1462,0.337906 l 0.90476,-0.0014 z"
       style="stroke-width:0.08896451"
       id="path27775" />
    <path
       inkscape:connector-curvature="0"
       d="m 187.16123,26.752432 v 0.932346 h -0.25377 v -0.924071 q 0,-0.219294 -0.0855,-0.328252 -0.0855,-0.108958 -0.25654,-0.108958 -0.2055,0 -0.32411,0.131025 -0.11861,0.131025 -0.11861,0.357216 v 0.87304 h -0.25516 v -1.544716 h 0.25516 v 0.239983 q 0.091,-0.1393 0.21378,-0.208261 0.12412,-0.06896 0.28549,-0.06896 0.26619,0 0.40273,0.165505 0.13654,0.164126 0.13654,0.484103 z"
       style="stroke-width:0.08896451"
       id="path27777" />
    <path
       inkscape:connector-curvature="0"
       d="m 188.82042,25.701473 v 0.438589 h 0.52272 v 0.197227 h -0.52272 v 0.83856 q 0,0.188952 0.051,0.242742 0.0524,0.05379 0.21102,0.05379 h 0.26067 v 0.212398 h -0.26067 q -0.29377,0 -0.40548,-0.108957 -0.11172,-0.110337 -0.11172,-0.399972 v -0.83856 h -0.18619 v -0.197227 h 0.18619 v -0.438589 h 0.25515 z"
       style="stroke-width:0.08896451"
       id="path27779" />
    <path
       inkscape:connector-curvature="0"
       d="m 190.27687,26.31798 q -0.20412,0 -0.32274,0.159989 -0.11861,0.158609 -0.11861,0.43583 0,0.277222 0.11723,0.43721 0.11862,0.158609 0.32412,0.158609 0.20274,0 0.32136,-0.159988 0.11861,-0.159988 0.11861,-0.435831 0,-0.274462 -0.11861,-0.434451 -0.11862,-0.161368 -0.32136,-0.161368 z m 0,-0.215156 q 0.33101,0 0.51996,0.215156 0.18895,0.215157 0.18895,0.595819 0,0.379283 -0.18895,0.595819 -0.18895,0.215157 -0.51996,0.215157 -0.33239,0 -0.52134,-0.215157 -0.18758,-0.216536 -0.18758,-0.595819 0,-0.380662 0.18758,-0.595819 0.18895,-0.215156 0.52134,-0.215156 z"
       style="stroke-width:0.08896451"
       id="path27781" />
    <path
       inkscape:connector-curvature="0"
       d="m 193.54974,25.693198 v 0.271705 q -0.15861,-0.07586 -0.29929,-0.113096 -0.14068,-0.03724 -0.27171,-0.03724 -0.22757,0 -0.3517,0.08827 -0.12275,0.08827 -0.12275,0.251016 0,0.136542 0.0814,0.206882 0.0828,0.06896 0.3117,0.111716 l 0.16826,0.03448 q 0.3117,0.05931 0.45928,0.20964 0.14895,0.148955 0.14895,0.399971 0,0.299289 -0.20136,0.453761 -0.19999,0.154471 -0.58754,0.154471 -0.1462,0 -0.31171,-0.0331 -0.16412,-0.0331 -0.34066,-0.09792 v -0.286875 q 0.16964,0.09516 0.33239,0.143437 0.16275,0.04827 0.31998,0.04827 0.2386,0 0.36825,-0.09379 0.12964,-0.09379 0.12964,-0.267566 0,-0.151714 -0.0938,-0.237225 -0.0924,-0.08551 -0.3048,-0.128266 l -0.16964,-0.0331 q -0.31171,-0.06207 -0.45101,-0.194469 -0.1393,-0.132404 -0.1393,-0.368249 0,-0.273084 0.19171,-0.430314 0.19309,-0.15723 0.531,-0.15723 0.14482,0 0.29515,0.02621 0.15034,0.02621 0.30757,0.07861 z"
       style="stroke-width:0.08896451"
       id="path27783" />
    <path
       inkscape:connector-curvature="0"
       d="m 194.69586,26.31798 q -0.20412,0 -0.32273,0.159989 -0.11862,0.158609 -0.11862,0.43583 0,0.277222 0.11724,0.43721 0.11861,0.158609 0.32411,0.158609 0.20274,0 0.32136,-0.159988 0.11861,-0.159988 0.11861,-0.435831 0,-0.274462 -0.11861,-0.434451 -0.11862,-0.161368 -0.32136,-0.161368 z m 0,-0.215156 q 0.33101,0 0.51996,0.215156 0.18895,0.215157 0.18895,0.595819 0,0.379283 -0.18895,0.595819 -0.18895,0.215157 -0.51996,0.215157 -0.33239,0 -0.52134,-0.215157 -0.18757,-0.216536 -0.18757,-0.595819 0,-0.380662 0.18757,-0.595819 0.18895,-0.215156 0.52134,-0.215156 z"
       style="stroke-width:0.08896451"
       id="path27785" />
    <path
       inkscape:connector-curvature="0"
       d="m 195.79785,27.075167 v -0.935105 h 0.25377 v 0.925451 q 0,0.219294 0.0855,0.329631 0.0855,0.108958 0.25654,0.108958 0.2055,0 0.32411,-0.131025 0.11999,-0.131025 0.11999,-0.357216 v -0.875799 h 0.25378 v 1.544716 h -0.25378 v -0.237224 q -0.0924,0.140679 -0.21515,0.20964 -0.12137,0.06758 -0.28274,0.06758 -0.26619,0 -0.40411,-0.165505 -0.13792,-0.165505 -0.13792,-0.484103 z m 0.63857,-0.972343 z"
       style="stroke-width:0.08896451"
       id="path27787" />
    <path
       inkscape:connector-curvature="0"
       d="m 198.51214,26.377287 q -0.0428,-0.02483 -0.0938,-0.03586 -0.0497,-0.01241 -0.11034,-0.01241 -0.21515,0 -0.33101,0.14068 -0.11447,0.1393 -0.11447,0.40135 v 0.813734 h -0.25515 v -1.544716 h 0.25515 v 0.239983 q 0.08,-0.14068 0.20826,-0.208261 0.12827,-0.06896 0.3117,-0.06896 0.0262,0 0.0579,0.0041 0.0317,0.0028 0.0703,0.0097 l 0.001,0.260671 z"
       style="stroke-width:0.08896451"
       id="path27789" />
    <path
       inkscape:connector-curvature="0"
       d="m 199.83204,26.199368 v 0.237225 q -0.10758,-0.05931 -0.21654,-0.08827 -0.10757,-0.03034 -0.21791,-0.03034 -0.24688,0 -0.38342,0.157231 -0.13654,0.15585 -0.13654,0.438588 0,0.282739 0.13654,0.439969 0.13654,0.15585 0.38342,0.15585 0.11034,0 0.21791,-0.02896 0.10896,-0.03034 0.21654,-0.08965 v 0.234466 q -0.1062,0.04965 -0.22067,0.07448 -0.1131,0.02482 -0.24137,0.02482 -0.34894,0 -0.55444,-0.219294 -0.2055,-0.219295 -0.2055,-0.591682 0,-0.377903 0.20688,-0.594439 0.20826,-0.216536 0.56962,-0.216536 0.11723,0 0.22894,0.02483 0.11172,0.02345 0.21654,0.07172 z"
       style="stroke-width:0.08896451"
       id="path27791" />
    <path
       inkscape:connector-curvature="0"
       d="m 201.59743,26.848977 v 0.124129 h -1.16681 q 0.0165,0.26205 0.15723,0.399971 0.14205,0.136541 0.39445,0.136541 0.1462,0 0.28274,-0.03586 0.13792,-0.03586 0.27308,-0.107578 v 0.239982 q -0.13654,0.05793 -0.27998,0.08827 -0.14344,0.03034 -0.29101,0.03034 -0.36963,0 -0.58617,-0.215157 -0.21515,-0.215156 -0.21515,-0.582026 0,-0.379283 0.20412,-0.601336 0.2055,-0.223432 0.55306,-0.223432 0.31171,0 0.49238,0.201364 0.18206,0.199986 0.18206,0.544789 z m -0.25378,-0.07448 q -0.003,-0.208261 -0.11723,-0.33239 -0.11309,-0.124129 -0.30067,-0.124129 -0.2124,0 -0.34066,0.119992 -0.12689,0.119991 -0.1462,0.337906 l 0.90476,-0.0014 z"
       style="stroke-width:0.08896451"
       id="path27793" />
    <path
       inkscape:connector-curvature="0"
       d="m 162.88988,30.474921 q 0,0.197227 0.0979,0.310323 0.0979,0.111716 0.26894,0.111716 0.16965,0 0.26619,-0.113096 0.0979,-0.113095 0.0979,-0.308943 0,-0.193089 -0.0993,-0.306184 -0.0993,-0.114475 -0.26756,-0.114475 -0.16689,0 -0.26619,0.113095 -0.0979,0.113096 -0.0979,0.307564 z m 0.75167,0.412384 q -0.0828,0.106199 -0.19033,0.15723 -0.1062,0.04965 -0.24826,0.04965 -0.23722,0 -0.38617,-0.171022 -0.14758,-0.172402 -0.14758,-0.448244 0,-0.275842 0.14896,-0.448243 0.14895,-0.172401 0.38479,-0.172401 0.14206,0 0.24964,0.05241 0.10758,0.05103 0.18895,0.15585 v -0.180676 h 0.19723 v 1.015099 q 0.20137,-0.03034 0.31446,-0.183435 0.11448,-0.154472 0.11448,-0.398592 0,-0.147576 -0.0441,-0.277221 -0.0428,-0.129646 -0.13102,-0.239983 -0.14344,-0.180677 -0.35032,-0.275842 -0.20551,-0.09654 -0.44825,-0.09654 -0.16964,0 -0.32549,0.04551 -0.15585,0.04413 -0.28826,0.132404 -0.21653,0.14068 -0.33928,0.369629 -0.12137,0.227569 -0.12137,0.493757 0,0.219295 0.0786,0.411005 0.08,0.19171 0.23033,0.337906 0.14482,0.143438 0.33515,0.217916 0.19033,0.07586 0.40687,0.07586 0.17791,0 0.34894,-0.06068 0.1724,-0.05931 0.31584,-0.171022 l 0.12412,0.153092 q -0.1724,0.133784 -0.37652,0.204123 -0.20274,0.07172 -0.41238,0.07172 -0.25516,0 -0.48135,-0.09103 -0.22619,-0.08965 -0.40273,-0.26205 -0.17654,-0.172401 -0.26894,-0.398591 -0.0924,-0.22757 -0.0924,-0.488241 0,-0.251016 0.0938,-0.478586 0.0938,-0.22757 0.26756,-0.399971 0.17792,-0.17516 0.41101,-0.267567 0.23308,-0.09379 0.49375,-0.09379 0.2924,0 0.54203,0.119991 0.25102,0.119991 0.42066,0.340665 0.10344,0.135163 0.15723,0.293772 0.0552,0.158609 0.0552,0.328252 0,0.362732 -0.21929,0.572372 -0.2193,0.20964 -0.60548,0.217916 v -0.212399 z"
       style="stroke-width:0.08896451"
       id="path27795" />
    <path
       inkscape:connector-curvature="0"
       d="m 165.55452,29.156396 h 1.74194 v 0.234466 h -0.73098 v 1.824695 h -0.27998 v -1.824695 h -0.73098 z"
       style="stroke-width:0.08896451"
       id="path27797" />
    <path
       inkscape:connector-curvature="0"
       d="m 168.8398,30.283211 v 0.932346 h -0.25378 v -0.924071 q 0,-0.219294 -0.0855,-0.328252 -0.0855,-0.108957 -0.25653,-0.108957 -0.2055,0 -0.32411,0.131025 -0.11862,0.131025 -0.11862,0.357215 v 0.87304 h -0.25515 v -2.146051 h 0.25515 v 0.841318 q 0.091,-0.1393 0.21378,-0.208261 0.12413,-0.06896 0.2855,-0.06896 0.26618,0 0.40273,0.165505 0.13654,0.164126 0.13654,0.484103 z"
       style="stroke-width:0.08896451"
       id="path27799" />
    <path
       inkscape:connector-curvature="0"
       d="m 170.67001,30.379756 v 0.124129 h -1.16681 q 0.0165,0.26205 0.15723,0.399971 0.14206,0.136542 0.39445,0.136542 0.1462,0 0.28274,-0.03586 0.13792,-0.03586 0.27309,-0.107578 v 0.239982 q -0.13655,0.05793 -0.27998,0.08827 -0.14344,0.03034 -0.29102,0.03034 -0.36963,0 -0.58616,-0.215157 -0.21516,-0.215157 -0.21516,-0.582027 0,-0.379283 0.20412,-0.601336 0.20551,-0.223432 0.55307,-0.223432 0.3117,0 0.49238,0.201365 0.18205,0.199985 0.18205,0.544788 z m -0.25377,-0.07448 q -0.003,-0.20826 -0.11724,-0.332389 -0.11309,-0.124129 -0.30066,-0.124129 -0.2124,0 -0.34067,0.119991 -0.12689,0.119991 -0.1462,0.337907 l 0.90477,-0.0014 z"
       style="stroke-width:0.08896451"
       id="path27801" />
    <path
       inkscape:connector-curvature="0"
       d="m 171.99681,29.156396 h 0.2786 v 0.870282 l 0.92407,-0.870282 h 0.3586 l -1.022,0.959931 1.0951,1.09923 h -0.36687 l -0.9889,-0.991652 v 0.991652 h -0.2786 z"
       style="stroke-width:0.08896451"
       id="path27803" />
    <path
       inkscape:connector-curvature="0"
       d="m 174.4918,30.439062 q -0.30756,0 -0.42617,0.07034 -0.11861,0.07034 -0.11861,0.239982 0,0.135163 0.0883,0.215157 0.0896,0.07861 0.24274,0.07861 0.21102,0 0.3379,-0.148955 0.12827,-0.150334 0.12827,-0.398592 v -0.05655 h -0.2524 z m 0.50617,-0.10482 v 0.881315 h -0.25377 v -0.234465 q -0.0869,0.140679 -0.21654,0.20826 -0.12964,0.0662 -0.31722,0.0662 -0.23722,0 -0.3779,-0.132405 -0.1393,-0.133783 -0.1393,-0.357215 0,-0.260671 0.17378,-0.393075 0.17516,-0.132405 0.52134,-0.132405 h 0.35584 v -0.02482 q 0,-0.17516 -0.11585,-0.270326 -0.11448,-0.09654 -0.32274,-0.09654 -0.1324,0 -0.25791,0.03172 -0.12551,0.03172 -0.24136,0.09516 V 29.74118 q 0.1393,-0.05379 0.27032,-0.07999 0.13103,-0.02758 0.25516,-0.02758 0.33514,0 0.50065,0.17378 0.1655,0.173781 0.1655,0.526859 z"
       style="stroke-width:0.08896451"
       id="path27805" />
    <path
       inkscape:connector-curvature="0"
       d="m 176.72475,29.967372 q 0.0952,-0.171022 0.22757,-0.252396 0.1324,-0.08137 0.3117,-0.08137 0.24136,0 0.37238,0.169643 0.13103,0.168263 0.13103,0.479965 v 0.932346 h -0.25516 v -0.924071 q 0,-0.222053 -0.0786,-0.329631 -0.0786,-0.107578 -0.23998,-0.107578 -0.19723,0 -0.3117,0.131025 -0.11448,0.131025 -0.11448,0.357215 v 0.87304 h -0.25515 v -0.924071 q 0,-0.223432 -0.0786,-0.329631 -0.0786,-0.107578 -0.24274,-0.107578 -0.19447,0 -0.30894,0.132404 -0.11448,0.131025 -0.11448,0.355836 v 0.87304 h -0.25515 v -1.544715 h 0.25515 v 0.239982 q 0.0869,-0.142059 0.20826,-0.20964 0.12137,-0.06758 0.28826,-0.06758 0.16826,0 0.2855,0.08551 0.11861,0.08551 0.17516,0.248258 z"
       style="stroke-width:0.08896451"
       id="path27807" />
    <path
       inkscape:connector-curvature="0"
       d="m 178.27498,29.069506 h 0.25377 v 2.146051 h -0.25377 z"
       style="stroke-width:0.08896451"
       id="path27809" />
    <path
       inkscape:connector-curvature="0"
       d="m 179.65695,29.84876 q -0.20413,0 -0.32274,0.159988 -0.11861,0.158609 -0.11861,0.435831 0,0.277221 0.11723,0.437209 0.11861,0.15861 0.32412,0.15861 0.20274,0 0.32135,-0.159989 0.11862,-0.159988 0.11862,-0.43583 0,-0.274463 -0.11862,-0.434452 -0.11861,-0.161367 -0.32135,-0.161367 z m 0,-0.215157 q 0.33101,0 0.51996,0.215157 0.18895,0.215157 0.18895,0.595819 0,0.379283 -0.18895,0.595819 -0.18895,0.215157 -0.51996,0.215157 -0.33239,0 -0.52134,-0.215157 -0.18758,-0.216536 -0.18758,-0.595819 0,-0.380662 0.18758,-0.595819 0.18895,-0.215157 0.52134,-0.215157 z"
       style="stroke-width:0.08896451"
       id="path27811" />
    <path
       inkscape:connector-curvature="0"
       d="m 181.38372,29.84876 q -0.20412,0 -0.32274,0.159988 -0.11861,0.158609 -0.11861,0.435831 0,0.277221 0.11724,0.437209 0.11861,0.15861 0.32411,0.15861 0.20274,0 0.32136,-0.159989 0.11861,-0.159988 0.11861,-0.43583 0,-0.274463 -0.11861,-0.434452 -0.11862,-0.161367 -0.32136,-0.161367 z m 0,-0.215157 q 0.33101,0 0.51996,0.215157 0.18895,0.215157 0.18895,0.595819 0,0.379283 -0.18895,0.595819 -0.18895,0.215157 -0.51996,0.215157 -0.33239,0 -0.52134,-0.215157 -0.18757,-0.216536 -0.18757,-0.595819 0,-0.380662 0.18757,-0.595819 0.18895,-0.215157 0.52134,-0.215157 z"
       style="stroke-width:0.08896451"
       id="path27813" />
    <path
       inkscape:connector-curvature="0"
       d="m 182.75741,30.98385 v 0.819251 h -0.25515 v -2.132259 h 0.25515 v 0.234465 q 0.08,-0.137921 0.20137,-0.204123 0.12275,-0.06758 0.29239,-0.06758 0.28136,0 0.45652,0.223432 0.17654,0.223432 0.17654,0.587544 0,0.364111 -0.17654,0.587543 -0.17516,0.223433 -0.45652,0.223433 -0.16964,0 -0.29239,-0.0662 -0.12137,-0.06758 -0.20137,-0.205502 z m 0.86339,-0.539271 q 0,-0.27998 -0.11585,-0.438589 -0.11448,-0.159989 -0.31584,-0.159989 -0.20137,0 -0.31722,0.159989 -0.11448,0.158609 -0.11448,0.438589 0,0.279979 0.11448,0.439968 0.11585,0.158609 0.31722,0.158609 0.20136,0 0.31584,-0.158609 0.11585,-0.159989 0.11585,-0.439968 z"
       style="stroke-width:0.08896451"
       id="path27815" />
    <path
       inkscape:connector-curvature="0"
       d="m 185.28964,29.716355 v 0.239983 q -0.10758,-0.05517 -0.22343,-0.08275 -0.11585,-0.02758 -0.23998,-0.02758 -0.18895,0 -0.28412,0.05793 -0.0938,0.05793 -0.0938,0.173781 0,0.08827 0.0676,0.1393 0.0676,0.04965 0.2717,0.09516 l 0.0869,0.01931 q 0.27033,0.05793 0.38342,0.164126 0.11448,0.10482 0.11448,0.293772 0,0.215157 -0.17103,0.340665 -0.16964,0.125509 -0.46755,0.125509 -0.12413,0 -0.25929,-0.02483 -0.13378,-0.02345 -0.28274,-0.07172 v -0.26205 q 0.14068,0.0731 0.27722,0.110337 0.13654,0.03586 0.27033,0.03586 0.1793,0 0.27584,-0.06068 0.0966,-0.06207 0.0966,-0.173781 0,-0.103441 -0.0703,-0.158609 -0.069,-0.05517 -0.30481,-0.106199 l -0.0883,-0.02069 q -0.23584,-0.04965 -0.34066,-0.151714 -0.10482,-0.10344 -0.10482,-0.282738 0,-0.217915 0.15447,-0.336527 0.15447,-0.118612 0.43859,-0.118612 0.14068,0 0.2648,0.02069 0.12413,0.02069 0.22895,0.06206 z"
       style="stroke-width:0.08896451"
       id="path27817" />
    <path
       inkscape:connector-curvature="0"
       d="m 186.68816,29.156396 h 0.41515 l 0.52547,1.401278 0.52824,-1.401278 h 0.41514 v 2.059161 h -0.2717 v -1.808145 l -0.531,1.412312 h -0.27998 l -0.53099,-1.412312 v 1.808145 h -0.27033 z"
       style="stroke-width:0.08896451"
       id="path27819" />
    <path
       inkscape:connector-curvature="0"
       d="m 189.81759,30.439062 q -0.30756,0 -0.42617,0.07034 -0.11862,0.07034 -0.11862,0.239982 0,0.135163 0.0883,0.215157 0.0896,0.07861 0.24274,0.07861 0.21102,0 0.33791,-0.148955 0.12827,-0.150334 0.12827,-0.398592 v -0.05655 h -0.2524 z m 0.50617,-0.10482 v 0.881315 h -0.25377 v -0.234465 q -0.0869,0.140679 -0.21654,0.20826 -0.12964,0.0662 -0.31722,0.0662 -0.23722,0 -0.3779,-0.132405 -0.1393,-0.133783 -0.1393,-0.357215 0,-0.260671 0.17378,-0.393075 0.17516,-0.132405 0.52134,-0.132405 h 0.35584 v -0.02482 q 0,-0.17516 -0.11586,-0.270326 -0.11447,-0.09654 -0.32273,-0.09654 -0.13241,0 -0.25791,0.03172 -0.12551,0.03172 -0.24137,0.09516 V 29.74118 q 0.1393,-0.05379 0.27033,-0.07999 0.13102,-0.02758 0.25515,-0.02758 0.33515,0 0.50066,0.17378 0.1655,0.173781 0.1655,0.526859 z"
       style="stroke-width:0.08896451"
       id="path27821" />
    <path
       inkscape:connector-curvature="0"
       d="m 190.83821,29.069506 h 0.25515 V 30.337 l 0.75719,-0.666158 h 0.32411 l -0.81925,0.722706 0.85373,0.822009 h -0.33101 l -0.78477,-0.754428 v 0.754428 h -0.25515 z"
       style="stroke-width:0.08896451"
       id="path27823" />
    <path
       inkscape:connector-curvature="0"
       d="m 193.70835,30.379756 v 0.124129 h -1.16682 q 0.0165,0.26205 0.15723,0.399971 0.14206,0.136542 0.39446,0.136542 0.14619,0 0.28274,-0.03586 0.13792,-0.03586 0.27308,-0.107578 v 0.239982 q -0.13654,0.05793 -0.27998,0.08827 -0.14344,0.03034 -0.29101,0.03034 -0.36963,0 -0.58617,-0.215157 -0.21516,-0.215157 -0.21516,-0.582027 0,-0.379283 0.20413,-0.601336 0.2055,-0.223432 0.55306,-0.223432 0.3117,0 0.49238,0.201365 0.18206,0.199985 0.18206,0.544788 z m -0.25378,-0.07448 q -0.003,-0.20826 -0.11723,-0.332389 -0.1131,-0.124129 -0.30067,-0.124129 -0.2124,0 -0.34067,0.119991 -0.12688,0.119991 -0.14619,0.337907 l 0.90476,-0.0014 z"
       style="stroke-width:0.08896451"
       id="path27825" />
    <path
       inkscape:connector-curvature="0"
       d="m 195.01997,29.908066 q -0.0428,-0.02483 -0.0938,-0.03586 -0.0496,-0.01241 -0.11034,-0.01241 -0.21516,0 -0.33101,0.14068 -0.11447,0.1393 -0.11447,0.40135 v 0.813734 h -0.25516 v -1.544715 h 0.25516 v 0.239982 q 0.08,-0.140679 0.20826,-0.208261 0.12826,-0.06896 0.3117,-0.06896 0.0262,0 0.0579,0.0041 0.0317,0.0028 0.0703,0.0097 l 0.001,0.260671 z"
       style="stroke-width:0.08896451"
       id="path27827" />
    <path
       inkscape:connector-curvature="0"
       d="m 196.27368,29.716355 v 0.239983 q -0.10758,-0.05517 -0.22344,-0.08275 -0.11585,-0.02758 -0.23998,-0.02758 -0.18895,0 -0.28412,0.05793 -0.0938,0.05793 -0.0938,0.173781 0,0.08827 0.0676,0.1393 0.0676,0.04965 0.2717,0.09516 l 0.0869,0.01931 q 0.27033,0.05793 0.38343,0.164126 0.11447,0.10482 0.11447,0.293772 0,0.215157 -0.17102,0.340665 -0.16965,0.125509 -0.46755,0.125509 -0.12413,0 -0.2593,-0.02483 -0.13378,-0.02345 -0.28273,-0.07172 v -0.26205 q 0.14067,0.0731 0.27722,0.110337 0.13654,0.03586 0.27032,0.03586 0.1793,0 0.27584,-0.06068 0.0966,-0.06207 0.0966,-0.173781 0,-0.103441 -0.0703,-0.158609 -0.069,-0.05517 -0.30481,-0.106199 l -0.0883,-0.02069 q -0.23584,-0.04965 -0.34066,-0.151714 -0.10482,-0.10344 -0.10482,-0.282738 0,-0.217915 0.15447,-0.336527 0.15447,-0.118612 0.43859,-0.118612 0.14068,0 0.26481,0.02069 0.12413,0.02069 0.22895,0.06206 z"
       style="stroke-width:0.08896451"
       id="path27829" />
    <path
       inkscape:connector-curvature="0"
       d="m 197.00742,30.98385 v 0.819251 h -0.25516 v -2.132259 h 0.25516 v 0.234465 q 0.08,-0.137921 0.20136,-0.204123 0.12275,-0.06758 0.29239,-0.06758 0.28136,0 0.45652,0.223432 0.17654,0.223432 0.17654,0.587544 0,0.364111 -0.17654,0.587543 -0.17516,0.223433 -0.45652,0.223433 -0.16964,0 -0.29239,-0.0662 -0.12137,-0.06758 -0.20136,-0.205502 z m 0.86338,-0.539271 q 0,-0.27998 -0.11585,-0.438589 -0.11448,-0.159989 -0.31584,-0.159989 -0.20137,0 -0.31722,0.159989 -0.11447,0.158609 -0.11447,0.438589 0,0.279979 0.11447,0.439968 0.11585,0.158609 0.31722,0.158609 0.20136,0 0.31584,-0.158609 0.11585,-0.159989 0.11585,-0.439968 z"
       style="stroke-width:0.08896451"
       id="path27831" />
    <path
       inkscape:connector-curvature="0"
       d="m 199.25691,30.439062 q -0.30756,0 -0.42618,0.07034 -0.11861,0.07034 -0.11861,0.239982 0,0.135163 0.0883,0.215157 0.0897,0.07861 0.24274,0.07861 0.21102,0 0.33791,-0.148955 0.12827,-0.150334 0.12827,-0.398592 v -0.05655 h -0.2524 z m 0.50617,-0.10482 v 0.881315 h -0.25377 v -0.234465 q -0.0869,0.140679 -0.21654,0.20826 -0.12965,0.0662 -0.31722,0.0662 -0.23722,0 -0.3779,-0.132405 -0.1393,-0.133783 -0.1393,-0.357215 0,-0.260671 0.17378,-0.393075 0.17516,-0.132405 0.52134,-0.132405 h 0.35584 v -0.02482 q 0,-0.17516 -0.11586,-0.270326 -0.11447,-0.09654 -0.32273,-0.09654 -0.13241,0 -0.25791,0.03172 -0.12551,0.03172 -0.24137,0.09516 V 29.74118 q 0.1393,-0.05379 0.27033,-0.07999 0.13102,-0.02758 0.25515,-0.02758 0.33515,0 0.50066,0.17378 0.1655,0.173781 0.1655,0.526859 z"
       style="stroke-width:0.08896451"
       id="path27833" />
    <path
       inkscape:connector-curvature="0"
       d="m 201.39882,29.730148 v 0.237224 q -0.10757,-0.05931 -0.21653,-0.08827 -0.10758,-0.03034 -0.21792,-0.03034 -0.24688,0 -0.38342,0.15723 -0.13654,0.15585 -0.13654,0.438589 0,0.282738 0.13654,0.439968 0.13654,0.155851 0.38342,0.155851 0.11034,0 0.21792,-0.02896 0.10896,-0.03034 0.21653,-0.08965 v 0.234465 q -0.10619,0.04965 -0.22067,0.07448 -0.11309,0.02483 -0.24136,0.02483 -0.34894,0 -0.55444,-0.219295 -0.20551,-0.219294 -0.20551,-0.591681 0,-0.377904 0.20689,-0.59444 0.20826,-0.216536 0.56961,-0.216536 0.11723,0 0.22895,0.02483 0.11171,0.02345 0.21653,0.07172 z"
       style="stroke-width:0.08896451"
       id="path27835" />
    <path
       inkscape:connector-curvature="0"
       d="m 203.16421,30.379756 v 0.124129 h -1.16681 q 0.0165,0.26205 0.15723,0.399971 0.14206,0.136542 0.39445,0.136542 0.1462,0 0.28274,-0.03586 0.13792,-0.03586 0.27309,-0.107578 v 0.239982 q -0.13655,0.05793 -0.27998,0.08827 -0.14344,0.03034 -0.29102,0.03034 -0.36962,0 -0.58616,-0.215157 -0.21516,-0.215157 -0.21516,-0.582027 0,-0.379283 0.20413,-0.601336 0.2055,-0.223432 0.55306,-0.223432 0.3117,0 0.49238,0.201365 0.18205,0.199985 0.18205,0.544788 z m -0.25377,-0.07448 q -0.003,-0.20826 -0.11723,-0.332389 -0.1131,-0.124129 -0.30067,-0.124129 -0.2124,0 -0.34067,0.119991 -0.12689,0.119991 -0.14619,0.337907 l 0.90476,-0.0014 z"
       style="stroke-width:0.08896451"
       id="path27837" />
  </g>
  <g
     style="font-style:normal;font-weight:normal;font-size:1.73644245px;line-height:125%;font-family:sans-serif;text-align:center;letter-spacing:0px;word-spacing:0px;text-anchor:middle;fill:none;fill-opacity:1;stroke:#0000ff;stroke-width:0.1;stroke-linecap:butt;stroke-linejoin:miter;stroke-miterlimit:4;stroke-dasharray:none;stroke-opacity:1"
     id="text21076"
     transform="translate(-1.9777676,-2.0457137)">
    <path
       inkscape:connector-curvature="0"
       d="m 162.98974,35.225928 v -0.339997 h -0.2798 v -0.140747 h 0.44937 v 0.543486 q -0.0992,0.07037 -0.21875,0.106832 -0.11955,0.03561 -0.25521,0.03561 -0.29675,0 -0.46463,-0.172966 -0.16703,-0.173814 -0.16703,-0.483287 0,-0.310321 0.16703,-0.483287 0.16788,-0.173814 0.46463,-0.173814 0.12379,0 0.23486,0.03052 0.11192,0.03052 0.20604,0.08987 v 0.182292 q -0.095,-0.08055 -0.2018,-0.121246 -0.10683,-0.0407 -0.22468,-0.0407 -0.23232,0 -0.34933,0.129724 -0.11616,0.129724 -0.11616,0.38663 0,0.256057 0.11616,0.385782 0.11701,0.129724 0.34933,0.129724 0.0907,0 0.16194,-0.01526 0.0712,-0.01611 0.12803,-0.04918 z"
       id="path26822" />
    <path
       inkscape:connector-curvature="0"
       d="m 163.46624,34.456908 h 0.15601 v 0.949617 h -0.15601 z m 0,-0.369673 h 0.15601 v 0.197555 h -0.15601 z"
       id="path26824" />
    <path
       inkscape:connector-curvature="0"
       d="m 164.10215,34.187284 v 0.269624 h 0.32134 v 0.121245 h -0.32134 v 0.515507 q 0,0.116158 0.0314,0.149225 0.0322,0.03307 0.12972,0.03307 h 0.16025 v 0.130573 h -0.16025 q -0.18059,0 -0.24927,-0.06698 -0.0687,-0.06783 -0.0687,-0.245883 v -0.515507 h -0.11446 v -0.121245 h 0.11446 v -0.269624 h 0.15686 z"
       id="path26826" />
    <path
       inkscape:connector-curvature="0"
       d="m 165.41889,34.833363 v 0.573162 h -0.15601 V 34.83845 q 0,-0.134811 -0.0526,-0.201793 -0.0526,-0.06698 -0.15771,-0.06698 -0.12633,0 -0.19925,0.08055 -0.0729,0.08055 -0.0729,0.219598 v 0.536704 h -0.15685 v -1.31929 h 0.15685 v 0.517202 q 0.056,-0.08563 0.13142,-0.128028 0.0763,-0.04239 0.17551,-0.04239 0.16364,0 0.24758,0.101745 0.0839,0.100897 0.0839,0.297603 z"
       id="path26828" />
    <path
       inkscape:connector-curvature="0"
       d="m 165.71565,35.031765 v -0.574857 h 0.15601 v 0.568922 q 0,0.134812 0.0526,0.202641 0.0526,0.06698 0.15771,0.06698 0.12633,0 0.19925,-0.08055 0.0738,-0.08055 0.0738,-0.219599 v -0.538399 h 0.15601 v 0.949617 h -0.15601 v -0.145834 q -0.0568,0.08648 -0.13226,0.128876 -0.0746,0.04155 -0.17382,0.04155 -0.16364,0 -0.24842,-0.101745 -0.0848,-0.101744 -0.0848,-0.297603 z m 0.39256,-0.59775 z"
       id="path26830" />
    <path
       inkscape:connector-curvature="0"
       d="m 167.51568,34.932564 q 0,-0.172118 -0.0712,-0.269623 -0.0704,-0.09835 -0.19416,-0.09835 -0.12379,0 -0.19501,0.09835 -0.0704,0.09751 -0.0704,0.269623 0,0.172118 0.0704,0.270471 0.0712,0.09751 0.19501,0.09751 0.12379,0 0.19416,-0.09751 0.0712,-0.09835 0.0712,-0.270471 z m -0.53077,-0.331518 q 0.0492,-0.08479 0.12379,-0.125485 0.0755,-0.04155 0.17975,-0.04155 0.17297,0 0.28065,0.137355 0.10852,0.137356 0.10852,0.361194 0,0.223838 -0.10852,0.361194 -0.10768,0.137355 -0.28065,0.137355 -0.10429,0 -0.17975,-0.0407 -0.0746,-0.04155 -0.12379,-0.126333 v 0.142443 h -0.15685 v -1.31929 h 0.15685 v 0.513811 z"
       id="path26832" />
    <path
       inkscape:connector-curvature="0"
       d="m 167.95827,35.191165 h 0.1789 v 0.21536 h -0.1789 z"
       id="path26834" />
    <path
       inkscape:connector-curvature="0"
       d="M 169.17242,34.493366 V 34.6392 q -0.0661,-0.03646 -0.13311,-0.05426 -0.0661,-0.01865 -0.13397,-0.01865 -0.15177,0 -0.2357,0.09666 -0.0839,0.09581 -0.0839,0.269623 0,0.173814 0.0839,0.270471 0.0839,0.09581 0.2357,0.09581 0.0678,0 0.13397,-0.01781 0.067,-0.01865 0.13311,-0.05511 v 0.144138 q -0.0653,0.03052 -0.13566,0.04579 -0.0695,0.01526 -0.14837,0.01526 -0.21452,0 -0.34085,-0.134812 -0.12633,-0.134811 -0.12633,-0.363737 0,-0.232317 0.12718,-0.365433 0.12803,-0.133116 0.35017,-0.133116 0.0721,0 0.14075,0.01526 0.0687,0.01441 0.13311,0.04409 z"
       id="path26836" />
    <path
       inkscape:connector-curvature="0"
       d="m 169.81341,34.566283 q -0.12548,0 -0.1984,0.09835 -0.0729,0.09751 -0.0729,0.267928 0,0.170422 0.0721,0.268776 0.0729,0.0975 0.19925,0.0975 0.12464,0 0.19756,-0.09835 0.0729,-0.09835 0.0729,-0.267928 0,-0.168727 -0.0729,-0.26708 -0.0729,-0.0992 -0.19756,-0.0992 z m 0,-0.132268 q 0.20349,0 0.31965,0.132268 0.11616,0.132268 0.11616,0.366281 0,0.233165 -0.11616,0.366281 -0.11616,0.132268 -0.31965,0.132268 -0.20433,0 -0.32049,-0.132268 -0.11531,-0.133116 -0.11531,-0.366281 0,-0.234013 0.11531,-0.366281 0.11616,-0.132268 0.32049,-0.132268 z"
       id="path26838" />
    <path
       inkscape:connector-curvature="0"
       d="m 171.24632,34.6392 q 0.0585,-0.105136 0.1399,-0.15516 0.0814,-0.05002 0.19162,-0.05002 0.14837,0 0.22892,0.104288 0.0806,0.103441 0.0806,0.29506 v 0.573162 h -0.15686 v -0.568075 q 0,-0.136507 -0.0483,-0.202641 -0.0483,-0.06613 -0.14753,-0.06613 -0.12125,0 -0.19162,0.08055 -0.0704,0.08055 -0.0704,0.219598 v 0.536704 h -0.15685 v -0.568075 q 0,-0.137355 -0.0483,-0.202641 -0.0483,-0.06613 -0.14923,-0.06613 -0.11955,0 -0.18992,0.0814 -0.0704,0.08055 -0.0704,0.218751 v 0.536704 h -0.15686 v -0.949617 h 0.15686 v 0.147529 q 0.0534,-0.08733 0.12802,-0.128876 0.0746,-0.04155 0.17721,-0.04155 0.10344,0 0.17551,0.05257 0.0729,0.05257 0.10768,0.152617 z"
       id="path26840" />
    <path
       inkscape:connector-curvature="0"
       d="m 172.47658,34.140651 h 0.14414 l -0.44089,1.426969 h -0.14414 z"
       id="path26842" />
    <path
       inkscape:connector-curvature="0"
       d="m 173.55168,34.182197 v 0.167031 q -0.0975,-0.04663 -0.18399,-0.06953 -0.0865,-0.02289 -0.16703,-0.02289 -0.13989,0 -0.2162,0.05426 -0.0755,0.05426 -0.0755,0.154312 0,0.08394 0.05,0.127181 0.0509,0.04239 0.19162,0.06868 l 0.10344,0.0212 q 0.19162,0.03646 0.28234,0.128876 0.0916,0.09157 0.0916,0.245883 0,0.183989 -0.12379,0.27895 -0.12294,0.09496 -0.36119,0.09496 -0.0899,0 -0.19162,-0.02035 -0.1009,-0.02035 -0.20942,-0.0602 v -0.176357 q 0.10428,0.0585 0.20433,0.08818 0.10005,0.02968 0.19671,0.02968 0.14668,0 0.22638,-0.05766 0.0797,-0.05766 0.0797,-0.164488 0,-0.09327 -0.0577,-0.145834 -0.0568,-0.05257 -0.18738,-0.07885 l -0.10429,-0.02035 q -0.19162,-0.03815 -0.27726,-0.11955 -0.0856,-0.0814 -0.0856,-0.226382 0,-0.167878 0.11785,-0.264536 0.1187,-0.09666 0.32643,-0.09666 0.089,0 0.18145,0.01611 0.0924,0.01611 0.18907,0.04833 z"
       id="path26844" />
    <path
       inkscape:connector-curvature="0"
       d="m 174.2834,35.494703 q -0.0661,0.169575 -0.12888,0.221295 -0.0627,0.05172 -0.16788,0.05172 h -0.12463 v -0.130572 h 0.0916 q 0.0644,0 0.10004,-0.03052 0.0356,-0.03052 0.0789,-0.144139 l 0.028,-0.07122 -0.38409,-0.934355 h 0.16534 l 0.29675,0.742736 0.29676,-0.742736 h 0.16533 l -0.41715,1.037795 z"
       id="path26846" />
    <path
       inkscape:connector-curvature="0"
       d="m 175.70528,34.833363 v 0.573162 h -0.15601 V 34.83845 q 0,-0.134811 -0.0526,-0.201793 -0.0526,-0.06698 -0.1577,-0.06698 -0.12633,0 -0.19925,0.08055 -0.0729,0.08055 -0.0729,0.219598 v 0.536704 h -0.15685 v -0.949617 h 0.15685 v 0.147529 q 0.056,-0.08563 0.13142,-0.128028 0.0763,-0.04239 0.17551,-0.04239 0.16364,0 0.24758,0.101745 0.0839,0.100897 0.0839,0.297603 z"
       id="path26848" />
    <path
       inkscape:connector-curvature="0"
       d="M 176.70153,34.493366 V 34.6392 q -0.0661,-0.03646 -0.13312,-0.05426 -0.0661,-0.01865 -0.13396,-0.01865 -0.15177,0 -0.23571,0.09666 -0.0839,0.09581 -0.0839,0.269623 0,0.173814 0.0839,0.270471 0.0839,0.09581 0.23571,0.09581 0.0678,0 0.13396,-0.01781 0.067,-0.01865 0.13312,-0.05511 v 0.144138 q -0.0653,0.03052 -0.13566,0.04579 -0.0695,0.01526 -0.14838,0.01526 -0.21451,0 -0.34084,-0.134812 -0.12634,-0.134811 -0.12634,-0.363737 0,-0.232317 0.12719,-0.365433 0.12802,-0.133116 0.35017,-0.133116 0.0721,0 0.14074,0.01526 0.0687,0.01441 0.13312,0.04409 z"
       id="path26850" />
    <path
       inkscape:connector-curvature="0"
       d="m 177.76391,34.833363 v 0.573162 H 177.6079 V 34.83845 q 0,-0.134811 -0.0526,-0.201793 -0.0526,-0.06698 -0.15771,-0.06698 -0.12633,0 -0.19925,0.08055 -0.0729,0.08055 -0.0729,0.219598 v 0.536704 h -0.15686 v -1.31929 h 0.15686 v 0.517202 q 0.056,-0.08563 0.13142,-0.128028 0.0763,-0.04239 0.17551,-0.04239 0.16363,0 0.24757,0.101745 0.0839,0.100897 0.0839,0.297603 z"
       id="path26852" />
    <path
       inkscape:connector-curvature="0"
       d="m 178.62705,34.602742 q -0.0263,-0.01526 -0.0577,-0.02204 -0.0305,-0.0076 -0.0678,-0.0076 -0.13227,0 -0.20349,0.08648 -0.0704,0.08564 -0.0704,0.246731 v 0.500245 h -0.15686 v -0.949617 h 0.15686 v 0.147529 q 0.0492,-0.08648 0.12803,-0.128028 0.0789,-0.04239 0.19162,-0.04239 0.0161,0 0.0356,0.0025 0.0195,0.0017 0.0432,0.0059 l 8.5e-4,0.160248 z"
       id="path26854" />
    <path
       inkscape:connector-curvature="0"
       d="m 179.12305,34.566283 q -0.12548,0 -0.1984,0.09835 -0.0729,0.09751 -0.0729,0.267928 0,0.170422 0.0721,0.268776 0.0729,0.0975 0.19925,0.0975 0.12464,0 0.19756,-0.09835 0.0729,-0.09835 0.0729,-0.267928 0,-0.168727 -0.0729,-0.26708 -0.0729,-0.0992 -0.19756,-0.0992 z m 0,-0.132268 q 0.20349,0 0.31965,0.132268 0.11616,0.132268 0.11616,0.366281 0,0.233165 -0.11616,0.366281 -0.11616,0.132268 -0.31965,0.132268 -0.20434,0 -0.32049,-0.132268 -0.11531,-0.133116 -0.11531,-0.366281 0,-0.234013 0.11531,-0.366281 0.11615,-0.132268 0.32049,-0.132268 z"
       id="path26856" />
    <path
       inkscape:connector-curvature="0"
       d="m 180.60598,34.833363 v 0.573162 h -0.15601 V 34.83845 q 0,-0.134811 -0.0526,-0.201793 -0.0526,-0.06698 -0.1577,-0.06698 -0.12633,0 -0.19925,0.08055 -0.0729,0.08055 -0.0729,0.219598 v 0.536704 h -0.15685 v -0.949617 h 0.15685 v 0.147529 q 0.056,-0.08563 0.13142,-0.128028 0.0763,-0.04239 0.17551,-0.04239 0.16364,0 0.24758,0.101745 0.0839,0.100897 0.0839,0.297603 z"
       id="path26858" />
    <path
       inkscape:connector-curvature="0"
       d="m 180.91885,34.456908 h 0.156 v 0.949617 h -0.156 z m 0,-0.369673 h 0.156 v 0.197555 h -0.156 z"
       id="path26860" />
    <path
       inkscape:connector-curvature="0"
       d="m 182.00582,34.484887 v 0.14753 q -0.0661,-0.03391 -0.13736,-0.05087 -0.0712,-0.01696 -0.14753,-0.01696 -0.11615,0 -0.17466,0.03561 -0.0576,0.03561 -0.0576,0.106832 0,0.05426 0.0415,0.08563 0.0416,0.03052 0.16703,0.0585 l 0.0534,0.01187 q 0.16618,0.03561 0.23571,0.100896 0.0704,0.06444 0.0704,0.180597 0,0.132268 -0.10513,0.209425 -0.10429,0.07716 -0.28743,0.07716 -0.0763,0 -0.1594,-0.01526 -0.0822,-0.01441 -0.17382,-0.04409 v -0.161096 q 0.0865,0.04494 0.17042,0.06783 0.0839,0.02205 0.16619,0.02205 0.11022,0 0.16957,-0.03731 0.0594,-0.03815 0.0594,-0.106832 0,-0.06359 -0.0432,-0.0975 -0.0424,-0.03392 -0.18738,-0.06529 l -0.0543,-0.01272 q -0.14499,-0.03052 -0.20943,-0.09327 -0.0644,-0.06359 -0.0644,-0.173814 0,-0.133964 0.095,-0.206881 0.095,-0.07292 0.26962,-0.07292 0.0865,0 0.16279,0.01272 0.0763,0.01272 0.14075,0.03815 z"
       id="path26862" />
    <path
       inkscape:connector-curvature="0"
       d="m 182.46028,34.187284 v 0.269624 h 0.32134 v 0.121245 h -0.32134 v 0.515507 q 0,0.116158 0.0314,0.149225 0.0322,0.03307 0.12972,0.03307 h 0.16025 v 0.130573 h -0.16025 q -0.18059,0 -0.24927,-0.06698 -0.0687,-0.06783 -0.0687,-0.245883 v -0.515507 h -0.11446 v -0.121245 h 0.11446 v -0.269624 h 0.15686 z"
       id="path26864" />
    <path
       inkscape:connector-curvature="0"
       d="m 182.98765,34.456908 h 0.15601 v 0.949617 h -0.15601 z m 0,-0.369673 h 0.15601 v 0.197555 h -0.15601 z"
       id="path26866" />
    <path
       inkscape:connector-curvature="0"
       d="M 184.15263,34.493366 V 34.6392 q -0.0661,-0.03646 -0.13312,-0.05426 -0.0661,-0.01865 -0.13396,-0.01865 -0.15177,0 -0.23571,0.09666 -0.0839,0.09581 -0.0839,0.269623 0,0.173814 0.0839,0.270471 0.0839,0.09581 0.23571,0.09581 0.0678,0 0.13396,-0.01781 0.067,-0.01865 0.13312,-0.05511 v 0.144138 q -0.0653,0.03052 -0.13566,0.04579 -0.0695,0.01526 -0.14838,0.01526 -0.21451,0 -0.34084,-0.134812 -0.12633,-0.134811 -0.12633,-0.363737 0,-0.232317 0.12718,-0.365433 0.12803,-0.133116 0.35017,-0.133116 0.0721,0 0.14074,0.01526 0.0687,0.01441 0.13312,0.04409 z"
       id="path26868" />
    <path
       inkscape:connector-curvature="0"
       d="m 185.19127,34.182197 v 0.167031 q -0.0975,-0.04663 -0.18398,-0.06953 -0.0865,-0.02289 -0.16703,-0.02289 -0.1399,0 -0.21621,0.05426 -0.0755,0.05426 -0.0755,0.154312 0,0.08394 0.05,0.127181 0.0509,0.04239 0.19162,0.06868 l 0.10344,0.0212 q 0.19162,0.03646 0.28234,0.128876 0.0916,0.09157 0.0916,0.245883 0,0.183989 -0.12379,0.27895 -0.12294,0.09496 -0.36119,0.09496 -0.0899,0 -0.19162,-0.02035 -0.1009,-0.02035 -0.20942,-0.0602 v -0.176357 q 0.10428,0.0585 0.20433,0.08818 0.10005,0.02968 0.19671,0.02968 0.14668,0 0.22638,-0.05766 0.0797,-0.05766 0.0797,-0.164488 0,-0.09327 -0.0577,-0.145834 -0.0568,-0.05257 -0.18738,-0.07885 l -0.10429,-0.02035 q -0.19162,-0.03815 -0.27726,-0.11955 -0.0856,-0.0814 -0.0856,-0.226382 0,-0.167878 0.11785,-0.264536 0.11871,-0.09666 0.32643,-0.09666 0.089,0 0.18145,0.01611 0.0924,0.01611 0.18907,0.04833 z"
       id="path26870" />
    <path
       inkscape:connector-curvature="0"
       d="m 185.95945,34.929173 q -0.18908,0 -0.262,0.04324 -0.0729,0.04324 -0.0729,0.14753 0,0.08309 0.0543,0.132268 0.0551,0.04833 0.14923,0.04833 0.12972,0 0.20773,-0.09157 0.0788,-0.09242 0.0788,-0.245035 v -0.03476 h -0.15516 z m 0.31117,-0.06444 v 0.541791 h -0.15601 v -0.144139 q -0.0534,0.08648 -0.13312,0.128029 -0.0797,0.0407 -0.19501,0.0407 -0.14583,0 -0.23232,-0.0814 -0.0856,-0.08224 -0.0856,-0.219599 0,-0.160248 0.10683,-0.241643 0.10768,-0.0814 0.3205,-0.0814 h 0.21875 v -0.01526 q 0,-0.10768 -0.0712,-0.166183 -0.0704,-0.05935 -0.19841,-0.05935 -0.0814,0 -0.15855,0.0195 -0.0771,0.0195 -0.14838,0.0585 v -0.144138 q 0.0856,-0.03307 0.16619,-0.04918 0.0805,-0.01696 0.15685,-0.01696 0.20604,0 0.30778,0.106832 0.10175,0.106832 0.10175,0.323887 z"
       id="path26872" />
    <path
       inkscape:connector-curvature="0"
       d="m 186.48089,34.456908 h 0.16533 l 0.29676,0.797 0.29675,-0.797 h 0.16534 l -0.35611,0.949617 h -0.21197 z"
       id="path26874" />
    <path
       inkscape:connector-curvature="0"
       d="m 188.05199,34.929173 q -0.18907,0 -0.26199,0.04324 -0.0729,0.04324 -0.0729,0.14753 0,0.08309 0.0543,0.132268 0.0551,0.04833 0.14922,0.04833 0.12973,0 0.20773,-0.09157 0.0789,-0.09242 0.0789,-0.245035 v -0.03476 h -0.15517 z m 0.31117,-0.06444 v 0.541791 h -0.156 v -0.144139 q -0.0534,0.08648 -0.13312,0.128029 -0.0797,0.0407 -0.19501,0.0407 -0.14584,0 -0.23232,-0.0814 -0.0856,-0.08224 -0.0856,-0.219599 0,-0.160248 0.10683,-0.241643 0.10768,-0.0814 0.32049,-0.0814 h 0.21876 v -0.01526 q 0,-0.10768 -0.0712,-0.166183 -0.0704,-0.05935 -0.1984,-0.05935 -0.0814,0 -0.15855,0.0195 -0.0772,0.0195 -0.14838,0.0585 v -0.144138 q 0.0856,-0.03307 0.16619,-0.04918 0.0805,-0.01696 0.15685,-0.01696 0.20603,0 0.30778,0.106832 0.10174,0.106832 0.10174,0.323887 z"
       id="path26876" />
    <path
       inkscape:connector-curvature="0"
       d="m 189.31024,34.920694 q 0,-0.169575 -0.0704,-0.262841 -0.0695,-0.09327 -0.19585,-0.09327 -0.12549,0 -0.19586,0.09327 -0.0695,0.09327 -0.0695,0.262841 0,0.168726 0.0695,0.261992 0.0704,0.09327 0.19586,0.09327 0.12633,0 0.19585,-0.09327 0.0704,-0.09327 0.0704,-0.261992 z m 0.15601,0.367976 q 0,0.242492 -0.10768,0.360346 -0.10768,0.118702 -0.32983,0.118702 -0.0822,0 -0.15516,-0.01272 -0.0729,-0.01187 -0.14159,-0.03731 v -0.151769 q 0.0687,0.03731 0.13566,0.05511 0.067,0.01781 0.13651,0.01781 0.15346,0 0.22977,-0.08055 0.0763,-0.0797 0.0763,-0.241644 v -0.07716 q -0.0483,0.08394 -0.12379,0.125485 -0.0755,0.04155 -0.1806,0.04155 -0.17466,0 -0.28149,-0.133116 -0.10683,-0.133116 -0.10683,-0.352715 0,-0.220447 0.10683,-0.353563 0.10683,-0.133116 0.28149,-0.133116 0.10514,0 0.1806,0.04155 0.0755,0.04155 0.12379,0.125485 v -0.144138 h 0.15601 v 0.831762 z"
       id="path26878" />
    <path
       inkscape:connector-curvature="0"
       d="m 190.59985,34.892714 v 0.07631 h -0.7173 q 0.0102,0.161095 0.0967,0.245883 0.0873,0.08394 0.24249,0.08394 0.0899,0 0.17381,-0.02204 0.0848,-0.02204 0.16788,-0.06613 v 0.14753 q -0.0839,0.03561 -0.17212,0.05426 -0.0882,0.01865 -0.1789,0.01865 -0.22723,0 -0.36034,-0.132268 -0.13227,-0.132268 -0.13227,-0.357802 0,-0.233165 0.12549,-0.369673 0.12633,-0.137355 0.33999,-0.137355 0.19162,0 0.30269,0.123789 0.11192,0.122942 0.11192,0.33491 z m -0.15601,-0.04578 q -0.002,-0.128029 -0.0721,-0.204337 -0.0695,-0.07631 -0.18483,-0.07631 -0.13057,0 -0.20943,0.07377 -0.078,0.07377 -0.0899,0.207729 l 0.5562,-8.48e-4 z"
       id="path26880" />
    <path
       inkscape:connector-curvature="0"
       d="m 191.13316,34.140651 h 0.14414 l -0.44089,1.426969 h -0.14414 z"
       id="path26882" />
    <path
       inkscape:connector-curvature="0"
       d="m 191.27391,34.140651 h 1.07086 v 0.144139 h -0.44937 v 1.121735 h -0.17212 V 34.28479 h -0.44937 z"
       id="path26884" />
    <path
       inkscape:connector-curvature="0"
       d="m 192.44991,34.456908 h 0.15601 v 0.949617 h -0.15601 z m 0,-0.369673 h 0.15601 v 0.197555 h -0.15601 z"
       id="path26886" />
    <path
       inkscape:connector-curvature="0"
       d="m 193.72087,34.833363 v 0.573162 h -0.15601 V 34.83845 q 0,-0.134811 -0.0526,-0.201793 -0.0526,-0.06698 -0.1577,-0.06698 -0.12633,0 -0.19925,0.08055 -0.0729,0.08055 -0.0729,0.219598 v 0.536704 h -0.15685 v -0.949617 h 0.15685 v 0.147529 q 0.056,-0.08563 0.13142,-0.128028 0.0763,-0.04239 0.17551,-0.04239 0.16364,0 0.24758,0.101745 0.0839,0.100897 0.0839,0.297603 z"
       id="path26888" />
    <path
       inkscape:connector-curvature="0"
       d="m 194.42884,35.494703 q -0.0661,0.169575 -0.12887,0.221295 -0.0627,0.05172 -0.16788,0.05172 h -0.12464 v -0.130572 h 0.0916 q 0.0644,0 0.10005,-0.03052 0.0356,-0.03052 0.0788,-0.144139 l 0.028,-0.07122 -0.38408,-0.934355 h 0.16533 l 0.29676,0.742736 0.29675,-0.742736 h 0.16534 l -0.41716,1.037795 z"
       id="path26890" />
    <path
       inkscape:connector-curvature="0"
       d="m 194.95198,34.861343 h 0.457 v 0.139051 h -0.457 z"
       id="path26892" />
    <path
       inkscape:connector-curvature="0"
       d="m 196.26533,34.813014 q 0.0551,0.01865 0.10684,0.0797 0.0526,0.06105 0.10513,0.167879 l 0.17382,0.345932 h -0.18399 l -0.16195,-0.324735 q -0.0627,-0.127181 -0.12209,-0.168727 -0.0585,-0.04155 -0.16025,-0.04155 h -0.18653 v 0.535008 h -0.17127 v -1.265874 h 0.38663 q 0.21706,0 0.32389,0.09072 0.10683,0.09072 0.10683,0.273862 0,0.11955 -0.056,0.198403 -0.0551,0.07885 -0.1611,0.109375 z m -0.42902,-0.531616 v 0.449372 h 0.21536 q 0.12379,0 0.18653,-0.05681 0.0636,-0.05766 0.0636,-0.168727 0,-0.111071 -0.0636,-0.16703 -0.0627,-0.05681 -0.18653,-0.05681 h -0.21536 z"
       id="path26894" />
    <path
       inkscape:connector-curvature="0"
       d="m 197.25989,34.929173 q -0.18908,0 -0.26199,0.04324 -0.0729,0.04324 -0.0729,0.14753 0,0.08309 0.0543,0.132268 0.0551,0.04833 0.14923,0.04833 0.12972,0 0.20773,-0.09157 0.0789,-0.09242 0.0789,-0.245035 v -0.03476 H 197.26 Z m 0.31117,-0.06444 v 0.541791 h -0.15601 v -0.144139 q -0.0534,0.08648 -0.13312,0.128029 -0.0797,0.0407 -0.19501,0.0407 -0.14583,0 -0.23231,-0.0814 -0.0856,-0.08224 -0.0856,-0.219599 0,-0.160248 0.10683,-0.241643 0.10768,-0.0814 0.3205,-0.0814 h 0.21875 v -0.01526 q 0,-0.10768 -0.0712,-0.166183 -0.0704,-0.05935 -0.1984,-0.05935 -0.0814,0 -0.15856,0.0195 -0.0772,0.0195 -0.14837,0.0585 v -0.144138 q 0.0856,-0.03307 0.16618,-0.04918 0.0805,-0.01696 0.15686,-0.01696 0.20603,0 0.30777,0.106832 0.10175,0.106832 0.10175,0.323887 z"
       id="path26896" />
    <path
       inkscape:connector-curvature="0"
       d="m 197.89325,34.456908 h 0.15601 v 0.949617 h -0.15601 z m 0,-0.369673 h 0.15601 v 0.197555 h -0.15601 z"
       id="path26898" />
    <path
       inkscape:connector-curvature="0"
       d="m 199.16421,34.833363 v 0.573162 H 199.0082 V 34.83845 q 0,-0.134811 -0.0526,-0.201793 -0.0526,-0.06698 -0.1577,-0.06698 -0.12633,0 -0.19925,0.08055 -0.0729,0.08055 -0.0729,0.219598 v 0.536704 h -0.15685 v -0.949617 h 0.15685 v 0.147529 q 0.056,-0.08563 0.13142,-0.128028 0.0763,-0.04239 0.17551,-0.04239 0.16364,0 0.24758,0.101745 0.0839,0.100897 0.0839,0.297603 z"
       id="path26900" />
    <path
       inkscape:connector-curvature="0"
       d="m 200.15876,34.932564 q 0,-0.172118 -0.0712,-0.269623 -0.0704,-0.09835 -0.19416,-0.09835 -0.12379,0 -0.19501,0.09835 -0.0704,0.09751 -0.0704,0.269623 0,0.172118 0.0704,0.270471 0.0712,0.09751 0.19501,0.09751 0.12379,0 0.19416,-0.09751 0.0712,-0.09835 0.0712,-0.270471 z M 199.628,34.601046 q 0.0492,-0.08479 0.12379,-0.125485 0.0755,-0.04155 0.17974,-0.04155 0.17297,0 0.28065,0.137355 0.10853,0.137356 0.10853,0.361194 0,0.223838 -0.10853,0.361194 -0.10768,0.137355 -0.28065,0.137355 -0.10428,0 -0.17974,-0.0407 -0.0746,-0.04155 -0.12379,-0.126333 v 0.142443 h -0.15686 v -1.31929 h 0.15686 v 0.513811 z"
       id="path26902" />
    <path
       inkscape:connector-curvature="0"
       d="m 200.94729,34.566283 q -0.12549,0 -0.19841,0.09835 -0.0729,0.09751 -0.0729,0.267928 0,0.170422 0.0721,0.268776 0.0729,0.0975 0.19925,0.0975 0.12463,0 0.19755,-0.09835 0.0729,-0.09835 0.0729,-0.267928 0,-0.168727 -0.0729,-0.26708 -0.0729,-0.0992 -0.19755,-0.0992 z m 0,-0.132268 q 0.20349,0 0.31964,0.132268 0.11616,0.132268 0.11616,0.366281 0,0.233165 -0.11616,0.366281 -0.11615,0.132268 -0.31964,0.132268 -0.20434,0 -0.3205,-0.132268 -0.11531,-0.133116 -0.11531,-0.366281 0,-0.234013 0.11531,-0.366281 0.11616,-0.132268 0.3205,-0.132268 z"
       id="path26904" />
    <path
       inkscape:connector-curvature="0"
       d="m 201.55012,34.456908 h 0.15601 l 0.19501,0.74104 0.19416,-0.74104 h 0.18399 l 0.19501,0.74104 0.19417,-0.74104 h 0.156 l -0.24842,0.949617 h -0.18399 l -0.20434,-0.778347 -0.20518,0.778347 h -0.18399 z"
       id="path26906" />
    <path
       inkscape:connector-curvature="0"
       d="m 203.66726,34.484887 v 0.14753 q -0.0661,-0.03391 -0.13735,-0.05087 -0.0712,-0.01696 -0.14753,-0.01696 -0.11616,0 -0.17467,0.03561 -0.0576,0.03561 -0.0576,0.106832 0,0.05426 0.0415,0.08563 0.0416,0.03052 0.16704,0.0585 l 0.0534,0.01187 q 0.16618,0.03561 0.23571,0.100896 0.0704,0.06444 0.0704,0.180597 0,0.132268 -0.10513,0.209425 -0.10429,0.07716 -0.28743,0.07716 -0.0763,0 -0.1594,-0.01526 -0.0822,-0.01441 -0.17382,-0.04409 v -0.161096 q 0.0865,0.04494 0.17043,0.06783 0.0839,0.02205 0.16618,0.02205 0.11022,0 0.16957,-0.03731 0.0594,-0.03815 0.0594,-0.106832 0,-0.06359 -0.0432,-0.0975 -0.0424,-0.03392 -0.18738,-0.06529 l -0.0543,-0.01272 q -0.14499,-0.03052 -0.20942,-0.09327 -0.0644,-0.06359 -0.0644,-0.173814 0,-0.133964 0.095,-0.206881 0.095,-0.07292 0.26962,-0.07292 0.0865,0 0.16279,0.01272 0.0763,0.01272 0.14075,0.03815 z"
       id="path26908" />
  </g>
  <path
     inkscape:connector-curvature="0"
     style="fill:none;stroke:#ff0000;stroke-width:0.09078652;stroke-miterlimit:4;stroke-dasharray:none;stroke-opacity:1"
     d="m 167.83425,7.0735691 a 2.5296068,2.5296066 0 0 1 -2.52961,2.5296063 2.5296068,2.5296066 0 0 1 -2.5296,-2.5296063 2.5296068,2.5296066 0 0 1 2.5296,-2.5296066 2.5296068,2.5296066 0 0 1 2.52961,2.5296066 z"
     id="path21877" />
  <path
     inkscape:connector-curvature="0"
     style="fill:none;stroke:#ff0000;stroke-width:0.08266568;stroke-miterlimit:4;stroke-dasharray:none;stroke-opacity:1"
     d="m 197.34135,7.0735691 a 2.5336671,2.5336671 0 0 1 -2.53367,2.5336672 2.5336671,2.5336671 0 0 1 -2.53368,-2.5336672 2.5336671,2.5336671 0 0 1 2.53368,-2.5336672 2.5336671,2.5336671 0 0 1 2.53367,2.5336672 z"
     id="path21879" />
  <path
     inkscape:connector-curvature="0"
     style="fill:none;stroke:#ff0000;stroke-width:0.09078652;stroke-miterlimit:4;stroke-dasharray:none;stroke-opacity:1"
     d="m 182.5917,38.576342 a 2.5296068,2.5296066 0 0 1 -2.52961,2.529607 2.5296068,2.5296066 0 0 1 -2.52961,-2.529607 2.5296068,2.5296066 0 0 1 2.52961,-2.529607 2.5296068,2.5296066 0 0 1 2.52961,2.529607 z"
     id="path21877-6" />
</svg>
