<?xml version="1.0"?>
<svg xmlns="http://www.w3.org/2000/svg" xmlns:lc="http://www.librecad.org" xmlns:xlink="http://www.w3.org/1999/xlink" width="213.99917346mm" height="44.04507533mm" viewBox="0 0 213.99917346 44.04507533">
    <g lc:layername="0" lc:is_locked="false" lc:is_construction="false" fill="none" stroke="black" stroke-width="1"/>
    <g lc:layername="Body_Slices" lc:is_locked="false" lc:is_construction="false" fill="none" stroke="black" stroke-width="1">
        <g lc:blockname="MYLAYER">
            <g lc:layername="0" lc:is_locked="false" lc:is_construction="false" fill="none" stroke="black" stroke-width="1"/>
            <g lc:layername="Body_Slices" lc:is_locked="false" lc:is_construction="false" fill="none" stroke="black" stroke-width="1">
                <path d="M58.19958913,-22.499984 L53.37211353,-21.26618571 L48.71842599,-19.48710196 L44.34003382,-17.11368334 L40.38832993,-14.08418379 L37.10364601,-10.34730632 L34.83925219,-5.92439113 L33.99979456,-1.03310871 L34.78926509,3.86620637 L37.01491714,8.30863383 L40.27363096,12.06811289 L44.20873022,15.11924851 L48.57801211,17.51299509 L53.22619816,19.31009877 L58.05092142,20.560339 L62.98047818,21.29859769 L67.95904155,21.54509133 L72.93802053,21.30650115 L77.86880413,20.576358 L82.69575616,19.33467374 L87.34752635,17.54681446 L91.72239467,15.16323545 L95.66620436,12.12326573 L98.93844899,8.37544878 L101.18457696,3.94201336 L101.99958913,-0.95489268 L101.18118988,-5.86183993 L98.92642923,-10.30266902 L95.64277849,-14.05472656 L91.68656356,-17.09608196 L87.30051657,-19.47808992 L82.63742259,-21.26291759 L77.79958913,-22.499984 L58.19958913,-22.499984 Z "/>
                <circle cx="67.99958913" cy="16.04510732" r="1.25"/>
                <path d="M95.99958913,2.98004298 L95.99958913,0.21004298 L39.99958913,0.21004298 L39.99958913,2.98004298 L95.99958913,2.98004298 Z "/>
                <circle cx="53.22458913" cy="-15.40495702" r="1.25"/>
                <circle cx="82.77458913" cy="-15.40495702" r="1.25"/>
            </g>
        </g>
        <g lc:blockname="MYLAYER002">
            <g lc:layername="0" lc:is_locked="false" lc:is_construction="false" fill="none" stroke="black" stroke-width="1"/>
            <g lc:layername="Body_Slices" lc:is_locked="false" lc:is_construction="false" fill="none" stroke="black" stroke-width="1">
                <path d="M204.19896802,-22.499984 L223.79896802,-22.499984 L228.63680149,-21.26291759 L233.29989547,-19.47808992 L237.68594245,-17.09608196 L241.64215739,-14.05472656 L244.92580813,-10.30266902 L247.18056877,-5.86183993 L247.99896802,-0.95489268 L247.18395586,3.94201336 L244.93782789,8.37544878 L241.66558326,12.12326573 L237.72177357,15.16323545 L233.34690524,17.54681446 L228.69513506,19.33467374 L223.86818302,20.576358 L218.93739942,21.30650115 L213.95842044,21.54509133 L208.97985707,21.29859769 L204.05030031,20.560339 L199.22557706,19.31009877 L194.57739101,17.51299509 L190.20810912,15.11924851 L186.27300985,12.06811289 L183.01429604,8.30863383 L180.78864398,3.86620637 L179.99917346,-1.03310871 L180.83863109,-5.92439113 L183.10302491,-10.34730632 L186.38770883,-14.08418379 L190.33941271,-17.11368334 L194.71780488,-19.48710196 L199.37149242,-21.26618571 L204.19896802,-22.499984 Z "/>
                <circle cx="228.77396802" cy="-15.40495702" r="1.25"/>
                <circle cx="213.99896802" cy="16.04510732" r="1.25"/>
                <circle cx="199.22396802" cy="-15.40495702" r="1.25"/>
            </g>
        </g>
        <g lc:blockname="MYLAYER001">
            <g lc:layername="0" lc:is_locked="false" lc:is_construction="false" fill="none" stroke="black" stroke-width="1"/>
            <g lc:layername="Body_Slices" lc:is_locked="false" lc:is_construction="false" fill="none" stroke="black" stroke-width="1">
                <path d="M131.19927858,-22.499984 L131.22427858,-22.499984 L131.22427858,-4.40495702 L112.49927858,-4.40495702 L112.49927858,7.59504298 L169.49927858,7.59504298 L169.49927858,-4.40495702 L150.77427858,-4.40495702 L150.77427858,-22.499984 L150.79927858,-22.499984 L155.63711204,-21.26291759 L160.30020602,-19.47808992 L164.68625301,-17.09608196 L168.64246794,-14.05472656 L171.92611868,-10.30266902 L174.18087932,-5.86183993 L174.99927858,-0.95489268 L174.18426641,3.94201336 L171.93813844,8.37544878 L168.66589381,12.12326573 L164.72208412,15.16323545 L160.34721579,17.54681446 L155.69544561,19.33467374 L150.86849357,20.576358 L145.93770998,21.30650115 L140.95873099,21.54509133 L135.98016762,21.29859769 L131.05061087,20.560339 L126.22588761,19.31009877 L121.57770156,17.51299509 L117.20841967,15.11924851 L113.2733204,12.06811289 L110.01460659,8.30863383 L107.78895454,3.86620637 L106.99948401,-1.03310871 L107.83894164,-5.92439113 L110.10333546,-10.34730632 L113.38801938,-14.08418379 L117.33972327,-17.11368334 L121.71811543,-19.48710196 L126.37180298,-21.26618571 L131.19927858,-22.499984 Z "/>
                <circle cx="155.77427858" cy="-15.40495702" r="1.25"/>
                <circle cx="140.99927858" cy="16.04510732" r="1.25"/>
                <circle cx="126.22427858" cy="-15.40495702" r="1.25"/>
            </g>
        </g>
    </g>
</svg>
