<?xml version="1.0" encoding="UTF-8" standalone="no"?>
<svg
   xmlns:dc="http://purl.org/dc/elements/1.1/"
   xmlns:cc="http://creativecommons.org/ns#"
   xmlns:rdf="http://www.w3.org/1999/02/22-rdf-syntax-ns#"
   xmlns:svg="http://www.w3.org/2000/svg"
   xmlns="http://www.w3.org/2000/svg"
   xmlns:sodipodi="http://sodipodi.sourceforge.net/DTD/sodipodi-0.dtd"
   xmlns:inkscape="http://www.inkscape.org/namespaces/inkscape"
   width="218.277088134mm"
   height="48.3238878854mm"
   viewBox="0 0 218.277088134 48.3238878854"
   version="1.1"
   id="svg1688"
   sodipodi:docname="Digi-Oval-8-USB-V0225-Free-Flat-Alt-Select-agaiafds.svg"
   inkscape:version="0.92.3 (2405546, 2018-03-11)">
  <metadata
     id="metadata1694">
    <rdf:RDF>
      <cc:Work
         rdf:about="">
        <dc:format>image/svg+xml</dc:format>
        <dc:type
           rdf:resource="http://purl.org/dc/dcmitype/StillImage" />
        <dc:title></dc:title>
      </cc:Work>
    </rdf:RDF>
  </metadata>
  <defs
     id="defs1692" />
  <sodipodi:namedview
     pagecolor="#ffffff"
     bordercolor="#666666"
     borderopacity="1"
     objecttolerance="10"
     gridtolerance="10"
     guidetolerance="10"
     inkscape:pageopacity="0"
     inkscape:pageshadow="2"
     inkscape:window-width="1680"
     inkscape:window-height="999"
     id="namedview1690"
     showgrid="false"
     inkscape:zoom="2"
     inkscape:cx="11.47222"
     inkscape:cy="115.96311"
     inkscape:window-x="0"
     inkscape:window-y="25"
     inkscape:window-maximized="1"
     inkscape:current-layer="MyLayer" />
  <g
     id="MyLayer"
     transform="matrix(1,0,0,-1,36.137738,23.685063)">
    <path
       id="MyLayer_w0000"
       d="m -9.8,21.545091 c -5.265102,-0.99161 -10.133871,-2.951689 -14.606305,-5.880235 -3.854399,-2.62383 -7.227607,-6.2373109 -8.759066,-10.7100906 -2.099269,-5.73375977 -0.07129,-12.2689319 4.04934,-16.5735284 3.073224,-3.216449 6.677187,-5.663904 10.811889,-7.342365 10.0454326,-4.153668 21.5121622,-4.598775 31.94271,-1.649305 5.797542,1.693189 11.422623,4.552284 15.536792,9.05703 C 32.045142,-8.4209866 34.023318,-4.3066288 34,0 34.025204,6.5344702 29.618647,12.192873 24.388054,15.6773 19.920154,18.598797 15.05747,20.554728 9.8,21.545091 H -9.8"
       style="fill:none;fill-rule:evenodd;stroke:#191919;stroke-width:0.34999999;stroke-miterlimit:4;stroke-dasharray:none"
       inkscape:connector-curvature="0" />
    <path
       d="m 1.3,-17 v 0"
       style="fill:none;stroke:#191919;stroke-width:0.34999999;stroke-miterlimit:4;stroke-dasharray:none"
       id="path1658"
       inkscape:connector-curvature="0" />
    <path
       id="MyLayer_w0002"
       d="m 28,-3.9899357 v 2.88 h -56 v -2.88 h 56"
       style="fill:none;fill-rule:evenodd;stroke:#191919;stroke-width:0.34999999;stroke-miterlimit:4;stroke-dasharray:none"
       inkscape:connector-curvature="0" />
    <path
       d="m 16.075,14.450064 v 0"
       style="fill:none;stroke:#191919;stroke-width:0.34999999;stroke-miterlimit:4;stroke-dasharray:none"
       id="path1661"
       inkscape:connector-curvature="0" />
    <path
       d="m -13.475,14.450064 v 0"
       style="fill:none;stroke:#191919;stroke-width:0.34999999;stroke-miterlimit:4;stroke-dasharray:none"
       id="path1663"
       inkscape:connector-curvature="0" />
    <title
       id="title1665">MyLayer</title>
  </g>
  <g
     id="MyLayer001"
     transform="matrix(1,0,0,-1,36.137738,23.685063)">
    <path
       id="MyLayer001_w0000"
       d="m 63.199689,21.545091 h 0.025 V 3.4500643 h -18.725 v -12 h 57.000001 v 12 H 82.774689 V 21.545091 h 0.025 C 88.057159,20.554728 92.919844,18.598797 97.387744,15.6773 102.61834,12.192873 107.02489,6.5344702 106.99969,0 c 0.0233,-4.3066288 -1.95486,-8.4209866 -4.82464,-11.553403 -4.11417,-4.504746 -9.739251,-7.363841 -15.536792,-9.05703 -10.430548,-2.94947 -21.897278,-2.504363 -31.94271,1.649305 -4.134702,1.678461 -7.738665,4.125916 -10.81189,7.342365 -4.12063,4.3045965 -6.148609,10.83976863 -4.049339,16.5735284 1.531458,4.4727797 4.904667,8.0862606 8.759065,10.7100906 4.472435,2.928546 9.341203,4.888625 14.606305,5.880235"
       style="fill:none;fill-rule:evenodd;stroke:#191919;stroke-width:0.34999999;stroke-miterlimit:4;stroke-dasharray:none"
       inkscape:connector-curvature="0" />
    <path
       d="m 59.524689,14.450064 v 0"
       style="fill:none;stroke:#191919;stroke-width:0.34999999;stroke-miterlimit:4;stroke-dasharray:none"
       id="path1669"
       inkscape:connector-curvature="0" />
    <path
       d="m 74.299689,-17 v 0"
       style="fill:none;stroke:#191919;stroke-width:0.34999999;stroke-miterlimit:4;stroke-dasharray:none"
       id="path1671"
       inkscape:connector-curvature="0" />
    <path
       d="m 89.074689,14.450064 v 0"
       style="fill:none;stroke:#191919;stroke-width:0.34999999;stroke-miterlimit:4;stroke-dasharray:none"
       id="path1673"
       inkscape:connector-curvature="0" />
    <title
       id="title1675">MyLayer001</title>
  </g>
  <g
     id="MyLayer002"
     transform="matrix(1,0,0,-1,36.137738,23.685063)">
    <path
       id="MyLayer002_w0000"
       d="m 136.19938,21.545091 h 19.6 c 5.25747,-0.990363 10.12015,-2.946294 14.58805,-5.867791 5.2306,-3.484427 9.63715,-9.1428298 9.61195,-15.6773 0.0233,-4.3066288 -1.95486,-8.4209866 -4.82464,-11.553403 -4.11417,-4.504746 -9.73925,-7.363841 -15.53679,-9.05703 -10.43055,-2.94947 -21.89728,-2.504363 -31.94271,1.649305 -4.1347,1.678461 -7.73867,4.125916 -10.81189,7.342365 -4.12063,4.3045965 -6.14861,10.83976863 -4.04934,16.5735284 1.53146,4.4727797 4.90467,8.0862606 8.75906,10.7100906 4.47244,2.928546 9.34121,4.888625 14.60631,5.880235"
       style="fill:none;fill-rule:evenodd;stroke:#191919;stroke-width:0.34999999;stroke-miterlimit:4;stroke-dasharray:none"
       inkscape:connector-curvature="0" />
    <path
       d="m 132.52438,14.450064 v 0"
       style="fill:none;stroke:#191919;stroke-width:0.34999999;stroke-miterlimit:4;stroke-dasharray:none"
       id="path1679"
       inkscape:connector-curvature="0" />
    <path
       d="m 147.29938,-17 v 0"
       style="fill:none;stroke:#191919;stroke-width:0.34999999;stroke-miterlimit:4;stroke-dasharray:none"
       id="path1681"
       inkscape:connector-curvature="0" />
    <path
       d="m 162.07438,14.450064 v 0"
       style="fill:none;stroke:#191919;stroke-width:0.34999999;stroke-miterlimit:4;stroke-dasharray:none"
       id="path1683"
       inkscape:connector-curvature="0" />
    <title
       id="title1685">MyLayer002</title>
  </g>
</svg>
