<?xml version="1.0" encoding="UTF-8" standalone="no"?>
<!-- Created with Inkscape (http://www.inkscape.org/) -->

<svg
   xmlns:dc="http://purl.org/dc/elements/1.1/"
   xmlns:cc="http://creativecommons.org/ns#"
   xmlns:rdf="http://www.w3.org/1999/02/22-rdf-syntax-ns#"
   xmlns:svg="http://www.w3.org/2000/svg"
   xmlns="http://www.w3.org/2000/svg"
   xmlns:sodipodi="http://sodipodi.sourceforge.net/DTD/sodipodi-0.dtd"
   xmlns:inkscape="http://www.inkscape.org/namespaces/inkscape"
   width="210mm"
   height="297mm"
   viewBox="0 0 210 297"
   version="1.1"
   id="svg6033"
   sodipodi:docname="KM-Square-Logo-Stroked-Pathed.svg"
   inkscape:version="0.92.3 (2405546, 2018-03-11)">
  <defs
     id="defs6027" />
  <sodipodi:namedview
     id="base"
     pagecolor="#ffffff"
     bordercolor="#666666"
     borderopacity="1.0"
     inkscape:pageopacity="0.0"
     inkscape:pageshadow="2"
     inkscape:zoom="1.979899"
     inkscape:cx="202.03577"
     inkscape:cy="751.33195"
     inkscape:document-units="mm"
     inkscape:current-layer="layer1"
     showgrid="false"
     inkscape:window-width="1680"
     inkscape:window-height="999"
     inkscape:window-x="0"
     inkscape:window-y="25"
     inkscape:window-maximized="1" />
  <metadata
     id="metadata6030">
    <rdf:RDF>
      <cc:Work
         rdf:about="">
        <dc:format>image/svg+xml</dc:format>
        <dc:type
           rdf:resource="http://purl.org/dc/dcmitype/StillImage" />
        <dc:title></dc:title>
      </cc:Work>
    </rdf:RDF>
  </metadata>
  <g
     inkscape:label="Layer 1"
     inkscape:groupmode="layer"
     id="layer1">
    <path
       id="path4585-1"
       style="opacity:1;fill:#00ff00;fill-opacity:1;stroke:#00fb00;stroke-width:0.09990107;stroke-linejoin:round;stroke-miterlimit:4;stroke-dasharray:none;stroke-opacity:1"
       d="m 59.717334,96.244898 -0.40727,-0.70542 0.40727,-0.70542 h 0.814549 l 0.40727,0.70542 -0.40727,0.70542 z m 9.88273,15.980232 -0.705419,-0.40728 v -0.81455 l 0.705419,-0.40728 0.705421,0.40728 v 0.81455 z m -36.3824,24.15756 c -0.54438,-0.1559 -0.96765,-0.59011 -1.10971,-1.13833 -0.0417,-0.16102 -0.0461,-3.1439 -0.0461,-31.76255 0,-30.442742 0.002,-31.591782 0.0533,-31.776982 0.15199,-0.54812 0.59159,-0.98194 1.13769,-1.12275 0.16375,-0.0422 3.03788,-0.0463 31.763311,-0.046 27.512341,2.9e-4 31.603871,0.006 31.7431,0.0428 0.56457,0.15026 1.013949,0.59694 1.1563,1.14777 0.0422,0.16375 0.0464,3.03832 0.0464,31.760022 0,28.72172 -0.004,31.59627 -0.0464,31.76002 -0.140811,0.54612 -0.57464,0.98571 -1.122719,1.13771 -0.185211,0.0514 -1.331273,0.0532 -31.794921,0.0512 -29.898491,-0.002 -31.612361,-0.005 -31.780251,-0.0529 z m 63.473529,-1.21582 0.128,-0.128 v -13.73223 -13.73222 h -1.106148 -1.106141 l 0.59336,0.5741 0.593359,0.5741 -0.0011,0.34153 -0.0011,0.34154 -0.552522,-0.56611 -0.552529,-0.56612 -0.886,0.59063 c -0.487309,0.32484 -0.90389,0.5975 -0.92575,0.60588 -0.0319,0.0122 -0.0397,-0.0437 -0.0397,-0.28073 v -0.29599 l 0.112152,-0.0807 c 0.0616,-0.0445 0.396139,-0.26525 0.743248,-0.49074 l 0.63109,-0.40999 -0.143809,-0.16142 -0.143812,-0.16143 -0.592108,-0.0146 -0.592111,-0.0146 v -0.24907 -0.24908 l 1.948579,-0.008 c 1.071722,-0.004 1.97825,-8e-4 2.014511,0.008 0.0615,0.0149 0.0663,0.0331 0.0719,0.27182 l 0.006,0.25584 0.01019,-0.24852 c 0.008,-0.19863 7.94e-4,-0.25518 -0.0353,-0.28167 -0.0408,-0.0297 -0.0446,-1.15587 -0.038,-11.238183 l 0.007,-11.20488 h -1.99253 l -1.992529,-1e-5 -0.008,-0.25638 -0.008,-0.25641 h 1.993508 1.993512 l 0.007,-5.06746 0.007,-5.06745 -1.11348,3.44e-4 -1.11347,3.44e-4 0.59336,0.57985 0.59337,0.57985 v 0.32614 c 0,0.17937 -0.008,0.32613 -0.01691,0.32613 -0.009,2.91e-4 -0.258331,-0.2472 -0.553439,-0.54932 l -0.536446,-0.5493 -0.910479,0.60792 c -0.500761,0.33434 -0.917591,0.60791 -0.926301,0.60791 -0.008,-2.91e-4 -0.0158,-0.14354 -0.0158,-0.31897 v -0.31898 l 0.197779,-0.12134 c 0.108791,-0.0667 0.408771,-0.25996 0.66662,-0.42936 0.257861,-0.16941 0.49851,-0.32282 0.534771,-0.34092 0.0362,-0.0181 0.0659,-0.0429 0.0659,-0.0551 1.8e-5,-0.0122 -0.0672,-0.0959 -0.149461,-0.18574 l -0.149435,-0.16356 h -0.58424 -0.584239 l 0.008,-0.25639 0.008,-0.25641 1.91928,-0.008 c 1.0556,-0.005 1.961621,-6.88e-4 2.013379,0.009 l 0.0941,0.0168 0.01021,0.2553 0.01019,0.25529 0.006,-0.25734 c 0.005,-0.2056 -0.003,-0.26071 -0.038,-0.27418 -0.0374,-0.0146 -0.044,-0.12701 -0.044,-0.76481 v -0.747928 l -0.127884,-0.128 -0.12801,-0.12802 -31.55133,1e-5 H 33.461564 l -0.12799,0.12802 -0.128,0.128 v 31.552192 31.55219 l 0.128,0.12801 0.128,0.12801 h 31.55126 31.551261 z m -34.97317,-0.0163 c -0.035,-0.0221 -0.0386,-0.19834 -0.02299,-1.14235 0.01021,-0.61388 0.0136,-1.11615 0.008,-1.11615 -0.006,-5e-5 -0.271449,0.26372 -0.59019,0.58604 l -0.579498,0.58606 h -0.317183 c -0.174439,0 -0.317158,-0.0104 -0.317158,-0.0228 0,-0.0126 0.249039,-0.26285 0.553429,-0.55616 l 0.55343,-0.53328 -0.585362,-0.88412 c -0.321961,-0.48627 -0.59218,-0.9019 -0.60053,-0.92364 -0.01209,-0.0315 0.0442,-0.0395 0.278461,-0.0395 h 0.293619 l 0.283292,0.43222 c 0.155807,0.23772 0.376219,0.57517 0.48981,0.74988 l 0.206517,0.31767 0.172022,-0.17023 0.172011,-0.17024 v -0.57964 -0.57966 h 0.249068 0.249071 l 2.64e-4,1.29666 c 2.65e-4,0.71315 0.009,1.61767 0.01921,2.01002 0.01569,0.59574 0.01209,0.71768 -0.0223,0.73945 -0.0536,0.0339 -0.43915,0.0338 -0.492811,0 z m 22.948191,0.008 c -0.0287,-0.0117 -0.0367,-0.44609 -0.0367,-2.03423 v -2.01945 l 0.263731,-1e-5 0.26371,1e-5 v 2.01876 c 0,1.81381 -0.005,2.02056 -0.0463,2.03654 -0.0546,0.021 -0.39152,0.0198 -0.444449,-0.002 z m 10.64994,0.001 c -0.0114,-0.0114 -0.02069,-0.52931 -0.02069,-1.15099 v -1.13033 l -0.593622,0.59311 -0.593629,0.59312 h -0.31472 c -0.173108,0 -0.31474,-0.0113 -0.31474,-0.0251 1.1e-5,-0.0138 0.243951,-0.2591 0.542081,-0.54515 0.298148,-0.28603 0.5421,-0.53267 0.5421,-0.54808 1e-5,-0.0154 -0.27032,-0.43006 -0.6007,-0.92142 -0.33038,-0.49137 -0.600691,-0.89935 -0.600691,-0.90663 -5.1e-5,-0.007 0.14225,-0.0132 0.3161,-0.0132 h 0.3161 l 0.44853,0.69594 c 0.2467,0.38277 0.4592,0.71445 0.47222,0.73705 0.01831,0.0318 0.0644,0.006 0.20234,-0.11428 l 0.178639,-0.15537 v -0.58167 -0.58166 l 0.256403,-1e-5 h 0.256389 l -0.01461,2.02923 -0.0146,2.02922 -0.221091,0.008 c -0.12159,0.005 -0.230381,-8e-4 -0.24174,-0.0122 z m -54.43437,-1.07849 c -0.2099,-0.0584 -0.38056,-0.15869 -0.55784,-0.32783 -0.27083,-0.25833 -0.40416,-0.60015 -0.41701,-1.06907 l -0.007,-0.24611 1.09401,-0.008 1.09401,-0.008 -0.0207,-0.12418 c -0.0609,-0.36577 -0.30223,-0.70124 -0.55914,-0.77715 -0.14984,-0.0443 -0.42743,-0.0458 -0.58265,-0.003 -0.14317,0.0393 -0.32895,0.22414 -0.41995,0.41775 -0.0488,0.1037 -0.0782,0.13535 -0.11575,0.12427 -0.0277,-0.008 -0.14593,-0.0239 -0.26277,-0.0347 -0.11685,-0.011 -0.21244,-0.0323 -0.21244,-0.0473 -1e-5,-0.0684 0.13721,-0.34565 0.24042,-0.48559 0.13082,-0.17739 0.28071,-0.28154 0.55073,-0.38264 0.2653,-0.0993 0.71849,-0.1031 0.99626,-0.008 0.39965,0.13644 0.7007,0.43571 0.82391,0.81905 0.0885,0.27545 0.10874,0.80092 0.0423,1.09956 -0.12285,0.55221 -0.46607,0.92655 -0.96978,1.05776 -0.20375,0.0531 -0.53197,0.0544 -0.71688,0.003 z m 0.60397,-0.44091 c 0.27043,-0.0803 0.499851,-0.35755 0.55219,-0.6673 l 0.0186,-0.10988 h -0.80846 -0.808459 l 0.019,0.10988 c 0.091,0.52525 0.534709,0.81354 1.027119,0.6673 z m 2.20997,0.43792 c -0.38687,-0.10879 -0.70384,-0.44407 -0.78005,-0.82517 l -0.018,-0.0899 0.1885,-0.0328 c 0.257021,-0.0448 0.31473,-0.0415 0.33299,0.0185 0.1074,0.35307 0.32337,0.51958 0.671161,0.51747 0.237619,-0.001 0.389969,-0.066 0.55373,-0.23462 0.19352,-0.19926 0.287919,-0.68263 0.22401,-1.14693 -0.056,-0.40739 -0.170501,-0.60181 -0.428411,-0.728 -0.137969,-0.0675 -0.18625,-0.0759 -0.387459,-0.0666 -0.362231,0.0164 -0.536651,0.16072 -0.641571,0.53059 -0.0386,0.13615 -0.0595,0.16844 -0.10893,0.16826 -0.0656,-2.7e-4 -0.435929,-0.0572 -0.447559,-0.0687 -0.0216,-0.0216 0.0854,-0.33086 0.168289,-0.48636 0.419421,-0.78693 1.66883,-0.80662 2.16454,-0.0341 0.180541,0.28136 0.217271,0.43866 0.219731,0.9411 0.002,0.3913 -0.007,0.48277 -0.0628,0.66052 -0.13266,0.42166 -0.37733,0.68694 -0.772809,0.83789 -0.21331,0.0814 -0.6547,0.10103 -0.87548,0.039 z m 3.03181,0.003 c -0.31453,-0.0789 -0.50186,-0.20407 -0.60346,-0.40323 -0.086,-0.16856 -0.11397,-0.50136 -0.11423,-1.35834 -1.8e-4,-0.59438 -0.0103,-0.80164 -0.0457,-0.93768 -0.025,-0.0961 -0.058,-0.18718 -0.0732,-0.20249 -0.0611,-0.0612 -0.0162,-0.0747 0.24977,-0.0747 h 0.27754 l 0.0468,0.16115 0.0468,0.16114 0.13039,-0.0897 c 0.48123,-0.33109 1.05034,-0.40159 1.4983,-0.18561 0.45131,0.21762 0.59267,0.82882 0.28499,1.23222 -0.18195,0.23856 -0.46946,0.35992 -1.03027,0.43491 -0.40294,0.0539 -0.62874,0.0943 -0.76665,0.13737 l -0.0989,0.0309 0.0188,0.15986 c 0.0321,0.27319 0.0813,0.35269 0.27315,0.44106 0.14266,0.0657 0.21124,0.0783 0.43321,0.0794 0.40316,0.002 0.57255,-0.0979 0.68997,-0.40683 0.0427,-0.11253 0.0519,-0.11914 0.16117,-0.11684 0.0637,0.001 0.1793,0.0122 0.25688,0.0241 0.1401,0.0214 0.14092,0.0222 0.12142,0.11478 -0.058,0.27514 -0.26837,0.54746 -0.52208,0.67583 -0.30012,0.15185 -0.88648,0.21017 -1.23479,0.12282 z m 0.5314,-1.69051 c 0.53213,-0.10144 0.63631,-0.14853 0.72378,-0.32692 0.11603,-0.23664 -0.0306,-0.51276 -0.30741,-0.57919 -0.18631,-0.0447 -0.48139,-0.0201 -0.6482,0.054 -0.30605,0.13601 -0.44823,0.36598 -0.47925,0.77509 l -0.0195,0.25664 0.12443,-0.0439 c 0.0684,-0.0242 0.34118,-0.0852 0.60612,-0.13576 z m 2.6625,1.69304 c -0.46211,-0.15399 -0.73642,-0.46637 -0.86862,-0.98919 -0.085,-0.33624 -0.067,-0.85539 0.0396,-1.14352 0.14932,-0.40346 0.33688,-0.62976 0.64942,-0.78358 0.41581,-0.20464 0.83326,-0.17319 1.16546,0.0878 0.0587,0.0461 0.11244,0.0839 0.11937,0.0839 0.007,-3e-5 0.0159,-0.29989 0.02,-0.66643 0.004,-0.36653 0.0121,-0.67114 0.0179,-0.67689 0.006,-0.006 0.11353,-0.0105 0.23951,-0.0106 h 0.22904 l 0.0218,0.55242 c 0.012,0.30382 0.0186,1.21832 0.0146,2.03221 l -0.007,1.47979 h -0.23442 -0.23441 l -0.008,-0.16266 -0.008,-0.16264 -0.137081,0.12585 c -0.204289,0.18755 -0.3577,0.24921 -0.6515,0.26185 -0.157309,0.007 -0.29226,-0.004 -0.366279,-0.0283 z m 0.6593,-0.46065 c 0.1229,-0.0622 0.29781,-0.24079 0.3632,-0.37077 0.0669,-0.13289 0.13493,-0.47891 0.13493,-0.68603 0,-0.67287 -0.25521,-1.04866 -0.73039,-1.0755 -0.54764,-0.031 -0.86233,0.44757 -0.81452,1.23848 0.0194,0.31988 0.10308,0.56321 0.24963,0.72543 0.21828,0.24162 0.52476,0.30632 0.79715,0.16839 z m 2.40577,0.45452 c -0.35374,-0.0768 -0.58497,-0.26642 -0.69047,-0.56639 -0.0853,-0.24239 -0.0771,-0.25201 0.24183,-0.28343 l 0.20503,-0.0202 0.0207,0.0943 c 0.0302,0.13758 0.21252,0.30664 0.37471,0.34748 0.28215,0.0711 0.61988,0.0131 0.76411,-0.13113 0.13935,-0.13938 0.0908,-0.36705 -0.0993,-0.46535 -0.0468,-0.0243 -0.30197,-0.1029 -0.56697,-0.17484 -0.5777,-0.15685 -0.7642,-0.2353 -0.90558,-0.38086 -0.15469,-0.15928 -0.20756,-0.32005 -0.19086,-0.58034 0.0225,-0.35065 0.19906,-0.58643 0.56864,-0.75938 0.31925,-0.14941 0.85712,-0.1602 1.2187,-0.0245 0.31453,0.11808 0.60146,0.46975 0.61805,0.75748 0.007,0.11521 0.0275,0.10551 -0.34917,0.16242 l -0.12079,0.0183 -0.0365,-0.13039 c -0.0478,-0.17091 -0.2024,-0.34798 -0.35812,-0.41028 -0.19302,-0.0773 -0.57639,-0.0674 -0.75087,0.0192 -0.29261,0.14526 -0.36114,0.47868 -0.12678,0.61695 0.0429,0.0253 0.26928,0.10071 0.50296,0.16755 0.61123,0.17477 0.81306,0.25688 0.95663,0.38923 0.3111,0.28678 0.29866,0.83061 -0.0257,1.12366 -0.27282,0.24647 -0.76129,0.33651 -1.25024,0.23044 z m 1.86227,-0.0265 c -0.0941,-0.0387 -0.17814,-0.0774 -0.18663,-0.0858 -0.0183,-0.0183 0.13671,-0.45346 0.1685,-0.47311 0.0121,-0.007 0.0724,0.007 0.13406,0.0333 0.14594,0.061 0.39535,0.0422 0.50334,-0.0379 0.11365,-0.0843 0.20184,-0.25599 0.23693,-0.46138 0.0168,-0.0979 0.0369,-0.56701 0.0447,-1.04245 0.008,-0.47544 0.015,-0.86773 0.0159,-0.87176 10e-4,-0.004 0.11373,-0.007 0.25071,-0.007 h 0.24906 v 1.4798 1.47979 h -0.23442 -0.2344 l -10e-4,-0.19779 c -10e-4,-0.19519 -0.002,-0.19684 -0.0513,-0.12523 -0.2519,0.36751 -0.524831,0.462 -0.894881,0.30984 z m 2.96953,0.0248 c -0.58522,-0.15658 -0.98587,-0.7441 -0.96089,-1.40915 l 0.008,-0.22877 h 1.06953 1.069509 l -0.006,-0.17295 c -0.01701,-0.48277 -0.441838,-0.84834 -0.927098,-0.79761 -0.28958,0.0303 -0.47709,0.17173 -0.62912,0.4746 l -0.0599,0.1194 -0.24141,-0.0315 c -0.14106,-0.0184 -0.24641,-0.0466 -0.2534,-0.0677 -0.0195,-0.0591 0.12971,-0.3546 0.25315,-0.50144 0.24878,-0.29589 0.61474,-0.43118 1.10185,-0.40734 0.46876,0.023 0.795208,0.18078 1.028009,0.49705 0.2349,0.31909 0.33033,0.74464 0.278779,1.24301 -0.0576,0.55639 -0.274939,0.91784 -0.707898,1.17711 -0.235792,0.14119 -0.70797,0.18978 -1.02358,0.10534 z m 0.60524,-0.43622 c 0.29806,-0.0885 0.51473,-0.3385 0.55632,-0.64184 l 0.01849,-0.13497 H 58.19914 57.39992 l 0.0178,0.14952 c 0.0329,0.27791 0.2309,0.52438 0.49433,0.61536 0.19055,0.0658 0.31997,0.0688 0.511581,0.012 z m 5.319081,0.45244 c -0.339312,-0.0608 -0.588891,-0.23298 -0.698851,-0.48203 -0.0451,-0.10216 -0.0539,-0.2508 -0.0685,-1.15746 -0.01561,-0.96899 -0.02101,-1.05079 -0.0787,-1.19409 l -0.0619,-0.15384 h 0.260522 0.260538 l 0.0505,0.17122 0.0505,0.17121 0.21394,-0.13966 c 0.31461,-0.20538 0.45694,-0.24628 0.857959,-0.24653 0.302299,-2.7e-4 0.353761,0.008 0.500081,0.0763 0.302458,0.14186 0.469299,0.37651 0.490468,0.6898 0.0208,0.3077 -0.12079,0.58693 -0.381838,0.75307 -0.209122,0.1331 -0.281811,0.15315 -0.857782,0.23666 -0.273968,0.0397 -0.557459,0.0902 -0.629978,0.112 l -0.131871,0.0398 v 0.19409 c 0,0.15089 0.0136,0.2125 0.0612,0.2768 0.096,0.1298 0.270039,0.21091 0.497858,0.23209 0.432181,0.0402 0.712441,-0.0966 0.82192,-0.40107 0.0519,-0.14432 0.0546,-0.14663 0.156382,-0.13153 0.057,0.008 0.1675,0.0241 0.24565,0.0346 0.14002,0.0189 0.14183,0.0205 0.124169,0.10883 -0.02299,0.11457 -0.14419,0.36825 -0.21381,0.44722 -0.107349,0.12177 -0.315481,0.24877 -0.50414,0.30761 -0.22366,0.0697 -0.722831,0.0982 -0.964139,0.0549 z m -0.0492,-1.58458 c 0.0483,-0.0147 0.265821,-0.06 0.483269,-0.10042 0.528381,-0.0983 0.603761,-0.12376 0.703421,-0.23726 0.274201,-0.3123 0.0021,-0.74189 -0.46995,-0.74264 -0.13576,-2.7e-4 -0.41878,0.0743 -0.5197,0.13687 -0.2779,0.17224 -0.365141,0.3377 -0.382019,0.7246 -0.01201,0.27451 -0.01011,0.289 0.0422,0.268 0.0302,-0.0122 0.0944,-0.0343 0.142769,-0.0491 z m 2.99788,1.57612 c -0.28569,-0.0805 -0.48848,-0.29459 -0.566111,-0.5976 -0.0366,-0.14257 -0.0431,-0.36749 -0.0367,-1.26998 l 0.008,-1.09673 0.238781,-0.008 0.238789,-0.008 0.01061,1.09267 c 0.01021,1.02066 0.01439,1.10037 0.0688,1.20961 0.1538,0.30815 0.662339,0.34167 0.941919,0.062 0.19775,-0.19775 0.212109,-0.28809 0.221689,-1.39509 l 0.008,-0.95234 0.237048,-0.008 0.23704,-0.008 0.01939,0.62119 c 0.01069,0.34166 0.01939,0.82111 0.01939,1.06545 0,0.68488 0.0751,0.82724 0.452901,0.85756 0.345389,0.0277 0.618368,-0.16366 0.71275,-0.49972 0.0318,-0.11303 0.0465,-0.39552 0.0574,-1.09725 l 0.01461,-0.94501 h 0.245591 0.245589 v 1.48103 1.48102 l -0.227078,-0.008 -0.227103,-0.008 -0.008,-0.17672 -0.008,-0.17672 -0.134318,0.1251 c -0.0739,0.0688 -0.208492,0.16151 -0.299111,0.20602 -0.142881,0.0702 -0.199861,0.0809 -0.428509,0.0809 -0.149561,-1e-5 -0.313391,-0.0176 -0.37846,-0.0405 -0.130032,-0.0459 -0.352481,-0.23862 -0.415012,-0.35957 l -0.0418,-0.0808 -0.136049,0.14544 c -0.19268,0.20599 -0.449442,0.32681 -0.721802,0.33962 -0.118819,0.006 -0.271798,-0.007 -0.34898,-0.0287 z m 6.42961,0.0102 c -0.208439,-0.0441 -0.47076,-0.17789 -0.57509,-0.29337 -0.0905,-0.10012 -0.222959,-0.38605 -0.222959,-0.4811 0,-0.0458 0.063,-0.0644 0.30767,-0.0906 l 0.175811,-0.0189 0.0733,0.15625 c 0.108241,0.23088 0.25101,0.30281 0.600692,0.30262 0.320839,-2.7e-4 0.46863,-0.0614 0.55174,-0.22864 0.0443,-0.0889 0.0479,-0.12456 0.02109,-0.20327 -0.01791,-0.0525 -0.0624,-0.1171 -0.099,-0.1436 -0.0645,-0.0468 -0.363062,-0.1441 -0.921679,-0.3004 -0.605563,-0.16942 -0.806961,-0.37044 -0.810411,-0.80886 -0.0021,-0.26192 0.0654,-0.42494 0.25255,-0.61024 0.243308,-0.24091 0.581128,-0.34367 1.05391,-0.3206 0.380841,0.0186 0.59459,0.0944 0.795509,0.28241 0.15703,0.14691 0.224981,0.26095 0.293841,0.49324 0.0516,0.17406 0.0612,0.16453 -0.199911,0.19878 -0.0806,0.0106 -0.173479,0.0256 -0.20646,0.0334 -0.0513,0.0122 -0.0656,-0.008 -0.0989,-0.13761 -0.0921,-0.35932 -0.538152,-0.55632 -0.983951,-0.43453 -0.329139,0.0899 -0.495142,0.40157 -0.322911,0.60626 0.0878,0.10434 0.130162,0.12194 0.615942,0.25596 0.829778,0.22892 1.00901,0.34011 1.127218,0.69937 0.0491,0.14933 0.02431,0.41381 -0.0532,0.56569 -0.0828,0.16225 -0.290669,0.33809 -0.494398,0.41818 -0.189981,0.0747 -0.658551,0.10635 -0.880351,0.0594 z m 2.80597,-0.0239 c -0.555379,-0.18359 -0.87793,-0.72391 -0.87792,-1.47065 0,-0.89587 0.48396,-1.50895 1.221711,-1.54768 0.27785,-0.0146 0.415399,0.0247 0.64869,0.18517 l 0.141571,0.0974 0.0191,-0.39766 c 0.0105,-0.21873 0.0191,-0.52084 0.0191,-0.6714 v -0.27375 h 0.244272 0.244279 l 0.01871,1.99224 c 0.01029,1.09573 0.01101,2.01217 0.0021,2.03654 -0.0132,0.0344 -0.0689,0.0443 -0.24828,0.0443 l -0.23128,1e-5 v -0.17579 -0.17579 l -0.123542,0.1199 c -0.201888,0.19594 -0.37737,0.26978 -0.667618,0.28093 -0.183031,0.007 -0.291822,-0.004 -0.41034,-0.0438 z m 0.70536,-0.44711 c 0.3374,-0.16878 0.52619,-0.63366 0.486389,-1.1976 -0.0402,-0.56885 -0.23708,-0.86075 -0.63704,-0.94426 -0.345059,-0.0721 -0.670708,0.13463 -0.817837,0.51909 -0.0834,0.21789 -0.112962,0.68881 -0.0601,0.95736 0.115667,0.58797 0.581318,0.88919 1.028617,0.66541 z m 2.540241,0.45456 c -0.0925,-0.0224 -0.219331,-0.0668 -0.281831,-0.0988 -0.159219,-0.0812 -0.431589,-0.33732 -0.520949,-0.48981 -0.165452,-0.28233 -0.231921,-0.69114 -0.185941,-1.14355 0.0634,-0.6236 0.26798,-0.94505 0.745162,-1.17077 0.565419,-0.26746 1.250227,-0.14807 1.640477,0.28599 0.250463,0.27858 0.350822,0.59037 0.352412,1.09483 0.0021,0.57067 -0.120081,0.9156 -0.422399,1.19551 -0.357413,0.3309 -0.829572,0.4471 -1.326931,0.32655 z m 0.73192,-0.48529 c 0.15962,-0.0772 0.3415,-0.2843 0.40359,-0.45966 0.116739,-0.32986 0.106151,-0.89826 -0.0218,-1.17179 -0.0871,-0.18621 -0.308128,-0.40335 -0.450818,-0.44297 -0.145262,-0.0403 -0.432962,-0.0406 -0.57735,-2.7e-4 -0.164531,0.0457 -0.378201,0.268 -0.462701,0.48137 -0.0615,0.15548 -0.0697,0.22328 -0.0698,0.58605 -2.65e-4,0.38849 0.004,0.41956 0.0821,0.58598 0.0874,0.18666 0.15767,0.27547 0.29687,0.37516 0.202229,0.14484 0.55394,0.16521 0.799928,0.0463 z m 2.41042,0.49076 c -0.46817,-0.13691 -0.793951,-0.45378 -0.93454,-0.90897 -0.0778,-0.25176 -0.0871,-0.87257 -0.0173,-1.14717 0.101841,-0.40059 0.30688,-0.65626 0.66875,-0.83385 0.44154,-0.2167 0.888781,-0.22119 1.303401,-0.0131 0.32158,0.16142 0.5108,0.38188 0.64347,0.74984 0.0699,0.19365 0.0778,0.25705 0.0787,0.62572 0.0011,0.34379 -0.009,0.44366 -0.064,0.61658 -0.131651,0.4185 -0.40576,0.71681 -0.795991,0.86636 -0.205399,0.0787 -0.683268,0.10285 -0.88255,0.0446 z m 0.607179,-0.44361 c 0.19776,-0.0587 0.419621,-0.25889 0.503769,-0.45453 0.171191,-0.39795 0.130371,-1.07412 -0.0827,-1.36813 -0.173331,-0.23929 -0.360831,-0.33081 -0.677741,-0.3308 -0.36087,0 -0.62671,0.2039 -0.7479,0.57365 -0.0847,0.25829 -0.0793,0.84289 0.01021,1.0673 0.172561,0.43469 0.568971,0.63894 0.99468,0.51252 z m 3.539051,0.4428 c -0.318521,-0.10073 -0.48173,-0.27029 -0.56765,-0.58969 -0.02,-0.0742 -0.0325,-0.53553 -0.0338,-1.24537 l -0.0021,-1.12749 0.263832,-0.008 0.263819,-0.008 0.009,1.12191 c 0.01019,1.27828 0.006,1.2562 0.24479,1.37184 0.277169,0.13418 0.680259,0.009 0.826778,-0.25581 0.0999,-0.18076 0.127082,-0.51021 0.117602,-1.42263 l -0.008,-0.81318 0.26942,2e-5 0.269431,2e-5 0.009,1.10618 c 0.009,1.0784 0.01061,1.10924 0.074,1.22799 0.120531,0.22541 0.45685,0.27953 0.76182,0.12258 0.148651,-0.0765 0.249399,-0.19938 0.30562,-0.37281 0.02241,-0.069 0.0386,-0.45107 0.0466,-1.09497 l 0.0123,-0.98897 h 0.261331 0.26135 v 1.47979 1.4798 h -0.23441 -0.234421 v -0.1852 -0.18519 l -0.135548,0.12624 c -0.198991,0.18529 -0.411891,0.27977 -0.66752,0.29617 -0.368401,0.0237 -0.700472,-0.12127 -0.839312,-0.36626 l -0.0627,-0.11066 -0.183758,0.18076 c -0.15367,0.15117 -0.216061,0.19073 -0.38122,0.24174 -0.220522,0.0681 -0.469,0.0759 -0.645472,0.02 z m 4.834818,-0.001 c -0.339008,-0.0866 -0.515318,-0.21467 -0.62543,-0.45428 -0.0695,-0.15144 -0.0753,-0.19787 -0.0836,-0.67541 -0.0271,-1.56998 -0.02511,-1.52997 -0.0891,-1.69224 l -0.0607,-0.15384 h 0.274741 0.27474 l 0.0468,0.16115 0.0468,0.16114 0.130382,-0.0897 c 0.361579,-0.24878 0.780809,-0.35581 1.145709,-0.29249 0.522049,0.0906 0.780029,0.36175 0.783759,0.82378 0.0021,0.19099 -0.0105,0.24576 -0.0866,0.39475 -0.169097,0.3308 -0.447839,0.47103 -1.105548,0.55615 -0.433951,0.0562 -0.748429,0.119 -0.796919,0.15925 -0.0477,0.0396 -0.02432,0.30715 0.0385,0.43847 0.11598,0.2428 0.681411,0.33919 1.048459,0.17871 0.12605,-0.0551 0.24829,-0.21999 0.290661,-0.39206 l 0.02069,-0.0839 0.179121,0.0202 c 0.33914,0.0383 0.345781,0.0412 0.32341,0.14305 -0.0907,0.41285 -0.401428,0.69451 -0.877549,0.79536 -0.246739,0.0523 -0.677539,0.0532 -0.878339,0.002 z m 0.468831,-1.67389 c 0.57571,-0.11621 0.635249,-0.13668 0.731981,-0.25164 0.139239,-0.16549 0.123129,-0.40997 -0.0368,-0.55761 -0.152659,-0.14098 -0.487849,-0.17602 -0.80109,-0.0838 -0.16021,0.0472 -0.33502,0.18798 -0.42586,0.34298 -0.0697,0.11902 -0.0832,0.17871 -0.0935,0.41586 l -0.01209,0.27686 0.0697,-0.0211 c 0.0383,-0.0116 0.29378,-0.0663 0.567748,-0.12162 z m -57.79187,1.33142 0.008,-0.26808 1.1208,0.003 c 0.61644,0.002 1.12081,-0.004 1.12081,-0.0139 -9e-6,-0.009 -0.25713,-0.2678 -0.57139,-0.57387 l -0.57139,-0.55649 6.88e-4,-0.3411 6.88e-4,-0.34111 0.54492,0.5512 c 0.34672,0.35072 0.55994,0.54542 0.58625,0.53533 0.0228,-0.009 0.42365,-0.27379 0.89091,-0.58904 0.46726,-0.31524 0.869,-0.58063 0.89276,-0.58974 0.0365,-0.014 0.0431,0.0333 0.0431,0.30157 l -6e-5,0.31814 -0.13913,0.0868 c -0.0766,0.0477 -0.41369,0.264 -0.74926,0.48051 l -0.61012,0.39366 0.17059,0.17356 0.1706,0.17354 0.57139,-0.009 0.57139,-0.009 v 0.26371 0.26374 l -2.03026,0.007 -2.03026,0.007 0.008,-0.26808 z m 3.08514,-2.42464 c -0.144891,-0.0383 -0.316601,-0.1388 -0.414401,-0.24269 -0.18233,-0.19368 -0.26263,-0.43169 -0.34557,-1.02426 -0.0262,-0.18722 -0.0703,-0.43116 -0.098,-0.5421 l -0.0504,-0.2017 -0.16742,0.003 c -0.0921,0.002 -0.20416,0.0186 -0.24907,0.0373 -0.0942,0.0392 -0.20246,0.18504 -0.2436,0.32851 -0.0383,0.13359 -0.0358,0.51152 0.004,0.65653 0.0399,0.14421 0.21408,0.31236 0.38044,0.36726 l 0.12081,0.0399 -0.0205,0.2357 c -0.0113,0.12963 -0.0263,0.24492 -0.0332,0.25619 -0.0241,0.0389 -0.31962,-0.0704 -0.47822,-0.17682 -0.29071,-0.19514 -0.44152,-0.58688 -0.44152,-1.14686 0,-0.56185 0.13822,-0.8798 0.45205,-1.03983 l 0.17369,-0.0885 1.01304,-0.0183 c 0.92606,-0.0168 1.02763,-0.0236 1.18288,-0.0795 0.20321,-0.0731 0.20241,-0.0742 0.19043,0.24689 l -0.009,0.23179 -0.16569,0.0587 -0.16569,0.0587 0.0714,0.0878 c 0.21902,0.26955 0.33345,0.59834 0.33287,0.95654 -6.88e-4,0.4691 -0.15566,0.76324 -0.49011,0.93071 -0.13677,0.0684 -0.41275,0.10103 -0.54977,0.0649 z m 0.418769,-0.61898 c 0.21213,-0.15684 0.26681,-0.60228 0.11263,-0.91742 -0.089,-0.18212 -0.21131,-0.31939 -0.34667,-0.38939 -0.0858,-0.0444 -0.6265,-0.12179 -0.65456,-0.0937 -0.008,0.008 0.006,0.0724 0.0318,0.14339 0.0254,0.071 0.0789,0.32554 0.11912,0.56562 0.0928,0.55449 0.16544,0.70013 0.37876,0.7596 0.10477,0.0292 0.26967,-0.002 0.35894,-0.068 z m 26.26064,-1.02539 c -1.99249,-0.10192 -4.136451,-0.46222 -6.01744,-1.01124 -4.26642,-1.24527 -8.07395,-3.48484 -11.16814,-6.56904 -1.01012,-1.00685 -1.82828,-1.95439 -2.62667,-3.04202 -2.68167,-3.65316 -4.34102,-7.7997 -4.91917,-12.29253 -0.16308,-1.26722 -0.23209,-2.86334 -0.18018,-4.16728 0.0587,-1.47501 0.16092,-2.41277 0.41775,-3.832377 0.69985,-3.868691 2.35455,-7.690641 4.694,-10.842041 0.82528,-1.11173 1.40569,-1.78979 2.37897,-2.77927 1.19867,-1.21863 2.29156,-2.14466 3.69292,-3.12908 0.8855,-0.62206 2.01086,-1.29692 3.07182,-1.842139 2.55401,-1.3125 5.2,-2.15974 8.136169,-2.605241 1.841132,-0.27935 4.021471,-0.34334 6.021541,-0.176749 3.24367,0.27015 6.52345,1.19351 9.47919,2.668629 1.867091,0.93181 3.5326,2.02155 5.142489,3.36473 1.002401,0.83632 2.288982,2.11552 3.12515,3.10724 1.935702,2.29574 3.479893,4.91948 4.551601,7.73361 0.89041,2.33807 1.473462,5.036691 1.624401,7.518498 0.233609,3.84101 -0.325051,7.52335 -1.68266,11.09111 -1.646401,4.32668 -4.46655,8.19555 -8.06872,11.0692 -2.90917,2.32082 -6.266561,4.00545 -9.8201,4.92744 -1.539751,0.39948 -3.167491,0.66545 -4.776211,0.78039 -0.576461,0.0412 -2.481371,0.0586 -3.07671,0.0281 z m 2.2123,-1.14304 c 2.153121,-0.0892 4.01786,-0.38578 5.962941,-0.9482 2.51455,-0.72709 4.796769,-1.78475 6.988509,-3.23872 2.345769,-1.55616 4.454271,-3.54845 6.15924,-5.81979 2.17492,-2.8974 3.720561,-6.30987 4.459531,-9.84574 0.326279,-1.56122 0.466008,-2.71143 0.532548,-4.38402 0.0996,-2.50229 -0.230068,-5.192278 -0.940188,-7.672468 -0.127151,-0.4441 -0.25267,-0.866779 -0.278922,-0.93931 -0.0263,-0.0725 -0.107299,-0.30328 -0.18007,-0.512799 -1.026779,-2.955861 -2.725909,-5.841711 -4.899858,-8.322001 -0.418171,-0.47708 -1.68547,-1.74106 -2.17115,-2.16544 -1.38594,-1.211 -2.884389,-2.264 -4.45389,-3.1298 -2.195732,-1.211279 -4.623292,-2.105219 -7.061771,-2.60058 -1.19479,-0.24272 -1.838939,-0.337589 -2.886239,-0.425169 -1.607191,-0.134421 -2.78909,-0.13428 -4.39528,3.17e-4 -4.127111,0.346358 -8.189441,1.782108 -11.720781,4.142588 -2.02156,1.35125 -3.8849,3.03772 -5.4256,4.91057 -2.88484,3.50673 -4.776559,7.81409 -5.44373,12.395079 -0.2632,1.807253 -0.3129,3.756123 -0.14683,5.758013 0.33841,4.07928 1.78099,8.16462 4.12291,11.67588 0.976,1.46335 1.86045,2.5352 3.16925,3.84077 0.89319,0.89098 1.42594,1.36145 2.3761,2.09825 2.92568,2.26873 6.50235,3.90971 10.178219,4.66975 2.05213,0.42431 4.068752,0.59508 6.055051,0.51274 z m -1.421151,-1.89598 c -3.900548,-0.0713 -7.681119,-1.12185 -11.069009,-3.07606 -3.00861,-1.7354 -5.53762,-4.10437 -7.51047,-7.03509 -0.32256,-0.47917 -0.34335,-0.5184 -0.29325,-0.5535 0.10574,-0.074 1.24174,-0.74355 1.24854,-0.73582 0.004,0.004 0.083,0.12656 0.17599,0.27161 1.03784,1.61901 2.57479,3.34781 4.13047,4.64607 2.72752,2.2762 5.9188,3.81072 9.464531,4.55099 0.667739,0.13941 1.742728,0.28839 2.71042,0.37562 0.646618,0.0583 2.56685,0.0492 3.267168,-0.0153 3.128481,-0.28856 5.827511,-1.09867 8.520261,-2.55738 0.109169,-0.0591 0.202721,-0.10236 0.20788,-0.0961 0.039,0.0478 0.751041,1.2589 0.751001,1.27729 0,0.0607 -1.505751,0.81354 -2.28551,1.14269 -2.435931,1.02827 -5.017752,1.63359 -7.530592,1.76557 -0.650018,0.0341 -1.29571,0.0483 -1.787419,0.0394 z m -0.732549,-3.19268 c -2.057389,-0.14416 -3.84959,-0.5182 -5.64749,-1.17866 -3.75791,-1.38051 -6.92063,-3.78814 -9.24261,-7.03595 -0.28253,-0.39518 -0.58895,-0.85291 -0.57642,-0.86104 0.005,-0.003 0.33279,-0.19857 0.72765,-0.43353 0.39484,-0.23496 1.26146,-0.75215 1.92581,-1.1493 0.66436,-0.39714 1.22698,-0.72939 1.25027,-0.73832 0.0287,-0.0111 0.0918,0.0575 0.19612,0.21306 0.84111,1.25434 2.0253,2.51393 3.26657,3.47454 2.15441,1.66729 4.798269,2.73786 7.509651,3.04086 1.361969,0.1522 2.806189,0.12072 4.13599,-0.0902 1.497888,-0.23753 3.140009,-0.77964 4.47738,-1.47807 0.169849,-0.0887 0.318809,-0.16128 0.331009,-0.16128 0.0122,1e-5 0.434182,0.68899 0.937721,1.53108 0.503549,0.84208 1.030869,1.72226 1.171829,1.95595 l 0.25631,0.4249 -0.0636,0.0507 c -0.101233,0.0808 -1.310733,0.67575 -1.79238,0.8817 -2.021981,0.86455 -4.203081,1.38774 -6.431773,1.54282 -0.38082,0.0265 -2.098598,0.034 -2.432068,0.0107 z m 2.681131,-1.1802 c 1.5855,-0.14589 2.973179,-0.43694 4.405659,-0.92402 0.792131,-0.26935 1.996811,-0.77633 1.996811,-0.84035 2.9e-5,-0.0186 -1.126051,-1.92175 -1.154009,-1.95038 -0.003,-0.003 -0.242822,0.0935 -0.532173,0.21529 -1.556948,0.6555 -3.239558,1.06385 -5.009308,1.21572 -0.52409,0.045 -1.986921,0.0447 -2.519971,-5.2e-4 -2.053421,-0.17416 -3.959379,-0.68974 -5.80177,-1.56948 -2.16982,-1.03604 -4.17374,-2.63629 -5.6526,-4.5139 -0.12694,-0.16116 -0.24033,-0.30378 -0.25197,-0.31691 -0.0116,-0.0132 -0.36909,0.18319 -0.7943,0.43626 -1.13139,0.67338 -1.20026,0.71754 -1.17799,0.75537 0.0358,0.0609 0.3992,0.52701 0.60869,0.7809 0.9738,1.18002 2.21832,2.3605 3.371,3.19754 0.88259,0.64091 1.6999,1.13099 2.75438,1.65159 2.235889,1.10383 4.38778,1.68216 7.032459,1.88999 0.419521,0.033 2.272771,0.0146 2.725092,-0.027 z m 10.665019,-0.0222 c -0.209019,-0.34878 -0.38312,-0.6418 -0.386858,-0.65114 -0.004,-0.009 0.114908,-0.0961 0.263707,-0.19278 1.68429,-1.09435 3.306702,-2.53312 4.626052,-4.10243 2.550218,-3.03335 4.207528,-6.7333 4.78428,-10.68088 0.17956,-1.22899 0.23513,-2.1316 0.212889,-3.45773 -0.01961,-1.17031 -0.065,-1.71442 -0.243048,-2.91562 -0.338032,-2.280357 -1.219312,-4.872958 -2.35322,-6.922769 l -0.117513,-0.21243 0.0649,-0.0416 c 0.188862,-0.12125 1.205241,-0.72023 1.222132,-0.720219 0.0254,1.9e-5 0.53309,0.96373 0.748609,1.42118 1.191271,2.528459 1.88804,5.12039 2.12294,7.897098 0.12265,1.44987 0.0924,3.01703 -0.0895,4.63826 -0.10183,0.90768 -0.376078,2.33461 -0.6038,3.14165 -0.765008,2.71116 -1.696939,4.7528 -3.183408,6.97406 -1.58632,2.3705 -3.95554,4.69893 -6.349439,6.24015 -0.120862,0.0778 -0.246542,0.15902 -0.279252,0.18045 -0.0565,0.037 -0.079,0.006 -0.439529,-0.59516 z m -1.27375,-2.11449 c 2.2e-5,-0.0138 -0.18896,-0.3402 -0.419899,-0.72524 -0.23096,-0.38504 -0.754041,-1.25987 -1.162402,-1.94404 l -0.742489,-1.24397 0.0709,-0.051 c 0.039,-0.028 0.242321,-0.17278 0.451829,-0.32162 2.11963,-1.50578 3.830061,-3.55942 4.914792,-5.90099 0.711009,-1.53483 1.128389,-3.02108 1.32485,-4.71775 0.31319,-2.7047 -0.132302,-5.469927 -1.28642,-7.985027 -0.107241,-0.23368 -0.253571,-0.532401 -0.32517,-0.66382 -0.0716,-0.13141 -0.130212,-0.245281 -0.130212,-0.253051 2.1e-5,-0.008 0.299982,-0.193469 0.66662,-0.41267 0.366652,-0.219189 1.246802,-0.746329 1.955912,-1.171399 0.96621,-0.579191 1.298069,-0.764701 1.324311,-0.740291 0.0603,0.056 0.550478,1.03397 0.796898,1.58977 0.82336,1.857261 1.378249,3.925311 1.58315,5.900378 0.105799,1.0197 0.115131,2.97329 0.01881,3.92657 -0.3703,3.66365 -1.698281,7.09244 -3.86135,9.96983 -1.352801,1.79955 -3.072371,3.41607 -4.895411,4.60203 -0.269751,0.17549 -0.284689,0.18296 -0.284689,0.14229 z m 0.703239,-1.84571 c 2.332061,-1.76882 4.269542,-4.17239 5.51389,-6.84034 1.172991,-2.51494 1.75328,-5.13458 1.752881,-7.91311 -2.65e-4,-1.49765 -0.132789,-2.68627 -0.458129,-4.107409 -0.283922,-1.240269 -0.72499,-2.53857 -1.216581,-3.581049 l -0.12724,-0.26983 -0.98588,0.58938 -0.98588,0.58938 0.102359,0.237209 c 0.673751,1.56116 1.084861,3.060089 1.26778,4.622369 0.33301,2.84417 -0.0773,5.71497 -1.186568,8.30294 -1.08571,2.53289 -2.66314,4.60811 -4.834052,6.35965 -0.177279,0.14302 -0.318529,0.27204 -0.313899,0.28669 0.004,0.0146 0.266851,0.45998 0.582682,0.98961 0.359478,0.60281 0.586478,0.95558 0.606919,0.9432 0.01799,-0.0109 0.144741,-0.10479 0.281718,-0.2087 z m -12.365418,-1.6368 c -2.457601,-0.17823 -4.73147,-0.96578 -6.695481,-2.31898 -1.04071,-0.71705 -2.10155,-1.71908 -2.87536,-2.71595 -1.88541,-2.4289 -2.86291,-5.38091 -2.78478,-8.4099 0.0335,-1.29815 0.21176,-2.38899 0.59138,-3.6189 0.70794,-2.293548 2.03512,-4.349749 3.83807,-5.946279 2.825549,-2.50206 6.631321,-3.68239 10.343589,-3.20801 0.905761,0.11574 1.660512,0.28653 2.534121,0.57344 3.63583,1.19406 6.554441,3.91606 8.038312,7.496841 0.853469,2.059528 1.166119,4.404488 0.882949,6.622238 -0.314151,2.46041 -1.266201,4.70842 -2.817112,6.65174 -0.360368,0.45155 -1.07342,1.19358 -1.547198,1.61009 -2.429241,2.13552 -5.545461,3.30348 -8.746631,3.27821 -0.34649,-0.003 -0.689329,-0.009 -0.761859,-0.0145 z m 2.16835,-1.19224 c 0.626769,-0.0808 1.221859,-0.19905 1.865058,-0.3704 0.544143,-0.14495 0.536742,-0.13778 0.242401,-0.23449 -0.988081,-0.32465 -1.75424,-0.98765 -2.217809,-1.91917 -0.316042,-0.63507 -0.43756,-1.50727 -0.311912,-2.23876 0.02561,-0.14914 0.0421,-0.27496 0.0367,-0.2796 -0.01699,-0.0144 -5.892491,-1.48391 -5.898039,-1.47513 -0.003,0.004 -0.0472,0.20369 -0.0986,0.44249 -0.0747,0.34759 -0.0867,0.44694 -0.06,0.49814 0.0335,0.0643 0.600112,1.01978 1.407861,2.37431 0.23876,0.40038 0.428199,0.73755 0.42096,0.74927 -0.007,0.0117 -0.474969,0.29728 -1.0394,0.63459 -0.56443,0.33732 -1.026631,0.62141 -1.027099,0.63131 -0.0011,0.0307 0.70085,0.34056 1.14463,0.50508 0.998098,0.37002 2.1453,0.62811 3.20585,0.72125 0.430678,0.0379 1.928778,0.0128 2.329508,-0.0389 z m -7.26603,-2.19113 c 0.595818,-0.35678 1.083318,-0.65917 1.083318,-0.67196 0,-0.0128 -0.34208,-0.59589 -0.760188,-1.29578 -0.485542,-0.81281 -0.755581,-1.29258 -0.747421,-1.32796 0.122801,-0.53317 0.336201,-1.48949 0.4231,-1.89607 0.0613,-0.28711 0.116211,-0.52611 0.121891,-0.53112 0.006,-0.005 0.682789,0.15972 1.504699,0.36605 0.821931,0.20633 2.312609,0.58048 3.312639,0.83147 1.000032,0.25098 1.837711,0.45633 1.86151,0.45633 0.0463,0 1.081821,-0.60572 1.081821,-0.6328 3.9e-5,-0.0177 -1.197809,-2.03372 -1.23108,-2.07206 -0.0113,-0.013 -0.24329,-0.0826 -0.515519,-0.15485 -0.272251,-0.0722 -0.752121,-0.20211 -1.06638,-0.28879 -0.314261,-0.0867 -0.96697,-0.26498 -1.450451,-0.39621 -0.483481,-0.13121 -1.169149,-0.31875 -1.523701,-0.41672 -0.35455,-0.098 -0.79629,-0.21683 -0.98162,-0.26412 -0.18533,-0.0473 -0.345419,-0.0949 -0.355759,-0.10597 -0.02281,-0.0243 0.178501,-0.89974 0.381871,-1.66091 0.19526,-0.73081 0.366919,-1.60552 0.43992,-2.24167 0.0324,-0.28203 0.0858,-0.64281 0.118729,-0.80172 0.0725,-0.34971 0.0726,-0.352218 0.009,-0.328019 -0.044,0.01691 -1.213972,0.710759 -2.484221,1.473309 -0.22562,0.13544 -0.41927,0.26849 -0.43032,0.29566 -0.0111,0.0271 -0.067,0.26696 -0.12432,0.53288 -0.0574,0.26593 -0.17789,0.81316 -0.26793,1.21608 -0.0901,0.40291 -0.21494,0.96991 -0.27754,1.26002 -0.0627,0.29009 -0.19763,0.90085 -0.30004,1.35723 l -0.18621,0.82979 -0.93318,-1.56236 c -0.51325,-0.8593 -0.96379,-1.61129 -1.00121,-1.6711 l -0.068,-0.10874 -0.40634,0.2406 c -1.51742,0.89853 -1.79016,1.06357 -1.79102,1.08378 -7.41e-4,0.0125 0.05,0.10479 0.11248,0.20512 0.0624,0.10032 0.54592,0.90767 1.07448,1.79408 0.52855,0.88641 1.13471,1.90176 1.34703,2.25632 0.21232,0.35456 0.95565,1.59737 1.65184,2.76179 0.6962,1.16443 1.27223,2.11713 1.28007,2.11713 0.008,-6e-5 0.501749,-0.29192 1.09759,-0.64871 z m 10.909779,0.57539 c 0.539731,-0.0941 0.982861,-0.32845 1.38154,-0.73055 0.523129,-0.52763 0.77655,-1.18208 0.738079,-1.90606 -0.0308,-0.57879 -0.23468,-1.09612 -0.601358,-1.52564 -0.716002,-0.8387 -1.84454,-1.11662 -2.91212,-0.71719 -0.34901,0.13059 -0.799521,0.47959 -1.0673,0.82682 -0.151691,0.19671 -0.37028,0.63948 -0.438381,0.88798 -0.0694,0.25333 -0.087,0.88297 -0.0319,1.14329 0.170791,0.80697 0.670599,1.4459 1.40803,1.79991 0.511691,0.24565 0.98778,0.31486 1.523391,0.22145 z m -0.90401,-0.80202 c -0.89394,-0.25775 -1.444821,-1.15141 -1.262991,-2.04882 0.0586,-0.28904 0.124682,-0.44934 0.279151,-0.67682 0.31963,-0.47069 0.87969,-0.76575 1.451491,-0.76471 0.312539,5.3e-4 0.55906,0.0623 0.84759,0.21216 0.645049,0.33507 1.016439,1.05007 0.924518,1.77987 -0.0344,0.27322 -0.0655,0.37159 -0.199329,0.63014 -0.21726,0.41985 -0.650661,0.75657 -1.130909,0.87865 -0.234341,0.0596 -0.684561,0.0544 -0.909521,-0.0105 z m 1.07642,-0.43728 c 0.51185,-0.252 0.775071,-0.70194 0.7497,-1.28155 -0.01061,-0.24117 -0.02389,-0.29513 -0.121801,-0.4933 -0.237278,-0.48009 -0.665858,-0.7499 -1.192728,-0.75085 -0.66978,-0.001 -1.21335,0.46105 -1.323441,1.12552 -0.0821,0.49526 0.1895,1.07794 0.619969,1.33022 0.259411,0.15209 0.39729,0.18372 0.7528,0.1729 0.296942,-0.009 0.343641,-0.0184 0.51548,-0.10296 z m 3.79956,-1.10486 c 1.373711,-1.55565 2.272199,-3.30271 2.74207,-5.33171 0.17008,-0.73446 0.340389,-2.08487 0.276051,-2.18895 -0.0108,-0.0176 -0.433951,0.21817 -1.01151,0.56341 -0.5461,0.32644 -1.20387,0.71915 -1.461741,0.87268 -3.101989,1.84709 -3.907269,2.33397 -3.88765,2.3505 0.0109,0.009 0.1187,0.054 0.239569,0.0996 1.447023,0.54628 2.403621,1.92711 2.402592,3.46805 -2.65e-4,0.2221 -0.0411,0.57943 -0.104712,0.91359 -0.0191,0.10012 -0.0132,0.0965 0.250592,-0.16117 0.148559,-0.14505 0.39819,-0.40877 0.554728,-0.58605 z m -5.300861,-3.93254 c 0.18533,-0.11205 0.679802,-0.40826 1.098823,-0.65823 0.950108,-0.56681 3.653718,-2.18161 4.995978,-2.984 0.556009,-0.33236 1.39644,-0.83425 1.867631,-1.11528 0.471188,-0.28103 0.856879,-0.52101 0.857088,-0.53326 2.62e-4,-0.0123 -0.0702,-0.13754 -0.15639,-0.27838 -0.0862,-0.14084 -0.325429,-0.53959 -0.531598,-0.8861 -0.20616,-0.34651 -0.376661,-0.63261 -0.37892,-0.6358 -0.0021,-0.003 -1.355191,-0.0471 -3.00658,-0.0977 -1.651381,-0.0506 -3.00718,-0.0966 -3.012871,-0.10222 -0.01471,-0.0147 2.56545,-5.116101 2.652181,-5.243861 0.02159,-0.0318 0.0392,-0.0735 0.0393,-0.0928 3.2e-5,-0.0192 -0.245438,-0.44601 -0.545438,-0.94835 -0.433311,-0.72562 -0.55599,-0.9106 -0.596821,-0.89992 -0.0282,0.007 -0.557469,0.31634 -1.176049,0.68656 -0.618572,0.37022 -1.948791,1.16534 -2.956041,1.76692 -1.007258,0.60159 -2.154431,1.28723 -2.549269,1.523651 -0.39484,0.236429 -1.110181,0.66393 -1.58963,0.95 -0.479462,0.286088 -0.87173,0.526409 -0.87173,0.534058 -1.1e-5,0.031 1.147,1.977762 1.203319,2.042412 0.0191,0.022 0.639951,-0.34245 3.61663,-2.12303 0.370551,-0.221642 0.67863,-0.3981 0.684641,-0.392091 0.006,0.006 -0.0747,0.17313 -0.179372,0.37139 -0.355909,0.67428 -0.980448,1.853501 -1.222959,2.309121 -0.132919,0.24982 -0.377759,0.71131 -0.54401,1.02559 -0.166249,0.31428 -0.387109,0.72964 -0.4908,0.92304 -0.1037,0.1934 -0.184089,0.35947 -0.178641,0.36904 0.008,0.0141 3.11831,0.0494 5.191191,0.0588 0.26189,0.001 0.47615,0.0124 0.47615,0.0249 6e-5,0.0125 -0.702131,0.44216 -1.56032,0.95481 -0.858179,0.51263 -1.81579,1.08475 -2.12802,1.27138 -0.312229,0.18662 -0.573349,0.35392 -0.58026,0.37179 -0.0105,0.0269 1.0752,1.88077 1.169069,1.99641 0.0163,0.02 0.0379,0.0315 0.0481,0.0256 0.0104,-0.006 0.170288,-0.10238 0.355629,-0.21444 z m -2.139048,-2.83549 c 0.394849,-0.23639 0.728441,-0.44007 0.741289,-0.45262 0.01291,-0.0126 -0.75845,-0.0325 -1.714019,-0.0443 -0.95558,-0.0118 -1.742522,-0.0265 -1.748782,-0.0328 -0.006,-0.006 0.263081,-0.52939 0.598541,-1.1625 0.962181,-1.81588 0.979839,-1.84986 0.96757,-1.86212 -0.006,-0.006 -0.398449,0.21953 -0.871241,0.50207 -0.657979,0.39322 -0.867328,0.50546 -0.892559,0.47853 -0.0273,-0.0291 -0.54991,-0.90101 -1.368671,-2.283323 -0.0833,-0.140559 -0.157959,-0.255939 -0.166028,-0.256399 -0.0317,-0.0021 -0.236411,1.127352 -0.294691,1.625472 -0.0864,0.73871 -0.14715,1.05543 -0.381539,1.98902 -0.1128,0.44929 -0.201282,0.81987 -0.196631,0.8235 0.005,0.004 0.193069,0.0555 0.41869,0.11543 0.461949,0.12255 1.417889,0.38319 2.2709,0.61914 0.31427,0.0869 0.79555,0.21748 1.06952,0.2901 0.273979,0.0726 0.5377,0.14378 0.586039,0.15812 0.0667,0.0198 0.10913,0.0136 0.17581,-0.0258 0.0483,-0.0285 0.410962,-0.24526 0.805802,-0.48164 z m -10.065951,-2.02316 c 0.12271,-0.54773 0.2561,-1.16731 0.29641,-1.37683 0.0403,-0.20951 0.0794,-0.40731 0.0868,-0.43954 0.009,-0.0394 0.20772,-0.17346 0.60668,-0.40939 0.76441,-0.45204 1.996319,-1.189662 2.011199,-1.204241 0.006,-0.006 -0.007,-0.0163 -0.0294,-0.0223 -0.81017,-0.220459 -1.386769,-0.53898 -1.876969,-1.036871 -0.52652,-0.534778 -0.89557,-1.247428 -1.02261,-1.974689 -0.0427,-0.24488 -0.0532,-0.82452 -0.02,-1.11041 l 0.0221,-0.19047 -0.25353,0.26372 c -1.95763,2.036331 -3.12888,4.7426 -3.30799,7.643351 -0.0187,0.30324 -0.0172,0.31631 0.0346,0.28841 0.0298,-0.0161 0.50799,-0.30138 1.06254,-0.634 0.55454,-0.33261 1.02347,-0.59891 1.04207,-0.59177 0.0186,0.007 0.27508,0.41727 0.56995,0.91139 0.29487,0.49413 0.54035,0.89419 0.54551,0.88903 0.005,-0.005 0.10979,-0.45755 0.23249,-1.00528 z m 19.672641,-3.716301 c -0.28354,-0.73333 -0.83422,-1.734672 -1.355211,-2.464281 -0.271219,-0.37981 -0.71831,-0.93828 -0.735748,-0.91901 -0.0405,0.0449 -1.801842,3.52711 -1.801842,3.562451 2.9e-5,0.0177 0.286941,0.0376 0.739881,0.0511 1.865371,0.0558 3.176,0.0876 3.22,0.078 0.0414,-0.009 0.0321,-0.0519 -0.067,-0.308258 z m -15.34986,-0.88415 c 0.463709,-0.105151 0.92641,-0.378762 1.27743,-0.755351 0.92397,-0.99132 0.897019,-2.56169 -0.0605,-3.52442 -0.300151,-0.30179 -0.746252,-0.56503 -1.143691,-0.67489 -0.26227,-0.0725 -0.91327,-0.0888 -1.197289,-0.0301 -0.863492,0.17858 -1.639911,0.8796 -1.908041,1.72276 -0.13607,0.42789 -0.1519,0.96275 -0.042,1.42122 0.0487,0.20347 0.26818,0.65973 0.41831,0.869789 0.378491,0.529571 1.007559,0.91059 1.674201,1.014021 0.242559,0.0377 0.71792,0.01691 0.981609,-0.043 z m -0.851212,-0.7184 c -0.548299,-0.0841 -1.074939,-0.458201 -1.316839,-0.935501 -0.19123,-0.37727 -0.25291,-0.83693 -0.163381,-1.21747 0.189601,-0.80593 0.91916,-1.39314 1.728751,-1.39146 0.477239,0.001 0.90982,0.18254 1.2486,0.524 0.370571,0.37348 0.526151,0.74834 0.526151,1.26769 0,0.3748 -0.0874,0.65948 -0.30026,0.9781 -0.373822,0.55954 -1.073711,0.874201 -1.723022,0.774641 z m 0.544711,-0.542841 c 0.0961,-0.025 0.228481,-0.0771 0.294301,-0.11559 0.204949,-0.1201 0.45044,-0.38659 0.550349,-0.59743 0.0877,-0.1852 0.0918,-0.21024 0.0919,-0.56165 0,-0.36612 -2.65e-4,-0.36882 -0.110152,-0.59068 -0.230468,-0.46636 -0.657659,-0.72722 -1.193358,-0.7287 -0.75688,-0.002 -1.316471,0.55873 -1.31795,1.3209 -0.0011,0.59339 0.400219,1.12477 0.965909,1.27878 0.18555,0.0505 0.513321,0.0479 0.719061,-0.005 z m 4.906909,-1.1859 c 3.487481,-2.07959 4.822402,-2.88071 4.86224,-2.91795 0.0358,-0.0334 -0.0011,-0.0596 -0.24906,-0.17512 -1.070398,-0.4993 -2.412688,-0.87186 -3.70482,-1.02828 -0.599109,-0.0725 -2.046068,-0.0732 -2.622529,-10e-4 -0.743169,0.0928 -1.728859,0.30031 -2.222471,0.46795 l -0.200649,0.0681 0.259249,0.0966 c 1.66815,0.62137 2.652422,2.40101 2.3114,4.17923 -0.0543,0.28332 -0.0546,0.29315 -0.008,0.25679 0.02019,-0.0157 0.728879,-0.44155 1.574969,-0.94607 z M 44.520154,114.13088 c -1.54731,-2.94311 -2.38266,-5.89836 -2.61532,-9.25236 -0.0708,-1.02096 -0.0388,-2.58278 0.0776,-3.78007 0.21145,-2.175783 0.80402,-4.484952 1.68797,-6.577822 0.78734,-1.86413 1.87135,-3.69739 3.12789,-5.28982 0.95844,-1.21464 2.24438,-2.51662 3.47487,-3.5182 0.75214,-0.61222 2.18257,-1.61999 2.23086,-1.57168 0.0323,0.0323 0.74329,1.23009 0.74329,1.25217 -4e-5,0.0125 -0.20863,0.16175 -0.46362,0.33165 -1.95477,1.30248 -3.92046,3.1823 -5.25769,5.02801 -1.90368,2.62754 -3.11942,5.39139 -3.7572,8.541879 -0.2674,1.320803 -0.40005,2.712543 -0.39925,4.188733 10e-4,2.20227 0.31534,4.24898 0.97413,6.34685 0.3987,1.26962 1.07323,2.85113 1.64692,3.86139 l 0.10415,0.1834 -0.0645,0.0412 c -0.23276,0.14898 -1.20054,0.72007 -1.22022,0.72007 -0.0132,-3e-5 -0.1437,-0.22747 -0.28985,-0.50548 z m 2.69818,-1.68491 c -1.13392,-2.22034 -1.82312,-4.5171 -2.08612,-6.95209 -0.091,-0.84234 -0.11881,-2.40172 -0.0593,-3.32637 0.14652,-2.278762 0.70933,-4.578303 1.63795,-6.692342 1.41295,-3.21669 3.69384,-6.01859 6.56579,-8.06554 0.35932,-0.25611 0.81332,-0.55283 0.84344,-0.55123 0.0116,6.61e-4 0.30446,0.47733 0.65095,1.05938 0.3465,0.58206 0.82823,1.38922 1.07051,1.7937 0.24229,0.40446 0.48288,0.80946 0.53467,0.89997 l 0.0941,0.16458 -0.12445,0.0844 c -0.94471,0.6409 -1.63535,1.21675 -2.42579,2.02263 -1.05969,1.08036 -1.90069,2.2346 -2.57642,3.53599 -1.43259,2.759061 -1.98122,5.779562 -1.61104,8.869692 0.20735,1.73091 0.7447,3.47852 1.53995,5.00838 0.10404,0.20015 0.17885,0.37323 0.16625,0.38463 -0.0126,0.0114 -0.36574,0.2253 -0.78476,0.4753 -0.41901,0.25001 -1.2937,0.7725 -1.94374,1.1611 -0.65005,0.38859 -1.18518,0.70654 -1.18918,0.70653 -0.004,-1e-5 -0.14026,-0.26043 -0.30281,-0.57873 z m 1.76553,-1.63136 c 0.4996,-0.29912 0.92155,-0.54847 0.93765,-0.55413 0.0334,-0.0118 0.0102,-0.0785 -0.25023,-0.70816 -0.90773,-2.19785 -1.3278,-4.7504 -1.17022,-7.11093 0.0593,-0.88799 0.14549,-1.50572 0.33876,-2.42714 0.13153,-0.627102 0.20948,-0.913661 0.44239,-1.626303 0.99906,-3.056939 2.81199,-5.666539 5.34663,-7.696139 l 0.31204,-0.24986 -0.5779,-0.9628 c -0.31786,-0.52955 -0.59102,-0.96718 -0.60704,-0.97252 -0.0327,-0.011 -0.42542,0.27818 -0.80167,0.59012 -0.95955,0.79553 -1.71702,1.54873 -2.49877,2.48469 -1.64544,1.97002 -2.86185,4.28503 -3.59184,6.835809 -0.24292,0.84882 -0.45762,1.939853 -0.55934,2.842373 -0.16113,1.4296 -0.16552,2.81664 -0.0135,4.26356 0.19131,1.8209 0.77662,3.93129 1.54995,5.58853 0.1161,0.24881 0.14771,0.29493 0.1872,0.27305 0.0261,-0.0145 0.45629,-0.27104 0.95589,-0.57015 z m 28.63942,-16.050732 c -0.905881,-1.33693 -2.08035,-2.58331 -3.366501,-3.57263 -2.091129,-1.60853 -4.76142,-2.68473 -7.408238,-2.98574 -1.802241,-0.20496 -3.661762,-0.0921 -5.308801,0.32208 -0.719709,0.181 -1.11928,0.30282 -1.68235,0.51287 -0.54827,0.20455 -1.36343,0.56546 -1.75545,0.77721 -0.12729,0.0687 -0.23976,0.11241 -0.25287,0.0981 -0.022,-0.0241 -0.68158,-1.12351 -1.82578,-3.04387 -0.26887,-0.45126 -0.49106,-0.83367 -0.49375,-0.84978 -0.0111,-0.0666 1.6703,-0.87943 2.34746,-1.13478 0.16921,-0.0638 0.44611,-0.1682 0.615341,-0.23197 0.699058,-0.26342 1.77056,-0.55882 2.739729,-0.75528 1.353431,-0.27436 2.30941,-0.36561 3.838551,-0.36641 1.69228,-10e-4 2.8337,0.12493 4.48052,0.49387 1.136039,0.2545 2.485218,0.70965 3.64182,1.22856 3.357708,1.50645 6.278251,3.98423 8.29047,7.03361 l 0.21059,0.31913 -0.693211,0.41506 c -2.398789,1.43635 -3.162829,1.89101 -3.204699,1.90708 -0.0346,0.0133 -0.0809,-0.0315 -0.172842,-0.16715 z m 1.455541,-1.93037 0.98017,-0.58761 -0.305929,-0.40136 c -0.829993,-1.08887 -1.895833,-2.1763 -3.037012,-3.09849 -2.313639,-1.8697 -5.08126,-3.14992 -8.1119,-3.75233 -1.14395,-0.22739 -2.16348,-0.31953 -3.533529,-0.31936 -1.092621,1.5e-4 -1.423832,0.0201 -2.432071,0.14686 -1.683081,0.21155 -3.675539,0.78617 -5.22064,1.50567 l -0.29791,0.13873 0.0525,0.086 c 0.0289,0.0473 0.2935,0.49208 0.588,0.98847 0.29704,0.50065 0.54983,0.89633 0.56771,0.88862 1.536019,-0.66147 2.648111,-1.00309 4.061271,-1.24758 2.010709,-0.34786 4.13157,-0.29204 6.22666,0.1639 1.45548,0.31674 3.00574,0.90155 4.338888,1.63677 1.842972,1.01639 3.541321,2.45202 4.861751,4.10971 0.144431,0.18131 0.26692,0.32966 0.272219,0.32966 0.005,4e-5 0.450713,-0.26442 0.989801,-0.58761 z m 3.865989,-1.35354 c -1.66709,-2.55918 -3.953521,-4.79423 -6.54898,-6.4018 -2.162641,-1.3395 -4.451459,-2.25358 -6.988519,-2.791 -2.00578,-0.42488 -4.35932,-0.54798 -6.43177,-0.33638 -2.795301,0.2854 -5.336601,1.05253 -7.846031,2.36844 l -0.47658,0.24991 -0.0681,-0.10862 c -0.0375,-0.0597 -0.20973,-0.34539 -0.38277,-0.6348 -0.29446,-0.49248 -0.31119,-0.52872 -0.26107,-0.56583 0.099,-0.0733 1.01486,-0.54349 1.5033,-0.77177 0.55803,-0.26082 1.19057,-0.53212 1.46579,-0.62869 0.10475,-0.0368 0.37427,-0.13419 0.59892,-0.21653 0.37405,-0.13711 1.065341,-0.35331 1.73058,-0.54123 0.845489,-0.23884 2.29363,-0.50595 3.34042,-0.61614 1.013251,-0.10665 1.260099,-0.11848 2.476029,-0.11866 1.258541,-1.6e-4 1.603851,0.0171 2.681121,0.13414 2.08526,0.22653 4.314661,0.82055 6.37736,1.69926 2.009431,0.85603 3.956662,2.04713 5.62179,3.43878 1.72447,1.44126 3.26412,3.16853 4.461971,5.00574 l 0.219199,0.33617 -0.629079,0.37763 c -0.34599,0.20769 -0.63778,0.38069 -0.648401,0.38445 -0.0109,0.004 -0.0984,-0.11463 -0.19513,-0.26306 z m 11.24463,37.876582 c -0.0284,-0.0117 -0.0367,-0.25965 -0.0367,-1.10016 v -1.08509 l -0.139179,0.0203 c -0.20951,0.0306 -0.46355,0.15577 -0.58198,0.28685 -0.15788,0.17476 -0.21521,0.32501 -0.21521,0.56394 0,0.33331 0.137639,0.54963 0.439989,0.69149 l 0.150011,0.0704 -0.01849,0.17581 c -0.0357,0.34042 -0.0455,0.37006 -0.114761,0.3497 -0.3386,-0.0995 -0.614801,-0.33151 -0.771109,-0.64778 -0.103331,-0.2091 -0.109472,-0.23779 -0.121201,-0.56688 -0.0104,-0.29298 -0.003,-0.37826 0.0498,-0.55099 0.0771,-0.25368 0.27749,-0.52924 0.485399,-0.66728 0.63799,-0.42362 1.71286,-0.33211 2.186501,0.18614 0.177261,0.19396 0.247899,0.32581 0.305531,0.57022 0.120689,0.51194 -0.01151,0.99401 -0.361472,1.31801 -0.198299,0.1836 -0.3503,0.26588 -0.6052,0.32758 -0.19133,0.0463 -0.59319,0.0819 -0.651949,0.0578 z m 0.83534,-0.67267 c 0.25169,-0.12191 0.384281,-0.3476 0.386731,-0.65825 0.0021,-0.22262 -0.0664,-0.40461 -0.205992,-0.54986 -0.136628,-0.14218 -0.284998,-0.22389 -0.459337,-0.25292 l -0.124532,-0.0207 v 0.79749 0.79749 l 0.124532,-0.0193 c 0.0685,-0.0106 0.193868,-0.0529 0.278608,-0.0939 z m -59.94469,-0.89057 v -0.23442 l 0.17462,10e-6 0.17465,-10e-6 -0.11641,-0.12236 c -0.18433,-0.19379 -0.27091,-0.40073 -0.28572,-0.68297 -0.009,-0.16553 0.002,-0.28981 0.0337,-0.39954 0.051,-0.17547 0.20904,-0.38225 0.34649,-0.45332 l 0.087,-0.045 -0.12873,-0.11332 c -0.0708,-0.0623 -0.17324,-0.19667 -0.22764,-0.29854 -0.0853,-0.15964 -0.10062,-0.22018 -0.11118,-0.43839 -0.0215,-0.4438 0.11521,-0.71312 0.43744,-0.86185 l 0.18715,-0.0864 1.19405,-0.008 1.19407,-0.008 v 0.24716 0.24714 l -1.0915,0.0111 c -1.01653,0.0102 -1.09952,0.015 -1.20832,0.069 -0.21841,0.10853 -0.30801,0.33279 -0.24815,0.62108 0.0277,0.13341 0.0592,0.18868 0.17016,0.29906 0.21273,0.21148 0.23584,0.21534 1.37532,0.22923 l 1.00469,0.0123 -0.008,0.25405 -0.008,0.25405 -1.11347,0.0146 c -1.22722,0.0161 -1.22807,0.0162 -1.36304,0.20581 -0.0966,0.13569 -0.0925,0.44818 0.008,0.61983 0.0944,0.16119 0.1506,0.21113 0.33051,0.29407 0.1411,0.0651 0.17534,0.0673 1.14903,0.0765 l 1.00359,0.009 v 0.26167 0.26167 h -1.479751 -1.47974 z m 58.48854,-1.44974 c -0.376759,-0.14099 -0.630439,-0.39906 -0.73695,-0.74967 -0.0822,-0.2707 -0.0692,-0.68901 0.0293,-0.94321 0.120931,-0.31202 0.442691,-0.59663 0.822982,-0.72795 0.259209,-0.0896 0.91785,-0.0987 1.185478,-0.0165 0.519639,0.15955 0.80549,0.43838 0.928071,0.9053 0.120539,0.45914 0.0362,0.91217 -0.227031,1.21973 -0.11657,0.13619 -0.491378,0.33694 -0.60013,0.32145 -0.0611,-0.009 -0.0734,-0.0339 -0.10463,-0.215 -0.01939,-0.11281 -0.0362,-0.21952 -0.0372,-0.2371 -0.0011,-0.0176 0.0488,-0.0471 0.11068,-0.0657 0.672039,-0.20135 0.614641,-1.15982 -0.0824,-1.37586 -0.237799,-0.0737 -0.8935,-0.0706 -1.11425,0.005 -0.34054,0.1171 -0.52745,0.36975 -0.52745,0.71302 0,0.20971 0.0411,0.32931 0.163029,0.47388 0.085,0.10082 0.34622,0.23734 0.45407,0.23734 0.0834,0 0.0974,0.0623 0.068,0.30221 -0.0308,0.25083 -0.0481,0.25882 -0.331629,0.15272 z m -0.73441,-3.23833 v -0.26336 l 0.17099,-0.0504 0.170982,-0.0504 -0.1021,-0.13312 c -0.228582,-0.29803 -0.312931,-0.59615 -0.291971,-1.03174 0.01119,-0.23119 0.0283,-0.31355 0.0932,-0.44624 0.153519,-0.3138 0.456089,-0.47948 0.821981,-0.4501 0.44409,0.0356 0.723349,0.3581 0.818549,0.94518 0.0236,0.14505 0.0639,0.39523 0.0897,0.55595 0.0258,0.16073 0.0618,0.34204 0.0801,0.40292 0.033,0.11022 0.0338,0.11067 0.190849,0.11067 0.344573,0 0.502733,-0.17963 0.529011,-0.6008 0.0273,-0.43787 -0.101439,-0.6808 -0.41652,-0.78583 -0.0651,-0.0217 -0.117809,-0.0515 -0.117229,-0.0663 0.008,-0.20916 0.0565,-0.4588 0.0911,-0.47211 0.0569,-0.0218 0.290621,0.0693 0.44173,0.17223 0.16542,0.11262 0.281562,0.28878 0.36449,0.55286 0.0587,0.18686 0.0683,0.2774 0.067,0.62855 -0.0011,0.35006 -0.0109,0.43387 -0.0653,0.57139 -0.0811,0.20509 -0.213191,0.36526 -0.36815,0.44643 -0.11489,0.0602 -0.175029,0.065 -1.07402,0.085 -1.030071,0.023 -1.17329,0.0336 -1.33059,0.0994 -0.0569,0.0238 -0.11694,0.0431 -0.133569,0.0431 -0.0186,2e-5 -0.0303,-0.10186 -0.0303,-0.26335 z m 1.41967,-0.52255 c -0.0407,-0.11825 -0.105648,-0.43639 -0.16075,-0.78785 -0.0628,-0.40055 -0.225039,-0.58339 -0.493088,-0.5557 -0.240882,0.0249 -0.382511,0.19877 -0.406631,0.49929 -0.0337,0.4204 0.206809,0.82322 0.55053,0.92187 0.0556,0.0159 0.201829,0.0303 0.32485,0.0317 l 0.22367,0.003 -0.0386,-0.11195 z m -60.2811,0.4709 0.008,-0.2564 h 2.02184 2.02184 l 0.008,0.2564 0.008,0.2564 h -2.03877 -2.03877 z m 2.04788,-0.85852 c -0.63362,-0.16593 -0.99977,-0.64804 -0.99885,-1.31521 6.88e-4,-0.41827 0.11947,-0.73301 0.37029,-0.9803 0.30753,-0.30319 0.61666,-0.41326 1.15307,-0.41054 0.5863,0.003 0.89771,0.1142 1.18173,0.42212 0.24395,0.26447 0.37127,0.59257 0.37127,0.95678 0,0.68354 -0.39761,1.18642 -1.0619,1.34304 -0.26253,0.0619 -0.74752,0.0543 -1.01561,-0.0158 z m 0.9329,-0.52569 c 0.29236,-0.0554 0.49148,-0.19846 0.62379,-0.448 0.052,-0.0981 0.0657,-0.17244 0.0661,-0.35818 3.44e-4,-0.20233 -0.0104,-0.25281 -0.0785,-0.36873 -0.19961,-0.33954 -0.44378,-0.44893 -1.00523,-0.45039 -0.48302,-0.001 -0.64651,0.0501 -0.8686,0.27253 -0.18336,0.18372 -0.23059,0.29955 -0.22876,0.56125 0.003,0.38563 0.22858,0.67026 0.61389,0.77346 0.18743,0.0502 0.65681,0.0599 0.87722,0.0181 z m 56.85822,-1.46495 c -0.438579,-0.11498 -0.748049,-0.34893 -0.92242,-0.69732 -0.093,-0.18592 -0.0986,-0.2142 -0.0988,-0.50464 -2.64e-4,-0.27641 0.008,-0.32259 0.0772,-0.45441 0.0426,-0.0807 0.11367,-0.18289 0.157821,-0.2271 l 0.0803,-0.0803 h -0.692578 -0.6926 v -0.26373 -0.26372 h 2.03649 2.036479 v 0.23442 0.23442 l -0.175889,1e-5 -0.175901,-1e-5 0.11642,0.10518 c 0.0641,0.0579 0.15308,0.17982 0.197871,0.27105 0.0736,0.14993 0.0813,0.19543 0.0805,0.47355 -7.93e-4,0.28147 -0.008,0.32391 -0.0908,0.49815 -0.16232,0.34399 -0.487421,0.58495 -0.92999,0.68932 -0.255121,0.0601 -0.745871,0.0529 -1.004242,-0.0148 z m 0.972171,-0.51453 c 0.239311,-0.0618 0.45964,-0.2135 0.561168,-0.38622 0.0688,-0.11706 0.082,-0.17221 0.0807,-0.33621 -0.0011,-0.1729 -0.01331,-0.21319 -0.0997,-0.33985 -0.177089,-0.25953 -0.458179,-0.39938 -0.87167,-0.43368 -0.446379,-0.0371 -0.860359,0.0763 -1.05146,0.28782 -0.138869,0.15372 -0.18787,0.2781 -0.187848,0.47699 0,0.25169 0.171317,0.52089 0.410098,0.64437 0.253551,0.13112 0.82237,0.17372 1.158711,0.0868 z m -58.766221,-0.65317 c -0.25887,-0.073 -0.42081,-0.16091 -0.59267,-0.32165 -0.275,-0.25725 -0.40359,-0.57647 -0.40359,-1.00191 0,-0.43997 0.13093,-0.75168 0.43115,-1.02645 0.28785,-0.26345 0.55497,-0.35017 1.0779,-0.34993 0.19394,-10e-6 0.44109,0.0191 0.55111,0.0425 0.59202,0.12544 1.01654,0.67961 1.01654,1.32698 0,0.60342 -0.30075,1.06143 -0.83511,1.27176 -0.21614,0.0851 -0.26639,0.0931 -0.64464,0.10238 -0.33149,0.008 -0.44679,-2.7e-4 -0.60069,-0.0437 z m 1.03264,-0.54332 c 0.36406,-0.10967 0.60827,-0.42321 0.60827,-0.78093 0,-0.26421 -0.13748,-0.52396 -0.34663,-0.65493 -0.45069,-0.2822 -1.27757,-0.24198 -1.61184,0.0784 -0.15344,0.14707 -0.21784,0.29905 -0.23281,0.54947 -0.0116,0.1945 -0.004,0.23917 0.0615,0.36892 0.12622,0.2491 0.37645,0.42338 0.69011,0.48066 0.17432,0.0319 0.6699,0.007 0.83131,-0.0416 z m 56.390461,-1.40679 c -0.404122,-0.15062 -0.624829,-0.49686 -0.657122,-1.03084 -0.01781,-0.29452 0.0245,-0.60406 0.108501,-0.79454 0.0771,-0.17464 0.26611,-0.36753 0.44627,-0.4553 0.185991,-0.0906 0.369091,-0.1439 0.388202,-0.11297 0.029,0.047 0.0815,0.43944 0.0647,0.48339 -0.01019,0.0254 -0.045,0.0461 -0.0784,0.0461 -0.170151,0 -0.393841,0.19612 -0.464532,0.40728 -0.0437,0.13047 -0.0427,0.47787 0.0021,0.62639 0.0774,0.25843 0.330869,0.40342 0.53499,0.30611 0.11598,-0.0553 0.18756,-0.20017 0.278249,-0.56321 0.21336,-0.85407 0.358031,-1.09419 0.72599,-1.20493 0.171572,-0.0516 0.25499,-0.051 0.439232,0.004 0.22329,0.0663 0.42191,0.25882 0.52106,0.50505 0.143629,0.35662 0.129739,0.88061 -0.0328,1.2381 -0.116391,0.25599 -0.246992,0.3664 -0.53254,0.45025 -0.152752,0.0449 -0.155382,0.0446 -0.178951,-0.0192 -0.0131,-0.0355 -0.0326,-0.15185 -0.0431,-0.25836 l -0.01921,-0.19367 0.131408,-0.0502 c 0.255762,-0.0977 0.354441,-0.29902 0.33097,-0.67525 -0.0226,-0.3627 -0.12668,-0.51354 -0.35428,-0.51354 -0.189507,0 -0.235558,0.0799 -0.441478,0.76655 -0.205341,0.68469 -0.286642,0.84464 -0.494731,0.97329 -0.112408,0.0696 -0.178991,0.0878 -0.35084,0.0965 -0.135919,0.007 -0.252079,-0.004 -0.323379,-0.0308 z m -58.360751,-1.54186 v -0.23442 l 0.17078,-1e-5 h 0.17079 l -0.12206,-0.12738 c -0.0671,-0.0701 -0.15387,-0.19204 -0.19276,-0.27106 -0.062,-0.12596 -0.0706,-0.18334 -0.0698,-0.46599 6.88e-4,-0.29396 0.008,-0.33758 0.085,-0.49558 0.20512,-0.423 0.57466,-0.65276 1.15254,-0.71661 0.30387,-0.0336 0.69145,0.002 0.93504,0.0858 0.79217,0.27256 1.13826,1.17762 0.68122,1.78149 l -0.11409,0.15072 h 0.68814 0.68815 v 0.26373 0.26372 h -2.03649 -2.03648 z m 1.78741,-0.26476 c 0.10475,-0.0164 0.27138,-0.0691 0.37028,-0.11718 0.62248,-0.30222 0.53589,-1.1003 -0.14519,-1.33791 -0.11877,-0.0414 -0.24117,-0.0529 -0.56206,-0.0526 -0.36283,2.6e-4 -0.43055,0.008 -0.58604,0.0702 -0.22966,0.0912 -0.43494,0.29137 -0.48355,0.47162 -0.1705,0.63216 0.51847,1.10528 1.40656,0.96591 z m 58.545291,-0.75934 c -0.12501,-0.0535 -0.18642,-0.0956 -0.17871,-0.12213 0.006,-0.0223 0.0311,-0.0964 0.0546,-0.16467 0.0799,-0.23138 -0.02561,-0.47165 -0.256882,-0.58528 -0.208647,-0.10249 -0.454797,-0.12526 -1.356309,-0.1255 l -0.843579,-2.6e-4 0.008,-0.2564 0.008,-0.2564 1.473621,-0.007 1.47361,-0.007 -0.008,0.24202 -0.008,0.24203 h -0.181771 c -0.10002,0 -0.1725,0.007 -0.16116,0.0161 0.365731,0.28587 0.433861,0.39786 0.407741,0.67024 -0.01979,0.20629 -0.12237,0.44269 -0.190701,0.43939 -0.0274,-0.001 -0.13562,-0.0391 -0.240379,-0.084 z m -58.295601,-1.767 c -0.009,-0.0524 -0.0286,-0.16116 -0.0431,-0.24175 -0.0145,-0.0806 -0.0176,-0.15371 -0.007,-0.1625 0.011,-0.009 0.0726,-0.0334 0.137101,-0.0548 0.288399,-0.0955 0.426779,-0.29558 0.44761,-0.64712 0.0153,-0.25924 -0.0249,-0.43207 -0.12955,-0.55647 -0.187481,-0.22281 -0.43419,-0.23003 -0.56612,-0.0165 -0.0309,0.0501 -0.11523,0.30814 -0.18743,0.57369 -0.15328,0.56379 -0.212741,0.7132 -0.342671,0.86119 -0.15205,0.17318 -0.2986,0.23555 -0.555069,0.23625 -0.263291,7.9e-4 -0.44937,-0.0795 -0.604241,-0.26039 -0.180569,-0.21096 -0.228979,-0.38806 -0.228979,-0.83771 0,-0.34169 0.009,-0.41812 0.0659,-0.561 0.13491,-0.33848 0.33173,-0.5094 0.653689,-0.56771 l 0.10619,-0.0192 0.0195,0.17105 c 0.0108,0.0941 0.0264,0.20606 0.0347,0.24881 0.0134,0.0685 0.002,0.082 -0.0916,0.11299 -0.150929,0.0499 -0.30028,0.19108 -0.33529,0.31715 -0.0367,0.13189 -0.038,0.44883 -0.002,0.60157 0.0529,0.22811 0.265361,0.35869 0.438171,0.26933 0.119349,-0.0617 0.131779,-0.0895 0.314799,-0.70195 0.19424,-0.65007 0.296,-0.86955 0.457271,-0.98639 0.395479,-0.28647 0.976939,-0.12118 1.233789,0.35075 0.21715,0.39899 0.203751,1.13485 -0.0273,1.50091 -0.10646,0.16861 -0.340149,0.33822 -0.55935,0.40593 -0.10543,0.0326 -0.196289,0.0592 -0.201909,0.0592 -0.006,-3e-5 -0.0178,-0.0429 -0.0269,-0.0953 z m 57.064921,-1.42677 c 0,-0.59537 -0.01019,-1.08809 -0.02191,-1.09495 -0.041,-0.0232 -0.389001,0.0639 -0.523553,0.13107 -0.269859,0.13479 -0.430318,0.40749 -0.428328,0.72791 0.0021,0.33049 0.152209,0.56527 0.45095,0.7052 l 0.147169,0.0689 -0.01881,0.16227 c -0.0401,0.34604 -0.0449,0.3591 -0.125183,0.33897 -0.285527,-0.0717 -0.604028,-0.33482 -0.739777,-0.61122 -0.124201,-0.2529 -0.170133,-0.5876 -0.124032,-0.90392 0.0907,-0.6221 0.47062,-1.00353 1.123,-1.1274 0.25912,-0.0493 0.622531,-0.041 0.895631,0.0202 0.355849,0.0797 0.72459,0.35329 0.87666,0.65035 0.205499,0.40135 0.208841,0.92581 0.008,1.31869 -0.0897,0.17577 -0.36567,0.43879 -0.553212,0.52718 -0.19757,0.0931 -0.552688,0.16919 -0.789919,0.16919 H 94.18175 Z m 0.80799,0.4337 c 0.169519,-0.0797 0.346419,-0.28236 0.393621,-0.45094 0.0535,-0.19122 0.02029,-0.48645 -0.0727,-0.64507 -0.127288,-0.21722 -0.406378,-0.39433 -0.621368,-0.39433 h -0.068 v 0.79492 0.79492 l 0.118811,-0.019 c 0.0654,-0.0105 0.1777,-0.0467 0.249669,-0.0805 z m -59.910021,-3.74666 v -0.23442 l 0.17462,1e-5 0.17465,-1e-5 -0.11641,-0.12236 c -0.18434,-0.19379 -0.27091,-0.40074 -0.28572,-0.68297 -0.009,-0.16553 0.002,-0.28981 0.0337,-0.39955 0.051,-0.17547 0.20904,-0.38224 0.34649,-0.45331 l 0.087,-0.045 -0.12874,-0.1133 c -0.0708,-0.0623 -0.17324,-0.19667 -0.22764,-0.29855 -0.0853,-0.15963 -0.10063,-0.22018 -0.11118,-0.43838 -0.0215,-0.4438 0.11521,-0.71312 0.43744,-0.86186 l 0.18715,-0.0864 1.17723,-0.008 1.17722,-0.008 0.009,0.24729 0.009,0.24729 -1.084169,0.0109 c -1.00939,0.0102 -1.092231,0.0149 -1.201001,0.0689 -0.2184,0.10853 -0.307999,0.33278 -0.24814,0.62108 0.0277,0.1334 0.0592,0.18868 0.170161,0.29906 0.21321,0.21195 0.237519,0.21607 1.35747,0.22927 l 0.98684,0.0116 0.009,0.24421 0.009,0.24421 -0.35161,0.013 c -0.193401,0.007 -0.68027,0.0153 -1.081951,0.0183 -0.81531,0.006 -0.911699,0.0251 -1.04063,0.20617 -0.099,0.139 -0.0962,0.44929 0.006,0.62308 0.0944,0.16117 0.15059,0.21113 0.3305,0.29407 0.14093,0.065 0.17608,0.0673 1.132281,0.0764 l 0.98685,0.009 0.009,0.24958 c 0.005,0.13728 0.004,0.25503 -0.003,0.26167 -0.007,0.007 -0.669311,0.0121 -1.47242,0.0121 H 35.07786 Z m 57.772629,-1.60291 c -0.0356,-0.0356 -0.0199,-0.46925 0.0182,-0.50027 0.02011,-0.0164 0.0959,-0.0468 0.168481,-0.0675 0.0725,-0.0207 0.136488,-0.0409 0.142129,-0.045 0.005,-0.004 -0.0299,-0.0578 -0.0788,-0.11925 -0.131559,-0.16528 -0.236828,-0.39392 -0.284149,-0.61726 -0.12796,-0.60389 0.0812,-1.13229 0.50868,-1.28497 0.17799,-0.0636 0.466299,-0.0509 0.63573,0.028 0.348171,0.16214 0.47824,0.40731 0.5852,1.10307 0.0408,0.2659 0.0939,0.56034 0.117851,0.65431 0.024,0.0939 0.0436,0.17639 0.0436,0.18314 0,0.007 0.0693,0.012 0.153842,0.0117 0.37402,-0.002 0.525169,-0.18889 0.54333,-0.67332 0.01021,-0.25857 0.004,-0.28984 -0.0723,-0.43954 -0.0731,-0.14244 -0.10504,-0.17218 -0.27449,-0.25598 l -0.19174,-0.0948 0.0318,-0.24217 c 0.0359,-0.27353 0.02421,-0.26703 0.296169,-0.16526 0.450371,0.16851 0.677659,0.64485 0.64843,1.35894 -0.02111,0.51653 -0.15141,0.79022 -0.446349,0.93768 l -0.1758,0.0879 -1.02557,0.0178 c -0.965941,0.0167 -1.117131,0.0299 -1.2667,0.10987 -0.0324,0.0174 -0.0671,0.0231 -0.0774,0.013 z m 1.432031,-0.70468 c -0.0504,-0.12405 -0.0795,-0.25301 -0.145909,-0.64679 -0.0842,-0.49933 -0.14464,-0.64223 -0.311201,-0.73585 -0.219689,-0.12349 -0.448839,-0.0422 -0.5779,0.20491 -0.0592,0.11337 -0.0665,0.16225 -0.0566,0.37923 0.0127,0.27667 0.0757,0.43886 0.237541,0.61053 0.16679,0.17704 0.31877,0.23151 0.659259,0.23625 0.194321,0.003 0.213522,-0.002 0.194731,-0.0483 z m -57.40556,-2.07563 c -0.32,-0.16878 -0.44935,-0.39773 -0.5392,-0.95438 -0.0868,-0.53791 -0.14314,-0.83283 -0.17507,-0.91681 -0.0252,-0.0662 -0.045,-0.0749 -0.16842,-0.0743 -0.35423,0.002 -0.50856,0.18512 -0.5294,0.62937 -0.0209,0.44573 0.0676,0.62854 0.3637,0.75127 l 0.1639,0.0679 -0.0198,0.20142 c -0.0109,0.11079 -0.0269,0.21986 -0.0355,0.2424 -0.0233,0.0607 -0.12156,0.0496 -0.30247,-0.0343 -0.44567,-0.20657 -0.6332,-0.61717 -0.60801,-1.33129 0.0195,-0.55309 0.13244,-0.79776 0.44336,-0.96045 l 0.15,-0.0785 1.02557,-0.0174 c 0.9296,-0.0157 1.04143,-0.023 1.19495,-0.077 0.0931,-0.0328 0.17508,-0.0504 0.18204,-0.0391 0.007,0.0113 0.008,0.12408 0.002,0.25072 -0.0124,0.25829 -0.034,0.28941 -0.22386,0.32147 -0.063,0.0107 -0.1145,0.0248 -0.1145,0.0314 1e-5,0.006 0.046,0.0761 0.10219,0.15426 0.30524,0.42487 0.38564,1.03024 0.193021,1.45326 -0.0694,0.15229 -0.234741,0.3183 -0.393891,0.39532 -0.19011,0.092 -0.52014,0.085 -0.71009,-0.0152 z m 0.54447,-0.51767 c 0.18819,-0.0962 0.24981,-0.23223 0.24907,-0.55001 -3.44e-4,-0.21305 -0.0126,-0.27415 -0.0824,-0.4168 -0.15349,-0.3137 -0.41606,-0.4617 -0.81922,-0.46168 -0.17742,0 -0.20057,0.006 -0.18417,0.0488 0.0385,0.10022 0.13252,0.53193 0.17629,0.80903 0.058,0.36701 0.12734,0.50605 0.2891,0.57949 0.15921,0.0723 0.21504,0.071 0.37129,-0.009 z m 55.431599,0.0479 c -0.01159,-0.0116 -0.02101,-0.12311 -0.02101,-0.24787 v -0.22683 l 1.091501,-0.0101 c 1.022339,-0.009 1.098799,-0.0137 1.20682,-0.0686 0.178941,-0.091 0.23354,-0.18777 0.24606,-0.4364 0.01209,-0.23932 -0.0384,-0.37761 -0.190669,-0.52216 -0.178321,-0.16929 -0.255011,-0.18058 -1.342843,-0.1978 l -0.996259,-0.0157 -0.008,-0.24174 -0.008,-0.24176 0.38944,-0.003 c 0.214191,-0.002 0.71908,-0.0119 1.12199,-0.0229 0.810461,-0.0219 0.87018,-0.0351 0.98439,-0.21733 0.0482,-0.077 0.0572,-0.13401 0.0499,-0.31855 -0.01169,-0.29435 -0.102909,-0.437743 -0.36033,-0.566452 l -0.175819,-0.0879 -0.99627,-0.0146 -0.996262,-0.01461 v -0.249071 -0.249078 l 1.472422,-0.007 1.47242,-0.007 v 0.234701 0.234688 l -0.17956,3.2e-5 -0.17957,2.9e-5 0.123558,0.134091 c 0.0679,0.0737 0.158642,0.20889 0.20152,0.30036 0.0673,0.14374 0.0779,0.20405 0.0776,0.44467 -2.64e-4,0.22977 -0.01249,0.30545 -0.0701,0.43349 -0.0682,0.15182 -0.266891,0.35769 -0.345091,0.35769 -0.0617,-2e-5 -0.0476,0.0231 0.112001,0.18278 0.0829,0.0828 0.18506,0.22399 0.227089,0.3136 0.0671,0.14308 0.0762,0.19863 0.0742,0.45596 -0.0021,0.33137 -0.0395,0.44533 -0.203809,0.62716 -0.0562,0.0621 -0.17127,0.1443 -0.25573,0.1825 -0.152159,0.0687 -0.164539,0.0695 -1.32661,0.0783 -0.64515,0.005 -1.182471,-8e-4 -1.194049,-0.0122 z m -58.888639,-3.02926 v -0.263921 h 1.13517 1.13517 l -0.57843,-0.579012 -0.57843,-0.57899 6.88e-4,-0.336719 6.88e-4,-0.336709 0.54874,0.56578 0.54876,0.565769 0.90081,-0.602401 c 0.49546,-0.331319 0.91457,-0.602409 0.93137,-0.602409 0.0198,-1e-5 0.0276,0.10618 0.0222,0.300361 l -0.008,0.300349 -0.24907,0.16632 c -0.13699,0.0915 -0.46827,0.3096 -0.73619,0.484741 l -0.48713,0.318428 0.15016,0.167 0.15015,0.166992 0.58604,0.007 0.58604,0.008 v 0.249081 0.24907 l -2.02917,0.007 -2.02915,0.007 z m 2.19764,-2.435063 c -0.36915,-0.0558 -0.7368,-0.280839 -0.92333,-0.565118 -0.1697,-0.258611 -0.22696,-0.482871 -0.21414,-0.838691 0.0102,-0.27491 0.0215,-0.33024 0.10952,-0.51955 0.11747,-0.25282 0.34657,-0.48667 0.58842,-0.60062 0.19762,-0.0931 0.55276,-0.16915 0.78992,-0.16915 h 0.17704 v 1.08831 1.088299 l 0.16126,-0.0167 c 0.3169,-0.0327 0.58097,-0.205279 0.72693,-0.475039 0.0508,-0.0938 0.0635,-0.167 0.0638,-0.36629 2.91e-4,-0.21821 -0.009,-0.26576 -0.0788,-0.38368 -0.0845,-0.14367 -0.22749,-0.2683 -0.38238,-0.33315 -0.0524,-0.0219 -0.10298,-0.0477 -0.11248,-0.0573 -0.0157,-0.0158 0.0136,-0.28999 0.048,-0.44931 0.0191,-0.0884 0.0577,-0.0837 0.29825,0.0367 0.37869,0.18945 0.59352,0.49875 0.65913,0.94894 0.0602,0.41315 -0.0389,0.84422 -0.26116,1.13639 -0.12646,0.16622 -0.40181,0.353539 -0.61995,0.42177 -0.2293,0.0717 -0.73727,0.0984 -1.0301,0.0541 z m 0.0879,-1.347779 v -0.79374 l -0.12154,0.0205 c -0.269209,0.0455 -0.51602,0.2216 -0.61493,0.43879 -0.0734,0.16122 -0.0731,0.49416 6.88e-4,0.66608 0.0981,0.2289 0.41746,0.452949 0.65536,0.45977 l 0.0806,0.0021 z m 57.256012,0.678449 c -0.254932,-0.0779 -0.513522,-0.305709 -0.614932,-0.543079 -0.200519,-0.4678 -0.132889,-1.2123 0.138721,-1.52695 0.10073,-0.1167 0.305779,-0.24381 0.494769,-0.3067 0.104671,-0.0348 0.195281,-0.0584 0.20139,-0.0523 0.01471,0.0142 0.0726,0.37332 0.0729,0.45039 2.64e-4,0.0467 -0.0303,0.068 -0.138251,0.0969 -0.17046,0.0456 -0.360021,0.23178 -0.411749,0.40444 -0.0454,0.15138 -0.0462,0.4815 -0.0021,0.63025 0.0644,0.21498 0.271021,0.36769 0.45167,0.33378 0.185841,-0.0348 0.24678,-0.15118 0.420119,-0.80179 0.131921,-0.49518 0.20955,-0.67157 0.366522,-0.83276 0.285229,-0.29292 0.886288,-0.23725 1.134419,0.10507 0.167521,0.23111 0.21386,0.40724 0.21308,0.81007 -7.94e-4,0.40926 -0.0467,0.58726 -0.214051,0.83056 -0.0961,0.13969 -0.298889,0.25894 -0.506388,0.29778 l -0.107641,0.0201 -0.01839,-0.142011 c -0.01019,-0.0782 -0.02511,-0.189389 -0.0333,-0.24726 -0.01439,-0.102109 -0.0109,-0.106759 0.11793,-0.155949 0.255601,-0.0976 0.357209,-0.31064 0.331349,-0.694761 -0.02109,-0.31408 -0.11802,-0.477099 -0.304359,-0.512059 -0.0784,-0.0147 -0.118461,-0.003 -0.199382,0.0589 -0.0816,0.0622 -0.113199,0.118379 -0.162478,0.28902 -0.0337,0.11645 -0.127629,0.42272 -0.208819,0.68058 -0.143502,0.45576 -0.151892,0.47301 -0.300422,0.617769 -0.109878,0.107111 -0.190949,0.15854 -0.28866,0.183149 -0.15113,0.0381 -0.32113,0.0407 -0.43225,0.007 z m -58.428082,-2.829359 1e-5,-0.24935 0.1802,1e-5 h 0.18021 l -0.11859,-0.0859 c -0.0652,-0.0472 -0.15621,-0.13528 -0.20218,-0.19561 -0.0762,-0.10002 -0.0836,-0.13067 -0.0829,-0.34632 6.88e-4,-0.18755 0.0144,-0.26241 0.0665,-0.36113 0.0361,-0.0685 0.0779,-0.12454 0.0927,-0.12454 0.0149,-4e-5 0.12113,0.0348 0.23613,0.0775 0.15886,0.0589 0.2058,0.0888 0.19539,0.12453 -0.11027,0.37848 -0.0996,0.48731 0.0637,0.65055 0.19434,0.19436 0.29739,0.21101 1.3897,0.22456 l 0.96075,0.012 -0.008,0.25396 -0.008,0.25396 -1.47243,0.008 -1.47242,0.007 z m 59.102031,0.0228 c -0.458541,-0.0409 -0.76532,-0.15967 -1.009901,-0.391 -0.292741,-0.27687 -0.415229,-0.58126 -0.38884,-0.9663 0.0168,-0.24431 0.0784,-0.39715 0.22987,-0.56965 l 0.0908,-0.10337 h -0.691629 -0.691631 l -8e-6,-0.26373 8e-6,-0.26372 h 2.036482 l 2.03649,-2e-5 v 0.23444 0.23442 l -0.175811,1e-5 h -0.17581 l 0.1202,0.12017 c 0.43379,0.43379 0.363181,1.26092 -0.14021,1.64234 -0.19312,0.14633 -0.343821,0.22021 -0.55136,0.27032 -0.184801,0.0446 -0.515239,0.0715 -0.68861,0.056 z m 0.739529,-0.62123 c 0.504881,-0.19553 0.66874,-0.72625 0.339669,-1.10009 -0.241929,-0.27486 -0.710059,-0.40765 -1.208047,-0.34366 -0.541473,0.0699 -0.83811,0.33627 -0.83811,0.75257 0,0.36298 0.221898,0.61244 0.651978,0.73292 0.237979,0.0667 0.835692,0.043 1.05451,-0.0417 z m -57.79047,-0.82839 c -2e-5,-0.005 -0.0198,-0.12138 -0.0439,-0.25838 -0.0242,-0.13699 -0.0439,-0.25113 -0.044,-0.25366 -10e-6,-0.002 0.0719,-0.0272 0.15984,-0.0548 0.29846,-0.0939 0.45567,-0.3408 0.4553,-0.71504 -2.4e-4,-0.22991 -0.0463,-0.3693 -0.16561,-0.50139 -0.12692,-0.1405 -0.26302,-0.17522 -0.4107,-0.1048 -0.12823,0.0611 -0.17719,0.17078 -0.32097,0.71867 -0.18862,0.71882 -0.36671,0.97915 -0.72457,1.05924 -0.20973,0.0469 -0.38594,0.0171 -0.57797,-0.0981 -0.28708,-0.17209 -0.43719,-0.51674 -0.43719,-1.004 0,-0.47868 0.15353,-0.84167 0.42767,-1.0111 0.11165,-0.069 0.38605,-0.1506 0.40401,-0.12013 0.006,0.0107 0.0202,0.0918 0.031,0.18046 0.0108,0.0887 0.0263,0.19664 0.0346,0.23999 0.0135,0.0709 0.003,0.0823 -0.10093,0.11359 -0.26599,0.0797 -0.36219,0.25418 -0.35433,0.64265 0.008,0.37985 0.11787,0.55682 0.34669,0.55682 0.18124,0 0.22563,-0.0563 0.34132,-0.43358 0.31487,-1.02657 0.36247,-1.13756 0.54652,-1.27425 0.12946,-0.0962 0.26526,-0.13828 0.44501,-0.13809 0.61211,7.14e-4 0.99272,0.52963 0.94688,1.3159 -0.0198,0.33882 -0.08,0.5349 -0.22239,0.72324 -0.12384,0.16385 -0.28012,0.27784 -0.47009,0.34286 -0.17723,0.0606 -0.26608,0.0853 -0.26614,0.0739 z m 56.90442,-1.69735 c -0.305631,-0.0329 -0.48691,-0.0908 -0.669269,-0.21349 -0.392922,-0.26445 -0.591132,-0.6586 -0.59037,-1.1741 0.0011,-0.59736 0.29091,-1.03634 0.82635,-1.25077 0.23691,-0.0948 0.253521,-0.0973 0.682349,-0.0978 0.387469,-3.44e-4 0.46535,0.008 0.657501,0.0709 0.68509,0.22436 1.04281,0.91515 0.86487,1.67014 -0.0586,0.24872 -0.185331,0.46403 -0.375082,0.63726 -0.340148,0.31063 -0.782568,0.42403 -1.396378,0.35786 z m 0.655302,-0.56794 c 0.457509,-0.097 0.724238,-0.39997 0.720608,-0.8187 -0.003,-0.38556 -0.27037,-0.69747 -0.668999,-0.7814 -0.239882,-0.0505 -0.719039,-0.0417 -0.92075,0.017 -0.211629,0.0615 -0.389371,0.19562 -0.503081,0.379549 -0.121399,0.19628 -0.13984,0.49261 -0.0446,0.71412 0.0687,0.15988 0.26756,0.3669 0.402748,0.41942 0.285369,0.110891 0.689531,0.138791 1.014011,0.0701 z m -59.610802,-1.01128 v -0.23442 l 0.16848,-6.88e-4 0.16848,-6.88e-4 -0.11719,-0.11071 c -0.0645,-0.0609 -0.1198,-0.1166 -0.12295,-0.12379 -0.003,-0.007 -0.0355,-0.079 -0.0721,-0.15962 -0.14728,-0.32525 -0.0954,-0.81775 0.1187,-1.12796 0.23723,-0.34364 0.63723,-0.52544 1.20918,-0.54958 0.75477,-0.0319 1.28147,0.22387 1.54048,0.74793 0.10431,0.21105 0.11035,0.23857 0.11035,0.50318 0,0.31468 -0.0492,0.4621 -0.21857,0.65502 l -0.0951,0.10839 h 0.69163 0.69163 v 0.26373 0.26372 h -2.03649 -2.03648 z m 1.81654,-0.26574 c 0.36521,-0.0592 0.56954,-0.19273 0.69219,-0.45218 0.12945,-0.27382 0.0746,-0.56115 -0.14919,-0.78209 -0.22112,-0.21825 -0.52158,-0.30251 -1.00094,-0.28085 -0.47011,0.0213 -0.73721,0.14227 -0.91236,0.41329 -0.0664,0.10277 -0.0791,0.15484 -0.0795,0.32732 -3.44e-4,0.17065 0.0128,0.22775 0.0786,0.33973 0.21322,0.36268 0.75556,0.53466 1.37115,0.43478 z m 57.066761,-1.29061 c -0.530702,-0.0773 -0.923301,-0.37664 -1.10285,-0.84085 -0.0807,-0.2087 -0.10836,-0.64541 -0.0558,-0.88175 0.0972,-0.43712 0.409,-0.7772 0.86696,-0.94555 0.14796,-0.0544 0.238,-0.0641 0.612971,-0.0661 0.390329,-0.002 0.463928,0.006 0.6575,0.0691 0.539019,0.17652 0.866888,0.61412 0.902499,1.20458 0.01789,0.29608 -0.0204,0.50265 -0.13861,0.74904 -0.104931,0.21866 -0.366051,0.47056 -0.604941,0.58357 -0.294179,0.13918 -0.72671,0.18781 -1.137729,0.12794 z m 0.873731,-0.59938 c 0.201329,-0.0641 0.404299,-0.23 0.492238,-0.40238 0.13217,-0.25907 0.0905,-0.65554 -0.092,-0.87582 -0.0527,-0.0637 -0.170629,-0.14695 -0.286678,-0.20266 -0.178689,-0.0858 -0.22891,-0.0959 -0.536721,-0.10783 -0.537929,-0.021 -0.82464,0.0693 -1.025469,0.32287 -0.143492,0.18119 -0.1822,0.30719 -0.167751,0.5452 0.02521,0.41342 0.285199,0.68555 0.730519,0.76459 0.235482,0.0418 0.686732,0.0194 0.885881,-0.044 z m -57.870972,-0.60949 c -0.16772,-0.0549 -0.31329,-0.17304 -0.42206,-0.34258 -0.12009,-0.18715 -0.15924,-0.32393 -0.23229,-0.81147 -0.0332,-0.2216 -0.0828,-0.49983 -0.11001,-0.61831 l -0.0496,-0.2154 -0.19812,0.0112 c -0.22268,0.0126 -0.32331,0.0681 -0.41867,0.23096 -0.0706,0.12043 -0.0982,0.56328 -0.0469,0.75313 0.047,0.17436 0.1832,0.31852 0.35936,0.38036 l 0.14659,0.0515 -0.0199,0.23442 c -0.011,0.12893 -0.0321,0.24702 -0.047,0.26242 -0.0422,0.0435 -0.32424,-0.0649 -0.48493,-0.18636 -0.28293,-0.21384 -0.39154,-0.48311 -0.41362,-1.02545 -0.0163,-0.40118 0.015,-0.60605 0.12664,-0.82719 0.176861,-0.35049 0.32949,-0.40597 1.12197,-0.40783 0.947331,-0.002 1.46216,-0.0376 1.60463,-0.11029 0.0665,-0.0339 0.12911,-0.0534 0.13916,-0.0434 0.0101,0.0102 0.0183,0.13471 0.0183,0.277 v 0.25871 l -0.17091,0.0475 -0.1709,0.0475 0.12413,0.18512 c 0.21314,0.31785 0.25902,0.47253 0.26031,0.87755 0.001,0.30109 -0.008,0.37157 -0.0628,0.49034 -0.15567,0.33752 -0.37827,0.49426 -0.72502,0.51051 -0.12174,0.006 -0.257,-0.007 -0.3282,-0.03 z m 0.51271,-0.59711 c 0.27441,-0.20453 0.2678,-0.78772 -0.0126,-1.11536 -0.15957,-0.18643 -0.30019,-0.24627 -0.61783,-0.26297 l -0.26816,-0.0141 0.054,0.194741 c 0.0298,0.10711 0.0814,0.35926 0.11498,0.560329 0.066,0.39606 0.0958,0.49741 0.171631,0.582521 0.125899,0.1415 0.40497,0.168919 0.558039,0.0548 z m -1.29242,-2.55783 c -0.42683,-0.0719 -0.80412,-0.29415 -0.96175,-0.56668 -0.15445,-0.26701 -0.21173,-0.50988 -0.19649,-0.83319 0.0181,-0.38407 0.0954,-0.58143 0.31327,-0.79923 0.11657,-0.11657 0.21395,-0.18265 0.33705,-0.22871 0.15306,-0.0573 0.30295,-0.0741 0.29108,-0.0327 -0.002,0.008 0.0124,0.11122 0.0326,0.22924 l 0.0367,0.21461 -0.16417,0.0726 c -0.30351,0.13422 -0.41422,0.29977 -0.413179,0.61787 6.87e-4,0.23662 0.0605,0.38664 0.215839,0.54167 0.15887,0.15858 0.38014,0.23189 0.75642,0.25058 0.36076,0.0179 0.61311,-0.0205 0.82916,-0.12617 0.35525,-0.17381 0.499871,-0.62704 0.313761,-0.98332 -0.0969,-0.18545 -0.242841,-0.29481 -0.484471,-0.36296 l -0.17069,-0.0481 0.0161,-0.10774 c 0.009,-0.0593 0.0246,-0.17039 0.0348,-0.24694 0.0219,-0.1627 0.0385,-0.16727 0.290871,-0.0804 0.358169,0.12323 0.58272,0.32452 0.736329,0.66008 0.0943,0.20601 0.12627,0.59434 0.0689,0.83772 -0.15189,0.64457 -0.72364,1.02647 -1.52354,1.01764 -0.12086,-10e-4 -0.28229,-0.0129 -0.35873,-0.0258 z m 56.64777,-0.42238 v -0.2506 l 0.886391,-6.88e-4 c 0.487511,-2.91e-4 1.0019,-0.0127 1.14309,-0.0275 0.39919,-0.042 0.5198,-0.16474 0.5198,-0.52893 0,-0.28821 -0.117109,-0.46322 -0.395951,-0.5917 -0.141931,-0.0655 -0.175059,-0.0676 -1.15084,-0.0771 l -1.004689,-0.0102 0.008,-0.25404 0.008,-0.25405 1.098809,-0.0146 c 1.220732,-0.0163 1.260092,-0.0222 1.37804,-0.210689 0.0505,-0.0806 0.0592,-0.13507 0.0518,-0.321721 -0.01169,-0.294349 -0.102899,-0.437739 -0.36032,-0.566449 l -0.175818,-0.0879 -1.003602,-0.009 -1.003588,-0.009 v -0.26168 -0.26167 h 1.479748 1.479751 v 0.23443 0.23443 l -0.17957,3e-5 -0.17957,4e-5 0.12355,0.13408 c 0.326509,0.35421 0.388969,0.93401 0.14037,1.30291 -0.0617,0.0916 -0.209429,0.21273 -0.293709,0.24081 -0.019,0.006 0.0331,0.079 0.115739,0.16165 0.0825,0.0827 0.187719,0.22666 0.233619,0.32016 0.0755,0.15389 0.0833,0.19774 0.0812,0.463 -0.0021,0.33137 -0.0396,0.44534 -0.203819,0.62716 -0.0562,0.0622 -0.17126,0.1443 -0.255731,0.18249 -0.15231,0.0688 -0.163419,0.0695 -1.347639,0.0783 l -1.194062,0.009 z m -56.5674,-2.38785 c -0.56438,-0.0922 -0.9329,-0.34559 -1.1321,-0.77838 -0.0808,-0.17557 -0.0962,-0.24671 -0.10735,-0.49385 -0.0161,-0.35808 0.0418,-0.59667 0.20328,-0.83851 0.24386,-0.36521 0.61531,-0.55303 1.14605,-0.57955 l 0.31499,-0.0156 v 1.09243 1.09243 l 0.15358,-0.0182 c 0.0845,-0.0102 0.23556,-0.0586 0.33575,-0.10787 0.33115,-0.16303 0.49895,-0.44927 0.47058,-0.80269 -0.0245,-0.30462 -0.17689,-0.51963 -0.4577,-0.64559 l -0.12724,-0.0571 0.0203,-0.2506 c 0.0112,-0.13783 0.0303,-0.2611 0.0425,-0.27394 0.033,-0.0347 0.31675,0.0861 0.47534,0.20256 0.16898,0.12404 0.3329,0.34137 0.41254,0.54692 0.0745,0.19226 0.1019,0.64338 0.0533,0.87742 -0.0733,0.35341 -0.31326,0.6917 -0.60686,0.85581 -0.30057,0.168 -0.8311,0.25416 -1.19689,0.194389 z m -0.0146,-1.34979 v -0.79117 h -0.0722 c -0.10997,0 -0.38644,0.11238 -0.48922,0.19887 -0.25772,0.21686 -0.30925,0.72917 -0.10416,1.0353 0.11324,0.16901 0.4061,0.33778 0.59961,0.34554 l 0.0659,0.003 z m 56.58205,-0.85728 v -0.2775 l 0.161171,-0.0507 c 0.0886,-0.0279 0.16116,-0.0575 0.16116,-0.0657 2.9e-5,-0.008 -0.0378,-0.0631 -0.084,-0.12186 -0.218709,-0.27797 -0.307541,-0.57713 -0.2917,-0.98232 0.009,-0.24213 0.02551,-0.32613 0.0873,-0.45773 0.15262,-0.32462 0.39496,-0.4819 0.74253,-0.4819 0.353351,0 0.62244,0.17135 0.772961,0.49218 0.0848,0.18072 0.100119,0.24921 0.20801,0.9274 0.0694,0.43585 0.10844,0.58427 0.15906,0.60371 0.0204,0.008 0.12202,0.001 0.225269,-0.0154 0.156109,-0.0248 0.203189,-0.0466 0.279651,-0.12923 0.19494,-0.21078 0.21462,-0.79916 0.0351,-1.05164 -0.0312,-0.0439 -0.14274,-0.12083 -0.247891,-0.17104 -0.116358,-0.0555 -0.185989,-0.10507 -0.177271,-0.12761 0.008,-0.02 0.02339,-0.1245 0.0349,-0.2323 0.01159,-0.10778 0.0296,-0.20133 0.0402,-0.20789 0.0362,-0.0222 0.36625,0.10509 0.475329,0.18353 0.14482,0.10413 0.279321,0.30669 0.355611,0.53572 0.052,0.15617 0.0624,0.25769 0.0628,0.61212 2.64e-4,0.37218 -0.008,0.44545 -0.0653,0.59066 -0.101899,0.25696 -0.180189,0.35198 -0.36989,0.44904 l -0.172879,0.0884 -1.013053,0.0181 c -1.00271,0.0179 -1.081259,0.0255 -1.328049,0.12803 -0.0467,0.0194 -0.0513,-0.003 -0.0513,-0.25619 z m 1.40639,-0.57163 c -0.0288,-0.0929 -0.0744,-0.30717 -0.101129,-0.47617 -0.0771,-0.4874 -0.104931,-0.58485 -0.19689,-0.68961 -0.168949,-0.19248 -0.417869,-0.20364 -0.594791,-0.0267 -0.237979,0.23799 -0.20978,0.72692 0.0628,1.09062 0.125238,0.167 0.375338,0.25316 0.775708,0.26706 l 0.106809,0.004 z m -41.02755,-0.571 c -0.005,-0.11684 -0.006,-1.03328 -0.001,-2.03655 l 0.008,-1.8241 h 0.23357 0.23357 v 0.16491 0.16489 l 0.13403,-0.12355 c 0.22014,-0.20291 0.35653,-0.25038 0.71572,-0.24907 0.28017,0.001 0.32473,0.009 0.49847,0.0902 0.56564,0.26416 0.84699,1.01783 0.68874,1.84493 -0.0606,0.31686 -0.18554,0.56753 -0.37949,0.76148 -0.4122,0.41221 -1.02878,0.48459 -1.45629,0.17097 -0.0746,-0.0547 -0.14059,-0.0996 -0.14651,-0.0997 -0.006,4e-5 -0.006,0.20766 -0.001,0.46151 0.005,0.25385 6.88e-4,0.55717 -0.0101,0.67402 l -0.0193,0.21243 h -0.24415 -0.24416 l -0.0102,-0.21243 z m 1.51398,-1.33811 c 0.3612,-0.16896 0.54495,-0.61069 0.50255,-1.20812 -0.0299,-0.42117 -0.17618,-0.72183 -0.42132,-0.86593 -0.28884,-0.17023 -0.68324,-0.0805 -0.88731,0.20121 -0.16944,0.23392 -0.21531,0.40899 -0.21751,0.83011 -0.002,0.45599 0.0485,0.65052 0.22164,0.8472 0.21327,0.24229 0.53454,0.3206 0.80195,0.19553 z m 24.511081,-0.48598 v -2.03656 l 0.249061,1e-5 0.249068,-1e-5 v 0.16389 0.16388 l 0.147931,-0.13301 c 0.219509,-0.19737 0.417539,-0.2626 0.747019,-0.24612 0.336349,0.0168 0.58071,0.12378 0.787109,0.3444 0.437102,0.4673 0.527182,1.38159 0.20207,2.05117 -0.180139,0.37104 -0.59078,0.64178 -1.012518,0.66761 -0.338359,0.0207 -0.457829,-0.0223 -0.798351,-0.28824 -0.0196,-0.0148 -0.02619,0.18612 -0.02011,0.59517 0.005,0.33992 0.0011,0.64871 -0.008,0.68618 -0.0163,0.065 -0.0293,0.0681 -0.280259,0.0681 h -0.263152 z m 1.54136,0.48203 c 0.17164,-0.0832 0.3425,-0.27839 0.42378,-0.48441 0.0598,-0.15148 0.0684,-0.22356 0.0684,-0.56903 0,-0.34549 -0.009,-0.41756 -0.0684,-0.56903 -0.0718,-0.18181 -0.252381,-0.40376 -0.384061,-0.47184 -0.118589,-0.0615 -0.358651,-0.0842 -0.476689,-0.0452 -0.24488,0.0808 -0.447522,0.30121 -0.536681,0.5837 -0.103249,0.32713 -0.0806,0.90726 0.0464,1.19095 0.158782,0.35458 0.594421,0.52597 0.92728,0.36482 z m -42.508951,0.46093 c -0.20173,-0.057 -0.40059,-0.21451 -0.50603,-0.40087 -0.081,-0.14319 -0.0912,-0.18731 -0.0912,-0.39559 0,-0.18499 0.0141,-0.26309 0.067,-0.37035 0.0877,-0.17813 0.20764,-0.30054 0.379471,-0.38749 0.19148,-0.0969 0.31193,-0.12765 0.763689,-0.19497 0.21433,-0.032 0.483011,-0.0793 0.59708,-0.10526 l 0.2074,-0.0471 -0.0146,-0.20461 c -0.017,-0.23635 -0.0689,-0.32541 -0.2435,-0.417 -0.156809,-0.0823 -0.70694,-0.0869 -0.855999,-0.007 -0.0874,0.0467 -0.270471,0.26017 -0.270471,0.31535 0,0.0127 -0.012,0.0545 -0.0266,0.0931 -0.0266,0.07 -0.0273,0.0701 -0.27104,0.0383 -0.242059,-0.0316 -0.244339,-0.0327 -0.23872,-0.11322 0.008,-0.10924 0.1276,-0.36499 0.22563,-0.48088 0.111301,-0.1316 0.440271,-0.28849 0.695001,-0.33145 0.30939,-0.0522 0.787429,-0.0242 1.007629,0.059 0.208901,0.0789 0.420211,0.279 0.479891,0.45434 0.0288,0.0846 0.0457,0.40236 0.0609,1.14281 0.0174,0.84952 0.0293,1.0476 0.0697,1.15382 0.0268,0.0706 0.0487,0.13974 0.0487,0.15383 0,0.0141 -0.116561,0.0256 -0.25901,0.0256 -0.28841,0 -0.29822,-0.007 -0.34345,-0.2482 -0.0199,-0.1063 -0.0204,-0.10659 -0.0823,-0.0523 -0.10625,0.0931 -0.3046,0.21067 -0.465291,0.27584 -0.19294,0.0782 -0.724709,0.10362 -0.933769,0.0446 z m 0.95844,-0.47414 c 0.31794,-0.15556 0.42395,-0.33107 0.44518,-0.7371 l 0.0141,-0.27011 -0.17401,0.0541 c -0.0957,0.0297 -0.344679,0.0828 -0.553299,0.11775 -0.20862,0.0349 -0.435001,0.088 -0.50307,0.11782 -0.27421,0.12013 -0.327191,0.47897 -0.10092,0.68373 0.17454,0.15797 0.58562,0.17388 0.871999,0.0338 z m 8.47369,0.46947 c -0.28051,-0.0772 -0.59903,-0.31837 -0.7414,-0.56131 -0.14911,-0.25444 -0.19517,-0.43893 -0.21117,-0.84583 -0.0222,-0.56607 0.0795,-0.9051 0.36492,-1.21606 0.40447,-0.44067 1.17954,-0.545 1.726,-0.23234 0.29474,0.16902 0.542,0.5128 0.62596,0.87157 0.0518,0.22155 0.0453,0.76927 -0.0122,1.01413 -0.11093,0.47294 -0.47328,0.84654 -0.93861,0.96771 -0.20875,0.0543 -0.61989,0.0554 -0.81354,0.002 z m 0.75377,-0.46616 c 0.28963,-0.13716 0.43342,-0.3707 0.4904,-0.79654 0.0773,-0.57778 -0.10022,-1.06423 -0.45499,-1.24707 -0.14488,-0.0744 -0.44559,-0.10271 -0.59484,-0.0556 -0.40173,0.12689 -0.60024,0.45755 -0.60734,1.01169 -0.006,0.49043 0.10389,0.81339 0.33856,0.99238 0.23181,0.17681 0.57298,0.216 0.82821,0.0951 z m 2.354,0.45328 c -0.47075,-0.15055 -0.77784,-0.50944 -0.88664,-1.03616 -0.13407,-0.64907 0.0322,-1.31961 0.41093,-1.65716 0.22985,-0.20487 0.49385,-0.30266 0.86475,-0.32033 0.45407,-0.0216 0.7722,0.0972 1.05522,0.39416 0.29154,0.30591 0.37735,0.55089 0.37709,1.0767 -8e-5,0.1945 -0.0129,0.43128 -0.0284,0.52615 -0.0814,0.49707 -0.45299,0.89744 -0.95405,1.02795 -0.23373,0.0608 -0.62986,0.0555 -0.83888,-0.0113 z m 0.78242,-0.45264 c 0.31453,-0.14647 0.48063,-0.45372 0.50559,-0.93523 0.0284,-0.54805 -0.13617,-0.93219 -0.47741,-1.11435 -0.17899,-0.0953 -0.53656,-0.0902 -0.73316,0.0108 -0.30955,0.15903 -0.4592,0.48179 -0.46058,0.99327 -0.002,0.58655 0.17724,0.9312 0.55517,1.0699 0.17879,0.0656 0.43947,0.0552 0.61039,-0.0244 z m 5.36114,0.46757 c -0.30976,-0.0768 -0.54041,-0.2519 -0.67098,-0.50961 -0.0749,-0.14791 -0.14759,-0.38379 -0.12511,-0.40627 0.007,-0.008 0.12144,-0.0309 0.25333,-0.052 0.17526,-0.028 0.2422,-0.0294 0.24884,-0.005 0.114,0.41322 0.33063,0.57529 0.7684,0.57487 0.24451,-2.3e-4 0.3874,-0.049 0.5138,-0.17543 0.098,-0.098 0.11054,-0.12692 0.11054,-0.25539 -1e-5,-0.22136 -0.0783,-0.2796 -0.54211,-0.40307 -0.89027,-0.2371 -1.11567,-0.36366 -1.23132,-0.69141 -0.0934,-0.26482 -0.0168,-0.63197 0.16904,-0.81085 0.22231,-0.21389 0.5632,-0.31558 0.98515,-0.29387 0.31009,0.0161 0.556,0.0877 0.74178,0.21648 0.11579,0.0802 0.26506,0.34149 0.30224,0.52897 0.0181,0.0914 0.01601,0.0935 -0.10794,0.11033 -0.0696,0.0102 -0.18336,0.0203 -0.25297,0.0241 -0.12338,0.007 -0.12758,0.004 -0.1671,-0.11031 -0.0473,-0.1368 -0.18967,-0.2674 -0.33585,-0.30798 -0.13437,-0.0374 -0.45507,-0.0367 -0.59145,9.79e-4 -0.13805,0.0384 -0.28811,0.20606 -0.28811,0.32202 -1e-5,0.053 0.0311,0.12098 0.0806,0.17597 0.0692,0.077 0.15791,0.11216 0.63073,0.25018 0.64442,0.18822 0.8225,0.26196 0.95025,0.39338 0.151621,0.15606 0.19822,0.28028 0.197931,0.52779 -2.11e-4,0.18062 -0.014,0.24588 -0.0776,0.36628 -0.142769,0.27057 -0.417749,0.46787 -0.750439,0.53846 -0.20022,0.0424 -0.62413,0.0382 -0.81168,-0.008 z m 9.01818,0.0104 c -0.417849,-0.0824 -0.690161,-0.40422 -0.690391,-0.81401 -8e-6,-0.44913 0.276741,-0.74932 0.799772,-0.86748 0.104719,-0.0237 0.38825,-0.075 0.629989,-0.11405 0.241739,-0.0391 0.477631,-0.0862 0.5242,-0.10476 0.0836,-0.0334 0.0844,-0.036 0.0661,-0.21122 -0.02389,-0.22816 -0.0881,-0.33378 -0.252711,-0.41487 -0.111451,-0.0551 -0.181129,-0.0653 -0.440169,-0.0653 -0.27419,0 -0.322022,0.008 -0.439531,0.0737 -0.10635,0.0594 -0.150191,0.11068 -0.226629,0.26493 l -0.0947,0.19125 -0.23486,-0.0274 c -0.27006,-0.0315 -0.27201,-0.0347 -0.174691,-0.29488 0.173231,-0.46302 0.62775,-0.68159 1.360969,-0.6545 0.524251,0.0194 0.788871,0.14302 0.944642,0.44134 l 0.0793,0.15205 0.01881,1.02561 c 0.01871,1.0164 0.02601,1.09278 0.129299,1.34176 0.02011,0.0484 0.0011,0.0518 -0.250489,0.044 l -0.272261,-0.008 -0.0413,-0.13183 c -0.02281,-0.0725 -0.0465,-0.14853 -0.0529,-0.16889 -0.008,-0.0246 -0.0555,-0.004 -0.142758,0.0632 -0.342612,0.26153 -0.804551,0.36586 -1.239692,0.27998 z m 0.846989,-0.45999 c 0.179081,-0.0792 0.346072,-0.23312 0.41017,-0.37803 0.0319,-0.0719 0.0617,-0.23275 0.0731,-0.39322 0.01839,-0.25952 0.0167,-0.2705 -0.0368,-0.24862 -0.122769,0.0502 -0.365961,0.10682 -0.700659,0.1632 -0.43843,0.0738 -0.51344,0.0983 -0.608642,0.1981 -0.171508,0.17981 -0.17294,0.40985 -0.003,0.5792 0.0549,0.0549 0.142619,0.11302 0.194858,0.12923 0.144462,0.0446 0.521301,0.0166 0.671502,-0.0499 z m 5.477582,0.45921 c -0.34225,-0.0672 -0.69264,-0.32134 -0.86178,-0.62494 -0.14374,-0.25802 -0.180351,-0.43409 -0.180351,-0.86712 0,-0.58562 0.10541,-0.88087 0.4225,-1.18332 0.296601,-0.28292 0.594331,-0.38636 1.049391,-0.36461 0.232709,0.0112 0.291859,0.0259 0.484748,0.12126 0.237083,0.11716 0.471191,0.3408 0.579893,0.55383 0.140168,0.27479 0.238008,0.98782 0.135998,0.9913 -0.02011,6.88e-4 -0.509921,1.4e-4 -1.0884,-0.001 l -1.05177,-0.002 0.01659,0.1407 c 0.0596,0.50301 0.389951,0.82811 0.841539,0.82811 0.32956,0 0.574982,-0.15668 0.704591,-0.44979 l 0.0631,-0.14269 0.209529,0.0196 c 0.348581,0.0327 0.35846,0.0435 0.2526,0.27679 -0.217638,0.47968 -0.650118,0.74066 -1.214519,0.73297 -0.129299,-0.002 -0.29296,-0.0146 -0.363741,-0.0284 z m 1.110289,-1.86767 c 2.1e-5,-0.0292 -0.02101,-0.12495 -0.0467,-0.21246 -0.0602,-0.20532 -0.295222,-0.44611 -0.485571,-0.4976 -0.173839,-0.047 -0.48142,-0.021 -0.625139,0.0529 -0.209831,0.10798 -0.373441,0.34176 -0.4132,0.59044 l -0.01921,0.11991 h 0.794891 c 0.748919,1e-5 0.794901,-0.003 0.794901,-0.0532 z m 3.60485,1.85383 c -0.40617,-0.11283 -0.66711,-0.39553 -0.772991,-0.83825 -0.01839,-0.0769 -0.01569,-0.0784 0.19367,-0.11205 0.116771,-0.0188 0.23119,-0.0365 0.254241,-0.0393 0.02551,-0.003 0.0618,0.05 0.0929,0.13569 0.0738,0.20361 0.12622,0.27143 0.279062,0.36099 0.106508,0.0625 0.184308,0.0824 0.359179,0.0925 0.281988,0.0162 0.444929,-0.0277 0.590289,-0.15905 0.138551,-0.12518 0.175561,-0.26353 0.108259,-0.40466 -0.0588,-0.12324 -0.168688,-0.17318 -0.690888,-0.31375 -0.72526,-0.19526 -0.88456,-0.28078 -1.018752,-0.54688 -0.141269,-0.28012 -0.12496,-0.54134 0.0504,-0.80599 0.33533,-0.50627 1.52854,-0.54274 1.927331,-0.0589 0.093,0.11288 0.179599,0.3234 0.179599,0.43681 -1.9e-5,0.069 -0.0254,0.0777 -0.340921,0.11757 l -0.150479,0.019 -0.0352,-0.1066 c -0.0901,-0.27278 -0.29868,-0.38366 -0.683969,-0.36339 -0.28683,0.015 -0.415801,0.075 -0.501621,0.23339 -0.0498,0.0918 -0.052,0.11557 -0.0181,0.19726 0.0585,0.14116 0.151392,0.18799 0.66072,0.33314 0.793412,0.22604 0.979242,0.3196 1.105022,0.5563 0.0539,0.10163 0.0663,0.17143 0.0663,0.37401 0,0.21473 -0.01119,0.2702 -0.0805,0.40243 -0.0966,0.18413 -0.305832,0.35826 -0.541372,0.45045 -0.220128,0.0861 -0.785939,0.10767 -1.032248,0.0393 z m 5.76671,-0.0171 c -0.222959,-0.0779 -0.439809,-0.28958 -0.50868,-0.49704 -0.0643,-0.19357 -0.047,-0.49166 0.038,-0.65643 0.156742,-0.30362 0.43248,-0.45493 0.991449,-0.54406 0.440402,-0.0703 0.921962,-0.166 0.943602,-0.18763 0.0289,-0.0289 0.004,-0.31421 -0.0355,-0.40919 -0.0845,-0.20208 -0.340439,-0.2976 -0.73184,-0.27324 -0.134218,0.008 -0.281448,0.0356 -0.331409,0.0615 -0.122708,0.0635 -0.234648,0.20312 -0.277529,0.34624 l -0.0357,0.11917 -0.23613,-0.0202 c -0.12986,-0.0111 -0.2482,-0.032 -0.26298,-0.0463 -0.0367,-0.0355 0.02029,-0.21196 0.129921,-0.40185 0.1112,-0.19271 0.303279,-0.33505 0.570918,-0.4231 0.17685,-0.0582 0.26366,-0.0673 0.629992,-0.0664 0.484298,0.001 0.652669,0.0463 0.87223,0.23434 0.206259,0.17653 0.240999,0.32034 0.242589,1.00378 0.0021,0.95639 0.0374,1.46412 0.11154,1.60939 0.0346,0.0678 0.063,0.13047 0.0629,0.13922 -1.09e-4,0.009 -0.125241,0.0158 -0.278249,0.0157 h -0.278249 l -0.0485,-0.17472 -0.0485,-0.17471 -0.105381,0.0823 c -0.303469,0.2369 -0.57735,0.327 -0.983279,0.32344 -0.183351,-0.002 -0.31605,-0.0202 -0.431099,-0.0602 z m 0.978422,-0.42887 c 0.327929,-0.14507 0.467309,-0.36284 0.485917,-0.75921 l 0.01259,-0.26905 -0.1719,0.0533 c -0.0945,0.0292 -0.368062,0.0875 -0.607833,0.12923 -0.4972,0.0866 -0.606859,0.14239 -0.665729,0.33881 -0.0696,0.23231 0.0474,0.45953 0.28121,0.54604 0.15362,0.0569 0.493901,0.0369 0.665681,-0.0392 z m 2.535909,0.43613 c -0.456721,-0.1503 -0.76899,-0.51262 -0.8738,-1.01421 -0.0577,-0.27595 -0.0424,-0.76134 0.0326,-1.03952 0.0662,-0.24543 0.214878,-0.5083 0.36803,-0.65082 0.11472,-0.10676 0.4006,-0.24379 0.601088,-0.28815 0.227671,-0.0504 0.613511,-0.0238 0.822621,0.0567 0.204851,0.0788 0.443021,0.28739 0.534469,0.46821 0.0736,0.14553 0.140182,0.35792 0.118822,0.37931 -0.02479,0.0248 -0.468741,0.0864 -0.48718,0.0675 -0.01011,-0.0105 -0.0333,-0.0654 -0.0514,-0.12219 -0.047,-0.14761 -0.199441,-0.32021 -0.338331,-0.3833 -0.25382,-0.11528 -0.65205,-0.0359 -0.842931,0.16784 -0.2491,0.26599 -0.328678,0.94115 -0.171079,1.45136 0.12342,0.39963 0.526941,0.6073 0.95333,0.49067 0.179901,-0.0493 0.373089,-0.26534 0.44159,-0.49399 l 0.0553,-0.18454 0.229219,0.0177 c 0.12606,0.0102 0.240551,0.0247 0.254381,0.0332 0.0343,0.021 -0.0375,0.2816 -0.129091,0.46892 -0.0957,0.19575 -0.349009,0.43578 -0.565581,0.53606 -0.227028,0.10514 -0.693338,0.12436 -0.952039,0.0393 z m 2.84925,0.002 c -0.25492,-0.0851 -0.39444,-0.16844 -0.548531,-0.32708 -0.2744,-0.28322 -0.39088,-0.61886 -0.39148,-1.12825 -7.94e-4,-0.52343 0.116109,-0.88461 0.37551,-1.16193 0.27175,-0.29054 0.625451,-0.42164 1.07583,-0.3988 0.44595,0.0225 0.762669,0.19266 0.996712,0.53507 0.17426,0.25501 0.233569,0.46486 0.23454,0.82977 l 7.93e-4,0.30232 -1.06354,-6.88e-4 c -0.902928,-6.88e-4 -1.066009,0.006 -1.079849,0.0416 -0.02511,0.0654 0.0467,0.33463 0.13149,0.49327 0.155159,0.29023 0.440859,0.44599 0.776581,0.42331 0.307239,-0.0208 0.51843,-0.16634 0.6438,-0.44383 l 0.0641,-0.14185 0.205089,0.0192 c 0.30916,0.0289 0.34186,0.0405 0.321159,0.11401 -0.0948,0.33653 -0.352441,0.63485 -0.680871,0.78857 -0.181348,0.0849 -0.22492,0.0929 -0.548629,0.10083 -0.280091,0.007 -0.3844,-0.002 -0.512779,-0.0453 z m 1.19125,-1.92451 c -0.0346,-0.25216 -0.18007,-0.47142 -0.385451,-0.58084 -0.153421,-0.0816 -0.56099,-0.0898 -0.718539,-0.0142 -0.216691,0.10389 -0.409551,0.36553 -0.454911,0.61715 l -0.01979,0.10988 h 0.798398 l 0.798402,-1e-5 z m -55.321711,1.899899 c -0.0108,-0.0107 -0.0195,-0.92719 -0.0195,-2.03655 v -2.01701 h 0.263711 0.26372 v 1.14816 1.14816 l 0.57414,-0.59141 0.574119,-0.5914 0.34156,0.001 0.34154,9.79e-4 -0.54941,0.53898 c -0.302169,0.296425 -0.5494,0.551965 -0.5494,0.567865 0,0.0158 0.270301,0.43143 0.600691,0.92335 0.33037,0.49193 0.60069,0.90173 0.60069,0.91068 -10e-6,0.009 -0.14228,0.0163 -0.31616,0.0163 h -0.316171 l -0.25975,-0.402915 c -0.14285,-0.22161 -0.35929,-0.55807 -0.48097,-0.74772 l -0.22122,-0.34478 -0.16983,0.16807 -0.16983,0.16804 v 0.57966 0.57965 h -0.24419 c -0.1343,0 -0.25298,-0.009 -0.26373,-0.0195 z m 5.95806,-1.46026 v -1.47979 h 0.23442 0.23442 v 0.17807 0.17806 l 0.12213,-0.11971 c 0.0671,-0.0658 0.19573,-0.15586 0.28569,-0.20005 0.14678,-0.0721 0.19514,-0.0803 0.47124,-0.0803 0.27812,0 0.32215,0.008 0.45852,0.0796 0.14894,0.0785 0.33262,0.26486 0.33262,0.33734 0,0.0624 0.0315,0.0429 0.15169,-0.0935 0.34233,-0.38893 1.06263,-0.4555 1.41491,-0.13079 0.0695,0.0641 0.15744,0.18533 0.19553,0.26958 0.0686,0.15184 0.0694,0.16357 0.0778,1.34841 l 0.008,1.19526 -0.25762,-0.008 -0.25764,-0.008 -0.0146,-1.12817 c -0.0134,-1.03585 -0.0191,-1.1347 -0.0689,-1.20822 -0.0895,-0.13185 -0.22582,-0.19831 -0.40698,-0.19832 -0.24828,0 -0.33377,0.0272 -0.47368,0.1503 -0.22343,0.19666 -0.23149,0.24261 -0.24483,1.39543 l -0.0116,1.00363 h -0.25976 -0.25976 l -0.009,-1.10618 c -0.008,-1.02143 -0.0132,-1.11487 -0.0652,-1.21953 -0.0775,-0.156092 -0.183637,-0.213152 -0.410167,-0.220482 -0.384599,-0.0125 -0.600929,0.16914 -0.687379,0.57701 -0.0203,0.0958 -0.0329,0.50298 -0.0329,1.06222 v 0.90696 h -0.263733 -0.26372 z m 4.68832,-0.55675 v -2.03655 l 0.26371,-1e-5 h 0.26372 v 2.03656 2.03654 h -0.26372 -0.26371 z m 15.077229,1.29777 c -0.01101,-0.40754 -0.01569,-1.07064 -0.01069,-1.47356 l 0.009,-0.73257 0.24175,-0.009 0.241739,-0.008 v 0.17697 0.17699 l 0.119851,-0.11634 c 0.0659,-0.064 0.194479,-0.15296 0.285689,-0.19775 0.14778,-0.0725 0.197771,-0.0814 0.458862,-0.0814 0.256138,0 0.313978,0.0102 0.459488,0.078 0.15071,0.0707 0.310481,0.23084 0.355082,0.3561 0.007,0.0192 0.0672,-0.027 0.13521,-0.10338 0.263117,-0.29585 0.74254,-0.42205 1.135197,-0.29885 0.249312,0.0782 0.426281,0.26295 0.506921,0.52898 0.0578,0.19063 0.0605,0.25851 0.0531,1.31452 l -0.008,1.1135 h -0.249071 -0.24906 l -0.01461,-1.1135 c -0.01381,-1.04623 -0.0182,-1.1195 -0.0732,-1.21276 -0.0953,-0.1614 -0.224402,-0.21445 -0.488789,-0.20076 -0.201832,0.0105 -0.23876,0.022 -0.357611,0.11187 -0.0855,0.0646 -0.156379,0.15218 -0.199789,0.24671 -0.065,0.1415 -0.0677,0.18118 -0.0819,1.15746 l -0.0146,1.01095 -0.242189,0.008 c -0.17771,0.006 -0.24569,-0.002 -0.25527,-0.0292 -0.007,-0.0208 -0.01691,-0.51912 -0.02159,-1.10736 -0.008,-1.04588 -0.01021,-1.07231 -0.0746,-1.1935 -0.0837,-0.15673 -0.19725,-0.21586 -0.416481,-0.21693 -0.303731,-0.001 -0.566219,0.17505 -0.647391,0.43532 -0.0351,0.11256 -0.0516,0.50667 -0.0642,1.53187 l -0.007,0.5714 -0.25305,0.008 -0.25305,0.008 z m 7.852992,-0.52853 c -0.01111,-0.69705 -0.0159,-1.61019 -0.0108,-2.02923 l 0.009,-0.76187 0.256411,-0.009 0.256389,-0.008 v 1.12929 c 0,0.62113 0.0114,1.1293 0.0254,1.1293 0.01389,-2e-5 0.273351,-0.25713 0.576432,-0.57139 l 0.551079,-0.5714 0.33192,-1e-5 c 0.18257,-3e-5 0.33033,0.0102 0.328409,0.0219 -0.0021,0.0121 -0.245049,0.25274 -0.54025,0.53477 -0.315299,0.30124 -0.533279,0.53135 -0.528328,0.55775 0.005,0.0247 0.273018,0.44227 0.596429,0.9279 0.3234,0.48563 0.5803,0.89067 0.570891,0.90007 -0.009,0.009 -0.1447,0.0171 -0.300701,0.0171 -0.234091,0 -0.29114,-0.009 -0.326811,-0.0513 -0.02379,-0.0281 -0.24601,-0.36473 -0.493898,-0.74782 l -0.450691,-0.69653 -0.169931,0.16816 -0.169929,0.16818 v 0.57964 0.57965 l -0.24561,-1e-5 h -0.24561 z m 5.961478,-0.21246 v -1.47979 h 0.234421 0.234421 l 1.9e-5,0.19524 v 0.19524 l 0.1168,-0.16313 c 0.158041,-0.22071 0.317571,-0.29909 0.567801,-0.279 0.14283,0.0115 0.379338,0.0919 0.451498,0.15362 0.004,0.004 -0.033,0.114 -0.083,0.24499 l -0.091,0.23817 -0.0873,-0.0447 c -0.27564,-0.14252 -0.567557,-0.05 -0.706718,0.22407 -0.108341,0.21337 -0.13794,0.52419 -0.13857,1.45556 l -2.64e-4,0.73989 h -0.249079 -0.249071 z m 22.349521,9.17823 c -0.006,-0.068 -0.01101,-0.005 -0.01101,0.14007 0,0.14504 0.005,0.2007 0.01119,0.12365 0.006,-0.077 0.006,-0.19571 -2.64e-4,-0.26373 z"
       inkscape:connector-curvature="0" />
    <path
       style="color:#000000;font-style:normal;font-variant:normal;font-weight:normal;font-stretch:normal;font-size:medium;line-height:normal;font-family:sans-serif;font-variant-ligatures:normal;font-variant-position:normal;font-variant-caps:normal;font-variant-numeric:normal;font-variant-alternates:normal;font-feature-settings:normal;text-indent:0;text-align:start;text-decoration:none;text-decoration-line:none;text-decoration-style:solid;text-decoration-color:#000000;letter-spacing:normal;word-spacing:normal;text-transform:none;writing-mode:lr-tb;direction:ltr;text-orientation:mixed;dominant-baseline:auto;baseline-shift:baseline;text-anchor:start;white-space:normal;shape-padding:0;clip-rule:nonzero;display:inline;overflow:visible;visibility:visible;opacity:1;isolation:auto;mix-blend-mode:normal;color-interpolation:sRGB;color-interpolation-filters:linearRGB;solid-color:#000000;solid-opacity:1;vector-effect:none;fill:#003500;fill-opacity:1;fill-rule:nonzero;stroke:none;stroke-width:0.10634267;stroke-linecap:butt;stroke-linejoin:round;stroke-miterlimit:4;stroke-dasharray:none;stroke-dashoffset:0;stroke-opacity:1;color-rendering:auto;image-rendering:auto;shape-rendering:auto;text-rendering:auto;enable-background:accumulate"
       d="m 33.484375,70.490234 c -0.814496,0 -1.472656,0.65816 -1.472656,1.472657 v 66.054689 c 0,0.81449 0.65816,1.47265 1.472656,1.47265 h 63.054687 c 0.814497,0 1.472657,-0.65816 1.472657,-1.47265 V 71.962891 c 0,-0.814497 -0.65816,-1.472657 -1.472657,-1.472657 z m 0,0.105469 h 63.054687 c 0.757423,0 1.367188,0.609766 1.367188,1.367188 v 66.054689 c 0,0.75742 -0.609765,1.36523 -1.367188,1.36523 H 33.484375 c -0.757422,0 -1.365234,-0.60781 -1.365234,-1.36523 V 71.962891 c 0,-0.757422 0.607812,-1.367188 1.365234,-1.367188 z"
       id="rect5986"
       inkscape:connector-curvature="0" />
  </g>
</svg>
