<?xml version="1.0" encoding="UTF-8" standalone="no"?>
<svg
   xmlns:dc="http://purl.org/dc/elements/1.1/"
   xmlns:cc="http://creativecommons.org/ns#"
   xmlns:rdf="http://www.w3.org/1999/02/22-rdf-syntax-ns#"
   xmlns:svg="http://www.w3.org/2000/svg"
   xmlns="http://www.w3.org/2000/svg"
   id="svg49"
   version="1.1"
   viewBox="0 0 245.819890921 49.0785192312"
   height="49.0785192312mm"
   width="245.819890921mm">
  <metadata
     id="metadata55">
    <rdf:RDF>
      <cc:Work
         rdf:about="">
        <dc:format>image/svg+xml</dc:format>
        <dc:type
           rdf:resource="http://purl.org/dc/dcmitype/StillImage" />
        <dc:title></dc:title>
      </cc:Work>
    </rdf:RDF>
  </metadata>
  <defs
     id="defs53" />
  <g
     transform="matrix(1,0,0,-1,40.909996,24.168967)"
     id="MyLayer">
    <path
       style="fill:none;fill-rule:evenodd;stroke:#191919;stroke-width:0.34999999;stroke-miterlimit:4;stroke-dasharray:none"
       d="m -9.8,21.758868 c -6.857708,-1.075918 -13.670166,-3.224938 -19.458651,-7.134677 -3.702452,-2.530847 -7.034565,-5.9427259 -8.510111,-10.2597902 -1.857497,-5.09082393 -0.01811,-10.8482815 3.575045,-14.7044238 4.37287,-4.852694 10.450419,-7.801759 16.618588,-9.67879 11.401829,-3.324912 23.7779126,-3.322782 35.177987,0.0083 4.018995,1.166627 7.785049,2.88176 11.298163,5.1454 C 33.943799,-11.576466 38.499001,-6.3272542 38.5,0 38.504234,6.1610039 34.158831,11.329024 29.281607,14.60849 23.488584,18.528337 16.66669,20.681442 9.8,21.758868 H -9.8"
       id="MyLayer_w0000" />
    <path
       style="fill:none;fill-rule:evenodd;stroke:#191919;stroke-width:0.34999999;stroke-miterlimit:4;stroke-dasharray:none"
       d="M 33,-2.6881985 V 0.08180147 H -33 V -2.6881985 h 66"
       id="MyLayer_w0001" />
    <circle
       id="circle4"
       style="fill:none;stroke:#191919;stroke-width:0.34999999;stroke-miterlimit:4;stroke-dasharray:none"
       r="0.81999999"
       cy="-18"
       cx="0" />
    <path
       style="fill:none;fill-rule:evenodd;stroke:#191919;stroke-width:0.34999999;stroke-miterlimit:4;stroke-dasharray:none"
       d="M 9.485,7.4119285 10.735,5.246865 9.485,3.0818015 h -2.5 l -1.25,2.1650635 1.25,2.1650635 h 2.5"
       id="MyLayer_w0003" />
    <path
       style="fill:none;fill-rule:evenodd;stroke:#191919;stroke-width:0.34999999;stroke-miterlimit:4;stroke-dasharray:none"
       d="m -9.485,-10.018326 -1.25,2.165064 1.25,2.1650635 h 2.5 l 1.25,-2.1650635 -1.25,-2.165064 h -2.5"
       id="MyLayer_w0004" />
    <path
       style="fill:none;fill-rule:evenodd;stroke:#191919;stroke-width:0.34999999;stroke-miterlimit:4;stroke-dasharray:none"
       d="m -25.96,-10.018326 -1.25,2.165064 1.25,2.1650635 h 2.5 l 1.25,-2.1650635 -1.25,-2.165064 h -2.5"
       id="MyLayer_w0005" />
    <circle
       id="circle9"
       style="fill:none;stroke:#191919;stroke-width:0.34999999;stroke-miterlimit:4;stroke-dasharray:none"
       r="0.81999999"
       cy="16"
       cx="14" />
    <path
       style="fill:none;fill-rule:evenodd;stroke:#191919;stroke-width:0.34999999;stroke-miterlimit:4;stroke-dasharray:none"
       d="m -23.46,7.4119285 1.25,-2.1650635 -1.25,-2.1650635 h -2.5 l -1.25,2.1650635 1.25,2.1650635 h 2.5"
       id="MyLayer_w0007" />
    <path
       style="fill:none;fill-rule:evenodd;stroke:#191919;stroke-width:0.34999999;stroke-miterlimit:4;stroke-dasharray:none"
       d="M 25.96,7.4119285 27.21,5.246865 25.96,3.0818015 h -2.5 l -1.25,2.1650635 1.25,2.1650635 h 2.5"
       id="MyLayer_w0008" />
    <path
       style="fill:none;fill-rule:evenodd;stroke:#191919;stroke-width:0.34999999;stroke-miterlimit:4;stroke-dasharray:none"
       d="m -9.485,3.0818015 -1.25,2.1650635 1.25,2.1650635 2.5,0 1.25,-2.1650635 -1.25,-2.1650635 h -2.5"
       id="MyLayer_w0009" />
    <path
       style="fill:none;fill-rule:evenodd;stroke:#191919;stroke-width:0.34999999;stroke-miterlimit:4;stroke-dasharray:none"
       d="m 6.985,-10.018326 -1.25,2.165064 1.25,2.1650635 h 2.5 l 1.25,-2.1650635 -1.25,-2.165064 h -2.5"
       id="MyLayer_w0010" />
    <circle
       id="circle15"
       style="fill:none;stroke:#191919;stroke-width:0.34999999;stroke-miterlimit:4;stroke-dasharray:none"
       r="0.81999999"
       cy="16"
       cx="-14" />
    <path
       style="fill:none;fill-rule:evenodd;stroke:#191919;stroke-width:0.34999999;stroke-miterlimit:4;stroke-dasharray:none"
       d="m 23.46,-10.018326 -1.25,2.165064 1.25,2.1650635 h 2.5 l 1.25,-2.1650635 -1.25,-2.165064 h -2.5"
       id="MyLayer_w0012" />
    <title
       id="title18">MyLayer</title>
  </g>
  <g
     transform="matrix(1,0,0,-1,45.188665,24.168867)"
     id="MyLayer002">
    <path
       style="fill:none;fill-rule:evenodd;stroke:#191919;stroke-width:0.34999999;stroke-miterlimit:4;stroke-dasharray:none"
       d="m 154.1999,21.758868 h 19.6 c 6.86669,-1.077426 13.68858,-3.230531 19.4816,-7.150378 4.87723,-3.279466 9.22263,-8.4474861 9.2184,-14.60849 -0.001,-6.3272542 -4.55621,-11.576466 -9.59898,-14.86509 -3.51312,-2.26364 -7.27917,-3.978773 -11.29817,-5.1454 -11.45083,-3.344809 -23.88717,-3.335295 -35.33041,0.03763 -6.14916,1.891625 -12.20659,4.855521 -16.54464,9.721961 -3.18984,3.5169983 -5.04825,8.5071153 -3.88861,13.2310273 1.14525,4.9380104 4.81651,8.8592507 8.90216,11.6440587 5.78848,3.909739 12.60094,6.058759 19.45865,7.134677"
       id="MyLayer002_w0000" />
    <path
       style="fill:none;fill-rule:evenodd;stroke:#191919;stroke-width:0.34999999;stroke-miterlimit:4;stroke-dasharray:none"
       d="m 173.4849,7.4119285 1.25,-2.1650635 -1.25,-2.1650635 h -2.5 l -1.25,2.1650635 1.25,2.1650635 h 2.5"
       id="MyLayer002_w0001" />
    <path
       style="fill:none;fill-rule:evenodd;stroke:#191919;stroke-width:0.34999999;stroke-miterlimit:4;stroke-dasharray:none"
       d="m 189.9599,7.4119285 1.25,-2.1650635 -1.25,-2.1650635 h -2.5 l -1.25,2.1650635 1.25,2.1650635 h 2.5"
       id="MyLayer002_w0002" />
    <circle
       id="circle24"
       style="fill:none;stroke:#191919;stroke-width:0.34999999;stroke-miterlimit:4;stroke-dasharray:none"
       r="0.81999999"
       cy="16"
       cx="149.99989" />
    <path
       style="fill:none;fill-rule:evenodd;stroke:#191919;stroke-width:0.34999999;stroke-miterlimit:4;stroke-dasharray:none"
       d="m 154.5149,3.0818015 -1.25,2.1650635 1.25,2.1650635 h 2.5 l 1.25,-2.1650635 -1.25,-2.1650635 h -2.5"
       id="MyLayer002_w0004" />
    <path
       style="fill:none;fill-rule:evenodd;stroke:#191919;stroke-width:0.34999999;stroke-miterlimit:4;stroke-dasharray:none"
       d="m 140.5399,7.4119285 1.25,-2.1650635 -1.25,-2.1650635 h -2.5 l -1.25,2.1650635 1.25,2.1650635 h 2.5"
       id="MyLayer002_w0005" />
    <path
       style="fill:none;fill-rule:evenodd;stroke:#191919;stroke-width:0.34999999;stroke-miterlimit:4;stroke-dasharray:none"
       d="m 170.9849,-10.018326 -1.25,2.165064 1.25,2.1650635 h 2.5 l 1.25,-2.1650635 -1.25,-2.165064 h -2.5"
       id="MyLayer002_w0006" />
    <path
       style="fill:none;fill-rule:evenodd;stroke:#191919;stroke-width:0.34999999;stroke-miterlimit:4;stroke-dasharray:none"
       d="m 138.0399,-10.018326 -1.25,2.165064 1.25,2.1650635 h 2.5 l 1.25,-2.1650635 -1.25,-2.165064 h -2.5"
       id="MyLayer002_w0007" />
    <path
       style="fill:none;fill-rule:evenodd;stroke:#191919;stroke-width:0.34999999;stroke-miterlimit:4;stroke-dasharray:none"
       d="m 154.5149,-10.018326 -1.25,2.165064 1.25,2.1650635 h 2.5 l 1.25,-2.1650635 -1.25,-2.165064 h -2.5"
       id="MyLayer002_w0008" />
    <circle
       id="circle31"
       style="fill:none;stroke:#191919;stroke-width:0.34999999;stroke-miterlimit:4;stroke-dasharray:none"
       r="0.81999999"
       cy="16"
       cx="177.99989" />
    <path
       style="fill:none;fill-rule:evenodd;stroke:#191919;stroke-width:0.34999999;stroke-miterlimit:4;stroke-dasharray:none"
       d="m 187.4599,-10.018326 -1.25,2.165064 1.25,2.1650635 h 2.5 l 1.25,-2.1650635 -1.25,-2.165064 h -2.5"
       id="MyLayer002_w0010" />
    <circle
       id="circle34"
       style="fill:none;stroke:#191919;stroke-width:0.34999999;stroke-miterlimit:4;stroke-dasharray:none"
       r="0.81999999"
       cy="-18"
       cx="163.99989" />
    <title
       id="title36">MyLayer002</title>
  </g>
  <g
     transform="translate(40.909996,24.168867) scale(1,-1)"
     id="MyLayer001">
    <path
       style="fill:none;fill-rule:evenodd;stroke:#191919;stroke-width:0.34999999;stroke-miterlimit:4;stroke-dasharray:none"
       d="m 72.199948,21.758868 h 0.25 V 7.2993452 l -1.185,-2.0524802 -0.995992,-1.5500635 h -9.50202 l -0.976988,1.5500635 -1.25,2.1650635 h -2.5 l -1.25,-2.1650635 -0.976988,-1.5500635 h -4.813012 v -10 h 4.913293 l 0.876707,-1.5500635 1.25,-2.165064 h 2.5 l 1.25,2.165064 0.910134,1.5500635 h 9.721586 l 0.84328,-1.5500635 1.25,-2.165064 h 2.5 l 1.25,2.165064 0.84328,1.5500635 h 9.78344 l 0.84328,-1.5500635 1.25,-2.165064 h 2.5 l 1.25,2.165064 0.84328,1.5500635 h 9.587882 l 1.04384,-1.5500635 1.25,-2.165064 h 2.5 l 1.25,2.165064 0.97699,1.5500635 h 4.81301 v 10 h -4.87987 l -0.91013,1.5500635 -1.25,2.1650635 h -2.5 l -1.25,-2.1650635 -1.04384,-1.5500635 h -9.482443 l -0.948719,1.5500635 -1.185,2.0524802 V 21.758868 h 0.25 C 98.666637,20.681442 105.48853,18.528337 111.28156,14.60849 116.15878,11.329024 120.50418,6.1610039 120.49995,0 c -0.001,-6.3272542 -4.5562,-11.576466 -9.59898,-14.86509 -3.51312,-2.26364 -7.27917,-3.978773 -11.298164,-5.1454 -11.450831,-3.344809 -23.887175,-3.335295 -35.330416,0.03763 -6.149161,1.891625 -12.206584,4.855521 -16.544642,9.721961 -3.189839,3.5169983 -5.048248,8.5071153 -3.888601,13.2310273 1.145241,4.9380104 4.816505,8.8592507 8.90215,11.6440587 5.788485,3.909739 12.600943,6.058759 19.458651,7.134677"
       id="MyLayer001_w0000" />
    <circle
       id="circle40"
       style="stroke-width:0.35;stroke-miterlimit:4;stroke-dasharray:none;fill:none"
       stroke-width="0.35 px"
       stroke="#191919"
       r="0.82"
       cy="16.0"
       cx="95.9999479221" />
    <circle
       id="circle42"
       style="stroke-width:0.35;stroke-miterlimit:4;stroke-dasharray:none;fill:none"
       stroke-width="0.35 px"
       stroke="#191919"
       r="0.82"
       cy="16.0"
       cx="67.9999479221" />
    <circle
       id="circle44"
       style="stroke-width:0.35;stroke-miterlimit:4;stroke-dasharray:none;fill:none"
       stroke-width="0.35 px"
       stroke="#191919"
       r="0.82"
       cy="-18.0"
       cx="81.9999479221" />
    <title
       id="title46">MyLayer001</title>
  </g>
  <g
     style="fill:none;stroke:#191919;stroke-width:10.34799004;stroke-miterlimit:4;stroke-dasharray:none;stroke-opacity:1"
     transform="matrix(0.01765256,0,0,0.01765256,34.287196,2.0095378)"
     id="layer1">
    <path
       id="path4045-5"
       d="m 706.14808,504.68686 -82.195,-15.285 c -2,-0.375 -4.19,-2.255 -4.865,-4.185 l -25.195,-58.78 c -0.94,-1.815 -0.76,-4.665 0.4,-6.355 l 47.89,-69.8 c 1.145,-1.68 0.92,-4.235 -0.525,-5.68 l -59.815,-59.815 c -1.445,-1.445 -3.995,-1.68 -5.675,-0.525 l -71.025,48.74 c -1.68,1.155 -4.56,1.36 -6.385,0.46 l -56.98,-23.325 c -1.935,-0.64 -3.82,-2.805 -4.2,-4.81 l -15.825,-85.015 c -0.37,-2.005 -2.345,-3.645 -4.385,-3.645 h -84.6 c -2.035,0 -4.01,1.64 -4.38,3.645 l -15.82,85.015 c -0.38,2.005 -2.26,4.17 -4.2,4.81 l -56.985,23.325 c -1.83,0.9 -4.71,0.695 -6.385,-0.46 l -71.02,-48.74 c -1.685,-1.155 -4.24,-0.92 -5.68,0.525 l -59.82,59.815 c -1.44,1.445 -1.68,4 -0.525,5.68 l 47.895,69.8 c 1.15,1.69 1.33,4.54 0.395,6.355 l -25.2,58.78 c -0.67,1.93 -2.855,3.81 -4.865,4.185 l -82.190007,15.285 c -2.01,0.38 -3.645,2.35 -3.645,4.39 l 0.005,84.595 c 0,2.04 1.64,4.025 3.645,4.39 l 80.175007,14.92 c 2.005,0.365 4.15,2.27 4.76,4.215 l 25.03,62.525 c 0.895,1.835 0.685,4.705 -0.475,6.385 l -45.54,66.36496 c -1.15,1.68 -0.915,4.24 0.525,5.685 l 59.825,59.815 c 1.44,1.435 3.995,1.67 5.68,0.525 l 65.19,-44.745 c 1.68,-1.15 4.495,-1.24 6.25,-0.215 l 28.75,15.35 c 1.82,0.93 3.945,0.145 4.725,-1.74 l 59.28,-143.23496 c 0.785,-1.885 0,-4.29 -1.74,-5.355 l -7.195,-4.405 c -1.33,-0.81 -3.135,-2.205 -4.55,-3.485 -25.955,-16.62 -43.175,-45.695 -43.175,-78.805 0,-51.67 41.89,-93.555 93.555,-93.555 51.665,0 93.55,41.885 93.55,93.555 0,33.11 -17.215,62.185 -43.175,78.805 -1.405,1.28 -3.215,2.675 -4.54,3.485 l -7.195,4.405 c -1.73,1.065 -2.52,3.47 -1.74,5.355 l 59.275,143.23996 c 0.78,1.885 2.9,2.665 4.725,1.74 l 28.75,-15.35 c 1.76,-1.025 4.57,-0.94 6.25,0.215 l 65.195,44.745 c 1.68,1.145 4.24,0.91 5.675,-0.525 l 59.825,-59.815 c 1.445,-1.445 1.68,-4.005 0.525,-5.685 l -45.545,-66.36496 c -1.15,-1.68 -1.365,-4.55 -0.47,-6.385 l 25.03,-62.525 c 0.615,-1.945 2.745,-3.85 4.755,-4.215 l 80.175,-14.92 c 2,-0.365 3.645,-2.35 3.645,-4.39 l 0.01,-84.595 c 0.005,-2.045 -1.635,-4.015 -3.635,-4.395"
       style="fill:none;stroke:#191919;stroke-width:10.34799004;stroke-miterlimit:4;stroke-dasharray:none;stroke-opacity:1" />
  </g>
  <g
     style="fill:none;stroke:#191919;stroke-width:10.34799004;stroke-miterlimit:4;stroke-dasharray:none;stroke-opacity:1"
     transform="matrix(0.01765256,0,0,0.01765256,202.56349,2.0095378)"
     id="layer1-3">
    <path
       id="path4045-5-6"
       d="m 706.14808,504.68686 -82.195,-15.285 c -2,-0.375 -4.19,-2.255 -4.865,-4.185 l -25.195,-58.78 c -0.94,-1.815 -0.76,-4.665 0.4,-6.355 l 47.89,-69.8 c 1.145,-1.68 0.92,-4.235 -0.525,-5.68 l -59.815,-59.815 c -1.445,-1.445 -3.995,-1.68 -5.675,-0.525 l -71.025,48.74 c -1.68,1.155 -4.56,1.36 -6.385,0.46 l -56.98,-23.325 c -1.935,-0.64 -3.82,-2.805 -4.2,-4.81 l -15.825,-85.015 c -0.37,-2.005 -2.345,-3.645 -4.385,-3.645 h -84.6 c -2.035,0 -4.01,1.64 -4.38,3.645 l -15.82,85.015 c -0.38,2.005 -2.26,4.17 -4.2,4.81 l -56.985,23.325 c -1.83,0.9 -4.71,0.695 -6.385,-0.46 l -71.02,-48.74 c -1.685,-1.155 -4.24,-0.92 -5.68,0.525 l -59.82,59.815 c -1.44,1.445 -1.68,4 -0.525,5.68 l 47.895,69.8 c 1.15,1.69 1.33,4.54 0.395,6.355 l -25.2,58.78 c -0.67,1.93 -2.855,3.81 -4.865,4.185 l -82.190007,15.285 c -2.01,0.38 -3.645,2.35 -3.645,4.39 l 0.005,84.595 c 0,2.04 1.64,4.025 3.645,4.39 l 80.175007,14.92 c 2.005,0.365 4.15,2.27 4.76,4.215 l 25.03,62.525 c 0.895,1.835 0.685,4.705 -0.475,6.385 l -45.54,66.36496 c -1.15,1.68 -0.915,4.24 0.525,5.685 l 59.825,59.815 c 1.44,1.435 3.995,1.67 5.68,0.525 l 65.19,-44.745 c 1.68,-1.15 4.495,-1.24 6.25,-0.215 l 28.75,15.35 c 1.82,0.93 3.945,0.145 4.725,-1.74 l 59.28,-143.23496 c 0.785,-1.885 0,-4.29 -1.74,-5.355 l -7.195,-4.405 c -1.33,-0.81 -3.135,-2.205 -4.55,-3.485 -25.955,-16.62 -43.175,-45.695 -43.175,-78.805 0,-51.67 41.89,-93.555 93.555,-93.555 51.665,0 93.55,41.885 93.55,93.555 0,33.11 -17.215,62.185 -43.175,78.805 -1.405,1.28 -3.215,2.675 -4.54,3.485 l -7.195,4.405 c -1.73,1.065 -2.52,3.47 -1.74,5.355 l 59.275,143.23996 c 0.78,1.885 2.9,2.665 4.725,1.74 l 28.75,-15.35 c 1.76,-1.025 4.57,-0.94 6.25,0.215 l 65.195,44.745 c 1.68,1.145 4.24,0.91 5.675,-0.525 l 59.825,-59.815 c 1.445,-1.445 1.68,-4.005 0.525,-5.685 l -45.545,-66.36496 c -1.15,-1.68 -1.365,-4.55 -0.47,-6.385 l 25.03,-62.525 c 0.615,-1.945 2.745,-3.85 4.755,-4.215 l 80.175,-14.92 c 2,-0.365 3.645,-2.35 3.645,-4.39 l 0.01,-84.595 c 0.005,-2.045 -1.635,-4.015 -3.635,-4.395"
       style="fill:none;stroke:#191919;stroke-width:10.34799004;stroke-miterlimit:4;stroke-dasharray:none;stroke-opacity:1" />
  </g>
  <path
     id="rect17126"
     d="M 30.909207,4.7898529 H 50.906831 V 24.157817 H 30.909207 Z"
     style="fill:none;stroke:#00ff00;stroke-width:0.10095767;stroke-miterlimit:4;stroke-dasharray:none;stroke-opacity:1" />
  <g
     transform="matrix(0.80607267,0,0,0.80607267,62.386515,0.56739159)"
     id="text17057"
     style="font-style:normal;font-weight:normal;font-size:3.17499995px;line-height:125%;font-family:sans-serif;text-align:center;letter-spacing:0px;word-spacing:0px;text-anchor:middle;fill:#0000d9;fill-opacity:1;stroke:#0000ff;stroke-width:0.08736909;stroke-linecap:butt;stroke-linejoin:miter;stroke-miterlimit:4;stroke-dasharray:none;stroke-opacity:1">
    <path
       style="fill:#0000d9;fill-opacity:1;stroke:#0000ff;stroke-width:0.08736909;stroke-miterlimit:4;stroke-dasharray:none;stroke-opacity:1"
       id="path27915"
       d="m 170.69535,3.4706261 h 1.95802 v 0.2635498 h -0.82166 V 5.7852135 H 171.517 V 3.7341759 h -0.82165 z" />
    <path
       style="fill:#0000d9;fill-opacity:1;stroke:#0000ff;stroke-width:0.08736909;stroke-miterlimit:4;stroke-dasharray:none;stroke-opacity:1"
       id="path27917"
       d="m 172.84561,4.0488854 h 0.28525 v 1.7363281 h -0.28525 z m 0,-0.6759278 h 0.28525 v 0.3612183 h -0.28525 z" />
    <path
       style="fill:#0000d9;fill-opacity:1;stroke:#0000ff;stroke-width:0.08736909;stroke-miterlimit:4;stroke-dasharray:none;stroke-opacity:1"
       id="path27919"
       d="m 175.16949,4.7372154 v 1.0479981 h -0.28525 V 4.7465172 q 0,-0.2464966 -0.0961,-0.3689697 -0.0961,-0.1224732 -0.28835,-0.1224732 -0.231,0 -0.36432,0.1472779 -0.13333,0.1472778 -0.13333,0.4015258 v 0.9813355 h -0.2868 V 4.0488854 h 0.2868 v 0.2697509 q 0.10232,-0.1565795 0.2403,-0.2340942 0.13953,-0.077515 0.32091,-0.077515 0.29921,0 0.45269,0.1860351 0.15347,0.1844849 0.15347,0.5441528 z" />
    <path
       style="fill:#0000d9;fill-opacity:1;stroke:#0000ff;stroke-width:0.08736909;stroke-miterlimit:4;stroke-dasharray:none;stroke-opacity:1"
       id="path27921"
       d="m 176.46399,5.9464439 q -0.12092,0.3100586 -0.23565,0.4046265 -0.11472,0.094568 -0.30695,0.094568 h -0.2279 V 6.2068933 h 0.16744 q 0.11782,0 0.18293,-0.055811 0.0651,-0.05581 0.14418,-0.2635498 l 0.0512,-0.1302246 -0.70229,-1.7084228 h 0.30231 l 0.5426,1.3580566 0.54261,-1.3580566 h 0.3023 l -0.76274,1.8975585 z" />
    <path
       style="fill:#0000d9;fill-opacity:1;stroke:#0000ff;stroke-width:0.08736909;stroke-miterlimit:4;stroke-dasharray:none;stroke-opacity:1"
       id="path27923"
       d="m 179.74131,4.7000084 q 0.10077,0.034107 0.19534,0.1457275 0.0961,0.1116211 0.19223,0.306958 l 0.31781,0.6325196 h -0.33641 l -0.29611,-0.5937622 q -0.11472,-0.232544 -0.22324,-0.3085083 -0.10697,-0.075964 -0.29301,-0.075964 h -0.34106 V 5.7852139 H 178.6437 V 3.4706265 h 0.70693 q 0.39688,0 0.59222,0.1658813 0.19533,0.1658814 0.19533,0.5007447 0,0.2185913 -0.10232,0.3627685 -0.10076,0.1441773 -0.29455,0.1999874 z M 178.95686,3.7279747 V 4.54963 h 0.39377 q 0.22635,0 0.34107,-0.1038696 0.11627,-0.10542 0.11627,-0.3085083 0,-0.2030884 -0.11627,-0.3054077 -0.11472,-0.1038697 -0.34107,-0.1038697 z" />
    <path
       style="fill:#0000d9;fill-opacity:1;stroke:#0000ff;stroke-width:0.08736909;stroke-miterlimit:4;stroke-dasharray:none;stroke-opacity:1"
       id="path27925"
       d="m 181.5598,4.9123985 q -0.34571,0 -0.47904,0.079065 -0.13332,0.079065 -0.13332,0.269751 0,0.1519287 0.0992,0.2418457 0.10076,0.088367 0.27285,0.088367 0.23719,0 0.37982,-0.1674317 0.14418,-0.1689819 0.14418,-0.4480346 v -0.063562 h -0.28371 z m 0.56896,-0.1178222 v 0.9906372 h -0.28525 V 5.5216637 q -0.0977,0.1581299 -0.2434,0.2340942 -0.14573,0.074414 -0.35657,0.074414 -0.26665,0 -0.42478,-0.1488282 -0.15658,-0.1503784 -0.15658,-0.4015258 0,-0.2930054 0.19534,-0.4418335 0.19689,-0.1488281 0.58601,-0.1488281 h 0.39998 v -0.027905 q 0,-0.1968872 -0.13023,-0.3038574 -0.12867,-0.1085205 -0.36277,-0.1085205 -0.14883,0 -0.2899,0.035657 -0.14108,0.035657 -0.2713,0.1069702 V 4.1279508 q 0.15658,-0.060461 0.30385,-0.089917 0.14728,-0.031006 0.28681,-0.031006 0.37672,0 0.56275,0.1953369 0.18604,0.1953369 0.18604,0.5922116 z" />
    <path
       style="fill:#0000d9;fill-opacity:1;stroke:#0000ff;stroke-width:0.08736909;stroke-miterlimit:4;stroke-dasharray:none;stroke-opacity:1"
       id="path27927"
       d="m 182.71787,4.0488854 h 0.28525 v 1.7363281 h -0.28525 z m 0,-0.6759278 h 0.28525 v 0.3612183 h -0.28525 z" />
    <path
       style="fill:#0000d9;fill-opacity:1;stroke:#0000ff;stroke-width:0.08736909;stroke-miterlimit:4;stroke-dasharray:none;stroke-opacity:1"
       id="path27929"
       d="m 185.04176,4.7372154 v 1.0479981 h -0.28525 V 4.7465172 q 0,-0.2464966 -0.0961,-0.3689697 -0.0961,-0.1224732 -0.28836,-0.1224732 -0.23099,0 -0.36432,0.1472779 -0.13332,0.1472778 -0.13332,0.4015258 v 0.9813355 h -0.2868 V 4.0488854 h 0.2868 v 0.2697509 q 0.10232,-0.1565795 0.24029,-0.2340942 0.13953,-0.077515 0.32092,-0.077515 0.2992,0 0.45268,0.1860351 0.15348,0.1844849 0.15348,0.5441528 z" />
    <path
       style="fill:#0000d9;fill-opacity:1;stroke:#0000ff;stroke-width:0.08736909;stroke-miterlimit:4;stroke-dasharray:none;stroke-opacity:1"
       id="path27931"
       d="m 186.86025,4.9185997 q 0,-0.3147095 -0.13022,-0.4929931 -0.12868,-0.179834 -0.35502,-0.179834 -0.22634,0 -0.35657,0.179834 -0.12867,0.1782836 -0.12867,0.4929931 0,0.3147095 0.12867,0.4945435 0.13023,0.1782837 0.35657,0.1782837 0.22634,0 0.35502,-0.1782837 0.13022,-0.179834 0.13022,-0.4945435 z m -0.97048,-0.6061645 q 0.0899,-0.1550293 0.22634,-0.2294434 0.13798,-0.075964 0.32867,-0.075964 0.31625,0 0.51314,0.2511474 0.19844,0.2511475 0.19844,0.6604248 0,0.4092774 -0.19844,0.6604248 -0.19689,0.2511475 -0.51314,0.2511475 -0.19069,0 -0.32867,-0.074414 -0.13642,-0.075964 -0.22634,-0.2309936 v 0.2604492 h -0.2868 V 3.372958 h 0.2868 z" />
    <path
       style="fill:#0000d9;fill-opacity:1;stroke:#0000ff;stroke-width:0.08736909;stroke-miterlimit:4;stroke-dasharray:none;stroke-opacity:1"
       id="path27933"
       d="m 188.30203,4.2488732 q -0.22945,0 -0.36277,0.1798339 -0.13333,0.1782837 -0.13333,0.4898926 0,0.3116089 0.13178,0.4914429 0.13332,0.1782837 0.36432,0.1782837 0.22789,0 0.36121,-0.179834 0.13333,-0.179834 0.13333,-0.4898926 0,-0.3085083 -0.13333,-0.4883423 -0.13332,-0.1813842 -0.36121,-0.1813842 z m 0,-0.2418457 q 0.37207,0 0.58446,0.2418457 0.21239,0.2418457 0.21239,0.6697265 0,0.4263306 -0.21239,0.6697266 -0.21239,0.2418457 -0.58446,0.2418457 -0.37362,0 -0.58601,-0.2418457 -0.21084,-0.243396 -0.21084,-0.6697266 0,-0.4278808 0.21084,-0.6697265 0.21239,-0.2418457 0.58601,-0.2418457 z" />
    <path
       style="fill:#0000d9;fill-opacity:1;stroke:#0000ff;stroke-width:0.08736909;stroke-miterlimit:4;stroke-dasharray:none;stroke-opacity:1"
       id="path27935"
       d="m 189.40429,4.0488854 h 0.28525 l 0.35657,1.354956 0.35501,-1.354956 h 0.33642 l 0.35656,1.354956 0.35502,-1.354956 h 0.28526 l -0.45424,1.7363281 h -0.33641 l -0.37362,-1.423169 -0.37518,1.423169 h -0.33641 z" />
    <path
       style="fill:#0000d9;fill-opacity:1;stroke:#0000ff;stroke-width:0.08736909;stroke-miterlimit:4;stroke-dasharray:none;stroke-opacity:1"
       id="path27937"
       d="m 193.27537,4.100045 v 0.269751 q -0.12093,-0.062012 -0.25115,-0.093018 -0.13023,-0.031006 -0.26975,-0.031006 -0.21239,0 -0.31936,0.065112 -0.10542,0.065112 -0.10542,0.1953369 0,0.099219 0.076,0.1565796 0.076,0.05581 0.30541,0.1069702 l 0.0977,0.021704 q 0.30385,0.065112 0.43098,0.1844849 0.12867,0.1178222 0.12867,0.3302124 0,0.2418456 -0.19223,0.3829223 -0.19069,0.1410767 -0.52555,0.1410767 -0.13953,0 -0.29146,-0.027905 -0.15038,-0.026355 -0.31781,-0.080615 V 5.4270953 q 0.15813,0.082166 0.31161,0.1240234 0.15348,0.040308 0.30386,0.040308 0.20154,0 0.31006,-0.068213 0.10852,-0.069763 0.10852,-0.1953369 0,-0.116272 -0.0791,-0.1782837 -0.0775,-0.062012 -0.34261,-0.1193726 l -0.0992,-0.023254 q -0.2651,-0.05581 -0.38292,-0.1705322 -0.11783,-0.116272 -0.11783,-0.3178101 0,-0.2449463 0.17364,-0.3782714 0.17363,-0.1333252 0.49299,-0.1333252 0.15813,0 0.29766,0.023254 0.13952,0.023254 0.25735,0.069763 z" />
  </g>
  <g
     transform="matrix(1.116946,0,0,1.116946,4.9016381,-6.6338516)"
     id="text17065"
     style="font-style:normal;font-weight:normal;font-size:2.82462335px;line-height:125%;font-family:sans-serif;text-align:center;letter-spacing:0px;word-spacing:0px;text-anchor:middle;fill:#0000d9;fill-opacity:1;stroke:#0000ff;stroke-width:0.08280716;stroke-linecap:butt;stroke-linejoin:miter;stroke-miterlimit:4;stroke-dasharray:none;stroke-opacity:1">
    <path
       id="path27753"
       style="fill:#0000d9;fill-opacity:1;stroke:#0000ff;stroke-width:0.08280716;stroke-miterlimit:4;stroke-dasharray:none;stroke-opacity:1"
       d="m 165.22489,25.784226 v 0.293772 q -0.14068,-0.131025 -0.30067,-0.195848 -0.15861,-0.06482 -0.33791,-0.06482 -0.35307,0 -0.54065,0.216536 -0.18757,0.215157 -0.18757,0.623403 0,0.406867 0.18757,0.623404 0.18758,0.215156 0.54065,0.215156 0.1793,0 0.33791,-0.06482 0.15999,-0.06482 0.30067,-0.195847 v 0.291013 q -0.1462,0.0993 -0.31032,0.148955 -0.16275,0.04965 -0.34481,0.04965 -0.46755,0 -0.7365,-0.285496 -0.26894,-0.286876 -0.26894,-0.782013 0,-0.496516 0.26894,-0.782012 0.26895,-0.286876 0.7365,-0.286876 0.18482,0 0.34756,0.04965 0.16413,0.04827 0.30757,0.146196 z" />
    <path
       id="path27755"
       style="fill:#0000d9;fill-opacity:1;stroke:#0000ff;stroke-width:0.08280716;stroke-miterlimit:4;stroke-dasharray:none;stroke-opacity:1"
       d="m 166.54203,26.377287 q -0.0428,-0.02483 -0.0938,-0.03586 -0.0497,-0.01241 -0.11034,-0.01241 -0.21516,0 -0.33101,0.14068 -0.11447,0.1393 -0.11447,0.40135 v 0.813734 h -0.25516 v -1.544716 h 0.25516 v 0.239983 q 0.08,-0.14068 0.20826,-0.208261 0.12826,-0.06896 0.3117,-0.06896 0.0262,0 0.0579,0.0041 0.0317,0.0028 0.0703,0.0097 l 0.001,0.260671 z" />
    <path
       id="path27757"
       style="fill:#0000d9;fill-opacity:1;stroke:#0000ff;stroke-width:0.08280716;stroke-miterlimit:4;stroke-dasharray:none;stroke-opacity:1"
       d="m 168.07158,26.848977 v 0.124129 h -1.16681 q 0.0165,0.26205 0.15723,0.399971 0.14206,0.136541 0.39445,0.136541 0.1462,0 0.28274,-0.03586 0.13792,-0.03586 0.27308,-0.107578 v 0.239982 q -0.13654,0.05793 -0.27998,0.08827 -0.14344,0.03034 -0.29101,0.03034 -0.36963,0 -0.58617,-0.215157 -0.21515,-0.215156 -0.21515,-0.582026 0,-0.379283 0.20412,-0.601336 0.2055,-0.223432 0.55306,-0.223432 0.31171,0 0.49238,0.201364 0.18206,0.199986 0.18206,0.544789 z m -0.25378,-0.07448 q -0.003,-0.208261 -0.11723,-0.33239 -0.11309,-0.124129 -0.30067,-0.124129 -0.2124,0 -0.34066,0.119992 -0.12689,0.119991 -0.1462,0.337906 l 0.90476,-0.0014 z" />
    <path
       id="path27759"
       style="fill:#0000d9;fill-opacity:1;stroke:#0000ff;stroke-width:0.08280716;stroke-miterlimit:4;stroke-dasharray:none;stroke-opacity:1"
       d="m 169.19012,26.908283 q -0.30757,0 -0.42618,0.07034 -0.11861,0.07034 -0.11861,0.239983 0,0.135163 0.0883,0.215157 0.0897,0.07861 0.24274,0.07861 0.21102,0 0.33791,-0.148955 0.12826,-0.150334 0.12826,-0.398592 v -0.05655 h -0.25239 z m 0.50617,-0.10482 v 0.881315 h -0.25378 v -0.234466 q -0.0869,0.14068 -0.21653,0.208261 -0.12965,0.0662 -0.31722,0.0662 -0.23722,0 -0.3779,-0.132404 -0.1393,-0.133783 -0.1393,-0.357215 0,-0.260671 0.17378,-0.393075 0.17516,-0.132405 0.52134,-0.132405 h 0.35583 v -0.02483 q 0,-0.17516 -0.11585,-0.270326 -0.11447,-0.09655 -0.32274,-0.09655 -0.1324,0 -0.25791,0.03172 -0.12551,0.03172 -0.24136,0.09517 v -0.234466 q 0.1393,-0.05379 0.27033,-0.07999 0.13102,-0.02758 0.25515,-0.02758 0.33515,0 0.50065,0.17378 0.16551,0.173781 0.16551,0.526859 z" />
    <path
       id="path27761"
       style="fill:#0000d9;fill-opacity:1;stroke:#0000ff;stroke-width:0.08280716;stroke-miterlimit:4;stroke-dasharray:none;stroke-opacity:1"
       d="m 170.4714,25.701473 v 0.438589 h 0.52273 v 0.197227 h -0.52273 v 0.83856 q 0,0.188952 0.051,0.242742 0.0524,0.05379 0.21101,0.05379 h 0.26068 v 0.212398 h -0.26068 q -0.29377,0 -0.40548,-0.108957 -0.11172,-0.110337 -0.11172,-0.399972 v -0.83856 h -0.18619 v -0.197227 h 0.18619 v -0.438589 h 0.25515 z" />
    <path
       id="path27763"
       style="fill:#0000d9;fill-opacity:1;stroke:#0000ff;stroke-width:0.08280716;stroke-miterlimit:4;stroke-dasharray:none;stroke-opacity:1"
       d="m 172.65056,26.848977 v 0.124129 h -1.16681 q 0.0166,0.26205 0.15723,0.399971 0.14205,0.136541 0.39445,0.136541 0.1462,0 0.28274,-0.03586 0.13792,-0.03586 0.27308,-0.107578 v 0.239982 q -0.13654,0.05793 -0.27998,0.08827 -0.14344,0.03034 -0.29101,0.03034 -0.36963,0 -0.58617,-0.215157 -0.21515,-0.215156 -0.21515,-0.582026 0,-0.379283 0.20412,-0.601336 0.2055,-0.223432 0.55306,-0.223432 0.31171,0 0.49238,0.201364 0.18206,0.199986 0.18206,0.544789 z m -0.25378,-0.07448 q -0.003,-0.208261 -0.11723,-0.33239 -0.1131,-0.124129 -0.30067,-0.124129 -0.2124,0 -0.34066,0.119992 -0.12689,0.119991 -0.1462,0.337906 l 0.90476,-0.0014 z" />
    <path
       id="path27765"
       style="fill:#0000d9;fill-opacity:1;stroke:#0000ff;stroke-width:0.08280716;stroke-miterlimit:4;stroke-dasharray:none;stroke-opacity:1"
       d="m 174.08356,26.374528 v -0.835802 h 0.25377 v 2.146052 h -0.25377 v -0.231707 q -0.08,0.137921 -0.20275,0.205502 -0.12137,0.0662 -0.29239,0.0662 -0.27998,0 -0.45652,-0.223432 -0.17516,-0.223432 -0.17516,-0.587544 0,-0.364111 0.17516,-0.587543 0.17654,-0.223432 0.45652,-0.223432 0.17102,0 0.29239,0.06758 0.12275,0.0662 0.20275,0.204123 z m -0.86477,0.539271 q 0,0.27998 0.11448,0.439969 0.11585,0.158609 0.31722,0.158609 0.20136,0 0.31721,-0.158609 0.11586,-0.159989 0.11586,-0.439969 0,-0.279979 -0.11586,-0.438588 -0.11585,-0.159989 -0.31721,-0.159989 -0.20137,0 -0.31722,0.159989 -0.11448,0.158609 -0.11448,0.438588 z" />
    <path
       id="path27767"
       style="fill:#0000d9;fill-opacity:1;stroke:#0000ff;stroke-width:0.08280716;stroke-miterlimit:4;stroke-dasharray:none;stroke-opacity:1"
       d="m 176.86818,26.913799 q 0,-0.279979 -0.11585,-0.438588 -0.11447,-0.159989 -0.31584,-0.159989 -0.20136,0 -0.31722,0.159989 -0.11447,0.158609 -0.11447,0.438588 0,0.27998 0.11447,0.439969 0.11586,0.158609 0.31722,0.158609 0.20137,0 0.31584,-0.158609 0.11585,-0.159989 0.11585,-0.439969 z m -0.86338,-0.539271 q 0.08,-0.137921 0.20136,-0.204123 0.12275,-0.06758 0.29239,-0.06758 0.28136,0 0.45652,0.223432 0.17654,0.223432 0.17654,0.587543 0,0.364112 -0.17654,0.587544 -0.17516,0.223432 -0.45652,0.223432 -0.16964,0 -0.29239,-0.0662 -0.12137,-0.06758 -0.20136,-0.205502 v 0.231707 h -0.25516 v -2.146052 h 0.25516 v 0.835802 z" />
    <path
       id="path27769"
       style="fill:#0000d9;fill-opacity:1;stroke:#0000ff;stroke-width:0.08280716;stroke-miterlimit:4;stroke-dasharray:none;stroke-opacity:1"
       d="m 178.19498,27.828216 q -0.10757,0.275842 -0.20964,0.359974 -0.10206,0.08413 -0.27308,0.08413 h -0.20274 v -0.212398 h 0.14895 q 0.10482,0 0.16275,-0.04965 0.0579,-0.04965 0.12827,-0.234466 l 0.0455,-0.115854 -0.62478,-1.51989 h 0.26894 l 0.48273,1.208189 0.48272,-1.208189 h 0.26895 l -0.67858,1.688154 z" />
    <path
       id="path27771"
       style="fill:#0000d9;fill-opacity:1;stroke:#0000ff;stroke-width:0.08280716;stroke-miterlimit:4;stroke-dasharray:none;stroke-opacity:1"
       d="m 180.96996,25.814569 q -0.30343,0 -0.48273,0.22619 -0.17792,0.226191 -0.17792,0.616507 0,0.388938 0.17792,0.615128 0.1793,0.226191 0.48273,0.226191 0.30342,0 0.47996,-0.226191 0.17792,-0.22619 0.17792,-0.615128 0,-0.390316 -0.17792,-0.616507 -0.17654,-0.22619 -0.47996,-0.22619 z m 0,-0.226191 q 0.43307,0 0.69236,0.291014 0.25929,0.289634 0.25929,0.777874 0,0.486862 -0.25929,0.777875 -0.25929,0.289634 -0.69236,0.289634 -0.43446,0 -0.69513,-0.289634 -0.25929,-0.289634 -0.25929,-0.777875 0,-0.48824 0.25929,-0.777874 0.26067,-0.291014 0.69513,-0.291014 z" />
    <path
       id="path27773"
       style="fill:#0000d9;fill-opacity:1;stroke:#0000ff;stroke-width:0.08280716;stroke-miterlimit:4;stroke-dasharray:none;stroke-opacity:1"
       d="m 182.59191,27.453071 v 0.819251 h -0.25516 v -2.13226 h 0.25516 v 0.234466 q 0.08,-0.137921 0.20136,-0.204123 0.12275,-0.06758 0.29239,-0.06758 0.28136,0 0.45652,0.223432 0.17654,0.223432 0.17654,0.587543 0,0.364112 -0.17654,0.587544 -0.17516,0.223432 -0.45652,0.223432 -0.16964,0 -0.29239,-0.0662 -0.12137,-0.06758 -0.20136,-0.205502 z m 0.86338,-0.539272 q 0,-0.279979 -0.11585,-0.438588 -0.11448,-0.159989 -0.31584,-0.159989 -0.20136,0 -0.31722,0.159989 -0.11447,0.158609 -0.11447,0.438588 0,0.27998 0.11447,0.439969 0.11586,0.158609 0.31722,0.158609 0.20136,0 0.31584,-0.158609 0.11585,-0.159989 0.11585,-0.439969 z" />
    <path
       id="path27775"
       style="fill:#0000d9;fill-opacity:1;stroke:#0000ff;stroke-width:0.08280716;stroke-miterlimit:4;stroke-dasharray:none;stroke-opacity:1"
       d="m 185.46067,26.848977 v 0.124129 h -1.16682 q 0.0165,0.26205 0.15723,0.399971 0.14206,0.136541 0.39446,0.136541 0.14619,0 0.28274,-0.03586 0.13792,-0.03586 0.27308,-0.107578 v 0.239982 q -0.13654,0.05793 -0.27998,0.08827 -0.14344,0.03034 -0.29101,0.03034 -0.36963,0 -0.58617,-0.215157 -0.21515,-0.215156 -0.21515,-0.582026 0,-0.379283 0.20412,-0.601336 0.2055,-0.223432 0.55306,-0.223432 0.3117,0 0.49238,0.201364 0.18206,0.199986 0.18206,0.544789 z m -0.25378,-0.07448 q -0.003,-0.208261 -0.11723,-0.33239 -0.1131,-0.124129 -0.30067,-0.124129 -0.2124,0 -0.34066,0.119992 -0.12689,0.119991 -0.1462,0.337906 l 0.90476,-0.0014 z" />
    <path
       id="path27777"
       style="fill:#0000d9;fill-opacity:1;stroke:#0000ff;stroke-width:0.08280716;stroke-miterlimit:4;stroke-dasharray:none;stroke-opacity:1"
       d="m 187.16123,26.752432 v 0.932346 h -0.25377 v -0.924071 q 0,-0.219294 -0.0855,-0.328252 -0.0855,-0.108958 -0.25654,-0.108958 -0.2055,0 -0.32411,0.131025 -0.11861,0.131025 -0.11861,0.357216 v 0.87304 h -0.25516 v -1.544716 h 0.25516 v 0.239983 q 0.091,-0.1393 0.21378,-0.208261 0.12412,-0.06896 0.28549,-0.06896 0.26619,0 0.40273,0.165505 0.13654,0.164126 0.13654,0.484103 z" />
    <path
       id="path27779"
       style="fill:#0000d9;fill-opacity:1;stroke:#0000ff;stroke-width:0.08280716;stroke-miterlimit:4;stroke-dasharray:none;stroke-opacity:1"
       d="m 188.82042,25.701473 v 0.438589 h 0.52272 v 0.197227 h -0.52272 v 0.83856 q 0,0.188952 0.051,0.242742 0.0524,0.05379 0.21102,0.05379 h 0.26067 v 0.212398 h -0.26067 q -0.29377,0 -0.40548,-0.108957 -0.11172,-0.110337 -0.11172,-0.399972 v -0.83856 h -0.18619 v -0.197227 h 0.18619 v -0.438589 h 0.25515 z" />
    <path
       id="path27781"
       style="fill:#0000d9;fill-opacity:1;stroke:#0000ff;stroke-width:0.08280716;stroke-miterlimit:4;stroke-dasharray:none;stroke-opacity:1"
       d="m 190.27687,26.31798 q -0.20412,0 -0.32274,0.159989 -0.11861,0.158609 -0.11861,0.43583 0,0.277222 0.11723,0.43721 0.11862,0.158609 0.32412,0.158609 0.20274,0 0.32136,-0.159988 0.11861,-0.159988 0.11861,-0.435831 0,-0.274462 -0.11861,-0.434451 -0.11862,-0.161368 -0.32136,-0.161368 z m 0,-0.215156 q 0.33101,0 0.51996,0.215156 0.18895,0.215157 0.18895,0.595819 0,0.379283 -0.18895,0.595819 -0.18895,0.215157 -0.51996,0.215157 -0.33239,0 -0.52134,-0.215157 -0.18758,-0.216536 -0.18758,-0.595819 0,-0.380662 0.18758,-0.595819 0.18895,-0.215156 0.52134,-0.215156 z" />
    <path
       id="path27783"
       style="fill:#0000d9;fill-opacity:1;stroke:#0000ff;stroke-width:0.08280716;stroke-miterlimit:4;stroke-dasharray:none;stroke-opacity:1"
       d="m 193.54974,25.693198 v 0.271705 q -0.15861,-0.07586 -0.29929,-0.113096 -0.14068,-0.03724 -0.27171,-0.03724 -0.22757,0 -0.3517,0.08827 -0.12275,0.08827 -0.12275,0.251016 0,0.136542 0.0814,0.206882 0.0828,0.06896 0.3117,0.111716 l 0.16826,0.03448 q 0.3117,0.05931 0.45928,0.20964 0.14895,0.148955 0.14895,0.399971 0,0.299289 -0.20136,0.453761 -0.19999,0.154471 -0.58754,0.154471 -0.1462,0 -0.31171,-0.0331 -0.16412,-0.0331 -0.34066,-0.09792 v -0.286875 q 0.16964,0.09516 0.33239,0.143437 0.16275,0.04827 0.31998,0.04827 0.2386,0 0.36825,-0.09379 0.12964,-0.09379 0.12964,-0.267566 0,-0.151714 -0.0938,-0.237225 -0.0924,-0.08551 -0.3048,-0.128266 l -0.16964,-0.0331 q -0.31171,-0.06207 -0.45101,-0.194469 -0.1393,-0.132404 -0.1393,-0.368249 0,-0.273084 0.19171,-0.430314 0.19309,-0.15723 0.531,-0.15723 0.14482,0 0.29515,0.02621 0.15034,0.02621 0.30757,0.07861 z" />
    <path
       id="path27785"
       style="fill:#0000d9;fill-opacity:1;stroke:#0000ff;stroke-width:0.08280716;stroke-miterlimit:4;stroke-dasharray:none;stroke-opacity:1"
       d="m 194.69586,26.31798 q -0.20412,0 -0.32273,0.159989 -0.11862,0.158609 -0.11862,0.43583 0,0.277222 0.11724,0.43721 0.11861,0.158609 0.32411,0.158609 0.20274,0 0.32136,-0.159988 0.11861,-0.159988 0.11861,-0.435831 0,-0.274462 -0.11861,-0.434451 -0.11862,-0.161368 -0.32136,-0.161368 z m 0,-0.215156 q 0.33101,0 0.51996,0.215156 0.18895,0.215157 0.18895,0.595819 0,0.379283 -0.18895,0.595819 -0.18895,0.215157 -0.51996,0.215157 -0.33239,0 -0.52134,-0.215157 -0.18757,-0.216536 -0.18757,-0.595819 0,-0.380662 0.18757,-0.595819 0.18895,-0.215156 0.52134,-0.215156 z" />
    <path
       id="path27787"
       style="fill:#0000d9;fill-opacity:1;stroke:#0000ff;stroke-width:0.08280716;stroke-miterlimit:4;stroke-dasharray:none;stroke-opacity:1"
       d="m 195.79785,27.075167 v -0.935105 h 0.25377 v 0.925451 q 0,0.219294 0.0855,0.329631 0.0855,0.108958 0.25654,0.108958 0.2055,0 0.32411,-0.131025 0.11999,-0.131025 0.11999,-0.357216 v -0.875799 h 0.25378 v 1.544716 h -0.25378 v -0.237224 q -0.0924,0.140679 -0.21515,0.20964 -0.12137,0.06758 -0.28274,0.06758 -0.26619,0 -0.40411,-0.165505 -0.13792,-0.165505 -0.13792,-0.484103 z m 0.63857,-0.972343 z" />
    <path
       id="path27789"
       style="fill:#0000d9;fill-opacity:1;stroke:#0000ff;stroke-width:0.08280716;stroke-miterlimit:4;stroke-dasharray:none;stroke-opacity:1"
       d="m 198.51214,26.377287 q -0.0428,-0.02483 -0.0938,-0.03586 -0.0497,-0.01241 -0.11034,-0.01241 -0.21515,0 -0.33101,0.14068 -0.11447,0.1393 -0.11447,0.40135 v 0.813734 h -0.25515 v -1.544716 h 0.25515 v 0.239983 q 0.08,-0.14068 0.20826,-0.208261 0.12827,-0.06896 0.3117,-0.06896 0.0262,0 0.0579,0.0041 0.0317,0.0028 0.0703,0.0097 l 0.001,0.260671 z" />
    <path
       id="path27791"
       style="fill:#0000d9;fill-opacity:1;stroke:#0000ff;stroke-width:0.08280716;stroke-miterlimit:4;stroke-dasharray:none;stroke-opacity:1"
       d="m 199.83204,26.199368 v 0.237225 q -0.10758,-0.05931 -0.21654,-0.08827 -0.10757,-0.03034 -0.21791,-0.03034 -0.24688,0 -0.38342,0.157231 -0.13654,0.15585 -0.13654,0.438588 0,0.282739 0.13654,0.439969 0.13654,0.15585 0.38342,0.15585 0.11034,0 0.21791,-0.02896 0.10896,-0.03034 0.21654,-0.08965 v 0.234466 q -0.1062,0.04965 -0.22067,0.07448 -0.1131,0.02482 -0.24137,0.02482 -0.34894,0 -0.55444,-0.219294 -0.2055,-0.219295 -0.2055,-0.591682 0,-0.377903 0.20688,-0.594439 0.20826,-0.216536 0.56962,-0.216536 0.11723,0 0.22894,0.02483 0.11172,0.02345 0.21654,0.07172 z" />
    <path
       id="path27793"
       style="fill:#0000d9;fill-opacity:1;stroke:#0000ff;stroke-width:0.08280716;stroke-miterlimit:4;stroke-dasharray:none;stroke-opacity:1"
       d="m 201.59743,26.848977 v 0.124129 h -1.16681 q 0.0165,0.26205 0.15723,0.399971 0.14205,0.136541 0.39445,0.136541 0.1462,0 0.28274,-0.03586 0.13792,-0.03586 0.27308,-0.107578 v 0.239982 q -0.13654,0.05793 -0.27998,0.08827 -0.14344,0.03034 -0.29101,0.03034 -0.36963,0 -0.58617,-0.215157 -0.21515,-0.215156 -0.21515,-0.582026 0,-0.379283 0.20412,-0.601336 0.2055,-0.223432 0.55306,-0.223432 0.31171,0 0.49238,0.201364 0.18206,0.199986 0.18206,0.544789 z m -0.25378,-0.07448 q -0.003,-0.208261 -0.11723,-0.33239 -0.11309,-0.124129 -0.30067,-0.124129 -0.2124,0 -0.34066,0.119992 -0.12689,0.119991 -0.1462,0.337906 l 0.90476,-0.0014 z" />
    <path
       id="path27795"
       style="fill:#0000d9;fill-opacity:1;stroke:#0000ff;stroke-width:0.08280716;stroke-miterlimit:4;stroke-dasharray:none;stroke-opacity:1"
       d="m 162.88988,30.474921 q 0,0.197227 0.0979,0.310323 0.0979,0.111716 0.26894,0.111716 0.16965,0 0.26619,-0.113096 0.0979,-0.113095 0.0979,-0.308943 0,-0.193089 -0.0993,-0.306184 -0.0993,-0.114475 -0.26756,-0.114475 -0.16689,0 -0.26619,0.113095 -0.0979,0.113096 -0.0979,0.307564 z m 0.75167,0.412384 q -0.0828,0.106199 -0.19033,0.15723 -0.1062,0.04965 -0.24826,0.04965 -0.23722,0 -0.38617,-0.171022 -0.14758,-0.172402 -0.14758,-0.448244 0,-0.275842 0.14896,-0.448243 0.14895,-0.172401 0.38479,-0.172401 0.14206,0 0.24964,0.05241 0.10758,0.05103 0.18895,0.15585 v -0.180676 h 0.19723 v 1.015099 q 0.20137,-0.03034 0.31446,-0.183435 0.11448,-0.154472 0.11448,-0.398592 0,-0.147576 -0.0441,-0.277221 -0.0428,-0.129646 -0.13102,-0.239983 -0.14344,-0.180677 -0.35032,-0.275842 -0.20551,-0.09654 -0.44825,-0.09654 -0.16964,0 -0.32549,0.04551 -0.15585,0.04413 -0.28826,0.132404 -0.21653,0.14068 -0.33928,0.369629 -0.12137,0.227569 -0.12137,0.493757 0,0.219295 0.0786,0.411005 0.08,0.19171 0.23033,0.337906 0.14482,0.143438 0.33515,0.217916 0.19033,0.07586 0.40687,0.07586 0.17791,0 0.34894,-0.06068 0.1724,-0.05931 0.31584,-0.171022 l 0.12412,0.153092 q -0.1724,0.133784 -0.37652,0.204123 -0.20274,0.07172 -0.41238,0.07172 -0.25516,0 -0.48135,-0.09103 -0.22619,-0.08965 -0.40273,-0.26205 -0.17654,-0.172401 -0.26894,-0.398591 -0.0924,-0.22757 -0.0924,-0.488241 0,-0.251016 0.0938,-0.478586 0.0938,-0.22757 0.26756,-0.399971 0.17792,-0.17516 0.41101,-0.267567 0.23308,-0.09379 0.49375,-0.09379 0.2924,0 0.54203,0.119991 0.25102,0.119991 0.42066,0.340665 0.10344,0.135163 0.15723,0.293772 0.0552,0.158609 0.0552,0.328252 0,0.362732 -0.21929,0.572372 -0.2193,0.20964 -0.60548,0.217916 v -0.212399 z" />
    <path
       id="path27797"
       style="fill:#0000d9;fill-opacity:1;stroke:#0000ff;stroke-width:0.08280716;stroke-miterlimit:4;stroke-dasharray:none;stroke-opacity:1"
       d="m 165.55452,29.156396 h 1.74194 v 0.234466 h -0.73098 v 1.824695 h -0.27998 v -1.824695 h -0.73098 z" />
    <path
       id="path27799"
       style="fill:#0000d9;fill-opacity:1;stroke:#0000ff;stroke-width:0.08280716;stroke-miterlimit:4;stroke-dasharray:none;stroke-opacity:1"
       d="m 168.8398,30.283211 v 0.932346 h -0.25378 v -0.924071 q 0,-0.219294 -0.0855,-0.328252 -0.0855,-0.108957 -0.25653,-0.108957 -0.2055,0 -0.32411,0.131025 -0.11862,0.131025 -0.11862,0.357215 v 0.87304 h -0.25515 v -2.146051 h 0.25515 v 0.841318 q 0.091,-0.1393 0.21378,-0.208261 0.12413,-0.06896 0.2855,-0.06896 0.26618,0 0.40273,0.165505 0.13654,0.164126 0.13654,0.484103 z" />
    <path
       id="path27801"
       style="fill:#0000d9;fill-opacity:1;stroke:#0000ff;stroke-width:0.08280716;stroke-miterlimit:4;stroke-dasharray:none;stroke-opacity:1"
       d="m 170.67001,30.379756 v 0.124129 h -1.16681 q 0.0165,0.26205 0.15723,0.399971 0.14206,0.136542 0.39445,0.136542 0.1462,0 0.28274,-0.03586 0.13792,-0.03586 0.27309,-0.107578 v 0.239982 q -0.13655,0.05793 -0.27998,0.08827 -0.14344,0.03034 -0.29102,0.03034 -0.36963,0 -0.58616,-0.215157 -0.21516,-0.215157 -0.21516,-0.582027 0,-0.379283 0.20412,-0.601336 0.20551,-0.223432 0.55307,-0.223432 0.3117,0 0.49238,0.201365 0.18205,0.199985 0.18205,0.544788 z m -0.25377,-0.07448 q -0.003,-0.20826 -0.11724,-0.332389 -0.11309,-0.124129 -0.30066,-0.124129 -0.2124,0 -0.34067,0.119991 -0.12689,0.119991 -0.1462,0.337907 l 0.90477,-0.0014 z" />
    <path
       id="path27803"
       style="fill:#0000d9;fill-opacity:1;stroke:#0000ff;stroke-width:0.08280716;stroke-miterlimit:4;stroke-dasharray:none;stroke-opacity:1"
       d="m 171.99681,29.156396 h 0.2786 v 0.870282 l 0.92407,-0.870282 h 0.3586 l -1.022,0.959931 1.0951,1.09923 h -0.36687 l -0.9889,-0.991652 v 0.991652 h -0.2786 z" />
    <path
       id="path27805"
       style="fill:#0000d9;fill-opacity:1;stroke:#0000ff;stroke-width:0.08280716;stroke-miterlimit:4;stroke-dasharray:none;stroke-opacity:1"
       d="m 174.4918,30.439062 q -0.30756,0 -0.42617,0.07034 -0.11861,0.07034 -0.11861,0.239982 0,0.135163 0.0883,0.215157 0.0896,0.07861 0.24274,0.07861 0.21102,0 0.3379,-0.148955 0.12827,-0.150334 0.12827,-0.398592 v -0.05655 h -0.2524 z m 0.50617,-0.10482 v 0.881315 h -0.25377 v -0.234465 q -0.0869,0.140679 -0.21654,0.20826 -0.12964,0.0662 -0.31722,0.0662 -0.23722,0 -0.3779,-0.132405 -0.1393,-0.133783 -0.1393,-0.357215 0,-0.260671 0.17378,-0.393075 0.17516,-0.132405 0.52134,-0.132405 h 0.35584 v -0.02482 q 0,-0.17516 -0.11585,-0.270326 -0.11448,-0.09654 -0.32274,-0.09654 -0.1324,0 -0.25791,0.03172 -0.12551,0.03172 -0.24136,0.09516 V 29.74118 q 0.1393,-0.05379 0.27032,-0.07999 0.13103,-0.02758 0.25516,-0.02758 0.33514,0 0.50065,0.17378 0.1655,0.173781 0.1655,0.526859 z" />
    <path
       id="path27807"
       style="fill:#0000d9;fill-opacity:1;stroke:#0000ff;stroke-width:0.08280716;stroke-miterlimit:4;stroke-dasharray:none;stroke-opacity:1"
       d="m 176.72475,29.967372 q 0.0952,-0.171022 0.22757,-0.252396 0.1324,-0.08137 0.3117,-0.08137 0.24136,0 0.37238,0.169643 0.13103,0.168263 0.13103,0.479965 v 0.932346 h -0.25516 v -0.924071 q 0,-0.222053 -0.0786,-0.329631 -0.0786,-0.107578 -0.23998,-0.107578 -0.19723,0 -0.3117,0.131025 -0.11448,0.131025 -0.11448,0.357215 v 0.87304 h -0.25515 v -0.924071 q 0,-0.223432 -0.0786,-0.329631 -0.0786,-0.107578 -0.24274,-0.107578 -0.19447,0 -0.30894,0.132404 -0.11448,0.131025 -0.11448,0.355836 v 0.87304 h -0.25515 v -1.544715 h 0.25515 v 0.239982 q 0.0869,-0.142059 0.20826,-0.20964 0.12137,-0.06758 0.28826,-0.06758 0.16826,0 0.2855,0.08551 0.11861,0.08551 0.17516,0.248258 z" />
    <path
       id="path27809"
       style="fill:#0000d9;fill-opacity:1;stroke:#0000ff;stroke-width:0.08280716;stroke-miterlimit:4;stroke-dasharray:none;stroke-opacity:1"
       d="m 178.27498,29.069506 h 0.25377 v 2.146051 h -0.25377 z" />
    <path
       id="path27811"
       style="fill:#0000d9;fill-opacity:1;stroke:#0000ff;stroke-width:0.08280716;stroke-miterlimit:4;stroke-dasharray:none;stroke-opacity:1"
       d="m 179.65695,29.84876 q -0.20413,0 -0.32274,0.159988 -0.11861,0.158609 -0.11861,0.435831 0,0.277221 0.11723,0.437209 0.11861,0.15861 0.32412,0.15861 0.20274,0 0.32135,-0.159989 0.11862,-0.159988 0.11862,-0.43583 0,-0.274463 -0.11862,-0.434452 -0.11861,-0.161367 -0.32135,-0.161367 z m 0,-0.215157 q 0.33101,0 0.51996,0.215157 0.18895,0.215157 0.18895,0.595819 0,0.379283 -0.18895,0.595819 -0.18895,0.215157 -0.51996,0.215157 -0.33239,0 -0.52134,-0.215157 -0.18758,-0.216536 -0.18758,-0.595819 0,-0.380662 0.18758,-0.595819 0.18895,-0.215157 0.52134,-0.215157 z" />
    <path
       id="path27813"
       style="fill:#0000d9;fill-opacity:1;stroke:#0000ff;stroke-width:0.08280716;stroke-miterlimit:4;stroke-dasharray:none;stroke-opacity:1"
       d="m 181.38372,29.84876 q -0.20412,0 -0.32274,0.159988 -0.11861,0.158609 -0.11861,0.435831 0,0.277221 0.11724,0.437209 0.11861,0.15861 0.32411,0.15861 0.20274,0 0.32136,-0.159989 0.11861,-0.159988 0.11861,-0.43583 0,-0.274463 -0.11861,-0.434452 -0.11862,-0.161367 -0.32136,-0.161367 z m 0,-0.215157 q 0.33101,0 0.51996,0.215157 0.18895,0.215157 0.18895,0.595819 0,0.379283 -0.18895,0.595819 -0.18895,0.215157 -0.51996,0.215157 -0.33239,0 -0.52134,-0.215157 -0.18757,-0.216536 -0.18757,-0.595819 0,-0.380662 0.18757,-0.595819 0.18895,-0.215157 0.52134,-0.215157 z" />
    <path
       id="path27815"
       style="fill:#0000d9;fill-opacity:1;stroke:#0000ff;stroke-width:0.08280716;stroke-miterlimit:4;stroke-dasharray:none;stroke-opacity:1"
       d="m 182.75741,30.98385 v 0.819251 h -0.25515 v -2.132259 h 0.25515 v 0.234465 q 0.08,-0.137921 0.20137,-0.204123 0.12275,-0.06758 0.29239,-0.06758 0.28136,0 0.45652,0.223432 0.17654,0.223432 0.17654,0.587544 0,0.364111 -0.17654,0.587543 -0.17516,0.223433 -0.45652,0.223433 -0.16964,0 -0.29239,-0.0662 -0.12137,-0.06758 -0.20137,-0.205502 z m 0.86339,-0.539271 q 0,-0.27998 -0.11585,-0.438589 -0.11448,-0.159989 -0.31584,-0.159989 -0.20137,0 -0.31722,0.159989 -0.11448,0.158609 -0.11448,0.438589 0,0.279979 0.11448,0.439968 0.11585,0.158609 0.31722,0.158609 0.20136,0 0.31584,-0.158609 0.11585,-0.159989 0.11585,-0.439968 z" />
    <path
       id="path27817"
       style="fill:#0000d9;fill-opacity:1;stroke:#0000ff;stroke-width:0.08280716;stroke-miterlimit:4;stroke-dasharray:none;stroke-opacity:1"
       d="m 185.28964,29.716355 v 0.239983 q -0.10758,-0.05517 -0.22343,-0.08275 -0.11585,-0.02758 -0.23998,-0.02758 -0.18895,0 -0.28412,0.05793 -0.0938,0.05793 -0.0938,0.173781 0,0.08827 0.0676,0.1393 0.0676,0.04965 0.2717,0.09516 l 0.0869,0.01931 q 0.27033,0.05793 0.38342,0.164126 0.11448,0.10482 0.11448,0.293772 0,0.215157 -0.17103,0.340665 -0.16964,0.125509 -0.46755,0.125509 -0.12413,0 -0.25929,-0.02483 -0.13378,-0.02345 -0.28274,-0.07172 v -0.26205 q 0.14068,0.0731 0.27722,0.110337 0.13654,0.03586 0.27033,0.03586 0.1793,0 0.27584,-0.06068 0.0966,-0.06207 0.0966,-0.173781 0,-0.103441 -0.0703,-0.158609 -0.069,-0.05517 -0.30481,-0.106199 l -0.0883,-0.02069 q -0.23584,-0.04965 -0.34066,-0.151714 -0.10482,-0.10344 -0.10482,-0.282738 0,-0.217915 0.15447,-0.336527 0.15447,-0.118612 0.43859,-0.118612 0.14068,0 0.2648,0.02069 0.12413,0.02069 0.22895,0.06206 z" />
    <path
       id="path27819"
       style="fill:#0000d9;fill-opacity:1;stroke:#0000ff;stroke-width:0.08280716;stroke-miterlimit:4;stroke-dasharray:none;stroke-opacity:1"
       d="m 186.68816,29.156396 h 0.41515 l 0.52547,1.401278 0.52824,-1.401278 h 0.41514 v 2.059161 h -0.2717 v -1.808145 l -0.531,1.412312 h -0.27998 l -0.53099,-1.412312 v 1.808145 h -0.27033 z" />
    <path
       id="path27821"
       style="fill:#0000d9;fill-opacity:1;stroke:#0000ff;stroke-width:0.08280716;stroke-miterlimit:4;stroke-dasharray:none;stroke-opacity:1"
       d="m 189.81759,30.439062 q -0.30756,0 -0.42617,0.07034 -0.11862,0.07034 -0.11862,0.239982 0,0.135163 0.0883,0.215157 0.0896,0.07861 0.24274,0.07861 0.21102,0 0.33791,-0.148955 0.12827,-0.150334 0.12827,-0.398592 v -0.05655 h -0.2524 z m 0.50617,-0.10482 v 0.881315 h -0.25377 v -0.234465 q -0.0869,0.140679 -0.21654,0.20826 -0.12964,0.0662 -0.31722,0.0662 -0.23722,0 -0.3779,-0.132405 -0.1393,-0.133783 -0.1393,-0.357215 0,-0.260671 0.17378,-0.393075 0.17516,-0.132405 0.52134,-0.132405 h 0.35584 v -0.02482 q 0,-0.17516 -0.11586,-0.270326 -0.11447,-0.09654 -0.32273,-0.09654 -0.13241,0 -0.25791,0.03172 -0.12551,0.03172 -0.24137,0.09516 V 29.74118 q 0.1393,-0.05379 0.27033,-0.07999 0.13102,-0.02758 0.25515,-0.02758 0.33515,0 0.50066,0.17378 0.1655,0.173781 0.1655,0.526859 z" />
    <path
       id="path27823"
       style="fill:#0000d9;fill-opacity:1;stroke:#0000ff;stroke-width:0.08280716;stroke-miterlimit:4;stroke-dasharray:none;stroke-opacity:1"
       d="m 190.83821,29.069506 h 0.25515 V 30.337 l 0.75719,-0.666158 h 0.32411 l -0.81925,0.722706 0.85373,0.822009 h -0.33101 l -0.78477,-0.754428 v 0.754428 h -0.25515 z" />
    <path
       id="path27825"
       style="fill:#0000d9;fill-opacity:1;stroke:#0000ff;stroke-width:0.08280716;stroke-miterlimit:4;stroke-dasharray:none;stroke-opacity:1"
       d="m 193.70835,30.379756 v 0.124129 h -1.16682 q 0.0165,0.26205 0.15723,0.399971 0.14206,0.136542 0.39446,0.136542 0.14619,0 0.28274,-0.03586 0.13792,-0.03586 0.27308,-0.107578 v 0.239982 q -0.13654,0.05793 -0.27998,0.08827 -0.14344,0.03034 -0.29101,0.03034 -0.36963,0 -0.58617,-0.215157 -0.21516,-0.215157 -0.21516,-0.582027 0,-0.379283 0.20413,-0.601336 0.2055,-0.223432 0.55306,-0.223432 0.3117,0 0.49238,0.201365 0.18206,0.199985 0.18206,0.544788 z m -0.25378,-0.07448 q -0.003,-0.20826 -0.11723,-0.332389 -0.1131,-0.124129 -0.30067,-0.124129 -0.2124,0 -0.34067,0.119991 -0.12688,0.119991 -0.14619,0.337907 l 0.90476,-0.0014 z" />
    <path
       id="path27827"
       style="fill:#0000d9;fill-opacity:1;stroke:#0000ff;stroke-width:0.08280716;stroke-miterlimit:4;stroke-dasharray:none;stroke-opacity:1"
       d="m 195.01997,29.908066 q -0.0428,-0.02483 -0.0938,-0.03586 -0.0496,-0.01241 -0.11034,-0.01241 -0.21516,0 -0.33101,0.14068 -0.11447,0.1393 -0.11447,0.40135 v 0.813734 h -0.25516 v -1.544715 h 0.25516 v 0.239982 q 0.08,-0.140679 0.20826,-0.208261 0.12826,-0.06896 0.3117,-0.06896 0.0262,0 0.0579,0.0041 0.0317,0.0028 0.0703,0.0097 l 0.001,0.260671 z" />
    <path
       id="path27829"
       style="fill:#0000d9;fill-opacity:1;stroke:#0000ff;stroke-width:0.08280716;stroke-miterlimit:4;stroke-dasharray:none;stroke-opacity:1"
       d="m 196.27368,29.716355 v 0.239983 q -0.10758,-0.05517 -0.22344,-0.08275 -0.11585,-0.02758 -0.23998,-0.02758 -0.18895,0 -0.28412,0.05793 -0.0938,0.05793 -0.0938,0.173781 0,0.08827 0.0676,0.1393 0.0676,0.04965 0.2717,0.09516 l 0.0869,0.01931 q 0.27033,0.05793 0.38343,0.164126 0.11447,0.10482 0.11447,0.293772 0,0.215157 -0.17102,0.340665 -0.16965,0.125509 -0.46755,0.125509 -0.12413,0 -0.2593,-0.02483 -0.13378,-0.02345 -0.28273,-0.07172 v -0.26205 q 0.14067,0.0731 0.27722,0.110337 0.13654,0.03586 0.27032,0.03586 0.1793,0 0.27584,-0.06068 0.0966,-0.06207 0.0966,-0.173781 0,-0.103441 -0.0703,-0.158609 -0.069,-0.05517 -0.30481,-0.106199 l -0.0883,-0.02069 q -0.23584,-0.04965 -0.34066,-0.151714 -0.10482,-0.10344 -0.10482,-0.282738 0,-0.217915 0.15447,-0.336527 0.15447,-0.118612 0.43859,-0.118612 0.14068,0 0.26481,0.02069 0.12413,0.02069 0.22895,0.06206 z" />
    <path
       id="path27831"
       style="fill:#0000d9;fill-opacity:1;stroke:#0000ff;stroke-width:0.08280716;stroke-miterlimit:4;stroke-dasharray:none;stroke-opacity:1"
       d="m 197.00742,30.98385 v 0.819251 h -0.25516 v -2.132259 h 0.25516 v 0.234465 q 0.08,-0.137921 0.20136,-0.204123 0.12275,-0.06758 0.29239,-0.06758 0.28136,0 0.45652,0.223432 0.17654,0.223432 0.17654,0.587544 0,0.364111 -0.17654,0.587543 -0.17516,0.223433 -0.45652,0.223433 -0.16964,0 -0.29239,-0.0662 -0.12137,-0.06758 -0.20136,-0.205502 z m 0.86338,-0.539271 q 0,-0.27998 -0.11585,-0.438589 -0.11448,-0.159989 -0.31584,-0.159989 -0.20137,0 -0.31722,0.159989 -0.11447,0.158609 -0.11447,0.438589 0,0.279979 0.11447,0.439968 0.11585,0.158609 0.31722,0.158609 0.20136,0 0.31584,-0.158609 0.11585,-0.159989 0.11585,-0.439968 z" />
    <path
       id="path27833"
       style="fill:#0000d9;fill-opacity:1;stroke:#0000ff;stroke-width:0.08280716;stroke-miterlimit:4;stroke-dasharray:none;stroke-opacity:1"
       d="m 199.25691,30.439062 q -0.30756,0 -0.42618,0.07034 -0.11861,0.07034 -0.11861,0.239982 0,0.135163 0.0883,0.215157 0.0897,0.07861 0.24274,0.07861 0.21102,0 0.33791,-0.148955 0.12827,-0.150334 0.12827,-0.398592 v -0.05655 h -0.2524 z m 0.50617,-0.10482 v 0.881315 h -0.25377 v -0.234465 q -0.0869,0.140679 -0.21654,0.20826 -0.12965,0.0662 -0.31722,0.0662 -0.23722,0 -0.3779,-0.132405 -0.1393,-0.133783 -0.1393,-0.357215 0,-0.260671 0.17378,-0.393075 0.17516,-0.132405 0.52134,-0.132405 h 0.35584 v -0.02482 q 0,-0.17516 -0.11586,-0.270326 -0.11447,-0.09654 -0.32273,-0.09654 -0.13241,0 -0.25791,0.03172 -0.12551,0.03172 -0.24137,0.09516 V 29.74118 q 0.1393,-0.05379 0.27033,-0.07999 0.13102,-0.02758 0.25515,-0.02758 0.33515,0 0.50066,0.17378 0.1655,0.173781 0.1655,0.526859 z" />
    <path
       id="path27835"
       style="fill:#0000d9;fill-opacity:1;stroke:#0000ff;stroke-width:0.08280716;stroke-miterlimit:4;stroke-dasharray:none;stroke-opacity:1"
       d="m 201.39882,29.730148 v 0.237224 q -0.10757,-0.05931 -0.21653,-0.08827 -0.10758,-0.03034 -0.21792,-0.03034 -0.24688,0 -0.38342,0.15723 -0.13654,0.15585 -0.13654,0.438589 0,0.282738 0.13654,0.439968 0.13654,0.155851 0.38342,0.155851 0.11034,0 0.21792,-0.02896 0.10896,-0.03034 0.21653,-0.08965 v 0.234465 q -0.10619,0.04965 -0.22067,0.07448 -0.11309,0.02483 -0.24136,0.02483 -0.34894,0 -0.55444,-0.219295 -0.20551,-0.219294 -0.20551,-0.591681 0,-0.377904 0.20689,-0.59444 0.20826,-0.216536 0.56961,-0.216536 0.11723,0 0.22895,0.02483 0.11171,0.02345 0.21653,0.07172 z" />
    <path
       id="path27837"
       style="fill:#0000d9;fill-opacity:1;stroke:#0000ff;stroke-width:0.08280716;stroke-miterlimit:4;stroke-dasharray:none;stroke-opacity:1"
       d="m 203.16421,30.379756 v 0.124129 h -1.16681 q 0.0165,0.26205 0.15723,0.399971 0.14206,0.136542 0.39445,0.136542 0.1462,0 0.28274,-0.03586 0.13792,-0.03586 0.27309,-0.107578 v 0.239982 q -0.13655,0.05793 -0.27998,0.08827 -0.14344,0.03034 -0.29102,0.03034 -0.36962,0 -0.58616,-0.215157 -0.21516,-0.215157 -0.21516,-0.582027 0,-0.379283 0.20413,-0.601336 0.2055,-0.223432 0.55306,-0.223432 0.3117,0 0.49238,0.201365 0.18205,0.199985 0.18205,0.544788 z m -0.25377,-0.07448 q -0.003,-0.20826 -0.11723,-0.332389 -0.1131,-0.124129 -0.30067,-0.124129 -0.2124,0 -0.34067,0.119991 -0.12689,0.119991 -0.14619,0.337907 l 0.90476,-0.0014 z" />
  </g>
  <g
     transform="matrix(1.4335654,0,0,1.4335654,-52.994625,-13.432445)"
     id="text21076"
     style="font-style:normal;font-weight:normal;font-size:1.73644245px;line-height:125%;font-family:sans-serif;text-align:center;letter-spacing:0px;word-spacing:0px;text-anchor:middle;fill:#0000d9;fill-opacity:1;stroke:#0000ff;stroke-width:0.06975615;stroke-linecap:butt;stroke-linejoin:miter;stroke-miterlimit:4;stroke-dasharray:none;stroke-opacity:1">
    <path
       style="fill:#0000d9;fill-opacity:1;stroke:#0000ff;stroke-width:0.06975615;stroke-miterlimit:4;stroke-dasharray:none;stroke-opacity:1"
       id="path26822"
       d="m 162.98974,35.225928 v -0.339997 h -0.2798 v -0.140747 h 0.44937 v 0.543486 q -0.0992,0.07037 -0.21875,0.106832 -0.11955,0.03561 -0.25521,0.03561 -0.29675,0 -0.46463,-0.172966 -0.16703,-0.173814 -0.16703,-0.483287 0,-0.310321 0.16703,-0.483287 0.16788,-0.173814 0.46463,-0.173814 0.12379,0 0.23486,0.03052 0.11192,0.03052 0.20604,0.08987 v 0.182292 q -0.095,-0.08055 -0.2018,-0.121246 -0.10683,-0.0407 -0.22468,-0.0407 -0.23232,0 -0.34933,0.129724 -0.11616,0.129724 -0.11616,0.38663 0,0.256057 0.11616,0.385782 0.11701,0.129724 0.34933,0.129724 0.0907,0 0.16194,-0.01526 0.0712,-0.01611 0.12803,-0.04918 z" />
    <path
       style="fill:#0000d9;fill-opacity:1;stroke:#0000ff;stroke-width:0.06975615;stroke-miterlimit:4;stroke-dasharray:none;stroke-opacity:1"
       id="path26824"
       d="m 163.46624,34.456908 h 0.15601 v 0.949617 h -0.15601 z m 0,-0.369673 h 0.15601 v 0.197555 h -0.15601 z" />
    <path
       style="fill:#0000d9;fill-opacity:1;stroke:#0000ff;stroke-width:0.06975615;stroke-miterlimit:4;stroke-dasharray:none;stroke-opacity:1"
       id="path26826"
       d="m 164.10215,34.187284 v 0.269624 h 0.32134 v 0.121245 h -0.32134 v 0.515507 q 0,0.116158 0.0314,0.149225 0.0322,0.03307 0.12972,0.03307 h 0.16025 v 0.130573 h -0.16025 q -0.18059,0 -0.24927,-0.06698 -0.0687,-0.06783 -0.0687,-0.245883 v -0.515507 h -0.11446 v -0.121245 h 0.11446 v -0.269624 h 0.15686 z" />
    <path
       style="fill:#0000d9;fill-opacity:1;stroke:#0000ff;stroke-width:0.06975615;stroke-miterlimit:4;stroke-dasharray:none;stroke-opacity:1"
       id="path26828"
       d="m 165.41889,34.833363 v 0.573162 h -0.15601 V 34.83845 q 0,-0.134811 -0.0526,-0.201793 -0.0526,-0.06698 -0.15771,-0.06698 -0.12633,0 -0.19925,0.08055 -0.0729,0.08055 -0.0729,0.219598 v 0.536704 h -0.15685 v -1.31929 h 0.15685 v 0.517202 q 0.056,-0.08563 0.13142,-0.128028 0.0763,-0.04239 0.17551,-0.04239 0.16364,0 0.24758,0.101745 0.0839,0.100897 0.0839,0.297603 z" />
    <path
       style="fill:#0000d9;fill-opacity:1;stroke:#0000ff;stroke-width:0.06975615;stroke-miterlimit:4;stroke-dasharray:none;stroke-opacity:1"
       id="path26830"
       d="m 165.71565,35.031765 v -0.574857 h 0.15601 v 0.568922 q 0,0.134812 0.0526,0.202641 0.0526,0.06698 0.15771,0.06698 0.12633,0 0.19925,-0.08055 0.0738,-0.08055 0.0738,-0.219599 v -0.538399 h 0.15601 v 0.949617 h -0.15601 v -0.145834 q -0.0568,0.08648 -0.13226,0.128876 -0.0746,0.04155 -0.17382,0.04155 -0.16364,0 -0.24842,-0.101745 -0.0848,-0.101744 -0.0848,-0.297603 z m 0.39256,-0.59775 z" />
    <path
       style="fill:#0000d9;fill-opacity:1;stroke:#0000ff;stroke-width:0.06975615;stroke-miterlimit:4;stroke-dasharray:none;stroke-opacity:1"
       id="path26832"
       d="m 167.51568,34.932564 q 0,-0.172118 -0.0712,-0.269623 -0.0704,-0.09835 -0.19416,-0.09835 -0.12379,0 -0.19501,0.09835 -0.0704,0.09751 -0.0704,0.269623 0,0.172118 0.0704,0.270471 0.0712,0.09751 0.19501,0.09751 0.12379,0 0.19416,-0.09751 0.0712,-0.09835 0.0712,-0.270471 z m -0.53077,-0.331518 q 0.0492,-0.08479 0.12379,-0.125485 0.0755,-0.04155 0.17975,-0.04155 0.17297,0 0.28065,0.137355 0.10852,0.137356 0.10852,0.361194 0,0.223838 -0.10852,0.361194 -0.10768,0.137355 -0.28065,0.137355 -0.10429,0 -0.17975,-0.0407 -0.0746,-0.04155 -0.12379,-0.126333 v 0.142443 h -0.15685 v -1.31929 h 0.15685 v 0.513811 z" />
    <path
       style="fill:#0000d9;fill-opacity:1;stroke:#0000ff;stroke-width:0.06975615;stroke-miterlimit:4;stroke-dasharray:none;stroke-opacity:1"
       id="path26834"
       d="m 167.95827,35.191165 h 0.1789 v 0.21536 h -0.1789 z" />
    <path
       style="fill:#0000d9;fill-opacity:1;stroke:#0000ff;stroke-width:0.06975615;stroke-miterlimit:4;stroke-dasharray:none;stroke-opacity:1"
       id="path26836"
       d="M 169.17242,34.493366 V 34.6392 q -0.0661,-0.03646 -0.13311,-0.05426 -0.0661,-0.01865 -0.13397,-0.01865 -0.15177,0 -0.2357,0.09666 -0.0839,0.09581 -0.0839,0.269623 0,0.173814 0.0839,0.270471 0.0839,0.09581 0.2357,0.09581 0.0678,0 0.13397,-0.01781 0.067,-0.01865 0.13311,-0.05511 v 0.144138 q -0.0653,0.03052 -0.13566,0.04579 -0.0695,0.01526 -0.14837,0.01526 -0.21452,0 -0.34085,-0.134812 -0.12633,-0.134811 -0.12633,-0.363737 0,-0.232317 0.12718,-0.365433 0.12803,-0.133116 0.35017,-0.133116 0.0721,0 0.14075,0.01526 0.0687,0.01441 0.13311,0.04409 z" />
    <path
       style="fill:#0000d9;fill-opacity:1;stroke:#0000ff;stroke-width:0.06975615;stroke-miterlimit:4;stroke-dasharray:none;stroke-opacity:1"
       id="path26838"
       d="m 169.81341,34.566283 q -0.12548,0 -0.1984,0.09835 -0.0729,0.09751 -0.0729,0.267928 0,0.170422 0.0721,0.268776 0.0729,0.0975 0.19925,0.0975 0.12464,0 0.19756,-0.09835 0.0729,-0.09835 0.0729,-0.267928 0,-0.168727 -0.0729,-0.26708 -0.0729,-0.0992 -0.19756,-0.0992 z m 0,-0.132268 q 0.20349,0 0.31965,0.132268 0.11616,0.132268 0.11616,0.366281 0,0.233165 -0.11616,0.366281 -0.11616,0.132268 -0.31965,0.132268 -0.20433,0 -0.32049,-0.132268 -0.11531,-0.133116 -0.11531,-0.366281 0,-0.234013 0.11531,-0.366281 0.11616,-0.132268 0.32049,-0.132268 z" />
    <path
       style="fill:#0000d9;fill-opacity:1;stroke:#0000ff;stroke-width:0.06975615;stroke-miterlimit:4;stroke-dasharray:none;stroke-opacity:1"
       id="path26840"
       d="m 171.24632,34.6392 q 0.0585,-0.105136 0.1399,-0.15516 0.0814,-0.05002 0.19162,-0.05002 0.14837,0 0.22892,0.104288 0.0806,0.103441 0.0806,0.29506 v 0.573162 h -0.15686 v -0.568075 q 0,-0.136507 -0.0483,-0.202641 -0.0483,-0.06613 -0.14753,-0.06613 -0.12125,0 -0.19162,0.08055 -0.0704,0.08055 -0.0704,0.219598 v 0.536704 h -0.15685 v -0.568075 q 0,-0.137355 -0.0483,-0.202641 -0.0483,-0.06613 -0.14923,-0.06613 -0.11955,0 -0.18992,0.0814 -0.0704,0.08055 -0.0704,0.218751 v 0.536704 h -0.15686 v -0.949617 h 0.15686 v 0.147529 q 0.0534,-0.08733 0.12802,-0.128876 0.0746,-0.04155 0.17721,-0.04155 0.10344,0 0.17551,0.05257 0.0729,0.05257 0.10768,0.152617 z" />
    <path
       style="fill:#0000d9;fill-opacity:1;stroke:#0000ff;stroke-width:0.06975615;stroke-miterlimit:4;stroke-dasharray:none;stroke-opacity:1"
       id="path26842"
       d="m 172.47658,34.140651 h 0.14414 l -0.44089,1.426969 h -0.14414 z" />
    <path
       style="fill:#0000d9;fill-opacity:1;stroke:#0000ff;stroke-width:0.06975615;stroke-miterlimit:4;stroke-dasharray:none;stroke-opacity:1"
       id="path26844"
       d="m 173.55168,34.182197 v 0.167031 q -0.0975,-0.04663 -0.18399,-0.06953 -0.0865,-0.02289 -0.16703,-0.02289 -0.13989,0 -0.2162,0.05426 -0.0755,0.05426 -0.0755,0.154312 0,0.08394 0.05,0.127181 0.0509,0.04239 0.19162,0.06868 l 0.10344,0.0212 q 0.19162,0.03646 0.28234,0.128876 0.0916,0.09157 0.0916,0.245883 0,0.183989 -0.12379,0.27895 -0.12294,0.09496 -0.36119,0.09496 -0.0899,0 -0.19162,-0.02035 -0.1009,-0.02035 -0.20942,-0.0602 v -0.176357 q 0.10428,0.0585 0.20433,0.08818 0.10005,0.02968 0.19671,0.02968 0.14668,0 0.22638,-0.05766 0.0797,-0.05766 0.0797,-0.164488 0,-0.09327 -0.0577,-0.145834 -0.0568,-0.05257 -0.18738,-0.07885 l -0.10429,-0.02035 q -0.19162,-0.03815 -0.27726,-0.11955 -0.0856,-0.0814 -0.0856,-0.226382 0,-0.167878 0.11785,-0.264536 0.1187,-0.09666 0.32643,-0.09666 0.089,0 0.18145,0.01611 0.0924,0.01611 0.18907,0.04833 z" />
    <path
       style="fill:#0000d9;fill-opacity:1;stroke:#0000ff;stroke-width:0.06975615;stroke-miterlimit:4;stroke-dasharray:none;stroke-opacity:1"
       id="path26846"
       d="m 174.2834,35.494703 q -0.0661,0.169575 -0.12888,0.221295 -0.0627,0.05172 -0.16788,0.05172 h -0.12463 v -0.130572 h 0.0916 q 0.0644,0 0.10004,-0.03052 0.0356,-0.03052 0.0789,-0.144139 l 0.028,-0.07122 -0.38409,-0.934355 h 0.16534 l 0.29675,0.742736 0.29676,-0.742736 h 0.16533 l -0.41715,1.037795 z" />
    <path
       style="fill:#0000d9;fill-opacity:1;stroke:#0000ff;stroke-width:0.06975615;stroke-miterlimit:4;stroke-dasharray:none;stroke-opacity:1"
       id="path26848"
       d="m 175.70528,34.833363 v 0.573162 h -0.15601 V 34.83845 q 0,-0.134811 -0.0526,-0.201793 -0.0526,-0.06698 -0.1577,-0.06698 -0.12633,0 -0.19925,0.08055 -0.0729,0.08055 -0.0729,0.219598 v 0.536704 h -0.15685 v -0.949617 h 0.15685 v 0.147529 q 0.056,-0.08563 0.13142,-0.128028 0.0763,-0.04239 0.17551,-0.04239 0.16364,0 0.24758,0.101745 0.0839,0.100897 0.0839,0.297603 z" />
    <path
       style="fill:#0000d9;fill-opacity:1;stroke:#0000ff;stroke-width:0.06975615;stroke-miterlimit:4;stroke-dasharray:none;stroke-opacity:1"
       id="path26850"
       d="M 176.70153,34.493366 V 34.6392 q -0.0661,-0.03646 -0.13312,-0.05426 -0.0661,-0.01865 -0.13396,-0.01865 -0.15177,0 -0.23571,0.09666 -0.0839,0.09581 -0.0839,0.269623 0,0.173814 0.0839,0.270471 0.0839,0.09581 0.23571,0.09581 0.0678,0 0.13396,-0.01781 0.067,-0.01865 0.13312,-0.05511 v 0.144138 q -0.0653,0.03052 -0.13566,0.04579 -0.0695,0.01526 -0.14838,0.01526 -0.21451,0 -0.34084,-0.134812 -0.12634,-0.134811 -0.12634,-0.363737 0,-0.232317 0.12719,-0.365433 0.12802,-0.133116 0.35017,-0.133116 0.0721,0 0.14074,0.01526 0.0687,0.01441 0.13312,0.04409 z" />
    <path
       style="fill:#0000d9;fill-opacity:1;stroke:#0000ff;stroke-width:0.06975615;stroke-miterlimit:4;stroke-dasharray:none;stroke-opacity:1"
       id="path26852"
       d="m 177.76391,34.833363 v 0.573162 H 177.6079 V 34.83845 q 0,-0.134811 -0.0526,-0.201793 -0.0526,-0.06698 -0.15771,-0.06698 -0.12633,0 -0.19925,0.08055 -0.0729,0.08055 -0.0729,0.219598 v 0.536704 h -0.15686 v -1.31929 h 0.15686 v 0.517202 q 0.056,-0.08563 0.13142,-0.128028 0.0763,-0.04239 0.17551,-0.04239 0.16363,0 0.24757,0.101745 0.0839,0.100897 0.0839,0.297603 z" />
    <path
       style="fill:#0000d9;fill-opacity:1;stroke:#0000ff;stroke-width:0.06975615;stroke-miterlimit:4;stroke-dasharray:none;stroke-opacity:1"
       id="path26854"
       d="m 178.62705,34.602742 q -0.0263,-0.01526 -0.0577,-0.02204 -0.0305,-0.0076 -0.0678,-0.0076 -0.13227,0 -0.20349,0.08648 -0.0704,0.08564 -0.0704,0.246731 v 0.500245 h -0.15686 v -0.949617 h 0.15686 v 0.147529 q 0.0492,-0.08648 0.12803,-0.128028 0.0789,-0.04239 0.19162,-0.04239 0.0161,0 0.0356,0.0025 0.0195,0.0017 0.0432,0.0059 l 8.5e-4,0.160248 z" />
    <path
       style="fill:#0000d9;fill-opacity:1;stroke:#0000ff;stroke-width:0.06975615;stroke-miterlimit:4;stroke-dasharray:none;stroke-opacity:1"
       id="path26856"
       d="m 179.12305,34.566283 q -0.12548,0 -0.1984,0.09835 -0.0729,0.09751 -0.0729,0.267928 0,0.170422 0.0721,0.268776 0.0729,0.0975 0.19925,0.0975 0.12464,0 0.19756,-0.09835 0.0729,-0.09835 0.0729,-0.267928 0,-0.168727 -0.0729,-0.26708 -0.0729,-0.0992 -0.19756,-0.0992 z m 0,-0.132268 q 0.20349,0 0.31965,0.132268 0.11616,0.132268 0.11616,0.366281 0,0.233165 -0.11616,0.366281 -0.11616,0.132268 -0.31965,0.132268 -0.20434,0 -0.32049,-0.132268 -0.11531,-0.133116 -0.11531,-0.366281 0,-0.234013 0.11531,-0.366281 0.11615,-0.132268 0.32049,-0.132268 z" />
    <path
       style="fill:#0000d9;fill-opacity:1;stroke:#0000ff;stroke-width:0.06975615;stroke-miterlimit:4;stroke-dasharray:none;stroke-opacity:1"
       id="path26858"
       d="m 180.60598,34.833363 v 0.573162 h -0.15601 V 34.83845 q 0,-0.134811 -0.0526,-0.201793 -0.0526,-0.06698 -0.1577,-0.06698 -0.12633,0 -0.19925,0.08055 -0.0729,0.08055 -0.0729,0.219598 v 0.536704 h -0.15685 v -0.949617 h 0.15685 v 0.147529 q 0.056,-0.08563 0.13142,-0.128028 0.0763,-0.04239 0.17551,-0.04239 0.16364,0 0.24758,0.101745 0.0839,0.100897 0.0839,0.297603 z" />
    <path
       style="fill:#0000d9;fill-opacity:1;stroke:#0000ff;stroke-width:0.06975615;stroke-miterlimit:4;stroke-dasharray:none;stroke-opacity:1"
       id="path26860"
       d="m 180.91885,34.456908 h 0.156 v 0.949617 h -0.156 z m 0,-0.369673 h 0.156 v 0.197555 h -0.156 z" />
    <path
       style="fill:#0000d9;fill-opacity:1;stroke:#0000ff;stroke-width:0.06975615;stroke-miterlimit:4;stroke-dasharray:none;stroke-opacity:1"
       id="path26862"
       d="m 182.00582,34.484887 v 0.14753 q -0.0661,-0.03391 -0.13736,-0.05087 -0.0712,-0.01696 -0.14753,-0.01696 -0.11615,0 -0.17466,0.03561 -0.0576,0.03561 -0.0576,0.106832 0,0.05426 0.0415,0.08563 0.0416,0.03052 0.16703,0.0585 l 0.0534,0.01187 q 0.16618,0.03561 0.23571,0.100896 0.0704,0.06444 0.0704,0.180597 0,0.132268 -0.10513,0.209425 -0.10429,0.07716 -0.28743,0.07716 -0.0763,0 -0.1594,-0.01526 -0.0822,-0.01441 -0.17382,-0.04409 v -0.161096 q 0.0865,0.04494 0.17042,0.06783 0.0839,0.02205 0.16619,0.02205 0.11022,0 0.16957,-0.03731 0.0594,-0.03815 0.0594,-0.106832 0,-0.06359 -0.0432,-0.0975 -0.0424,-0.03392 -0.18738,-0.06529 l -0.0543,-0.01272 q -0.14499,-0.03052 -0.20943,-0.09327 -0.0644,-0.06359 -0.0644,-0.173814 0,-0.133964 0.095,-0.206881 0.095,-0.07292 0.26962,-0.07292 0.0865,0 0.16279,0.01272 0.0763,0.01272 0.14075,0.03815 z" />
    <path
       style="fill:#0000d9;fill-opacity:1;stroke:#0000ff;stroke-width:0.06975615;stroke-miterlimit:4;stroke-dasharray:none;stroke-opacity:1"
       id="path26864"
       d="m 182.46028,34.187284 v 0.269624 h 0.32134 v 0.121245 h -0.32134 v 0.515507 q 0,0.116158 0.0314,0.149225 0.0322,0.03307 0.12972,0.03307 h 0.16025 v 0.130573 h -0.16025 q -0.18059,0 -0.24927,-0.06698 -0.0687,-0.06783 -0.0687,-0.245883 v -0.515507 h -0.11446 v -0.121245 h 0.11446 v -0.269624 h 0.15686 z" />
    <path
       style="fill:#0000d9;fill-opacity:1;stroke:#0000ff;stroke-width:0.06975615;stroke-miterlimit:4;stroke-dasharray:none;stroke-opacity:1"
       id="path26866"
       d="m 182.98765,34.456908 h 0.15601 v 0.949617 h -0.15601 z m 0,-0.369673 h 0.15601 v 0.197555 h -0.15601 z" />
    <path
       style="fill:#0000d9;fill-opacity:1;stroke:#0000ff;stroke-width:0.06975615;stroke-miterlimit:4;stroke-dasharray:none;stroke-opacity:1"
       id="path26868"
       d="M 184.15263,34.493366 V 34.6392 q -0.0661,-0.03646 -0.13312,-0.05426 -0.0661,-0.01865 -0.13396,-0.01865 -0.15177,0 -0.23571,0.09666 -0.0839,0.09581 -0.0839,0.269623 0,0.173814 0.0839,0.270471 0.0839,0.09581 0.23571,0.09581 0.0678,0 0.13396,-0.01781 0.067,-0.01865 0.13312,-0.05511 v 0.144138 q -0.0653,0.03052 -0.13566,0.04579 -0.0695,0.01526 -0.14838,0.01526 -0.21451,0 -0.34084,-0.134812 -0.12633,-0.134811 -0.12633,-0.363737 0,-0.232317 0.12718,-0.365433 0.12803,-0.133116 0.35017,-0.133116 0.0721,0 0.14074,0.01526 0.0687,0.01441 0.13312,0.04409 z" />
    <path
       style="fill:#0000d9;fill-opacity:1;stroke:#0000ff;stroke-width:0.06975615;stroke-miterlimit:4;stroke-dasharray:none;stroke-opacity:1"
       id="path26870"
       d="m 185.19127,34.182197 v 0.167031 q -0.0975,-0.04663 -0.18398,-0.06953 -0.0865,-0.02289 -0.16703,-0.02289 -0.1399,0 -0.21621,0.05426 -0.0755,0.05426 -0.0755,0.154312 0,0.08394 0.05,0.127181 0.0509,0.04239 0.19162,0.06868 l 0.10344,0.0212 q 0.19162,0.03646 0.28234,0.128876 0.0916,0.09157 0.0916,0.245883 0,0.183989 -0.12379,0.27895 -0.12294,0.09496 -0.36119,0.09496 -0.0899,0 -0.19162,-0.02035 -0.1009,-0.02035 -0.20942,-0.0602 v -0.176357 q 0.10428,0.0585 0.20433,0.08818 0.10005,0.02968 0.19671,0.02968 0.14668,0 0.22638,-0.05766 0.0797,-0.05766 0.0797,-0.164488 0,-0.09327 -0.0577,-0.145834 -0.0568,-0.05257 -0.18738,-0.07885 l -0.10429,-0.02035 q -0.19162,-0.03815 -0.27726,-0.11955 -0.0856,-0.0814 -0.0856,-0.226382 0,-0.167878 0.11785,-0.264536 0.11871,-0.09666 0.32643,-0.09666 0.089,0 0.18145,0.01611 0.0924,0.01611 0.18907,0.04833 z" />
    <path
       style="fill:#0000d9;fill-opacity:1;stroke:#0000ff;stroke-width:0.06975615;stroke-miterlimit:4;stroke-dasharray:none;stroke-opacity:1"
       id="path26872"
       d="m 185.95945,34.929173 q -0.18908,0 -0.262,0.04324 -0.0729,0.04324 -0.0729,0.14753 0,0.08309 0.0543,0.132268 0.0551,0.04833 0.14923,0.04833 0.12972,0 0.20773,-0.09157 0.0788,-0.09242 0.0788,-0.245035 v -0.03476 h -0.15516 z m 0.31117,-0.06444 v 0.541791 h -0.15601 v -0.144139 q -0.0534,0.08648 -0.13312,0.128029 -0.0797,0.0407 -0.19501,0.0407 -0.14583,0 -0.23232,-0.0814 -0.0856,-0.08224 -0.0856,-0.219599 0,-0.160248 0.10683,-0.241643 0.10768,-0.0814 0.3205,-0.0814 h 0.21875 v -0.01526 q 0,-0.10768 -0.0712,-0.166183 -0.0704,-0.05935 -0.19841,-0.05935 -0.0814,0 -0.15855,0.0195 -0.0771,0.0195 -0.14838,0.0585 v -0.144138 q 0.0856,-0.03307 0.16619,-0.04918 0.0805,-0.01696 0.15685,-0.01696 0.20604,0 0.30778,0.106832 0.10175,0.106832 0.10175,0.323887 z" />
    <path
       style="fill:#0000d9;fill-opacity:1;stroke:#0000ff;stroke-width:0.06975615;stroke-miterlimit:4;stroke-dasharray:none;stroke-opacity:1"
       id="path26874"
       d="m 186.48089,34.456908 h 0.16533 l 0.29676,0.797 0.29675,-0.797 h 0.16534 l -0.35611,0.949617 h -0.21197 z" />
    <path
       style="fill:#0000d9;fill-opacity:1;stroke:#0000ff;stroke-width:0.06975615;stroke-miterlimit:4;stroke-dasharray:none;stroke-opacity:1"
       id="path26876"
       d="m 188.05199,34.929173 q -0.18907,0 -0.26199,0.04324 -0.0729,0.04324 -0.0729,0.14753 0,0.08309 0.0543,0.132268 0.0551,0.04833 0.14922,0.04833 0.12973,0 0.20773,-0.09157 0.0789,-0.09242 0.0789,-0.245035 v -0.03476 h -0.15517 z m 0.31117,-0.06444 v 0.541791 h -0.156 v -0.144139 q -0.0534,0.08648 -0.13312,0.128029 -0.0797,0.0407 -0.19501,0.0407 -0.14584,0 -0.23232,-0.0814 -0.0856,-0.08224 -0.0856,-0.219599 0,-0.160248 0.10683,-0.241643 0.10768,-0.0814 0.32049,-0.0814 h 0.21876 v -0.01526 q 0,-0.10768 -0.0712,-0.166183 -0.0704,-0.05935 -0.1984,-0.05935 -0.0814,0 -0.15855,0.0195 -0.0772,0.0195 -0.14838,0.0585 v -0.144138 q 0.0856,-0.03307 0.16619,-0.04918 0.0805,-0.01696 0.15685,-0.01696 0.20603,0 0.30778,0.106832 0.10174,0.106832 0.10174,0.323887 z" />
    <path
       style="fill:#0000d9;fill-opacity:1;stroke:#0000ff;stroke-width:0.06975615;stroke-miterlimit:4;stroke-dasharray:none;stroke-opacity:1"
       id="path26878"
       d="m 189.31024,34.920694 q 0,-0.169575 -0.0704,-0.262841 -0.0695,-0.09327 -0.19585,-0.09327 -0.12549,0 -0.19586,0.09327 -0.0695,0.09327 -0.0695,0.262841 0,0.168726 0.0695,0.261992 0.0704,0.09327 0.19586,0.09327 0.12633,0 0.19585,-0.09327 0.0704,-0.09327 0.0704,-0.261992 z m 0.15601,0.367976 q 0,0.242492 -0.10768,0.360346 -0.10768,0.118702 -0.32983,0.118702 -0.0822,0 -0.15516,-0.01272 -0.0729,-0.01187 -0.14159,-0.03731 v -0.151769 q 0.0687,0.03731 0.13566,0.05511 0.067,0.01781 0.13651,0.01781 0.15346,0 0.22977,-0.08055 0.0763,-0.0797 0.0763,-0.241644 v -0.07716 q -0.0483,0.08394 -0.12379,0.125485 -0.0755,0.04155 -0.1806,0.04155 -0.17466,0 -0.28149,-0.133116 -0.10683,-0.133116 -0.10683,-0.352715 0,-0.220447 0.10683,-0.353563 0.10683,-0.133116 0.28149,-0.133116 0.10514,0 0.1806,0.04155 0.0755,0.04155 0.12379,0.125485 v -0.144138 h 0.15601 v 0.831762 z" />
    <path
       style="fill:#0000d9;fill-opacity:1;stroke:#0000ff;stroke-width:0.06975615;stroke-miterlimit:4;stroke-dasharray:none;stroke-opacity:1"
       id="path26880"
       d="m 190.59985,34.892714 v 0.07631 h -0.7173 q 0.0102,0.161095 0.0967,0.245883 0.0873,0.08394 0.24249,0.08394 0.0899,0 0.17381,-0.02204 0.0848,-0.02204 0.16788,-0.06613 v 0.14753 q -0.0839,0.03561 -0.17212,0.05426 -0.0882,0.01865 -0.1789,0.01865 -0.22723,0 -0.36034,-0.132268 -0.13227,-0.132268 -0.13227,-0.357802 0,-0.233165 0.12549,-0.369673 0.12633,-0.137355 0.33999,-0.137355 0.19162,0 0.30269,0.123789 0.11192,0.122942 0.11192,0.33491 z m -0.15601,-0.04578 q -0.002,-0.128029 -0.0721,-0.204337 -0.0695,-0.07631 -0.18483,-0.07631 -0.13057,0 -0.20943,0.07377 -0.078,0.07377 -0.0899,0.207729 l 0.5562,-8.48e-4 z" />
    <path
       style="fill:#0000d9;fill-opacity:1;stroke:#0000ff;stroke-width:0.06975615;stroke-miterlimit:4;stroke-dasharray:none;stroke-opacity:1"
       id="path26882"
       d="m 191.13316,34.140651 h 0.14414 l -0.44089,1.426969 h -0.14414 z" />
    <path
       style="fill:#0000d9;fill-opacity:1;stroke:#0000ff;stroke-width:0.06975615;stroke-miterlimit:4;stroke-dasharray:none;stroke-opacity:1"
       id="path26884"
       d="m 191.27391,34.140651 h 1.07086 v 0.144139 h -0.44937 v 1.121735 h -0.17212 V 34.28479 h -0.44937 z" />
    <path
       style="fill:#0000d9;fill-opacity:1;stroke:#0000ff;stroke-width:0.06975615;stroke-miterlimit:4;stroke-dasharray:none;stroke-opacity:1"
       id="path26886"
       d="m 192.44991,34.456908 h 0.15601 v 0.949617 h -0.15601 z m 0,-0.369673 h 0.15601 v 0.197555 h -0.15601 z" />
    <path
       style="fill:#0000d9;fill-opacity:1;stroke:#0000ff;stroke-width:0.06975615;stroke-miterlimit:4;stroke-dasharray:none;stroke-opacity:1"
       id="path26888"
       d="m 193.72087,34.833363 v 0.573162 h -0.15601 V 34.83845 q 0,-0.134811 -0.0526,-0.201793 -0.0526,-0.06698 -0.1577,-0.06698 -0.12633,0 -0.19925,0.08055 -0.0729,0.08055 -0.0729,0.219598 v 0.536704 h -0.15685 v -0.949617 h 0.15685 v 0.147529 q 0.056,-0.08563 0.13142,-0.128028 0.0763,-0.04239 0.17551,-0.04239 0.16364,0 0.24758,0.101745 0.0839,0.100897 0.0839,0.297603 z" />
    <path
       style="fill:#0000d9;fill-opacity:1;stroke:#0000ff;stroke-width:0.06975615;stroke-miterlimit:4;stroke-dasharray:none;stroke-opacity:1"
       id="path26890"
       d="m 194.42884,35.494703 q -0.0661,0.169575 -0.12887,0.221295 -0.0627,0.05172 -0.16788,0.05172 h -0.12464 v -0.130572 h 0.0916 q 0.0644,0 0.10005,-0.03052 0.0356,-0.03052 0.0788,-0.144139 l 0.028,-0.07122 -0.38408,-0.934355 h 0.16533 l 0.29676,0.742736 0.29675,-0.742736 h 0.16534 l -0.41716,1.037795 z" />
    <path
       style="fill:#0000d9;fill-opacity:1;stroke:#0000ff;stroke-width:0.06975615;stroke-miterlimit:4;stroke-dasharray:none;stroke-opacity:1"
       id="path26892"
       d="m 194.95198,34.861343 h 0.457 v 0.139051 h -0.457 z" />
    <path
       style="fill:#0000d9;fill-opacity:1;stroke:#0000ff;stroke-width:0.06975615;stroke-miterlimit:4;stroke-dasharray:none;stroke-opacity:1"
       id="path26894"
       d="m 196.26533,34.813014 q 0.0551,0.01865 0.10684,0.0797 0.0526,0.06105 0.10513,0.167879 l 0.17382,0.345932 h -0.18399 l -0.16195,-0.324735 q -0.0627,-0.127181 -0.12209,-0.168727 -0.0585,-0.04155 -0.16025,-0.04155 h -0.18653 v 0.535008 h -0.17127 v -1.265874 h 0.38663 q 0.21706,0 0.32389,0.09072 0.10683,0.09072 0.10683,0.273862 0,0.11955 -0.056,0.198403 -0.0551,0.07885 -0.1611,0.109375 z m -0.42902,-0.531616 v 0.449372 h 0.21536 q 0.12379,0 0.18653,-0.05681 0.0636,-0.05766 0.0636,-0.168727 0,-0.111071 -0.0636,-0.16703 -0.0627,-0.05681 -0.18653,-0.05681 h -0.21536 z" />
    <path
       style="fill:#0000d9;fill-opacity:1;stroke:#0000ff;stroke-width:0.06975615;stroke-miterlimit:4;stroke-dasharray:none;stroke-opacity:1"
       id="path26896"
       d="m 197.25989,34.929173 q -0.18908,0 -0.26199,0.04324 -0.0729,0.04324 -0.0729,0.14753 0,0.08309 0.0543,0.132268 0.0551,0.04833 0.14923,0.04833 0.12972,0 0.20773,-0.09157 0.0789,-0.09242 0.0789,-0.245035 v -0.03476 H 197.26 Z m 0.31117,-0.06444 v 0.541791 h -0.15601 v -0.144139 q -0.0534,0.08648 -0.13312,0.128029 -0.0797,0.0407 -0.19501,0.0407 -0.14583,0 -0.23231,-0.0814 -0.0856,-0.08224 -0.0856,-0.219599 0,-0.160248 0.10683,-0.241643 0.10768,-0.0814 0.3205,-0.0814 h 0.21875 v -0.01526 q 0,-0.10768 -0.0712,-0.166183 -0.0704,-0.05935 -0.1984,-0.05935 -0.0814,0 -0.15856,0.0195 -0.0772,0.0195 -0.14837,0.0585 v -0.144138 q 0.0856,-0.03307 0.16618,-0.04918 0.0805,-0.01696 0.15686,-0.01696 0.20603,0 0.30777,0.106832 0.10175,0.106832 0.10175,0.323887 z" />
    <path
       style="fill:#0000d9;fill-opacity:1;stroke:#0000ff;stroke-width:0.06975615;stroke-miterlimit:4;stroke-dasharray:none;stroke-opacity:1"
       id="path26898"
       d="m 197.89325,34.456908 h 0.15601 v 0.949617 h -0.15601 z m 0,-0.369673 h 0.15601 v 0.197555 h -0.15601 z" />
    <path
       style="fill:#0000d9;fill-opacity:1;stroke:#0000ff;stroke-width:0.06975615;stroke-miterlimit:4;stroke-dasharray:none;stroke-opacity:1"
       id="path26900"
       d="m 199.16421,34.833363 v 0.573162 H 199.0082 V 34.83845 q 0,-0.134811 -0.0526,-0.201793 -0.0526,-0.06698 -0.1577,-0.06698 -0.12633,0 -0.19925,0.08055 -0.0729,0.08055 -0.0729,0.219598 v 0.536704 h -0.15685 v -0.949617 h 0.15685 v 0.147529 q 0.056,-0.08563 0.13142,-0.128028 0.0763,-0.04239 0.17551,-0.04239 0.16364,0 0.24758,0.101745 0.0839,0.100897 0.0839,0.297603 z" />
    <path
       style="fill:#0000d9;fill-opacity:1;stroke:#0000ff;stroke-width:0.06975615;stroke-miterlimit:4;stroke-dasharray:none;stroke-opacity:1"
       id="path26902"
       d="m 200.15876,34.932564 q 0,-0.172118 -0.0712,-0.269623 -0.0704,-0.09835 -0.19416,-0.09835 -0.12379,0 -0.19501,0.09835 -0.0704,0.09751 -0.0704,0.269623 0,0.172118 0.0704,0.270471 0.0712,0.09751 0.19501,0.09751 0.12379,0 0.19416,-0.09751 0.0712,-0.09835 0.0712,-0.270471 z M 199.628,34.601046 q 0.0492,-0.08479 0.12379,-0.125485 0.0755,-0.04155 0.17974,-0.04155 0.17297,0 0.28065,0.137355 0.10853,0.137356 0.10853,0.361194 0,0.223838 -0.10853,0.361194 -0.10768,0.137355 -0.28065,0.137355 -0.10428,0 -0.17974,-0.0407 -0.0746,-0.04155 -0.12379,-0.126333 v 0.142443 h -0.15686 v -1.31929 h 0.15686 v 0.513811 z" />
    <path
       style="fill:#0000d9;fill-opacity:1;stroke:#0000ff;stroke-width:0.06975615;stroke-miterlimit:4;stroke-dasharray:none;stroke-opacity:1"
       id="path26904"
       d="m 200.94729,34.566283 q -0.12549,0 -0.19841,0.09835 -0.0729,0.09751 -0.0729,0.267928 0,0.170422 0.0721,0.268776 0.0729,0.0975 0.19925,0.0975 0.12463,0 0.19755,-0.09835 0.0729,-0.09835 0.0729,-0.267928 0,-0.168727 -0.0729,-0.26708 -0.0729,-0.0992 -0.19755,-0.0992 z m 0,-0.132268 q 0.20349,0 0.31964,0.132268 0.11616,0.132268 0.11616,0.366281 0,0.233165 -0.11616,0.366281 -0.11615,0.132268 -0.31964,0.132268 -0.20434,0 -0.3205,-0.132268 -0.11531,-0.133116 -0.11531,-0.366281 0,-0.234013 0.11531,-0.366281 0.11616,-0.132268 0.3205,-0.132268 z" />
    <path
       style="fill:#0000d9;fill-opacity:1;stroke:#0000ff;stroke-width:0.06975615;stroke-miterlimit:4;stroke-dasharray:none;stroke-opacity:1"
       id="path26906"
       d="m 201.55012,34.456908 h 0.15601 l 0.19501,0.74104 0.19416,-0.74104 h 0.18399 l 0.19501,0.74104 0.19417,-0.74104 h 0.156 l -0.24842,0.949617 h -0.18399 l -0.20434,-0.778347 -0.20518,0.778347 h -0.18399 z" />
    <path
       style="fill:#0000d9;fill-opacity:1;stroke:#0000ff;stroke-width:0.06975615;stroke-miterlimit:4;stroke-dasharray:none;stroke-opacity:1"
       id="path26908"
       d="m 203.66726,34.484887 v 0.14753 q -0.0661,-0.03391 -0.13735,-0.05087 -0.0712,-0.01696 -0.14753,-0.01696 -0.11616,0 -0.17467,0.03561 -0.0576,0.03561 -0.0576,0.106832 0,0.05426 0.0415,0.08563 0.0416,0.03052 0.16704,0.0585 l 0.0534,0.01187 q 0.16618,0.03561 0.23571,0.100896 0.0704,0.06444 0.0704,0.180597 0,0.132268 -0.10513,0.209425 -0.10429,0.07716 -0.28743,0.07716 -0.0763,0 -0.1594,-0.01526 -0.0822,-0.01441 -0.17382,-0.04409 v -0.161096 q 0.0865,0.04494 0.17043,0.06783 0.0839,0.02205 0.16618,0.02205 0.11022,0 0.16957,-0.03731 0.0594,-0.03815 0.0594,-0.106832 0,-0.06359 -0.0432,-0.0975 -0.0424,-0.03392 -0.18738,-0.06529 l -0.0543,-0.01272 q -0.14499,-0.03052 -0.20942,-0.09327 -0.0644,-0.06359 -0.0644,-0.173814 0,-0.133964 0.095,-0.206881 0.095,-0.07292 0.26962,-0.07292 0.0865,0 0.16279,0.01272 0.0763,0.01272 0.14075,0.03815 z" />
  </g>
  <text
     id="text10406"
     y="19.662674"
     x="209.1868"
     style="font-style:normal;font-variant:normal;font-weight:normal;font-stretch:normal;font-size:4.58611134px;line-height:1.25;font-family:Gabriola;-inkscape-font-specification:Gabriola;text-align:center;letter-spacing:0px;word-spacing:0px;text-anchor:middle;fill:#000000;fill-opacity:1;stroke:none;stroke-width:0.26458335;"
     xml:space="preserve"><tspan
       style="stroke-width:0.26458335;font-size:4.58611134px;"
       y="22.229959"
       x="209.1868"
       id="tspan10404" /></text>
  <text
     id="text10410"
     y="16.616129"
     x="209.08458"
     style="font-style:normal;font-variant:normal;font-weight:normal;font-stretch:normal;font-size:7.23077726px;line-height:1.25;font-family:Gabriola;-inkscape-font-specification:Gabriola;text-align:center;letter-spacing:0px;word-spacing:0px;text-anchor:middle;fill:#0000ff;fill-opacity:1;stroke:#0000ff;stroke-width:0.10000001;stroke-miterlimit:4;stroke-dasharray:none;stroke-opacity:1"
     xml:space="preserve"><tspan
       id="tspan10431"
       style="fill:#0000ff;fill-opacity:1;stroke:#0000ff;stroke-width:0.10000001;stroke-miterlimit:4;stroke-dasharray:none;stroke-opacity:1"
       y="16.616129"
       x="209.08458">4</tspan></text>
  <text
     id="text10437"
     y="20.375122"
     x="209.01724"
     style="font-style:normal;font-variant:normal;font-weight:normal;font-stretch:normal;font-size:4.58611155px;line-height:1.25;font-family:Gabriola;-inkscape-font-specification:Gabriola;text-align:center;letter-spacing:0px;word-spacing:0px;text-anchor:middle;fill:#0000ff;fill-opacity:1;stroke:#0000ff;stroke-width:0.10000001;stroke-miterlimit:4;stroke-dasharray:none;stroke-opacity:1"
     xml:space="preserve"><tspan
       style="fill:#0000ff;fill-opacity:1;stroke:#0000ff;stroke-width:0.10000001;stroke-miterlimit:4;stroke-dasharray:none;stroke-opacity:1"
       y="20.375122"
       x="209.01724"
       id="tspan10435">Pixels</tspan></text>
</svg>
