<?xml version="1.0"?>
<!DOCTYPE svg PUBLIC "-//W3C//DTD SVG 1.1//EN" "http://www.w3.org/Graphics/SVG/1.1/DTD/svg11.dtd">
<svg width="55.5084mm" height="18.5186540379mm" viewBox="0 0 55.5084 18.5186540379" xmlns="http://www.w3.org/2000/svg" version="1.1">
<g id="Sketch006" transform="translate(27.754200,7.956128) scale(1,-1)">
<path id="Sketch006_w0000"  d="M -22.21 5.246864983 L -23.46 3.08180147354 L -25.96 3.08180147354 L -27.21 5.246864983 L -25.96 7.41192849246 L -23.46 7.41192849246 L -22.21 5.246864983 " stroke="#000000" stroke-width="0.35 px" style="stroke-width:0.35;stroke-miterlimit:4;stroke-dasharray:none;fill:none;fill-rule: evenodd "/>
<path id="Sketch006_w0001"  d="M -23.46 -5.68819852646 L -22.21 -7.85326203592 L -23.46 -10.0183255454 L -25.96 -10.0183255454 L -27.21 -7.85326203592 L -25.96 -5.68819852646 L -23.46 -5.68819852646 " stroke="#000000" stroke-width="0.35 px" style="stroke-width:0.35;stroke-miterlimit:4;stroke-dasharray:none;fill:none;fill-rule: evenodd "/>
<path id="Sketch006_w0002"  d="M -5.73499999999 5.246864983 L -6.98499999999 3.08180147354 L -9.48499999999 3.08180147354 L -10.735 5.246864983 L -9.48500000001 7.41192849249 L -6.98499999999 7.41192849248 L -5.73499999999 5.246864983 " stroke="#000000" stroke-width="0.35 px" style="stroke-width:0.35;stroke-miterlimit:4;stroke-dasharray:none;fill:none;fill-rule: evenodd "/>
<path id="Sketch006_w0003"  d="M -9.485 -5.68819852646 L -6.985 -5.68819852646 L -5.735 -7.85326203592 L -6.985 -10.0183255454 L -9.485 -10.0183255454 L -10.735 -7.85326203592 L -9.485 -5.68819852646 " stroke="#000000" stroke-width="0.35 px" style="stroke-width:0.35;stroke-miterlimit:4;stroke-dasharray:none;fill:none;fill-rule: evenodd "/>
<path id="Sketch006_w0004"  d="M 10.735 5.246864983 L 9.485 3.08180147354 L 6.985 3.08180147354 L 5.735 5.246864983 L 6.985 7.41192849247 L 9.485 7.41192849247 L 10.735 5.246864983 " stroke="#000000" stroke-width="0.35 px" style="stroke-width:0.35;stroke-miterlimit:4;stroke-dasharray:none;fill:none;fill-rule: evenodd "/>
<path id="Sketch006_w0005"  d="M 9.485 -5.68819852646 L 10.735 -7.85326203592 L 9.485 -10.0183255454 L 6.985 -10.0183255454 L 5.735 -7.85326203592 L 6.985 -5.68819852646 L 9.485 -5.68819852646 " stroke="#000000" stroke-width="0.35 px" style="stroke-width:0.35;stroke-miterlimit:4;stroke-dasharray:none;fill:none;fill-rule: evenodd "/>
<path id="Sketch006_w0006"  d="M 27.21 5.246864983 L 25.96 3.08180147354 L 23.46 3.08180147354 L 22.21 5.246864983 L 23.46 7.41192849246 L 25.96 7.41192849246 L 27.21 5.246864983 " stroke="#000000" stroke-width="0.35 px" style="stroke-width:0.35;stroke-miterlimit:4;stroke-dasharray:none;fill:none;fill-rule: evenodd "/>
<path id="Sketch006_w0007"  d="M 25.96 -5.68819852646 L 27.21 -7.85326203592 L 25.96 -10.0183255454 L 23.46 -10.0183255454 L 22.21 -7.85326203592 L 23.46 -5.68819852646 L 25.96 -5.68819852646 " stroke="#000000" stroke-width="0.35 px" style="stroke-width:0.35;stroke-miterlimit:4;stroke-dasharray:none;fill:none;fill-rule: evenodd "/>
<title>Sketch006</title>
</g>
</svg>