<?xml version="1.0" encoding="UTF-8" standalone="no"?>
<svg
   xmlns:dc="http://purl.org/dc/elements/1.1/"
   xmlns:cc="http://creativecommons.org/ns#"
   xmlns:rdf="http://www.w3.org/1999/02/22-rdf-syntax-ns#"
   xmlns:svg="http://www.w3.org/2000/svg"
   xmlns="http://www.w3.org/2000/svg"
   id="svg49"
   version="1.1"
   viewBox="0 0 245.819890921 49.0785192312"
   height="49.0785192312mm"
   width="245.819890921mm">
  <metadata
     id="metadata55">
    <rdf:RDF>
      <cc:Work
         rdf:about="">
        <dc:format>image/svg+xml</dc:format>
        <dc:type
           rdf:resource="http://purl.org/dc/dcmitype/StillImage" />
        <dc:title></dc:title>
      </cc:Work>
    </rdf:RDF>
  </metadata>
  <defs
     id="defs53" />
  <g
     transform="translate(40.909996,24.168867) scale(1,-1)"
     id="MyLayer">
    <path
       style="stroke-width:0.35;stroke-miterlimit:4;stroke-dasharray:none;fill:none;fill-rule: evenodd "
       stroke-width="0.35 px"
       stroke="#191919"
       d="M -9.8 21.7588682405 C -16.6577080237 20.6829498301 -23.4701663737 18.533930199 -29.2586505875 14.6241912633 C -32.9611031407 12.093343573 -36.293216066 8.68146506417 -37.768761602 4.36440083516 C -39.6262590884 -0.726423131127 -37.7868678809 -6.48388074622 -34.1937169789 -10.3400231536 C -29.8208466587 -15.1927167531 -23.7432983954 -18.1417824595 -17.5751291491 -20.018813009 C -6.1733000151 -23.3437253345 6.2027835701 -23.3415954287 17.602857919 -20.0104902536 C 21.6218526682 -18.8438633768 25.3879070225 -17.1287300096 28.9010209817 -14.8650901519 C 33.9437989248 -11.5764656586 38.499001094 -6.32725421621 38.5 0.0 C 38.5042337646 6.161003909 34.1588306803 11.3290244844 29.2816071594 14.6084899278 C 23.4885839501 18.5283366214 16.666689513 20.6814423691 9.8 21.7588682405 L -9.8 21.7588682405 "
       id="MyLayer_w0000" />
    <path
       style="stroke-width:0.35;stroke-miterlimit:4;stroke-dasharray:none;fill:none;fill-rule: evenodd "
       stroke-width="0.35 px"
       stroke="#191919"
       d="M 33.0 -2.68819852646 L 33.0 0.0818014735402 L -33.0 0.0818014735402 L -33.0 -2.68819852646 L 33.0 -2.68819852646 "
       id="MyLayer_w0001" />
    <circle
       id="circle4"
       style="stroke-width:0.35;stroke-miterlimit:4;stroke-dasharray:none;fill:none"
       stroke-width="0.35 px"
       stroke="#191919"
       r="0.82"
       cy="-18.0"
       cx="0.0" />
    <path
       style="stroke-width:0.35;stroke-miterlimit:4;stroke-dasharray:none;fill:none;fill-rule: evenodd "
       stroke-width="0.35 px"
       stroke="#191919"
       d="M 9.485 7.41192849247 L 10.735 5.246864983 L 9.485 3.08180147354 L 6.985 3.08180147354 L 5.735 5.246864983 L 6.985 7.41192849247 L 9.485 7.41192849247 "
       id="MyLayer_w0003" />
    <path
       style="stroke-width:0.35;stroke-miterlimit:4;stroke-dasharray:none;fill:none;fill-rule: evenodd "
       stroke-width="0.35 px"
       stroke="#191919"
       d="M -9.485 -10.0183255454 L -10.735 -7.85326203592 L -9.485 -5.68819852646 L -6.985 -5.68819852646 L -5.735 -7.85326203592 L -6.985 -10.0183255454 L -9.485 -10.0183255454 "
       id="MyLayer_w0004" />
    <path
       style="stroke-width:0.35;stroke-miterlimit:4;stroke-dasharray:none;fill:none;fill-rule: evenodd "
       stroke-width="0.35 px"
       stroke="#191919"
       d="M -25.96 -10.0183255454 L -27.21 -7.85326203592 L -25.96 -5.68819852646 L -23.46 -5.68819852646 L -22.21 -7.85326203592 L -23.46 -10.0183255454 L -25.96 -10.0183255454 "
       id="MyLayer_w0005" />
    <circle
       id="circle9"
       style="stroke-width:0.35;stroke-miterlimit:4;stroke-dasharray:none;fill:none"
       stroke-width="0.35 px"
       stroke="#191919"
       r="0.82"
       cy="16.0"
       cx="14.0" />
    <path
       style="stroke-width:0.35;stroke-miterlimit:4;stroke-dasharray:none;fill:none;fill-rule: evenodd "
       stroke-width="0.35 px"
       stroke="#191919"
       d="M -23.46 7.41192849246 L -22.21 5.246864983 L -23.46 3.08180147354 L -25.96 3.08180147354 L -27.21 5.246864983 L -25.96 7.41192849246 L -23.46 7.41192849246 "
       id="MyLayer_w0007" />
    <path
       style="stroke-width:0.35;stroke-miterlimit:4;stroke-dasharray:none;fill:none;fill-rule: evenodd "
       stroke-width="0.35 px"
       stroke="#191919"
       d="M 25.96 7.41192849246 L 27.21 5.246864983 L 25.96 3.08180147354 L 23.46 3.08180147354 L 22.21 5.246864983 L 23.46 7.41192849246 L 25.96 7.41192849246 "
       id="MyLayer_w0008" />
    <path
       style="stroke-width:0.35;stroke-miterlimit:4;stroke-dasharray:none;fill:none;fill-rule: evenodd "
       stroke-width="0.35 px"
       stroke="#191919"
       d="M -9.48499999999 3.08180147354 L -10.735 5.246864983 L -9.48500000001 7.41192849249 L -6.98499999999 7.41192849248 L -5.73499999999 5.246864983 L -6.98499999999 3.08180147354 L -9.48499999999 3.08180147354 "
       id="MyLayer_w0009" />
    <path
       style="stroke-width:0.35;stroke-miterlimit:4;stroke-dasharray:none;fill:none;fill-rule: evenodd "
       stroke-width="0.35 px"
       stroke="#191919"
       d="M 6.985 -10.0183255454 L 5.735 -7.85326203592 L 6.985 -5.68819852646 L 9.485 -5.68819852646 L 10.735 -7.85326203592 L 9.485 -10.0183255454 L 6.985 -10.0183255454 "
       id="MyLayer_w0010" />
    <circle
       id="circle15"
       style="stroke-width:0.35;stroke-miterlimit:4;stroke-dasharray:none;fill:none"
       stroke-width="0.35 px"
       stroke="#191919"
       r="0.82"
       cy="16.0"
       cx="-14.0" />
    <path
       style="stroke-width:0.35;stroke-miterlimit:4;stroke-dasharray:none;fill:none;fill-rule: evenodd "
       stroke-width="0.35 px"
       stroke="#191919"
       d="M 23.46 -10.0183255454 L 22.21 -7.85326203592 L 23.46 -5.68819852646 L 25.96 -5.68819852646 L 27.21 -7.85326203592 L 25.96 -10.0183255454 L 23.46 -10.0183255454 "
       id="MyLayer_w0012" />
    <title
       id="title18">MyLayer</title>
  </g>
  <g
     transform="translate(40.909996,24.168867) scale(1,-1)"
     id="MyLayer002">
    <path
       style="stroke-width:0.35;stroke-miterlimit:4;stroke-dasharray:none;fill:none;fill-rule: evenodd "
       stroke-width="0.35 px"
       stroke="#191919"
       d="M 154.199895844 21.7588682405 L 173.799895844 21.7588682405 C 180.666585357 20.6814423691 187.488479794 18.5283366214 193.281503004 14.6084899278 C 198.158726524 11.3290244844 202.504129609 6.16100390901 202.499895844 -3.5527136788e-15 C 202.498896938 -6.32725421619 197.943694769 -11.5764656586 192.900916826 -14.8650901519 C 189.387802867 -17.1287300096 185.621748512 -18.8438633768 181.602753763 -20.0104902536 C 170.151922848 -23.355299305 157.71557936 -23.3457854576 146.272337808 -19.9728562823 C 140.123176638 -18.0812310634 134.065753465 -15.1173346315 129.727696252 -10.2508948273 C 126.537856759 -6.73389666108 124.679447903 -1.74377972401 125.839094519 2.98013226314 C 126.984335651 7.91814265485 130.655600129 11.8393832431 134.741245257 14.6241912632 C 140.52972947 18.533930199 147.342187821 20.6829498301 154.199895844 21.7588682405 "
       id="MyLayer002_w0000" />
    <path
       style="stroke-width:0.35;stroke-miterlimit:4;stroke-dasharray:none;fill:none;fill-rule: evenodd "
       stroke-width="0.35 px"
       stroke="#191919"
       d="M 173.484895844 7.41192849247 L 174.734895844 5.246864983 L 173.484895844 3.08180147354 L 170.984895844 3.08180147354 L 169.734895844 5.246864983 L 170.984895844 7.41192849247 L 173.484895844 7.41192849247 "
       id="MyLayer002_w0001" />
    <path
       style="stroke-width:0.35;stroke-miterlimit:4;stroke-dasharray:none;fill:none;fill-rule: evenodd "
       stroke-width="0.35 px"
       stroke="#191919"
       d="M 189.959895844 7.41192849246 L 191.209895844 5.246864983 L 189.959895844 3.08180147354 L 187.459895844 3.08180147354 L 186.209895844 5.246864983 L 187.459895844 7.41192849246 L 189.959895844 7.41192849246 "
       id="MyLayer002_w0002" />
    <circle
       id="circle24"
       style="stroke-width:0.35;stroke-miterlimit:4;stroke-dasharray:none;fill:none"
       stroke-width="0.35 px"
       stroke="#191919"
       r="0.82"
       cy="16.0"
       cx="149.999895844" />
    <path
       style="stroke-width:0.35;stroke-miterlimit:4;stroke-dasharray:none;fill:none;fill-rule: evenodd "
       stroke-width="0.35 px"
       stroke="#191919"
       d="M 154.514895844 3.08180147354 L 153.264895844 5.246864983 L 154.514895844 7.41192849249 L 157.014895844 7.41192849248 L 158.264895844 5.246864983 L 157.014895844 3.08180147354 L 154.514895844 3.08180147354 "
       id="MyLayer002_w0004" />
    <path
       style="stroke-width:0.35;stroke-miterlimit:4;stroke-dasharray:none;fill:none;fill-rule: evenodd "
       stroke-width="0.35 px"
       stroke="#191919"
       d="M 140.539895844 7.41192849246 L 141.789895844 5.246864983 L 140.539895844 3.08180147354 L 138.039895844 3.08180147354 L 136.789895844 5.246864983 L 138.039895844 7.41192849246 L 140.539895844 7.41192849246 "
       id="MyLayer002_w0005" />
    <path
       style="stroke-width:0.35;stroke-miterlimit:4;stroke-dasharray:none;fill:none;fill-rule: evenodd "
       stroke-width="0.35 px"
       stroke="#191919"
       d="M 170.984895844 -10.0183255454 L 169.734895844 -7.85326203592 L 170.984895844 -5.68819852646 L 173.484895844 -5.68819852646 L 174.734895844 -7.85326203592 L 173.484895844 -10.0183255454 L 170.984895844 -10.0183255454 "
       id="MyLayer002_w0006" />
    <path
       style="stroke-width:0.35;stroke-miterlimit:4;stroke-dasharray:none;fill:none;fill-rule: evenodd "
       stroke-width="0.35 px"
       stroke="#191919"
       d="M 138.039895844 -10.0183255454 L 136.789895844 -7.85326203592 L 138.039895844 -5.68819852646 L 140.539895844 -5.68819852646 L 141.789895844 -7.85326203592 L 140.539895844 -10.0183255454 L 138.039895844 -10.0183255454 "
       id="MyLayer002_w0007" />
    <path
       style="stroke-width:0.35;stroke-miterlimit:4;stroke-dasharray:none;fill:none;fill-rule: evenodd "
       stroke-width="0.35 px"
       stroke="#191919"
       d="M 154.514895844 -10.0183255454 L 153.264895844 -7.85326203592 L 154.514895844 -5.68819852646 L 157.014895844 -5.68819852646 L 158.264895844 -7.85326203592 L 157.014895844 -10.0183255454 L 154.514895844 -10.0183255454 "
       id="MyLayer002_w0008" />
    <circle
       id="circle31"
       style="stroke-width:0.35;stroke-miterlimit:4;stroke-dasharray:none;fill:none"
       stroke-width="0.35 px"
       stroke="#191919"
       r="0.82"
       cy="16.0"
       cx="177.999895844" />
    <path
       style="stroke-width:0.35;stroke-miterlimit:4;stroke-dasharray:none;fill:none;fill-rule: evenodd "
       stroke-width="0.35 px"
       stroke="#191919"
       d="M 187.459895844 -10.0183255454 L 186.209895844 -7.85326203592 L 187.459895844 -5.68819852646 L 189.959895844 -5.68819852646 L 191.209895844 -7.85326203592 L 189.959895844 -10.0183255454 L 187.459895844 -10.0183255454 "
       id="MyLayer002_w0010" />
    <circle
       id="circle34"
       style="stroke-width:0.35;stroke-miterlimit:4;stroke-dasharray:none;fill:none"
       stroke-width="0.35 px"
       stroke="#191919"
       r="0.82"
       cy="-18.0"
       cx="163.999895844" />
    <title
       id="title36">MyLayer002</title>
  </g>
  <g
     transform="translate(40.909996,24.168867) scale(1,-1)"
     id="MyLayer001">
    <path
       style="fill:none;fill-rule:evenodd;stroke:#191919;stroke-width:0.34999999;stroke-miterlimit:4;stroke-dasharray:none"
       d="m 72.199948,21.758868 h 0.25 V 7.2993452 l -1.185,-2.0524802 0.89493,-1.5500635 -11.392942,0 -0.976988,1.5500635 -1.25,2.1650635 h -2.5 l -1.25,-2.1650635 -0.976988,-1.5500635 -4.813012,0 v -10 h 4.746158 l 1.043842,-1.5500635 1.25,-2.165064 h 2.5 l 1.25,2.165064 1.043842,1.5500635 h 9.587878 l 0.84328,-1.5500635 1.25,-2.165064 h 2.5 l 1.25,2.165064 0.84328,1.5500635 h 9.78344 l 0.84328,-1.5500635 1.25,-2.165064 h 2.5 l 1.25,2.165064 0.84328,1.5500635 h 9.587882 l 1.04384,-1.5500635 1.25,-2.165064 h 2.5 l 1.25,2.165064 0.97699,1.5500635 h 4.81301 v 10 h -4.87987 l -0.91013,1.5500635 -1.25,2.1650635 h -2.5 l -1.25,-2.1650635 -1.04384,-1.5500635 H 91.840018 l 0.89493,1.5500635 -1.185,2.0524802 V 21.758868 h 0.25 C 98.666637,20.681442 105.48853,18.528337 111.28156,14.60849 116.15878,11.329024 120.50418,6.1610039 120.49995,0 c -0.001,-6.3272542 -4.5562,-11.576466 -9.59898,-14.86509 -3.51312,-2.26364 -7.27917,-3.978773 -11.298164,-5.1454 -11.450831,-3.344809 -23.887175,-3.335295 -35.330416,0.03763 -6.149161,1.891625 -12.206584,4.855521 -16.544642,9.721961 -3.189839,3.5169983 -5.048248,8.5071153 -3.888601,13.2310273 1.145241,4.9380104 4.816505,8.8592507 8.90215,11.6440587 5.788485,3.909739 12.600943,6.058759 19.458651,7.134677"
       id="MyLayer001_w0000" />
    <circle
       id="circle40"
       style="stroke-width:0.35;stroke-miterlimit:4;stroke-dasharray:none;fill:none"
       stroke-width="0.35 px"
       stroke="#191919"
       r="0.82"
       cy="16.0"
       cx="95.9999479221" />
    <circle
       id="circle42"
       style="stroke-width:0.35;stroke-miterlimit:4;stroke-dasharray:none;fill:none"
       stroke-width="0.35 px"
       stroke="#191919"
       r="0.82"
       cy="16.0"
       cx="67.9999479221" />
    <circle
       id="circle44"
       style="stroke-width:0.35;stroke-miterlimit:4;stroke-dasharray:none;fill:none"
       stroke-width="0.35 px"
       stroke="#191919"
       r="0.82"
       cy="-18.0"
       cx="81.9999479221" />
    <title
       id="title46">MyLayer001</title>
  </g>
</svg>
