<?xml version="1.0"?>
<!DOCTYPE svg PUBLIC "-//W3C//DTD SVG 1.1//EN" "http://www.w3.org/Graphics/SVG/1.1/DTD/svg11.dtd">
<svg width="245.819890921mm" height="49.0785192312mm" viewBox="0 0 245.819890921 49.0785192312" xmlns="http://www.w3.org/2000/svg" version="1.1">
<g id="MyLayer" transform="translate(40.909996,24.168867) scale(1,-1)">
<path id="MyLayer_w0000"  d="M -9.8 21.7588682405 C -16.6577080237 20.6829498301 -23.4701663737 18.533930199 -29.2586505875 14.6241912633 C -32.9611031407 12.093343573 -36.293216066 8.68146506417 -37.768761602 4.36440083516 C -39.6262590884 -0.726423131127 -37.7868678809 -6.48388074622 -34.1937169789 -10.3400231536 C -29.8208466587 -15.1927167531 -23.7432983954 -18.1417824595 -17.5751291491 -20.018813009 C -6.1733000151 -23.3437253345 6.2027835701 -23.3415954287 17.602857919 -20.0104902536 C 21.6218526682 -18.8438633768 25.3879070225 -17.1287300096 28.9010209817 -14.8650901519 C 33.9437989248 -11.5764656586 38.499001094 -6.32725421621 38.5 0.0 C 38.5042337646 6.161003909 34.1588306803 11.3290244844 29.2816071594 14.6084899278 C 23.4885839501 18.5283366214 16.666689513 20.6814423691 9.8 21.7588682405 L -9.8 21.7588682405 " stroke="#191919" stroke-width="0.35 px" style="stroke-width:0.35;stroke-miterlimit:4;stroke-dasharray:none;fill:none;fill-rule: evenodd "/>
<path d="M 15.37 14.6968014736 L 15.37 14.6968014736 " stroke="#191919" stroke-width="0.35 px" style="stroke-width:0.35;stroke-miterlimit:4;stroke-dasharray:none;fill:none"/>
<path d="M -13.73 14.6968014736 L -13.73 14.6968014736 " stroke="#191919" stroke-width="0.35 px" style="stroke-width:0.35;stroke-miterlimit:4;stroke-dasharray:none;fill:none"/>
<path id="MyLayer_w0003"  d="M 33.0 -2.68819852646 L 33.0 0.0818014735402 L -33.0 0.0818014735402 L -33.0 -2.68819852646 L 33.0 -2.68819852646 " stroke="#191919" stroke-width="0.35 px" style="stroke-width:0.35;stroke-miterlimit:4;stroke-dasharray:none;fill:none;fill-rule: evenodd "/>
<path d="M 0.82 -17.0 L 0.82 -17.0 " stroke="#191919" stroke-width="0.35 px" style="stroke-width:0.35;stroke-miterlimit:4;stroke-dasharray:none;fill:none"/>
<title>MyLayer</title>
</g>
<g id="MyLayer002" transform="translate(40.909996,24.168867) scale(1,-1)">
<path id="MyLayer002_w0000"  d="M 154.199895844 21.7588682405 L 173.799895844 21.7588682405 C 180.666585357 20.6814423692 187.488479794 18.5283366214 193.281503004 14.6084899278 C 198.158726524 11.3290244844 202.504129609 6.161003909 202.499895844 -5.3290705182e-15 C 202.498896938 -6.32725421623 197.943694769 -11.5764656586 192.900916826 -14.8650901519 C 189.387802867 -17.1287300096 185.621748512 -18.8438633768 181.602753763 -20.0104902536 C 170.151922848 -23.355299305 157.71557936 -23.3457854576 146.272337808 -19.9728562823 C 140.123176638 -18.0812310634 134.065753465 -15.1173346315 129.727696252 -10.2508948273 C 126.537856759 -6.73389666108 124.679447903 -1.74377972401 125.839094519 2.98013226314 C 126.984335651 7.91814265485 130.655600129 11.8393832431 134.741245257 14.6241912632 C 140.52972947 18.533930199 147.342187821 20.6829498301 154.199895844 21.7588682405 " stroke="#191919" stroke-width="0.35 px" style="stroke-width:0.35;stroke-miterlimit:4;stroke-dasharray:none;fill:none;fill-rule: evenodd "/>
<path d="M 164.819895844 -17.0 L 164.819895844 -17.0 " stroke="#191919" stroke-width="0.35 px" style="stroke-width:0.35;stroke-miterlimit:4;stroke-dasharray:none;fill:none"/>
<path d="M 179.369895844 14.6968014736 L 179.369895844 14.6968014736 " stroke="#191919" stroke-width="0.35 px" style="stroke-width:0.35;stroke-miterlimit:4;stroke-dasharray:none;fill:none"/>
<path d="M 150.269895844 14.6968014736 L 150.269895844 14.6968014736 " stroke="#191919" stroke-width="0.35 px" style="stroke-width:0.35;stroke-miterlimit:4;stroke-dasharray:none;fill:none"/>
<title>MyLayer002</title>
</g>
<g id="MyLayer001" transform="translate(40.909996,24.168867) scale(1,-1)">
<path id="MyLayer001_w0000"  d="M 72.1999479221 21.7588682405 L 72.4499479221 21.7588682405 L 72.4499479221 3.69680147356 L 48.9999479221 3.69680147356 L 48.9999479221 -6.30319852644 L 114.999947922 -6.30319852644 L 114.999947922 3.69680147356 L 91.5499479221 3.69680147356 L 91.5499479221 21.7588682405 L 91.7999479221 21.7588682405 C 98.6666374351 20.6814423691 105.488531872 18.5283366214 111.281555081 14.6084899278 C 116.158778602 11.3290244844 120.504181687 6.16100390899 120.499947922 -7.1054273576e-15 C 120.498949016 -6.3272542162 115.943746847 -11.5764656586 110.900968904 -14.8650901519 C 107.387854945 -17.1287300096 103.62180059 -18.8438633768 99.6028058411 -20.0104902536 C 88.1519749259 -23.355299305 75.7156314379 -23.3457854576 64.2723898856 -19.9728562823 C 58.1232287161 -18.0812310634 52.0658055434 -15.1173346315 47.7277483298 -10.2508948273 C 44.5379088368 -6.73389666109 42.6794999812 -1.74377972402 43.8391465967 2.98013226314 C 44.9843877284 7.91814265484 48.6556522073 11.8393832431 52.7412973346 14.6241912632 C 58.5297815484 18.533930199 65.3422398984 20.6829498301 72.1999479221 21.7588682405 " stroke="#191919" stroke-width="0.35 px" style="stroke-width:0.35;stroke-miterlimit:4;stroke-dasharray:none;fill:none;fill-rule: evenodd "/>
<path d="M 82.8199479221 -17.0 L 82.8199479221 -17.0 " stroke="#191919" stroke-width="0.35 px" style="stroke-width:0.35;stroke-miterlimit:4;stroke-dasharray:none;fill:none"/>
<path d="M 97.3699479221 14.6968014736 L 97.3699479221 14.6968014736 " stroke="#191919" stroke-width="0.35 px" style="stroke-width:0.35;stroke-miterlimit:4;stroke-dasharray:none;fill:none"/>
<path d="M 68.2699479221 14.6968014736 L 68.2699479221 14.6968014736 " stroke="#191919" stroke-width="0.35 px" style="stroke-width:0.35;stroke-miterlimit:4;stroke-dasharray:none;fill:none"/>
<title>MyLayer001</title>
</g>
</svg>