<?xml version="1.0" encoding="UTF-8" standalone="no"?>
<svg
   xmlns:dc="http://purl.org/dc/elements/1.1/"
   xmlns:cc="http://creativecommons.org/ns#"
   xmlns:rdf="http://www.w3.org/1999/02/22-rdf-syntax-ns#"
   xmlns:svg="http://www.w3.org/2000/svg"
   xmlns="http://www.w3.org/2000/svg"
   id="svg49"
   version="1.1"
   viewBox="0 0 245.819890921 49.0785192312"
   height="49.0785192312mm"
   width="245.819890921mm">
  <metadata
     id="metadata55">
    <rdf:RDF>
      <cc:Work
         rdf:about="">
        <dc:format>image/svg+xml</dc:format>
        <dc:type
           rdf:resource="http://purl.org/dc/dcmitype/StillImage" />
        <dc:title></dc:title>
      </cc:Work>
    </rdf:RDF>
  </metadata>
  <defs
     id="defs53" />
  <g
     transform="translate(40.909996,24.168867) scale(1,-1)"
     id="MyLayer">
    <path
       style="stroke-width:0.35;stroke-miterlimit:4;stroke-dasharray:none;fill:none;fill-rule: evenodd "
       stroke-width="0.35 px"
       stroke="#191919"
       d="M -9.8 21.7588682405 C -16.6577080237 20.6829498301 -23.4701663737 18.533930199 -29.2586505875 14.6241912633 C -32.9611031407 12.093343573 -36.293216066 8.68146506417 -37.768761602 4.36440083516 C -39.6262590884 -0.726423131127 -37.7868678809 -6.48388074622 -34.1937169789 -10.3400231536 C -29.8208466587 -15.1927167531 -23.7432983954 -18.1417824595 -17.5751291491 -20.018813009 C -6.1733000151 -23.3437253345 6.2027835701 -23.3415954287 17.602857919 -20.0104902536 C 21.6218526682 -18.8438633768 25.3879070225 -17.1287300096 28.9010209817 -14.8650901519 C 33.9437989248 -11.5764656586 38.499001094 -6.32725421621 38.5 0.0 C 38.5042337646 6.161003909 34.1588306803 11.3290244844 29.2816071594 14.6084899278 C 23.4885839501 18.5283366214 16.666689513 20.6814423691 9.8 21.7588682405 L -9.8 21.7588682405 "
       id="MyLayer_w0000" />
    <path
       style="stroke-width:0.35;stroke-miterlimit:4;stroke-dasharray:none;fill:none;fill-rule: evenodd "
       stroke-width="0.35 px"
       stroke="#191919"
       d="M 33.0 -2.68819852646 L 33.0 0.0818014735402 L -33.0 0.0818014735402 L -33.0 -2.68819852646 L 33.0 -2.68819852646 "
       id="MyLayer_w0001" />
    <circle
       id="circle4"
       style="stroke-width:0.35;stroke-miterlimit:4;stroke-dasharray:none;fill:none"
       stroke-width="0.35 px"
       stroke="#191919"
       r="0.82"
       cy="-18.0"
       cx="0.0" />
    <path
       style="stroke-width:0.35;stroke-miterlimit:4;stroke-dasharray:none;fill:none;fill-rule: evenodd "
       stroke-width="0.35 px"
       stroke="#191919"
       d="M 9.485 7.41192849247 L 10.735 5.246864983 L 9.485 3.08180147354 L 6.985 3.08180147354 L 5.735 5.246864983 L 6.985 7.41192849247 L 9.485 7.41192849247 "
       id="MyLayer_w0003" />
    <path
       style="stroke-width:0.35;stroke-miterlimit:4;stroke-dasharray:none;fill:none;fill-rule: evenodd "
       stroke-width="0.35 px"
       stroke="#191919"
       d="M -9.485 -10.0183255454 L -10.735 -7.85326203592 L -9.485 -5.68819852646 L -6.985 -5.68819852646 L -5.735 -7.85326203592 L -6.985 -10.0183255454 L -9.485 -10.0183255454 "
       id="MyLayer_w0004" />
    <path
       style="stroke-width:0.35;stroke-miterlimit:4;stroke-dasharray:none;fill:none;fill-rule: evenodd "
       stroke-width="0.35 px"
       stroke="#191919"
       d="M -25.96 -10.0183255454 L -27.21 -7.85326203592 L -25.96 -5.68819852646 L -23.46 -5.68819852646 L -22.21 -7.85326203592 L -23.46 -10.0183255454 L -25.96 -10.0183255454 "
       id="MyLayer_w0005" />
    <circle
       id="circle9"
       style="stroke-width:0.35;stroke-miterlimit:4;stroke-dasharray:none;fill:none"
       stroke-width="0.35 px"
       stroke="#191919"
       r="0.82"
       cy="16.0"
       cx="14.0" />
    <path
       style="stroke-width:0.35;stroke-miterlimit:4;stroke-dasharray:none;fill:none;fill-rule: evenodd "
       stroke-width="0.35 px"
       stroke="#191919"
       d="M -23.46 7.41192849246 L -22.21 5.246864983 L -23.46 3.08180147354 L -25.96 3.08180147354 L -27.21 5.246864983 L -25.96 7.41192849246 L -23.46 7.41192849246 "
       id="MyLayer_w0007" />
    <path
       style="stroke-width:0.35;stroke-miterlimit:4;stroke-dasharray:none;fill:none;fill-rule: evenodd "
       stroke-width="0.35 px"
       stroke="#191919"
       d="M 25.96 7.41192849246 L 27.21 5.246864983 L 25.96 3.08180147354 L 23.46 3.08180147354 L 22.21 5.246864983 L 23.46 7.41192849246 L 25.96 7.41192849246 "
       id="MyLayer_w0008" />
    <path
       style="stroke-width:0.35;stroke-miterlimit:4;stroke-dasharray:none;fill:none;fill-rule: evenodd "
       stroke-width="0.35 px"
       stroke="#191919"
       d="M -9.48499999999 3.08180147354 L -10.735 5.246864983 L -9.48500000001 7.41192849249 L -6.98499999999 7.41192849248 L -5.73499999999 5.246864983 L -6.98499999999 3.08180147354 L -9.48499999999 3.08180147354 "
       id="MyLayer_w0009" />
    <path
       style="stroke-width:0.35;stroke-miterlimit:4;stroke-dasharray:none;fill:none;fill-rule: evenodd "
       stroke-width="0.35 px"
       stroke="#191919"
       d="M 6.985 -10.0183255454 L 5.735 -7.85326203592 L 6.985 -5.68819852646 L 9.485 -5.68819852646 L 10.735 -7.85326203592 L 9.485 -10.0183255454 L 6.985 -10.0183255454 "
       id="MyLayer_w0010" />
    <circle
       id="circle15"
       style="stroke-width:0.35;stroke-miterlimit:4;stroke-dasharray:none;fill:none"
       stroke-width="0.35 px"
       stroke="#191919"
       r="0.82"
       cy="16.0"
       cx="-14.0" />
    <path
       style="stroke-width:0.35;stroke-miterlimit:4;stroke-dasharray:none;fill:none;fill-rule: evenodd "
       stroke-width="0.35 px"
       stroke="#191919"
       d="M 23.46 -10.0183255454 L 22.21 -7.85326203592 L 23.46 -5.68819852646 L 25.96 -5.68819852646 L 27.21 -7.85326203592 L 25.96 -10.0183255454 L 23.46 -10.0183255454 "
       id="MyLayer_w0012" />
    <title
       id="title18">MyLayer</title>
  </g>
  <g
     transform="matrix(1,0,0,-1,-212.53854,26.44181)"
     id="MyLayer002">
    <path
       style="fill:none;fill-rule:evenodd;stroke:#191919;stroke-width:0.34999999;stroke-miterlimit:4;stroke-dasharray:none"
       d="m 154.1999,21.758868 h 19.6 c 6.86669,-1.077426 13.68858,-3.230531 19.4816,-7.150378 4.87723,-3.279466 9.22263,-8.4474861 9.2184,-14.60849 -0.001,-6.3272542 -4.55621,-11.576466 -9.59898,-14.86509 -3.51312,-2.26364 -7.27917,-3.978773 -11.29817,-5.1454 -11.45083,-3.344809 -23.88717,-3.335295 -35.33041,0.03763 -6.14916,1.891625 -12.20659,4.855521 -16.54464,9.721961 -3.18984,3.5169983 -5.04825,8.5071153 -3.88861,13.2310273 1.14525,4.9380104 4.81651,8.8592507 8.90216,11.6440587 5.78848,3.909739 12.60094,6.058759 19.45865,7.134677"
       id="MyLayer002_w0000" />
    <path
       style="fill:none;fill-rule:evenodd;stroke:#191919;stroke-width:0.34999999;stroke-miterlimit:4;stroke-dasharray:none"
       d="m 173.4849,7.4119285 1.25,-2.1650635 -1.25,-2.1650635 h -2.5 l -1.25,2.1650635 1.25,2.1650635 h 2.5"
       id="MyLayer002_w0001" />
    <path
       style="fill:none;fill-rule:evenodd;stroke:#191919;stroke-width:0.34999999;stroke-miterlimit:4;stroke-dasharray:none"
       d="m 189.9599,7.4119285 1.25,-2.1650635 -1.25,-2.1650635 h -2.5 l -1.25,2.1650635 1.25,2.1650635 h 2.5"
       id="MyLayer002_w0002" />
    <circle
       id="circle24"
       style="fill:none;stroke:#191919;stroke-width:0.34999999;stroke-miterlimit:4;stroke-dasharray:none"
       r="0.81999999"
       cy="16"
       cx="149.99989" />
    <path
       style="fill:none;fill-rule:evenodd;stroke:#191919;stroke-width:0.34999999;stroke-miterlimit:4;stroke-dasharray:none"
       d="m 154.5149,3.0818015 -1.25,2.1650635 1.25,2.1650635 h 2.5 l 1.25,-2.1650635 -1.25,-2.1650635 h -2.5"
       id="MyLayer002_w0004" />
    <path
       style="fill:none;fill-rule:evenodd;stroke:#191919;stroke-width:0.34999999;stroke-miterlimit:4;stroke-dasharray:none"
       d="m 140.5399,7.4119285 1.25,-2.1650635 -1.25,-2.1650635 h -2.5 l -1.25,2.1650635 1.25,2.1650635 h 2.5"
       id="MyLayer002_w0005" />
    <path
       style="fill:none;fill-rule:evenodd;stroke:#191919;stroke-width:0.34999999;stroke-miterlimit:4;stroke-dasharray:none"
       d="m 170.9849,-10.018326 -1.25,2.165064 1.25,2.1650635 h 2.5 l 1.25,-2.1650635 -1.25,-2.165064 h -2.5"
       id="MyLayer002_w0006" />
    <path
       style="fill:none;fill-rule:evenodd;stroke:#191919;stroke-width:0.34999999;stroke-miterlimit:4;stroke-dasharray:none"
       d="m 138.0399,-10.018326 -1.25,2.165064 1.25,2.1650635 h 2.5 l 1.25,-2.1650635 -1.25,-2.165064 h -2.5"
       id="MyLayer002_w0007" />
    <path
       style="fill:none;fill-rule:evenodd;stroke:#191919;stroke-width:0.34999999;stroke-miterlimit:4;stroke-dasharray:none"
       d="m 154.5149,-10.018326 -1.25,2.165064 1.25,2.1650635 h 2.5 l 1.25,-2.1650635 -1.25,-2.165064 h -2.5"
       id="MyLayer002_w0008" />
    <circle
       id="circle31"
       style="fill:none;stroke:#191919;stroke-width:0.34999999;stroke-miterlimit:4;stroke-dasharray:none"
       r="0.81999999"
       cy="16"
       cx="177.99989" />
    <path
       style="fill:none;fill-rule:evenodd;stroke:#191919;stroke-width:0.34999999;stroke-miterlimit:4;stroke-dasharray:none"
       d="m 187.4599,-10.018326 -1.25,2.165064 1.25,2.1650635 h 2.5 l 1.25,-2.1650635 -1.25,-2.165064 h -2.5"
       id="MyLayer002_w0010" />
    <circle
       id="circle34"
       style="fill:none;stroke:#191919;stroke-width:0.34999999;stroke-miterlimit:4;stroke-dasharray:none"
       r="0.81999999"
       cy="-18"
       cx="163.99989" />
    <title
       id="title36">MyLayer002</title>
  </g>
  <g
     transform="translate(40.909996,24.168867) scale(1,-1)"
     id="MyLayer001">
    <path
       style="fill:none;fill-rule:evenodd;stroke:#191919;stroke-width:0.34999999;stroke-miterlimit:4;stroke-dasharray:none"
       d="m 72.199948,21.758868 h 0.25 V 7.2993452 l -1.185,-2.0524802 -0.995992,-1.5500635 h -9.50202 l -0.976988,1.5500635 -1.25,2.1650635 h -2.5 l -1.25,-2.1650635 -0.976988,-1.5500635 h -4.813012 v -10 h 4.913293 l 0.876707,-1.5500635 1.25,-2.165064 h 2.5 l 1.25,2.165064 0.910134,1.5500635 h 9.721586 l 0.84328,-1.5500635 1.25,-2.165064 h 2.5 l 1.25,2.165064 0.84328,1.5500635 h 9.78344 l 0.84328,-1.5500635 1.25,-2.165064 h 2.5 l 1.25,2.165064 0.84328,1.5500635 h 9.587882 l 1.04384,-1.5500635 1.25,-2.165064 h 2.5 l 1.25,2.165064 0.97699,1.5500635 h 4.81301 v 10 h -4.87987 l -0.91013,1.5500635 -1.25,2.1650635 h -2.5 l -1.25,-2.1650635 -1.04384,-1.5500635 h -9.482443 l -0.948719,1.5500635 -1.185,2.0524802 V 21.758868 h 0.25 C 98.666637,20.681442 105.48853,18.528337 111.28156,14.60849 116.15878,11.329024 120.50418,6.1610039 120.49995,0 c -0.001,-6.3272542 -4.5562,-11.576466 -9.59898,-14.86509 -3.51312,-2.26364 -7.27917,-3.978773 -11.298164,-5.1454 -11.450831,-3.344809 -23.887175,-3.335295 -35.330416,0.03763 -6.149161,1.891625 -12.206584,4.855521 -16.544642,9.721961 -3.189839,3.5169983 -5.048248,8.5071153 -3.888601,13.2310273 1.145241,4.9380104 4.816505,8.8592507 8.90215,11.6440587 5.788485,3.909739 12.600943,6.058759 19.458651,7.134677"
       id="MyLayer001_w0000" />
    <circle
       id="circle40"
       style="stroke-width:0.35;stroke-miterlimit:4;stroke-dasharray:none;fill:none"
       stroke-width="0.35 px"
       stroke="#191919"
       r="0.82"
       cy="16.0"
       cx="95.9999479221" />
    <circle
       id="circle42"
       style="stroke-width:0.35;stroke-miterlimit:4;stroke-dasharray:none;fill:none"
       stroke-width="0.35 px"
       stroke="#191919"
       r="0.82"
       cy="16.0"
       cx="67.9999479221" />
    <circle
       id="circle44"
       style="stroke-width:0.35;stroke-miterlimit:4;stroke-dasharray:none;fill:none"
       stroke-width="0.35 px"
       stroke="#191919"
       r="0.82"
       cy="-18.0"
       cx="81.9999479221" />
    <title
       id="title46">MyLayer001</title>
  </g>
  <g
     style="fill:none;stroke:#191919;stroke-width:10.34799004;stroke-miterlimit:4;stroke-dasharray:none;stroke-opacity:1"
     transform="matrix(0.01765256,0,0,0.01765256,34.287196,2.0095378)"
     id="layer1">
    <path
       id="path4045-5"
       d="m 706.14808,504.68686 -82.195,-15.285 c -2,-0.375 -4.19,-2.255 -4.865,-4.185 l -25.195,-58.78 c -0.94,-1.815 -0.76,-4.665 0.4,-6.355 l 47.89,-69.8 c 1.145,-1.68 0.92,-4.235 -0.525,-5.68 l -59.815,-59.815 c -1.445,-1.445 -3.995,-1.68 -5.675,-0.525 l -71.025,48.74 c -1.68,1.155 -4.56,1.36 -6.385,0.46 l -56.98,-23.325 c -1.935,-0.64 -3.82,-2.805 -4.2,-4.81 l -15.825,-85.015 c -0.37,-2.005 -2.345,-3.645 -4.385,-3.645 h -84.6 c -2.035,0 -4.01,1.64 -4.38,3.645 l -15.82,85.015 c -0.38,2.005 -2.26,4.17 -4.2,4.81 l -56.985,23.325 c -1.83,0.9 -4.71,0.695 -6.385,-0.46 l -71.02,-48.74 c -1.685,-1.155 -4.24,-0.92 -5.68,0.525 l -59.82,59.815 c -1.44,1.445 -1.68,4 -0.525,5.68 l 47.895,69.8 c 1.15,1.69 1.33,4.54 0.395,6.355 l -25.2,58.78 c -0.67,1.93 -2.855,3.81 -4.865,4.185 l -82.190007,15.285 c -2.01,0.38 -3.645,2.35 -3.645,4.39 l 0.005,84.595 c 0,2.04 1.64,4.025 3.645,4.39 l 80.175007,14.92 c 2.005,0.365 4.15,2.27 4.76,4.215 l 25.03,62.525 c 0.895,1.835 0.685,4.705 -0.475,6.385 l -45.54,66.36496 c -1.15,1.68 -0.915,4.24 0.525,5.685 l 59.825,59.815 c 1.44,1.435 3.995,1.67 5.68,0.525 l 65.19,-44.745 c 1.68,-1.15 4.495,-1.24 6.25,-0.215 l 28.75,15.35 c 1.82,0.93 3.945,0.145 4.725,-1.74 l 59.28,-143.23496 c 0.785,-1.885 0,-4.29 -1.74,-5.355 l -7.195,-4.405 c -1.33,-0.81 -3.135,-2.205 -4.55,-3.485 -25.955,-16.62 -43.175,-45.695 -43.175,-78.805 0,-51.67 41.89,-93.555 93.555,-93.555 51.665,0 93.55,41.885 93.55,93.555 0,33.11 -17.215,62.185 -43.175,78.805 -1.405,1.28 -3.215,2.675 -4.54,3.485 l -7.195,4.405 c -1.73,1.065 -2.52,3.47 -1.74,5.355 l 59.275,143.23996 c 0.78,1.885 2.9,2.665 4.725,1.74 l 28.75,-15.35 c 1.76,-1.025 4.57,-0.94 6.25,0.215 l 65.195,44.745 c 1.68,1.145 4.24,0.91 5.675,-0.525 l 59.825,-59.815 c 1.445,-1.445 1.68,-4.005 0.525,-5.685 l -45.545,-66.36496 c -1.15,-1.68 -1.365,-4.55 -0.47,-6.385 l 25.03,-62.525 c 0.615,-1.945 2.745,-3.85 4.755,-4.215 l 80.175,-14.92 c 2,-0.365 3.645,-2.35 3.645,-4.39 l 0.01,-84.595 c 0.005,-2.045 -1.635,-4.015 -3.635,-4.395"
       style="fill:none;stroke:#191919;stroke-width:10.34799004;stroke-miterlimit:4;stroke-dasharray:none;stroke-opacity:1" />
  </g>
  <g
     id="g3288"
     transform="matrix(1,0,0,-1,46.39204,80.326394)">
    <path
       id="path3260"
       d="m -9.8,21.758868 c -6.857708,-1.075918 -13.670166,-3.224938 -19.458651,-7.134677 -3.702452,-2.530847 -7.034565,-5.9427259 -8.510111,-10.2597902 -1.857497,-5.09082393 -0.01811,-10.8482815 3.575045,-14.7044238 4.37287,-4.852694 10.450419,-7.801759 16.618588,-9.67879 11.401829,-3.324912 23.7779126,-3.322782 35.177987,0.0083 4.018995,1.166627 7.785049,2.88176 11.298163,5.1454 C 33.943799,-11.576466 38.499001,-6.3272542 38.5,0 38.504234,6.1610039 34.158831,11.329024 29.281607,14.60849 23.488584,18.528337 16.66669,20.681442 9.8,21.758868 H -9.8"
       style="fill:none;fill-rule:evenodd;stroke:#191919;stroke-width:0.34999999;stroke-miterlimit:4;stroke-dasharray:none" />
    <path
       id="path3262"
       d="M 33,-2.6881985 V 0.08180147 H -33 V -2.6881985 h 66"
       style="fill:none;fill-rule:evenodd;stroke:#191919;stroke-width:0.34999999;stroke-miterlimit:4;stroke-dasharray:none" />
    <circle
       cx="0"
       cy="-18"
       r="0.81999999"
       style="fill:none;stroke:#191919;stroke-width:0.34999999;stroke-miterlimit:4;stroke-dasharray:none"
       id="circle3264" />
    <path
       id="path3266"
       d="M 9.485,7.4119285 10.735,5.246865 9.485,3.0818015 h -2.5 l -1.25,2.1650635 1.25,2.1650635 h 2.5"
       style="fill:none;fill-rule:evenodd;stroke:#191919;stroke-width:0.34999999;stroke-miterlimit:4;stroke-dasharray:none" />
    <path
       id="path3268"
       d="m -9.485,-10.018326 -1.25,2.165064 1.25,2.1650635 h 2.5 l 1.25,-2.1650635 -1.25,-2.165064 h -2.5"
       style="fill:none;fill-rule:evenodd;stroke:#191919;stroke-width:0.34999999;stroke-miterlimit:4;stroke-dasharray:none" />
    <path
       id="path3270"
       d="m -25.96,-10.018326 -1.25,2.165064 1.25,2.1650635 h 2.5 l 1.25,-2.1650635 -1.25,-2.165064 h -2.5"
       style="fill:none;fill-rule:evenodd;stroke:#191919;stroke-width:0.34999999;stroke-miterlimit:4;stroke-dasharray:none" />
    <circle
       cx="14"
       cy="16"
       r="0.81999999"
       style="fill:none;stroke:#191919;stroke-width:0.34999999;stroke-miterlimit:4;stroke-dasharray:none"
       id="circle3272" />
    <path
       id="path3274"
       d="m -23.46,7.4119285 1.25,-2.1650635 -1.25,-2.1650635 h -2.5 l -1.25,2.1650635 1.25,2.1650635 h 2.5"
       style="fill:none;fill-rule:evenodd;stroke:#191919;stroke-width:0.34999999;stroke-miterlimit:4;stroke-dasharray:none" />
    <path
       id="path3276"
       d="M 25.96,7.4119285 27.21,5.246865 25.96,3.0818015 h -2.5 l -1.25,2.1650635 1.25,2.1650635 h 2.5"
       style="fill:none;fill-rule:evenodd;stroke:#191919;stroke-width:0.34999999;stroke-miterlimit:4;stroke-dasharray:none" />
    <path
       id="path3278"
       d="m -9.485,3.0818015 -1.25,2.1650635 1.25,2.1650635 2.5,0 1.25,-2.1650635 -1.25,-2.1650635 h -2.5"
       style="fill:none;fill-rule:evenodd;stroke:#191919;stroke-width:0.34999999;stroke-miterlimit:4;stroke-dasharray:none" />
    <path
       id="path3280"
       d="m 6.985,-10.018326 -1.25,2.165064 1.25,2.1650635 h 2.5 l 1.25,-2.1650635 -1.25,-2.165064 h -2.5"
       style="fill:none;fill-rule:evenodd;stroke:#191919;stroke-width:0.34999999;stroke-miterlimit:4;stroke-dasharray:none" />
    <circle
       cx="-14"
       cy="16"
       r="0.81999999"
       style="fill:none;stroke:#191919;stroke-width:0.34999999;stroke-miterlimit:4;stroke-dasharray:none"
       id="circle3282" />
    <path
       id="path3284"
       d="m 23.46,-10.018326 -1.25,2.165064 1.25,2.1650635 h 2.5 l 1.25,-2.1650635 -1.25,-2.165064 h -2.5"
       style="fill:none;fill-rule:evenodd;stroke:#191919;stroke-width:0.34999999;stroke-miterlimit:4;stroke-dasharray:none" />
    <title
       id="title3286">MyLayer</title>
  </g>
  <g
     id="g3316"
     transform="matrix(1,0,0,-1,-117.60558,80.326294)">
    <path
       id="path3290"
       d="m 154.1999,21.758868 h 19.6 c 6.86669,-1.077426 13.68858,-3.230531 19.4816,-7.150378 4.87723,-3.279466 9.22263,-8.4474861 9.2184,-14.60849 -0.001,-6.3272542 -4.55621,-11.576466 -9.59898,-14.86509 -3.51312,-2.26364 -7.27917,-3.978773 -11.29817,-5.1454 -11.45083,-3.344809 -23.88717,-3.335295 -35.33041,0.03763 -6.14916,1.891625 -12.20659,4.855521 -16.54464,9.721961 -3.18984,3.5169983 -5.04825,8.5071153 -3.88861,13.2310273 1.14525,4.9380104 4.81651,8.8592507 8.90216,11.6440587 5.78848,3.909739 12.60094,6.058759 19.45865,7.134677"
       style="fill:none;fill-rule:evenodd;stroke:#191919;stroke-width:0.34999999;stroke-miterlimit:4;stroke-dasharray:none" />
    <path
       id="path3292"
       d="m 173.4849,7.4119285 1.25,-2.1650635 -1.25,-2.1650635 h -2.5 l -1.25,2.1650635 1.25,2.1650635 h 2.5"
       style="fill:none;fill-rule:evenodd;stroke:#191919;stroke-width:0.34999999;stroke-miterlimit:4;stroke-dasharray:none" />
    <path
       id="path3294"
       d="m 189.9599,7.4119285 1.25,-2.1650635 -1.25,-2.1650635 h -2.5 l -1.25,2.1650635 1.25,2.1650635 h 2.5"
       style="fill:none;fill-rule:evenodd;stroke:#191919;stroke-width:0.34999999;stroke-miterlimit:4;stroke-dasharray:none" />
    <circle
       cx="149.99989"
       cy="16"
       r="0.81999999"
       style="fill:none;stroke:#191919;stroke-width:0.34999999;stroke-miterlimit:4;stroke-dasharray:none"
       id="circle3296" />
    <path
       id="path3298"
       d="m 154.5149,3.0818015 -1.25,2.1650635 1.25,2.1650635 h 2.5 l 1.25,-2.1650635 -1.25,-2.1650635 h -2.5"
       style="fill:none;fill-rule:evenodd;stroke:#191919;stroke-width:0.34999999;stroke-miterlimit:4;stroke-dasharray:none" />
    <path
       id="path3300"
       d="m 140.5399,7.4119285 1.25,-2.1650635 -1.25,-2.1650635 h -2.5 l -1.25,2.1650635 1.25,2.1650635 h 2.5"
       style="fill:none;fill-rule:evenodd;stroke:#191919;stroke-width:0.34999999;stroke-miterlimit:4;stroke-dasharray:none" />
    <path
       id="path3302"
       d="m 170.9849,-10.018326 -1.25,2.165064 1.25,2.1650635 h 2.5 l 1.25,-2.1650635 -1.25,-2.165064 h -2.5"
       style="fill:none;fill-rule:evenodd;stroke:#191919;stroke-width:0.34999999;stroke-miterlimit:4;stroke-dasharray:none" />
    <path
       id="path3304"
       d="m 138.0399,-10.018326 -1.25,2.165064 1.25,2.1650635 h 2.5 l 1.25,-2.1650635 -1.25,-2.165064 h -2.5"
       style="fill:none;fill-rule:evenodd;stroke:#191919;stroke-width:0.34999999;stroke-miterlimit:4;stroke-dasharray:none" />
    <path
       id="path3306"
       d="m 154.5149,-10.018326 -1.25,2.165064 1.25,2.1650635 h 2.5 l 1.25,-2.1650635 -1.25,-2.165064 h -2.5"
       style="fill:none;fill-rule:evenodd;stroke:#191919;stroke-width:0.34999999;stroke-miterlimit:4;stroke-dasharray:none" />
    <circle
       cx="177.99989"
       cy="16"
       r="0.81999999"
       style="fill:none;stroke:#191919;stroke-width:0.34999999;stroke-miterlimit:4;stroke-dasharray:none"
       id="circle3308" />
    <path
       id="path3310"
       d="m 187.4599,-10.018326 -1.25,2.165064 1.25,2.1650635 h 2.5 l 1.25,-2.1650635 -1.25,-2.165064 h -2.5"
       style="fill:none;fill-rule:evenodd;stroke:#191919;stroke-width:0.34999999;stroke-miterlimit:4;stroke-dasharray:none" />
    <circle
       cx="163.99989"
       cy="-18"
       r="0.81999999"
       style="fill:none;stroke:#191919;stroke-width:0.34999999;stroke-miterlimit:4;stroke-dasharray:none"
       id="circle3312" />
    <title
       id="title3314">MyLayer002</title>
  </g>
  <g
     id="g3320"
     transform="matrix(0.01765256,0,0,0.01765256,39.76924,58.167065)"
     style="fill:none;stroke:#191919;stroke-width:10.34799004;stroke-miterlimit:4;stroke-dasharray:none;stroke-opacity:1">
    <path
       style="fill:none;stroke:#191919;stroke-width:10.34799004;stroke-miterlimit:4;stroke-dasharray:none;stroke-opacity:1"
       d="m 706.14808,504.68686 -82.195,-15.285 c -2,-0.375 -4.19,-2.255 -4.865,-4.185 l -25.195,-58.78 c -0.94,-1.815 -0.76,-4.665 0.4,-6.355 l 47.89,-69.8 c 1.145,-1.68 0.92,-4.235 -0.525,-5.68 l -59.815,-59.815 c -1.445,-1.445 -3.995,-1.68 -5.675,-0.525 l -71.025,48.74 c -1.68,1.155 -4.56,1.36 -6.385,0.46 l -56.98,-23.325 c -1.935,-0.64 -3.82,-2.805 -4.2,-4.81 l -15.825,-85.015 c -0.37,-2.005 -2.345,-3.645 -4.385,-3.645 h -84.6 c -2.035,0 -4.01,1.64 -4.38,3.645 l -15.82,85.015 c -0.38,2.005 -2.26,4.17 -4.2,4.81 l -56.985,23.325 c -1.83,0.9 -4.71,0.695 -6.385,-0.46 l -71.02,-48.74 c -1.685,-1.155 -4.24,-0.92 -5.68,0.525 l -59.82,59.815 c -1.44,1.445 -1.68,4 -0.525,5.68 l 47.895,69.8 c 1.15,1.69 1.33,4.54 0.395,6.355 l -25.2,58.78 c -0.67,1.93 -2.855,3.81 -4.865,4.185 l -82.190007,15.285 c -2.01,0.38 -3.645,2.35 -3.645,4.39 l 0.005,84.595 c 0,2.04 1.64,4.025 3.645,4.39 l 80.175007,14.92 c 2.005,0.365 4.15,2.27 4.76,4.215 l 25.03,62.525 c 0.895,1.835 0.685,4.705 -0.475,6.385 l -45.54,66.36496 c -1.15,1.68 -0.915,4.24 0.525,5.685 l 59.825,59.815 c 1.44,1.435 3.995,1.67 5.68,0.525 l 65.19,-44.745 c 1.68,-1.15 4.495,-1.24 6.25,-0.215 l 28.75,15.35 c 1.82,0.93 3.945,0.145 4.725,-1.74 l 59.28,-143.23496 c 0.785,-1.885 0,-4.29 -1.74,-5.355 l -7.195,-4.405 c -1.33,-0.81 -3.135,-2.205 -4.55,-3.485 -25.955,-16.62 -43.175,-45.695 -43.175,-78.805 0,-51.67 41.89,-93.555 93.555,-93.555 51.665,0 93.55,41.885 93.55,93.555 0,33.11 -17.215,62.185 -43.175,78.805 -1.405,1.28 -3.215,2.675 -4.54,3.485 l -7.195,4.405 c -1.73,1.065 -2.52,3.47 -1.74,5.355 l 59.275,143.23996 c 0.78,1.885 2.9,2.665 4.725,1.74 l 28.75,-15.35 c 1.76,-1.025 4.57,-0.94 6.25,0.215 l 65.195,44.745 c 1.68,1.145 4.24,0.91 5.675,-0.525 l 59.825,-59.815 c 1.445,-1.445 1.68,-4.005 0.525,-5.685 l -45.545,-66.36496 c -1.15,-1.68 -1.365,-4.55 -0.47,-6.385 l 25.03,-62.525 c 0.615,-1.945 2.745,-3.85 4.755,-4.215 l 80.175,-14.92 c 2,-0.365 3.645,-2.35 3.645,-4.39 l 0.01,-84.595 c 0.005,-2.045 -1.635,-4.015 -3.635,-4.395"
       id="path3318" />
  </g>
</svg>
