<?xml version="1.0"?>
<!DOCTYPE svg PUBLIC "-//W3C//DTD SVG 1.1//EN" "http://www.w3.org/Graphics/SVG/1.1/DTD/svg11.dtd">
<svg width="245.819890921mm" height="49.0785192312mm" viewBox="0 0 245.819890921 49.0785192312" xmlns="http://www.w3.org/2000/svg" version="1.1">
<g id="MyLayer" transform="translate(40.909996,24.168867) scale(1,-1)">
<path id="MyLayer_w0000"  d="M -9.8 21.7588682405 C -16.6577080237 20.6829498301 -23.4701663737 18.533930199 -29.2586505875 14.6241912633 C -32.9611031407 12.093343573 -36.293216066 8.68146506417 -37.768761602 4.36440083516 C -39.6262590884 -0.726423131127 -37.7868678809 -6.48388074622 -34.1937169789 -10.3400231536 C -29.8208466587 -15.1927167531 -23.7432983954 -18.1417824595 -17.5751291491 -20.018813009 C -6.1733000151 -23.3437253345 6.2027835701 -23.3415954287 17.602857919 -20.0104902536 C 21.6218526682 -18.8438633768 25.3879070225 -17.1287300096 28.9010209817 -14.8650901519 C 33.9437989248 -11.5764656586 38.499001094 -6.32725421621 38.5 0.0 C 38.5042337646 6.161003909 34.1588306803 11.3290244844 29.2816071594 14.6084899278 C 23.4885839501 18.5283366214 16.666689513 20.6814423691 9.8 21.7588682405 L -9.8 21.7588682405 " stroke="#191919" stroke-width="0.35 px" style="stroke-width:0.35;stroke-miterlimit:4;stroke-dasharray:none;fill:none;fill-rule: evenodd "/>
<path id="MyLayer_w0001"  d="M 33.0 -2.68819852646 L 33.0 0.0818014735402 L -33.0 0.0818014735402 L -33.0 -2.68819852646 L 33.0 -2.68819852646 " stroke="#191919" stroke-width="0.35 px" style="stroke-width:0.35;stroke-miterlimit:4;stroke-dasharray:none;fill:none;fill-rule: evenodd "/>
<circle cx="0.0" cy="-18.0" r="0.82" stroke="#191919" stroke-width="0.35 px" style="stroke-width:0.35;stroke-miterlimit:4;stroke-dasharray:none;fill:none"/>
<path id="MyLayer_w0003"  d="M 9.485 7.41192849247 L 10.735 5.246864983 L 9.485 3.08180147354 L 6.985 3.08180147354 L 5.735 5.246864983 L 6.985 7.41192849247 L 9.485 7.41192849247 " stroke="#191919" stroke-width="0.35 px" style="stroke-width:0.35;stroke-miterlimit:4;stroke-dasharray:none;fill:none;fill-rule: evenodd "/>
<path id="MyLayer_w0004"  d="M -9.485 -10.0183255454 L -10.735 -7.85326203592 L -9.485 -5.68819852646 L -6.985 -5.68819852646 L -5.735 -7.85326203592 L -6.985 -10.0183255454 L -9.485 -10.0183255454 " stroke="#191919" stroke-width="0.35 px" style="stroke-width:0.35;stroke-miterlimit:4;stroke-dasharray:none;fill:none;fill-rule: evenodd "/>
<path id="MyLayer_w0005"  d="M -25.96 -10.0183255454 L -27.21 -7.85326203592 L -25.96 -5.68819852646 L -23.46 -5.68819852646 L -22.21 -7.85326203592 L -23.46 -10.0183255454 L -25.96 -10.0183255454 " stroke="#191919" stroke-width="0.35 px" style="stroke-width:0.35;stroke-miterlimit:4;stroke-dasharray:none;fill:none;fill-rule: evenodd "/>
<circle cx="14.0" cy="16.0" r="0.82" stroke="#191919" stroke-width="0.35 px" style="stroke-width:0.35;stroke-miterlimit:4;stroke-dasharray:none;fill:none"/>
<path id="MyLayer_w0007"  d="M -23.46 7.41192849246 L -22.21 5.246864983 L -23.46 3.08180147354 L -25.96 3.08180147354 L -27.21 5.246864983 L -25.96 7.41192849246 L -23.46 7.41192849246 " stroke="#191919" stroke-width="0.35 px" style="stroke-width:0.35;stroke-miterlimit:4;stroke-dasharray:none;fill:none;fill-rule: evenodd "/>
<path id="MyLayer_w0008"  d="M 25.96 7.41192849246 L 27.21 5.246864983 L 25.96 3.08180147354 L 23.46 3.08180147354 L 22.21 5.246864983 L 23.46 7.41192849246 L 25.96 7.41192849246 " stroke="#191919" stroke-width="0.35 px" style="stroke-width:0.35;stroke-miterlimit:4;stroke-dasharray:none;fill:none;fill-rule: evenodd "/>
<path id="MyLayer_w0009"  d="M -9.48499999999 3.08180147354 L -10.735 5.246864983 L -9.48500000001 7.41192849249 L -6.98499999999 7.41192849248 L -5.73499999999 5.246864983 L -6.98499999999 3.08180147354 L -9.48499999999 3.08180147354 " stroke="#191919" stroke-width="0.35 px" style="stroke-width:0.35;stroke-miterlimit:4;stroke-dasharray:none;fill:none;fill-rule: evenodd "/>
<path id="MyLayer_w0010"  d="M 6.985 -10.0183255454 L 5.735 -7.85326203592 L 6.985 -5.68819852646 L 9.485 -5.68819852646 L 10.735 -7.85326203592 L 9.485 -10.0183255454 L 6.985 -10.0183255454 " stroke="#191919" stroke-width="0.35 px" style="stroke-width:0.35;stroke-miterlimit:4;stroke-dasharray:none;fill:none;fill-rule: evenodd "/>
<circle cx="-14.0" cy="16.0" r="0.82" stroke="#191919" stroke-width="0.35 px" style="stroke-width:0.35;stroke-miterlimit:4;stroke-dasharray:none;fill:none"/>
<path id="MyLayer_w0012"  d="M 23.46 -10.0183255454 L 22.21 -7.85326203592 L 23.46 -5.68819852646 L 25.96 -5.68819852646 L 27.21 -7.85326203592 L 25.96 -10.0183255454 L 23.46 -10.0183255454 " stroke="#191919" stroke-width="0.35 px" style="stroke-width:0.35;stroke-miterlimit:4;stroke-dasharray:none;fill:none;fill-rule: evenodd "/>
<title>MyLayer</title>
</g>
<g id="MyLayer002" transform="translate(40.909996,24.168867) scale(1,-1)">
<path id="MyLayer002_w0000"  d="M 154.199895844 21.7588682405 L 173.799895844 21.7588682405 C 180.666585357 20.6814423691 187.488479794 18.5283366214 193.281503004 14.6084899278 C 198.158726524 11.3290244844 202.504129609 6.16100390901 202.499895844 -3.5527136788e-15 C 202.498896938 -6.32725421619 197.943694769 -11.5764656586 192.900916826 -14.8650901519 C 189.387802867 -17.1287300096 185.621748512 -18.8438633768 181.602753763 -20.0104902536 C 170.151922848 -23.355299305 157.71557936 -23.3457854576 146.272337808 -19.9728562823 C 140.123176638 -18.0812310634 134.065753465 -15.1173346315 129.727696252 -10.2508948273 C 126.537856759 -6.73389666108 124.679447903 -1.74377972401 125.839094519 2.98013226314 C 126.984335651 7.91814265485 130.655600129 11.8393832431 134.741245257 14.6241912632 C 140.52972947 18.533930199 147.342187821 20.6829498301 154.199895844 21.7588682405 " stroke="#191919" stroke-width="0.35 px" style="stroke-width:0.35;stroke-miterlimit:4;stroke-dasharray:none;fill:none;fill-rule: evenodd "/>
<path id="MyLayer002_w0001"  d="M 173.484895844 7.41192849247 L 174.734895844 5.246864983 L 173.484895844 3.08180147354 L 170.984895844 3.08180147354 L 169.734895844 5.246864983 L 170.984895844 7.41192849247 L 173.484895844 7.41192849247 " stroke="#191919" stroke-width="0.35 px" style="stroke-width:0.35;stroke-miterlimit:4;stroke-dasharray:none;fill:none;fill-rule: evenodd "/>
<path id="MyLayer002_w0002"  d="M 189.959895844 7.41192849246 L 191.209895844 5.246864983 L 189.959895844 3.08180147354 L 187.459895844 3.08180147354 L 186.209895844 5.246864983 L 187.459895844 7.41192849246 L 189.959895844 7.41192849246 " stroke="#191919" stroke-width="0.35 px" style="stroke-width:0.35;stroke-miterlimit:4;stroke-dasharray:none;fill:none;fill-rule: evenodd "/>
<circle cx="149.999895844" cy="16.0" r="0.82" stroke="#191919" stroke-width="0.35 px" style="stroke-width:0.35;stroke-miterlimit:4;stroke-dasharray:none;fill:none"/>
<path id="MyLayer002_w0004"  d="M 154.514895844 3.08180147354 L 153.264895844 5.246864983 L 154.514895844 7.41192849249 L 157.014895844 7.41192849248 L 158.264895844 5.246864983 L 157.014895844 3.08180147354 L 154.514895844 3.08180147354 " stroke="#191919" stroke-width="0.35 px" style="stroke-width:0.35;stroke-miterlimit:4;stroke-dasharray:none;fill:none;fill-rule: evenodd "/>
<path id="MyLayer002_w0005"  d="M 140.539895844 7.41192849246 L 141.789895844 5.246864983 L 140.539895844 3.08180147354 L 138.039895844 3.08180147354 L 136.789895844 5.246864983 L 138.039895844 7.41192849246 L 140.539895844 7.41192849246 " stroke="#191919" stroke-width="0.35 px" style="stroke-width:0.35;stroke-miterlimit:4;stroke-dasharray:none;fill:none;fill-rule: evenodd "/>
<path id="MyLayer002_w0006"  d="M 170.984895844 -10.0183255454 L 169.734895844 -7.85326203592 L 170.984895844 -5.68819852646 L 173.484895844 -5.68819852646 L 174.734895844 -7.85326203592 L 173.484895844 -10.0183255454 L 170.984895844 -10.0183255454 " stroke="#191919" stroke-width="0.35 px" style="stroke-width:0.35;stroke-miterlimit:4;stroke-dasharray:none;fill:none;fill-rule: evenodd "/>
<path id="MyLayer002_w0007"  d="M 138.039895844 -10.0183255454 L 136.789895844 -7.85326203592 L 138.039895844 -5.68819852646 L 140.539895844 -5.68819852646 L 141.789895844 -7.85326203592 L 140.539895844 -10.0183255454 L 138.039895844 -10.0183255454 " stroke="#191919" stroke-width="0.35 px" style="stroke-width:0.35;stroke-miterlimit:4;stroke-dasharray:none;fill:none;fill-rule: evenodd "/>
<path id="MyLayer002_w0008"  d="M 154.514895844 -10.0183255454 L 153.264895844 -7.85326203592 L 154.514895844 -5.68819852646 L 157.014895844 -5.68819852646 L 158.264895844 -7.85326203592 L 157.014895844 -10.0183255454 L 154.514895844 -10.0183255454 " stroke="#191919" stroke-width="0.35 px" style="stroke-width:0.35;stroke-miterlimit:4;stroke-dasharray:none;fill:none;fill-rule: evenodd "/>
<circle cx="177.999895844" cy="16.0" r="0.82" stroke="#191919" stroke-width="0.35 px" style="stroke-width:0.35;stroke-miterlimit:4;stroke-dasharray:none;fill:none"/>
<path id="MyLayer002_w0010"  d="M 187.459895844 -10.0183255454 L 186.209895844 -7.85326203592 L 187.459895844 -5.68819852646 L 189.959895844 -5.68819852646 L 191.209895844 -7.85326203592 L 189.959895844 -10.0183255454 L 187.459895844 -10.0183255454 " stroke="#191919" stroke-width="0.35 px" style="stroke-width:0.35;stroke-miterlimit:4;stroke-dasharray:none;fill:none;fill-rule: evenodd "/>
<circle cx="163.999895844" cy="-18.0" r="0.82" stroke="#191919" stroke-width="0.35 px" style="stroke-width:0.35;stroke-miterlimit:4;stroke-dasharray:none;fill:none"/>
<title>MyLayer002</title>
</g>
<g id="MyLayer001" transform="translate(40.909996,24.168867) scale(1,-1)">
<path id="MyLayer001_w0000"  d="M 72.1999479221 21.7588682405 L 72.4499479221 21.7588682405 L 72.4499479221 7.29934519002 L 71.2649479221 5.246864983 L 72.1598775065 3.69680147356 L 58.8950183377 3.69680147356 L 59.7899479221 5.246864983 L 58.5399479221 7.41192849246 L 56.0399479221 7.41192849246 L 54.7899479221 5.246864983 L 55.6848775065 3.69680147356 L 48.9999479221 3.69680147356 L 48.9999479221 -6.30319852644 L 55.6848775066 -6.30319852644 L 54.7899479221 -7.85326203592 L 56.0399479221 -10.0183255454 L 58.5399479221 -10.0183255454 L 59.7899479221 -7.85326203592 L 58.8950183376 -6.30319852644 L 72.1598775066 -6.30319852644 L 71.2649479221 -7.85326203592 L 72.5149479221 -10.0183255454 L 75.0149479221 -10.0183255454 L 76.2649479221 -7.85326203592 L 75.3700183376 -6.30319852644 L 88.6298775066 -6.30319852644 L 87.7349479221 -7.85326203592 L 88.9849479221 -10.0183255454 L 91.4849479221 -10.0183255454 L 92.7349479221 -7.85326203592 L 91.8400183376 -6.30319852644 L 105.104877507 -6.30319852644 L 104.209947922 -7.85326203592 L 105.459947922 -10.0183255454 L 107.959947922 -10.0183255454 L 109.209947922 -7.85326203592 L 108.315018338 -6.30319852644 L 114.999947922 -6.30319852644 L 114.999947922 3.69680147356 L 108.315018338 3.69680147356 L 109.209947922 5.246864983 L 107.959947922 7.41192849246 L 105.459947922 7.41192849246 L 104.209947922 5.246864983 L 105.104877507 3.69680147356 L 91.8400183377 3.69680147356 L 92.7349479221 5.246864983 L 91.5499479221 7.29934518999 L 91.5499479221 21.7588682405 L 91.7999479221 21.7588682405 C 98.6666374351 20.6814423691 105.488531872 18.5283366214 111.281555081 14.6084899278 C 116.158778602 11.3290244844 120.504181687 6.161003909 120.499947922 -7.1054273576e-15 C 120.498949016 -6.32725421621 115.943746847 -11.5764656586 110.900968904 -14.8650901519 C 107.387854945 -17.1287300096 103.62180059 -18.8438633768 99.6028058411 -20.0104902536 C 88.1519749259 -23.355299305 75.7156314379 -23.3457854576 64.2723898856 -19.9728562823 C 58.1232287161 -18.0812310634 52.0658055434 -15.1173346315 47.7277483298 -10.2508948273 C 44.5379088368 -6.73389666109 42.6794999812 -1.74377972402 43.8391465967 2.98013226314 C 44.9843877284 7.91814265485 48.6556522073 11.8393832431 52.7412973346 14.6241912632 C 58.5297815484 18.533930199 65.3422398984 20.6829498301 72.1999479221 21.7588682405 " stroke="#191919" stroke-width="0.35 px" style="stroke-width:0.35;stroke-miterlimit:4;stroke-dasharray:none;fill:none;fill-rule: evenodd "/>
<circle cx="95.9999479221" cy="16.0" r="0.82" stroke="#191919" stroke-width="0.35 px" style="stroke-width:0.35;stroke-miterlimit:4;stroke-dasharray:none;fill:none"/>
<circle cx="67.9999479221" cy="16.0" r="0.82" stroke="#191919" stroke-width="0.35 px" style="stroke-width:0.35;stroke-miterlimit:4;stroke-dasharray:none;fill:none"/>
<circle cx="81.9999479221" cy="-18.0" r="0.82" stroke="#191919" stroke-width="0.35 px" style="stroke-width:0.35;stroke-miterlimit:4;stroke-dasharray:none;fill:none"/>
<title>MyLayer001</title>
</g>
</svg>